<svg width="31" height="30" viewBox="0 0 31 30" fill="none" xmlns="http://www.w3.org/2000/svg">
<g clip-path="url(#clip0)">
<g clip-path="url(#clip1)">
<path d="M29.4351 10.3896C29.3522 10.3536 27.3321 9.4785 15.3718 4.29555C15.1339 4.19242 14.8644 4.19242 14.6265 4.29555L0.563236 10.3896C-0.191374 10.7159 -0.184108 11.7871 0.563236 12.11C3.29526 13.2937 7.76157 15.2294 14.6265 18.2041C14.863 18.3066 15.1325 18.3079 15.3718 18.2041C16.0237 17.9216 24.9062 14.0725 25.3122 13.8966V23.8804C25.3122 24.3854 25.7005 24.8198 26.2049 24.8432C26.7433 24.8683 27.1873 24.4396 27.1873 23.9067V13.5566C27.1873 13.4093 27.0782 13.2849 26.932 13.2661C25.1723 13.0393 16.8733 11.9682 14.879 11.711C14.3022 11.6389 13.9428 11.0548 14.0944 10.5349C14.2134 10.0959 14.6302 9.81619 15.0525 9.84525C15.0945 9.84772 28.4553 11.5719 28.4458 11.5706C28.6954 11.6028 28.9006 11.7626 28.9992 11.9794C29.0681 12.1309 29.2435 12.2003 29.3942 12.1297C29.6465 12.0114 29.8653 11.8558 29.9648 11.5035C30.0929 11.0471 29.8614 10.574 29.4351 10.3896V10.3896Z" fill="#808080"/>
<path d="M13.8805 19.9245L6.03313 16.524C5.83965 16.4401 5.62366 16.582 5.62366 16.7928V20.1565C5.62366 23.3108 9.74184 25.7818 14.9992 25.7818C20.2565 25.7818 24.3746 23.3108 24.3746 20.1565V16.7928C24.3746 16.582 24.1587 16.4402 23.9652 16.524L16.1172 19.9245C15.4046 20.2342 14.5938 20.234 13.8805 19.9245Z" fill="#808080"/>
</g>
</g>
<defs>
<clipPath id="clip0">
<rect width="30.0004" height="30" fill="white" transform="translate(0.00469971)"/>
</clipPath>
<clipPath id="clip1">
<rect width="30" height="30" fill="white"/>
</clipPath>
</defs>
</svg>
