<svg width="31" height="30" viewBox="0 0 31 30" fill="none" xmlns="http://www.w3.org/2000/svg">
<g clip-path="url(#clip0)">
<g clip-path="url(#clip1)">
<path d="M16.3077 10.1491L20.0136 13.5044L21.367 12.009C22.8787 12.3806 24.5527 11.9885 25.7535 10.7876C26.6074 9.93374 27.5184 8.34562 28.0203 6.83595C28.6979 4.79771 28.5752 3.23947 27.6653 2.32968C26.7555 1.41978 25.1972 1.29697 23.159 1.9746C21.6493 2.47652 20.0612 3.38748 19.2073 4.24142C18.0305 5.41816 17.6059 7.08322 17.9862 8.62898L16.3077 10.1491Z" fill="#808080"/>
<path d="M9.85974 15.9882L1.18716 23.8423C0.463938 24.4825 0.0319847 25.4029 0.0017503 26.3685C-0.0602419 28.3507 1.53239 30 3.52288 30C4.50093 30 5.47575 29.5833 6.15755 28.8131L13.8132 20.3548L9.85974 15.9882Z" fill="#808080"/>
<path d="M29.9986 26.3686C29.9683 25.403 29.5364 24.4826 28.8132 23.8425C27.9292 23.0421 12.4854 9.0591 12.0719 8.68474C12.4797 7.20824 12.1056 5.55918 10.9473 4.4009C10.5545 4.00814 7.21399 0.667539 6.80412 0.257676C6.46088 -0.0855664 5.90442 -0.0855664 5.56118 0.257676C5.21793 0.600859 5.21793 1.15738 5.56118 1.50062L7.9228 3.8623L6.51409 5.27101L4.15241 2.90928C3.80922 2.56598 3.25276 2.56609 2.90946 2.90928C2.56622 3.25246 2.56622 3.80898 2.90946 4.15223L5.27108 6.51385L3.86237 7.92256L1.50075 5.56094C1.15756 5.21775 0.60104 5.21775 0.257798 5.56094C-0.0854443 5.90412 -0.0854443 6.46064 0.257798 6.80388C4.11719 10.6633 0.427368 6.9734 4.40096 10.9471C5.53012 12.0763 7.16366 12.4919 8.68481 12.0718C33.3074 39.2667 15.0112 19.0589 23.8425 28.8129C24.4827 29.5362 25.4032 29.9682 26.3688 29.9984C28.3964 30.0624 30.062 28.3968 29.9986 26.3686V26.3686Z" fill="#808080"/>
</g>
</g>
<defs>
<clipPath id="clip0">
<rect width="30.0004" height="30" fill="white" transform="translate(0.00384521)"/>
</clipPath>
<clipPath id="clip1">
<rect width="30" height="30" fill="white"/>
</clipPath>
</defs>
</svg>
