<svg width="30" height="30" viewBox="0 0 30 30" fill="none" xmlns="http://www.w3.org/2000/svg">
<g clip-path="url(#clip0)">
<path d="M29.4841 14.6325L26.3668 9.22855C26.0527 8.68439 25.1583 8.68439 24.8442 9.22855L21.7088 14.6651C21.3834 15.2891 21.2109 15.9928 21.2109 16.6993C21.2109 19.1223 23.1824 21.0938 25.6055 21.0938C28.0285 21.0938 30 19.1223 30 16.6993C30 15.9928 29.8275 15.2891 29.4841 14.6325Z" fill="#808080"/>
<path d="M16.8056 6.77379L14.32 4.28812C13.8221 3.79031 13.1596 3.51562 12.4557 3.51562C5.58756 3.51562 0 9.10318 0 15.9714V21.9727C0 23.4266 1.18277 24.6094 2.63672 24.6094H6.15234C7.29668 24.6094 8.26312 23.8724 8.62717 22.8516H13.1836C15.6066 22.8516 17.5781 20.8801 17.5781 18.457V8.63801C17.5781 7.93418 17.3034 7.2716 16.8056 6.77379ZM9.66797 7.03125H11.4258C11.9116 7.03125 12.3047 7.42436 12.3047 7.91016C12.3047 8.39596 11.9116 8.78906 11.4258 8.78906H9.66797C9.18217 8.78906 8.78906 8.39596 8.78906 7.91016C8.78906 7.42436 9.18217 7.03125 9.66797 7.03125ZM9.66797 10.5469H11.4258C11.9116 10.5469 12.3047 10.94 12.3047 11.4258C12.3047 11.9116 11.9116 12.3047 11.4258 12.3047H9.66797C9.18217 12.3047 8.78906 11.9116 8.78906 11.4258C8.78906 10.94 9.18217 10.5469 9.66797 10.5469ZM15.8203 18.457C15.8203 19.911 14.6375 21.0938 13.1836 21.0938H8.78906V15.8203H10.5469V16.6992C10.5469 18.1532 11.7296 19.3359 13.1836 19.3359C13.6694 19.3359 14.0625 18.9428 14.0625 18.457C14.0625 17.9712 13.6694 17.5781 13.1836 17.5781C12.6987 17.5781 12.3047 17.1841 12.3047 16.6992V15.8203H15.8203V18.457Z" fill="#808080"/>
<path d="M1.75781 26.3672V29.1211C1.75781 29.6069 2.15092 30 2.63672 30H6.15234C6.63814 30 7.03125 29.6069 7.03125 29.1211V26.3672H1.75781Z" fill="#808080"/>
<path d="M25.6055 0H18.457C17.7532 0 17.0906 0.274687 16.5928 0.7725L14.8787 2.48666C15.122 2.64826 15.3516 2.83406 15.5629 3.04529L18.0485 5.53096C18.2597 5.74219 18.4456 5.97182 18.6071 6.21516L19.5488 5.27344H25.6055C26.0913 5.27344 26.4844 4.88033 26.4844 4.39453V0.878906C26.4844 0.393105 26.0913 0 25.6055 0Z" fill="#808080"/>
</g>
<defs>
<clipPath id="clip0">
<rect width="30.0004" height="30" fill="white" transform="translate(0.000427246)"/>
</clipPath>
</defs>
</svg>
