<svg width="31" height="30" viewBox="0 0 31 30" fill="none" xmlns="http://www.w3.org/2000/svg">
<g clip-path="url(#clip0)">
<g clip-path="url(#clip1)">
<path d="M9.69624 7.50003C9.43374 7.50003 9.17374 7.39128 8.98749 7.17753C8.64874 6.78628 8.68999 6.19378 9.08124 5.85503C9.29124 5.67253 9.39374 5.44378 9.37124 5.20878C9.34874 4.95503 9.17749 4.71878 8.90624 4.56128C8.10124 4.09628 7.59374 3.33378 7.51124 2.46878C7.43124 1.62753 7.76874 0.811279 8.43874 0.230029C8.82999 -0.111221 9.42124 -0.0699707 9.76249 0.322529C10.1012 0.713779 10.06 1.30628 9.66874 1.64503C9.45874 1.82753 9.35624 2.05628 9.37874 2.29128C9.40249 2.54503 9.57249 2.78128 9.84499 2.93878C10.6487 3.40378 11.1562 4.16628 11.2387 5.03128C11.3187 5.87253 10.9812 6.68878 10.3112 7.27128C10.1325 7.42378 9.91499 7.50003 9.69624 7.50003V7.50003Z" fill="#808080"/>
<path d="M15.9462 7.49999C15.6837 7.49999 15.4237 7.39124 15.2375 7.17749C14.8987 6.78624 14.94 6.19374 15.3312 5.85499C15.5412 5.67249 15.6437 5.44374 15.6212 5.20874C15.5975 4.95499 15.4275 4.71874 15.155 4.56124C14.3512 4.09624 13.8437 3.33374 13.7612 2.46874C13.6812 1.62749 14.0187 0.811239 14.6887 0.228738C15.08 -0.111262 15.6712 -0.0700117 16.0112 0.322488C16.35 0.713739 16.3087 1.30624 15.9175 1.64499C15.7075 1.82749 15.605 2.05624 15.6275 2.29124C15.6512 2.54499 15.8212 2.78124 16.0937 2.93874C16.8975 3.40374 17.405 4.16624 17.4875 5.03124C17.5675 5.87249 17.23 6.68874 16.56 7.27124C16.3825 7.42374 16.165 7.49999 15.9462 7.49999V7.49999Z" fill="#808080"/>
<path d="M21.5625 30H3.4375C1.54125 30 0 28.4587 0 26.5625V25.3125C0 24.795 0.42 24.375 0.9375 24.375H24.0625C24.58 24.375 25 24.795 25 25.3125V26.5625C25 28.4587 23.4588 30 21.5625 30Z" fill="#808080"/>
<path d="M4.74 23.125H20.2737C20.9575 22.4737 21.5625 21.735 22.0675 20.9162C22.1 20.8775 22.1288 20.8362 22.155 20.7925C23.1988 19.0437 23.75 17.04 23.75 15V10.3125C23.75 9.795 23.33 9.375 22.8125 9.375H2.1875C1.67 9.375 1.25 9.795 1.25 10.3125V15C1.25 18.1937 2.595 21.075 4.74 23.125Z" fill="#808080"/>
<path d="M25 11.5625V14.0625C26.3788 14.0625 27.5 15.1837 27.5 16.5625C27.5 17.2375 27.2425 17.8612 26.7588 18.3362C26.2988 18.805 25.675 19.0625 25 19.0625H24.2963C24.015 19.8825 23.6763 20.6837 23.2288 21.4325C23.2025 21.4775 23.1713 21.5187 23.1413 21.5625H25C26.3513 21.5625 27.6075 21.0387 28.5263 20.1037C29.4763 19.17 30 17.9137 30 16.5625C30 13.805 27.7575 11.5625 25 11.5625V11.5625Z" fill="#808080"/>
</g>
</g>
<defs>
<clipPath id="clip0">
<rect width="30.0004" height="30" fill="white" transform="translate(0.00256348)"/>
</clipPath>
<clipPath id="clip1">
<rect width="30" height="30" fill="white"/>
</clipPath>
</defs>
</svg>
