<svg width="31" height="30" viewBox="0 0 31 30" fill="none" xmlns="http://www.w3.org/2000/svg">
<path d="M15 17.3572C16.2209 17.3572 17.2679 16.7445 17.6989 15.8789H12.3009C12.732 16.7445 13.779 17.3572 15 17.3572Z" fill="#808080"/>
<path d="M12.301 14.1211H17.699C17.2679 13.2555 16.2209 12.6428 15 12.6428C13.779 12.6428 12.732 13.2555 12.301 14.1211Z" fill="#808080"/>
<path d="M11.1476 26.7568V30H18.8523V26.7568H11.1476Z" fill="#808080"/>
<path d="M10.0263 15.8789H3L3 28.2422C3 29.2114 3.97894 30 5.18221 30H8.96559V25.8777C8.96559 25.3923 9.45412 24.9988 10.0567 24.9988H19.9433C20.5459 24.9988 21.0344 25.3923 21.0344 25.8777V30H24.8178C26.0211 30 27 29.2114 27 28.2422V15.8789L19.9737 15.8789C19.474 17.7269 17.4343 19.115 15 19.115C12.5657 19.115 10.5259 17.7269 10.0263 15.8789Z" fill="#808080"/>
<path d="M11.1476 -1.16825e-05V3.24316L18.8523 3.24316V-1.16825e-05L11.1476 -1.16825e-05Z" fill="#808080"/>
<path d="M8.96559 4.1223V0H5.18221C3.97894 0 3 0.788555 3 1.75781L3 14.1211H10.0263C10.5259 12.2731 12.5657 10.885 15 10.885C17.4343 10.885 19.474 12.2731 19.9737 14.1211L27 14.1211V1.75781C27 0.788555 26.0211 0 24.8178 0L21.0344 0V4.1223C21.0344 4.6077 20.5459 5.00121 19.9433 5.00121H10.0567C9.45412 5.00121 8.96559 4.6077 8.96559 4.1223Z" fill="#808080"/>
</svg>
