<svg width="31" height="30" viewBox="0 0 31 30" fill="none" xmlns="http://www.w3.org/2000/svg">
<g clip-path="url(#clip0)">
<path d="M10.8065 16.174H19.5955V21.8488H10.8065V16.174Z" fill="#808080"/>
<path d="M29.1211 16.174H21.3533V24.2348C21.3533 24.7199 20.9596 25.1137 20.4744 25.1137C19.9887 25.1137 19.5955 24.7199 19.5955 24.2348V23.6066H17.8377V24.2348C17.8377 24.7199 17.4439 25.1137 16.9588 25.1137C16.473 25.1137 16.0799 24.7199 16.0799 24.2348V23.6066H14.3221V24.2348C14.3221 24.7199 13.9283 25.1137 13.4432 25.1137C12.9574 25.1137 12.5643 24.7199 12.5643 24.2348V23.6066H10.8064V24.2348C10.8064 24.7199 10.4127 25.1137 9.92754 25.1137C9.4418 25.1137 9.04863 24.7199 9.04863 24.2348V16.174H0.878906C0.39375 16.174 0 16.5678 0 17.0529C0 17.5381 0.39375 17.9318 0.878906 17.9318H1.63301L3.82793 28.1851C3.91465 28.5906 4.27324 28.8801 4.6875 28.8801H25.3125C25.7268 28.8801 26.0854 28.5906 26.1721 28.1851L28.367 17.9318H29.1211C29.6062 17.9318 30 17.5381 30 17.0529C30 16.5678 29.6062 16.174 29.1211 16.174Z" fill="#808080"/>
<path d="M19.0746 11.6177C19.3084 12.5288 19.4707 13.4652 19.5603 14.4162H25.5685L26.2201 12.871C26.8471 11.3839 26.1469 9.66362 24.6574 9.03549C21.0288 7.50719 21.3695 7.65057 21.2549 7.60288C20.0549 7.09663 18.7025 7.45522 17.8957 8.39448C18.3873 9.40287 18.781 10.4769 19.0693 11.5978C19.0711 11.6048 19.0728 11.6113 19.0746 11.6177V11.6177Z" fill="#808080"/>
<path d="M25.9155 7.69708L26.4539 6.41915C26.6426 5.97208 26.4323 5.45645 25.9852 5.26837L23.0656 4.05231C22.6185 3.86423 22.1029 4.07399 21.9148 4.52106L21.3775 5.79665C21.6295 5.85583 21.8773 5.93669 22.1199 6.03864C25.4298 7.418 25.4502 7.39919 25.9155 7.69708V7.69708Z" fill="#808080"/>
<path d="M4.93406 5.02011H7.22385L5.9458 6.38687C5.61428 6.74142 5.63291 7.29759 5.98746 7.62911C6.34195 7.96063 6.89818 7.942 7.22971 7.58745C8.66689 6.05048 8.5684 6.16216 8.62635 6.07743L9.3409 7.0253C9.55717 7.31218 9.89555 7.48081 10.2548 7.48081H13.4964C14.8003 7.48081 15.8575 6.42237 15.8575 5.11966V4.32337C15.8575 3.69718 15.6088 3.09665 15.166 2.65386L14.3237 1.81152C13.8809 1.36866 13.2803 1.11993 12.6541 1.11993H4.93406C4.53375 1.11993 4.2092 1.44448 4.2092 1.8448V4.29525C4.2092 4.69556 4.53375 5.02011 4.93406 5.02011V5.02011Z" fill="#808080"/>
<path d="M10.2545 9.23886C9.54905 9.23886 8.86702 8.97635 8.3426 8.51815C7.35237 10.3 6.71721 12.3191 6.48694 14.4162H17.7938C17.71 13.6135 17.5688 12.823 17.3713 12.0525C17.3696 12.0467 17.3684 12.0414 17.3672 12.0361C17.0362 10.7494 16.5569 9.5453 15.9375 8.43964C15.242 8.95292 14.3924 9.23886 13.4965 9.23886H10.2545Z" fill="#808080"/>
</g>
<defs>
<clipPath id="clip0">
<rect width="30" height="30" fill="white" transform="translate(0.00213623)"/>
</clipPath>
</defs>
</svg>
