<svg width="31" height="30" viewBox="0 0 31 30" fill="none" xmlns="http://www.w3.org/2000/svg">
<g clip-path="url(#clip0)">
<path d="M21.3058 17.0192H17.8444C17.3672 17.0192 16.979 17.4073 16.979 17.8846V19.0384C16.979 19.5156 17.3672 19.9038 17.8444 19.9038H21.3058C21.783 19.9038 22.1712 19.5156 22.1712 19.0384V17.8846C22.1712 17.4073 21.783 17.0192 21.3058 17.0192V17.0192Z" fill="#808080"/>
<path d="M0.826034 9.80758C1.29593 9.80758 1.68137 10.1839 1.69075 10.6558C1.70677 11.4606 2.37511 12.1154 3.18054 12.1154C3.98643 12.1154 4.655 11.4606 4.67102 10.6558C4.67102 10.6512 4.67125 10.6464 4.67125 10.6419V10.6284C4.67125 10.6272 4.67125 10.6263 4.67125 10.6251C4.67125 10.1472 5.05874 9.75975 5.53665 9.75975C6.01455 9.75975 6.40205 10.1472 6.40205 10.6251L6.40228 10.6432C6.40228 10.6485 6.40251 10.6508 6.40251 10.656C6.41853 11.4606 7.08686 12.1154 7.8923 12.1154C8.69773 12.1154 9.36607 11.4606 9.38209 10.6558C9.38232 10.6508 9.38232 10.6455 9.38255 10.6405C9.38255 10.6354 9.38255 10.6302 9.38255 10.6251C9.38255 10.1472 9.77005 9.75975 10.248 9.75975C10.7259 9.75975 11.1134 10.1472 11.1134 10.6251V10.6439C11.1136 10.6487 11.1136 10.651 11.1138 10.6558C11.1296 11.4606 11.7982 12.1154 12.6041 12.1154C13.4095 12.1154 14.0778 11.4606 14.0938 10.6558C14.0938 10.6512 14.0941 10.6464 14.0943 10.6419V10.6286C14.0943 10.6274 14.0943 10.6263 14.0943 10.6251C14.0943 10.1472 14.4816 9.75975 14.9595 9.75975C15.4374 9.75975 15.8249 10.1472 15.8249 10.6251V10.6286V10.6419C15.8251 10.6464 15.8251 10.6512 15.8253 10.6558C15.8411 11.4606 16.5095 12.1154 17.3151 12.1154C18.121 12.1154 18.7894 11.4606 18.8054 10.6558C18.8054 10.6512 18.8056 10.6487 18.8058 10.6439V10.6251C18.8058 10.1472 19.1933 9.75975 19.6712 9.75975C20.1491 9.75975 20.5366 10.1472 20.5366 10.6251V10.6405C20.5369 10.6455 20.5369 10.6508 20.5371 10.656C20.5529 11.4606 21.2212 12.1154 22.0267 12.1154H22.0269C22.8323 12.1154 23.5007 11.4606 23.5165 10.6558C23.5167 10.6506 23.5167 10.6485 23.5169 10.6432V10.6251C23.5169 10.1472 23.9044 9.75975 24.3823 9.75975C24.8602 9.75975 25.2477 10.1472 25.2477 10.6251V10.6284V10.6416C25.2479 10.6464 25.2479 10.651 25.2482 10.6558C25.2642 11.4606 25.9328 12.1154 26.7384 12.1154C27.5439 12.1154 28.2122 11.4606 28.2282 10.6558C28.2376 10.1839 28.6233 9.80758 29.0932 9.80758C29.0989 9.80758 29.1048 9.80781 29.1106 9.80781C29.4944 9.81536 29.8146 10.0722 29.9208 10.4203C29.9171 10.4082 29.9139 10.396 29.9098 10.3841L29.2296 8.45604C29.2275 8.45031 29.2257 8.44482 29.2236 8.4391L26.4487 0.57724C26.3267 0.231399 25.9996 0 25.6327 0H4.2865C3.9196 0 3.59253 0.231399 3.47053 0.577469L0.009613 10.3841C0.0059509 10.3942 0.00320434 10.405 0 10.4153C0.107803 10.0697 0.426407 9.81536 0.80841 9.80781C0.814132 9.80781 0.820083 9.80758 0.826034 9.80758V9.80758Z" fill="#808080"/>
<path d="M27.9402 24.6163V13.6148C27.563 13.7666 27.1567 13.8462 26.7386 13.8462C25.8899 13.8462 25.0885 13.5191 24.4822 12.9243C24.4481 12.8909 24.4152 12.8568 24.3824 12.8222C24.3502 12.8568 24.3165 12.8909 24.2827 12.9243C23.6768 13.5191 22.8755 13.8462 22.0268 13.8462C21.1781 13.8462 20.3768 13.5191 19.7709 12.9243C19.7371 12.8909 19.7036 12.8568 19.6711 12.8222C19.6384 12.8568 19.6055 12.8909 19.5714 12.9243C18.965 13.5191 18.1637 13.8462 17.315 13.8462C16.4663 13.8462 15.665 13.5191 15.0594 12.9243C15.0253 12.8909 14.9919 12.8568 14.9596 12.8222C14.9271 12.8568 14.8937 12.8909 14.8596 12.9243C14.254 13.5191 13.4527 13.8462 12.604 13.8462C11.7553 13.8462 10.954 13.5191 10.3476 12.9243C10.3138 12.8909 10.2806 12.8565 10.2479 12.8222C10.2154 12.857 10.1819 12.8909 10.1481 12.9243C9.54222 13.5191 8.74091 13.8462 7.89221 13.8462C7.04352 13.8462 6.24221 13.5191 5.63636 12.9243C5.60248 12.8909 5.56907 12.8568 5.53656 12.8222C5.50383 12.8568 5.47087 12.8909 5.43677 12.9243C4.83046 13.5191 4.02914 13.8462 3.18045 13.8462C2.76228 13.8462 2.35602 13.7666 1.97882 13.6148V24.7126C1.99982 26 1.97889 25.8455 1.97889 27L1.97882 29C1.97882 29.4777 1.97882 29.5 1.97882 30H27.9402C27.9402 29.5 27.9402 29.4777 27.9402 29V27.25C27.9402 25.9882 27.9402 26 27.9402 24.6163ZM13.5172 30L11.7498 30V18H7.74802V30H6.01722V17.5C6.01722 17.0221 6.52191 16.5 6.99981 16.5H12.604C13.0819 16.5 13.5172 17.0221 13.5172 17.5V30ZM23.9018 19.0384C23.9018 20.4701 22.7372 21.6346 21.3056 21.6346H17.8442C16.4126 21.6346 15.248 20.4701 15.248 19.0384V17.8846C15.248 16.4532 16.4126 15.2884 17.8442 15.2884H21.3056C22.7372 15.2884 23.9018 16.4532 23.9018 17.8846V19.0384Z" fill="#808080"/>
</g>
<defs>
<clipPath id="clip0">
<rect width="30.0004" height="30" fill="white" transform="translate(0.00341797)"/>
</clipPath>
</defs>
</svg>
