<svg width="31" height="30" viewBox="0 0 31 30" fill="none" xmlns="http://www.w3.org/2000/svg">
<g clip-path="url(#clip0)">
<path d="M29.7369 14.579L16.9832 0.881029C15.8895 -0.293666 14.1101 -0.293666 13.0165 0.880965L0.262853 14.579C-0.0833742 14.9509 -0.0881788 15.5589 0.252072 15.9372C0.592322 16.3155 1.14884 16.3208 1.49495 15.949L14.2487 2.25095C14.6629 1.80601 15.3368 1.80601 15.751 2.25095L28.5048 15.949C28.6759 16.1328 28.8984 16.2245 29.1207 16.2245C29.3482 16.2245 29.5756 16.1286 29.7476 15.9373C30.0879 15.5589 30.0831 14.9509 29.7369 14.579V14.579Z" fill="#808080"/>
<path d="M15.867 17.2571V14.1664H14.1168V17.2571C14.1168 17.7873 13.7231 18.2176 13.2379 18.2176H10.409V20.1295H13.2379C13.7231 20.1295 14.1168 20.5598 14.1168 21.0899V24.1807H15.867V21.0899C15.867 20.5598 16.2601 20.1295 16.7459 20.1295H19.5736V18.2176H16.7459C16.2601 18.2176 15.867 17.7873 15.867 17.2571Z" fill="#808080"/>
<path d="M14.9923 4.13763L2.71934 17.3195C2.64552 17.3982 2.56817 17.4712 2.4879 17.5397V25.8195C2.4879 28.1245 2.48786 28.933 2.4879 30H27.5131C27.513 28.6598 27.513 28.1245 27.513 25.8195V17.5538C27.4269 17.4815 27.3437 17.404 27.2652 17.3195L14.9923 4.13763ZM21.332 21.0902C21.332 21.621 20.9383 22.0507 20.4532 22.0507H17.6254V25.1414C17.6254 25.6722 17.2317 26.1018 16.7465 26.1018H13.2386C12.7528 26.1018 12.3597 25.6722 12.3597 25.1414V22.0507H9.5308C9.04565 22.0507 8.6519 21.621 8.6519 21.0902V17.2574C8.6519 16.7266 9.04565 16.2969 9.5308 16.2969H12.3597V13.2062C12.3597 12.6754 12.7528 12.2457 13.2386 12.2457H16.7465C17.2317 12.2457 17.6254 12.6754 17.6254 13.2062V16.2969H20.4532C20.9383 16.2969 21.332 16.7266 21.332 17.2574V21.0902Z" fill="#808080"/>
</g>
<defs>
<clipPath id="clip0">
<rect width="30.0004" height="30" fill="white" transform="translate(0.00128174)"/>
</clipPath>
</defs>
</svg>
