<svg width="31" height="30" viewBox="0 0 31 30" fill="none" xmlns="http://www.w3.org/2000/svg">
<g clip-path="url(#clip0)">
<path d="M8.86185 20.9727C9.27329 23.6368 11.3841 25.7476 14.0483 26.1591C13.6368 23.495 11.526 21.3842 8.86185 20.9727Z" fill="#808080"/>
<path d="M21.1382 20.9727C18.474 21.3841 16.3632 23.4949 15.9517 26.1591C18.6159 25.7477 20.7267 23.6369 21.1382 20.9727Z" fill="#808080"/>
<path d="M24.7266 9.75275H22.9688V15.6264H24.7266V9.75275Z" fill="#808080"/>
<path d="M21.2109 9.75275H8.78906V15.6264H21.2109V9.75275Z" fill="#808080"/>
<path d="M7.03125 9.75275H5.27344V15.6264H7.03125V9.75275Z" fill="#808080"/>
<path d="M30 9.75275H26.4844V29.7475H30V9.75275Z" fill="#808080"/>
<path d="M15.8789 7.99496H29.3556L15.8789 0.252502V7.99496Z" fill="#808080"/>
<path d="M3.51562 9.75275H0V29.7475H3.51562V9.75275Z" fill="#808080"/>
<path d="M24.7266 17.3842H5.27344V29.7475H24.7266V17.3842ZM7.03125 20.0209V19.142H7.91016C10.9951 19.142 13.6763 20.9042 15 23.4747C16.3237 20.9042 19.0049 19.142 22.0898 19.142H22.9688V20.0209C22.9688 24.118 19.8611 27.5028 15.8789 27.9415V27.9897H14.1211V27.9415C10.1389 27.5029 7.03125 24.118 7.03125 20.0209Z" fill="#808080"/>
<path d="M14.1211 7.99496V0.252502L0.644409 7.99496H14.1211Z" fill="#808080"/>
</g>
<defs>
<clipPath id="clip0">
<rect width="30.0004" height="30" fill="white" transform="translate(0.00299072)"/>
</clipPath>
</defs>
</svg>
