<svg width="30" height="30" viewBox="0 0 30 30" fill="none" xmlns="http://www.w3.org/2000/svg">
<g clip-path="url(#clip0)">
<path d="M11.5408 3.51889H23.5587C24.0507 3.51889 24.4384 3.90656 24.4384 4.39861V6.15805C24.4384 6.6501 24.8261 7.03777 25.3181 7.03777C25.8102 7.03777 26.1978 6.6501 26.1978 6.15805V4.39861C26.1978 2.93738 25.0199 1.75944 23.5587 1.75944H11.5408C11.0487 1.75944 10.661 1.37177 10.661 0.879722C10.661 0.387674 10.2734 0 9.78133 0C9.28928 0 8.9016 0.387674 8.9016 0.879722C8.9016 2.34095 10.0795 3.51889 11.5408 3.51889Z" fill="#808080"/>
<path d="M8.02187 7.03781H17.1024C17.5944 7.03781 17.9821 6.65013 17.9821 6.15809C17.9821 5.66604 17.5944 5.27836 17.1024 5.27836H8.02187C7.52982 5.27836 7.14215 4.89069 7.14215 4.39864C7.14215 3.9066 6.75448 3.51892 6.26243 3.51892C5.77038 3.51892 5.38271 3.9066 5.38271 4.39864C5.38271 5.85988 6.56064 7.03781 8.02187 7.03781Z" fill="#808080"/>
<path d="M9.78131 11.5408H0.879722C0.387674 11.5408 0 11.9284 0 12.4205V29.1203C0 29.6123 0.387674 30 0.879722 30H2.69881V24.4384C2.69881 23.9463 3.08648 23.5587 3.57853 23.5587H7.09742C7.58946 23.5587 7.97714 23.9463 7.97714 24.4384V30H10.6759V12.4205C10.6759 11.9284 10.2883 11.5408 9.79622 11.5408H9.78131ZM4.44334 20.9195C4.44334 21.4115 4.05567 21.7992 3.56362 21.7992C3.07157 21.7992 2.6839 21.4115 2.6839 20.9195V19.7416C2.6839 19.2495 3.07157 18.8618 3.56362 18.8618C4.05567 18.8618 4.44334 19.2495 4.44334 19.7416V20.9195ZM4.44334 16.2376C4.44334 16.7296 4.05567 17.1173 3.56362 17.1173C3.07157 17.1173 2.6839 16.7296 2.6839 16.2376V15.0597C2.6839 14.5676 3.07157 14.1799 3.56362 14.1799C4.05567 14.1799 4.44334 14.5676 4.44334 15.0597V16.2376ZM7.96223 20.9195C7.96223 21.4115 7.57455 21.7992 7.08251 21.7992C6.59046 21.7992 6.20278 21.4115 6.20278 20.9195V19.7416C6.20278 19.2495 6.59046 18.8618 7.08251 18.8618C7.57455 18.8618 7.96223 19.2495 7.96223 19.7416V20.9195ZM7.96223 16.2376C7.96223 16.7296 7.57455 17.1173 7.08251 17.1173C6.59046 17.1173 6.20278 16.7296 6.20278 16.2376V15.0597C6.20278 14.5676 6.59046 14.1799 7.08251 14.1799C7.57455 14.1799 7.96223 14.5676 7.96223 15.0597V16.2376Z" fill="#808080"/>
<path d="M4.45824 25.3181H6.21768V30H4.45824V25.3181Z" fill="#808080"/>
<path fill-rule="evenodd" clip-rule="evenodd" d="M18.1313 8.32007H16.0736C15.6263 8.32007 15.2535 8.6481 15.2088 9.09542L14.0159 18.5785H12.4205V30H16.2227V25.6014C16.2227 25.1093 16.6104 24.7217 17.1024 24.7217H25.3032C25.7953 24.7217 26.1829 25.1093 26.1829 25.6014V30H29.1054C29.5974 30 29.9851 29.6123 29.9851 29.1203V19.4582C29.9851 18.9662 29.5974 18.5785 29.1054 18.5785H28.4643L27.1969 9.09542C27.1372 8.6481 26.7644 8.32007 26.332 8.32007H24.2744C23.8271 8.32007 23.4543 8.6481 23.4096 9.09542L22.0229 18.5785H20.4722L19.011 9.09542C18.9513 8.6481 18.5786 8.32007 18.1313 8.32007V8.32007Z" fill="#808080"/>
<path d="M17.9822 26.4811H24.4384V30H17.9822V26.4811Z" fill="#808080"/>
</g>
<defs>
<clipPath id="clip0">
<rect width="30" height="30" fill="white"/>
</clipPath>
</defs>
</svg>
