<svg width="30" height="30" viewBox="0 0 30 30" fill="none" xmlns="http://www.w3.org/2000/svg">
<g clip-path="url(#clip0)">
<path d="M14.2531 17.1267C14.5117 15.2598 16.1172 13.8173 18.0542 13.8173C19.9911 13.8173 21.5967 15.2598 21.8553 17.1267H24.9932L23.533 11.8211C23.2383 10.7506 22.2571 10.0029 21.1468 10.0029H9.43378C8.3235 10.0029 7.3423 10.7506 7.0477 11.8211L5.58745 17.1267H14.2531Z" fill="#808080"/>
<path d="M18.0542 15.5806C17.0928 15.5806 16.2822 16.238 16.0477 17.1267H20.0606C19.8261 16.238 19.0155 15.5806 18.0542 15.5806V15.5806Z" fill="#808080"/>
<path d="M4.88922 26.9982H9.71993V30H4.88922V26.9982Z" fill="#808080"/>
<path d="M20.9488 26.9982H25.7796V30H20.9488V26.9982Z" fill="#808080"/>
<path d="M26.5806 25.2349V19.5955C26.5806 19.2065 26.2642 18.8901 25.8752 18.8901H4.70535C4.31641 18.8901 4 19.2065 4 19.5955V25.2349H26.5806ZM10.116 22.7116C9.62175 22.7116 9.25574 22.3076 9.23434 21.8299C9.213 21.3537 9.65485 20.9482 10.116 20.9482C10.6103 20.9482 10.9763 21.3522 10.9977 21.8299C11.0191 22.3061 10.5772 22.7116 10.116 22.7116ZM17.4114 22.7116H13.1692V20.9482H17.4114V22.7116ZM19.5829 21.8299C19.5615 21.3537 20.0034 20.9482 20.4646 20.9482C20.9588 20.9482 21.3249 21.3522 21.3463 21.8299C21.3676 22.3061 20.9257 22.7116 20.4646 22.7116C19.9703 22.7116 19.6043 22.3076 19.5829 21.8299Z" fill="#808080"/>
<path d="M8.4938 5.62193C9.57675 5.62193 10.4578 4.74089 10.4578 3.65794C10.4578 2.70655 9.07777 0.790403 8.8011 0.415921L8.4938 0L8.1865 0.415921C7.90983 0.790403 6.52975 2.7066 6.52975 3.65794C6.52981 4.74089 7.41085 5.62193 8.4938 5.62193V5.62193Z" fill="#808080"/>
<path d="M15.0975 5.62193C16.1804 5.62193 17.0615 4.74089 17.0615 3.65794C17.0615 2.70655 15.6814 0.790403 15.4048 0.415921L15.0975 0L14.7902 0.415921C14.5135 0.790403 13.1335 2.70666 13.1335 3.65794C13.1335 4.74089 14.0145 5.62193 15.0975 5.62193V5.62193Z" fill="#808080"/>
<path d="M21.7011 5.62199C22.7841 5.62199 23.6651 4.74095 23.6651 3.658C23.6651 2.70666 22.285 0.790462 22.0084 0.41598L21.7011 0L21.3938 0.41598C21.1171 0.790462 19.7371 2.70672 19.7371 3.658C19.7371 4.74095 20.6182 5.62199 21.7011 5.62199Z" fill="#808080"/>
</g>
<defs>
<clipPath id="clip0">
<rect width="30.0004" height="30" fill="white" transform="translate(-0.000427246)"/>
</clipPath>
</defs>
</svg>
