<svg width="31" height="30" viewBox="0 0 31 30" fill="none" xmlns="http://www.w3.org/2000/svg">
<g clip-path="url(#clip0)">
<g clip-path="url(#clip1)">
<path d="M24.3749 15.8789C21.2683 15.8789 18.7499 18.3973 18.7499 21.5039C18.7499 24.6105 21.2683 27.1289 24.3749 27.1289C27.4815 27.1289 29.9999 24.6105 29.9999 21.5039C29.9999 18.3973 27.4815 15.8789 24.3749 15.8789ZM24.3749 24.2578C22.8564 24.2578 21.621 23.0224 21.621 21.5039C21.621 19.9854 22.8564 18.75 24.3749 18.75C25.8934 18.75 27.1288 19.9854 27.1288 21.5039C27.1288 23.0224 25.8934 24.2578 24.3749 24.2578Z" fill="#808080"/>
<path d="M24.3749 22.5C24.925 22.5 25.371 22.054 25.371 21.5039C25.371 20.9538 24.925 20.5078 24.3749 20.5078C23.8248 20.5078 23.3788 20.9538 23.3788 21.5039C23.3788 22.054 23.8248 22.5 24.3749 22.5Z" fill="#808080"/>
<path d="M6.50391 20.5664C4.69172 20.5664 3.22266 22.0355 3.22266 23.8477C3.22266 25.6598 4.69172 27.1289 6.50391 27.1289C8.31609 27.1289 9.78516 25.6598 9.78516 23.8477C9.78516 22.0355 8.31609 20.5664 6.50391 20.5664ZM6.50391 24.7266C6.01852 24.7266 5.625 24.333 5.625 23.8477C5.625 23.3623 6.01852 22.9687 6.50391 22.9687C6.9893 22.9687 7.38281 23.3623 7.38281 23.8477C7.38281 24.333 6.9893 24.7266 6.50391 24.7266Z" fill="#808080"/>
<path d="M10.7812 4.62896H11.5161L10.0976 10.0196H11.9153L13.3339 4.62896H16.7578V11.8945C17.3076 11.4175 17.8962 10.9978 18.5156 10.6374V4.62896H22.5585V9.21455C23.1352 9.12707 23.7224 9.08207 24.3163 9.08207V4.62896H24.8437C25.3291 4.62896 25.7226 4.23545 25.7226 3.75006C25.7226 3.26467 25.3291 2.87115 24.8437 2.87115H10.7812C10.2959 2.87115 9.90234 3.26467 9.90234 3.75006C9.90234 4.23545 10.2959 4.62896 10.7812 4.62896Z" fill="#808080"/>
<path d="M24.3163 14.1219V12.5977C25.8577 12.5977 27.3549 13.0359 28.6461 13.8649C29.0547 14.1271 29.5983 14.0087 29.8606 13.6002C30.1228 13.1917 30.0043 12.648 29.5958 12.3857C25.7461 9.914 20.6876 10.4565 17.4446 13.6523H14.9706L13.8281 12.1289C13.6621 11.9076 13.4016 11.7773 13.1249 11.7773H3.74999C1.67894 11.7773 0 13.4563 0 15.5273H3.51561C4.001 15.5273 4.39451 15.9208 4.39451 16.4062C4.39451 16.8916 4.001 17.2851 3.51561 17.2851H0V22.0312C0 22.5166 0.393514 22.9101 0.878903 22.9101H1.55367C1.99441 20.5782 4.04582 18.8086 6.50388 18.8086C8.96194 18.8086 11.0134 20.5782 11.4541 22.9101H14.8351L17.3933 23.905C17.1336 23.1519 16.9921 22.3441 16.9921 21.5039C16.9921 17.4526 20.2724 14.1535 24.3163 14.1219V14.1219Z" fill="#808080"/>
</g>
</g>
<defs>
<clipPath id="clip0">
<rect width="30.0004" height="30" fill="white" transform="translate(0.000854492)"/>
</clipPath>
<clipPath id="clip1">
<rect width="30" height="30" fill="white"/>
</clipPath>
</defs>
</svg>
