<svg width="31" height="30" viewBox="0 0 31 30" fill="none" xmlns="http://www.w3.org/2000/svg">
<g clip-path="url(#clip0)">
<path d="M5.43142 29.985H0C0 22.384 0 14.7681 0 7.16708C0 6.97257 0.0748131 6.85287 0.239402 6.77806C0.508728 6.65835 0.778055 6.55362 1.04738 6.41895C4.06983 4.96758 7.10723 3.51621 10.1297 2.04988C11.4913 1.39152 12.8379 0.733167 14.1995 0.0897758C14.3342 0.0299255 14.4838 0 14.6334 0C14.783 0 14.9327 0.0299255 15.0673 0.0897758C17.207 1.04738 19.3466 2.01995 21.4863 2.97756C23.6858 3.98005 25.8853 4.98254 28.0698 5.98504C28.7132 6.26933 29.3416 6.56858 29.985 6.85287V14.9925H24.6733V11.2369H5.43142V11.4763C5.43142 17.581 5.43142 23.6708 5.43142 29.7756C5.43142 29.8354 5.43142 29.9102 5.43142 29.9701V29.985ZM29.9701 28.0698C29.6409 28.2943 29.2668 28.2793 28.8778 28.2344C28.8479 28.2344 28.803 28.1895 28.788 28.1596C28.7581 28.0848 28.7282 28.01 28.7132 27.9501C28.5037 26.9925 27.4414 26.1845 26.2743 26.2294C25.182 26.2743 24.3142 26.9626 24.015 28.0249C23.9402 28.2793 23.8803 28.2943 23.6409 28.1746C23.4464 28.0698 23.3566 27.8903 23.3117 27.6958C23.2968 27.5611 23.2818 27.4264 23.2818 27.2918C23.2818 25.3017 23.2818 23.3117 23.2818 21.3217C23.2818 21.1272 23.2968 20.9476 23.3416 20.7681C23.4165 20.4838 23.611 20.3342 23.9102 20.3342C24.9576 20.3192 25.99 20.3192 27.0374 20.3192C27.4115 20.3192 27.6958 20.4838 27.9202 20.7681C28.6234 21.6658 29.3865 22.5187 29.9701 23.4913V28.0998V28.0698ZM25.3616 21.6209C25.3616 21.6509 25.3466 21.6808 25.3466 21.7107C25.3466 22.5337 25.3466 23.3416 25.3466 24.1496C25.3466 24.2693 25.4065 24.2843 25.4963 24.2843C26.4838 24.2843 27.4863 24.2843 28.4738 24.2843H29.0424C28.9676 24.1197 28.9227 24 28.8479 23.8953C28.5337 23.4464 28.2195 23.0125 27.8903 22.5636C27.7406 22.3392 27.5761 22.1297 27.4115 21.9202C27.3067 21.7855 27.187 21.6359 26.9925 21.6209C26.4539 21.606 25.9002 21.6209 25.3466 21.6209H25.3616ZM16.0549 29.985C15.8005 29.8204 15.5312 29.6409 15.3815 29.3716C15.0524 28.803 15.0374 28.2494 15.4264 27.7107C15.7855 27.217 16.4888 26.9476 17.0574 27.0823C17.7307 27.2469 18.1496 27.6658 18.2843 28.3092C18.419 28.9227 18.1197 29.5362 17.5511 29.8653C17.4913 29.8953 17.4314 29.9401 17.3716 29.9701H16.0549V29.985ZM25.7506 29.985C25.586 29.8653 25.4065 29.7756 25.2718 29.6409C24.8379 29.207 24.7182 28.6833 24.8978 28.1147C25.0773 27.5461 25.5112 27.2319 26.0798 27.1122C26.8579 26.9476 27.6209 27.3516 27.8903 28.0698C28.1596 28.788 27.8454 29.5661 27.1421 29.9402C27.1122 29.9551 27.0823 29.985 27.0524 30H25.7656L25.7506 29.985ZM19.1671 28.2344C18.8678 27.0224 18.1197 26.2743 16.803 26.2444C15.4264 26.2145 14.6035 26.9626 14.3042 28.2045C13.7955 28.2045 13.2868 28.2344 12.793 28.1895C12.4638 28.1596 12.2993 27.9501 12.2843 27.6209C12.2693 27.1721 12.2544 26.7232 12.2544 26.2743C12.2544 23.8204 12.2544 21.3815 12.2693 18.9277C12.2693 18.7032 12.2693 18.4788 12.2843 18.2693C12.3142 17.8504 12.5087 17.6858 12.9277 17.6559C13.1072 17.6409 13.3017 17.6259 13.4813 17.6259C16.1297 17.6259 18.7781 17.6259 21.4264 17.6259C21.606 17.6259 21.8005 17.6409 21.9801 17.6559C22.3541 17.6858 22.5636 17.9102 22.5636 18.2993C22.5786 18.808 22.5786 19.3317 22.5786 19.8404C22.5786 22.384 22.5786 24.9426 22.5786 27.4863C22.5786 27.9801 22.3541 28.2045 21.8454 28.2195C20.9776 28.2344 20.1097 28.2195 19.2419 28.2195C19.212 28.2195 19.197 28.2195 19.1671 28.2045V28.2344ZM10.384 21.8753V24.6284H7.06235V21.8753H10.384ZM10.384 20.8429H7.06235V18.1347H10.384V20.8429Z" fill="#808080"/>
</g>
<defs>
<clipPath id="clip0">
<rect width="30.0004" height="30" fill="white" transform="translate(0.00170898)"/>
</clipPath>
</defs>
</svg>
