<svg width="31" height="30" viewBox="0 0 31 30" fill="none" xmlns="http://www.w3.org/2000/svg">
<g clip-path="url(#clip0)">
<g clip-path="url(#clip1)">
<path d="M7.49968 9.31628H8.42135L7.65109 10.8568C7.434 11.291 7.60995 11.8188 8.04413 12.036C8.47824 12.2531 9.00623 12.0771 9.22325 11.6429L10.3866 9.31628H19.6126L20.7759 11.6429C20.9299 11.9509 21.2403 12.129 21.5627 12.1289C22.2087 12.1288 22.6422 11.4448 22.3481 10.8568L21.5778 9.31628H22.4995C22.9849 9.31628 23.3784 8.92277 23.3784 8.43739C23.3784 5.88502 21.3019 3.80854 18.7495 3.80854H17.7535V2.81246C17.7535 2.44684 17.6831 2.08995 17.5491 1.75779H29.1205C29.6059 1.75779 29.9994 1.36428 29.9994 0.878894C29.9994 0.39351 29.6059 0 29.1205 0H14.9996C13.4739 0 12.2457 1.29279 12.2457 2.81246V3.80854H11.2496C8.69726 3.80854 6.62079 5.88502 6.62079 8.43739C6.62079 8.92277 7.0143 9.31628 7.49968 9.31628V9.31628Z" fill="#808080"/>
<path d="M11.8698 11.3256L11.401 12.2631C11.1839 12.6972 11.3599 13.2251 11.7941 13.4423C12.2291 13.6598 12.7565 13.4825 12.9732 13.0492L13.442 12.1117C13.6591 11.6775 13.4831 11.1497 13.0489 10.9325C12.615 10.7155 12.0869 10.8914 11.8698 11.3256Z" fill="#808080"/>
<path d="M16.9503 10.9325C16.5161 11.1495 16.3401 11.6775 16.5572 12.1117L17.026 13.0492C17.2431 13.4835 17.7711 13.6593 18.2051 13.4422C18.6393 13.2251 18.8152 12.6972 18.5982 12.263L18.1294 11.3255C17.9123 10.8914 17.3845 10.7154 16.9503 10.9325Z" fill="#808080"/>
<path d="M27.3627 15.0584C27.3563 15.0584 24.7107 15.0584 24.7167 15.0584C24.2362 15.0592 23.8471 15.449 23.8471 15.9296V17.9295C23.8471 18.4148 23.4536 18.8083 22.9682 18.8083C22.4828 18.8083 22.0893 18.4149 22.0893 17.9295V15.9296C22.0893 15.4635 21.7181 15.0593 21.2104 15.0584H11.0469C10.3935 15.0584 9.79412 15.4207 9.49049 15.9993L8.30897 18.2504C8.13389 18.5839 7.76575 18.7689 7.39368 18.7101C6.79979 18.6163 6.47266 17.9667 6.75256 17.4335L7.67446 15.6771C7.91469 15.2194 7.76557 14.6189 7.25078 14.3615L4.71493 13.1228C3.42196 12.4791 1.83708 12.9929 1.18154 14.304L0.101734 16.4634C-0.123556 16.914 0.0485905 17.3923 0.412746 17.62C0.469698 17.6555 0.139117 17.4894 4.74581 19.769V24.5779C3.65715 24.9456 2.87084 25.9759 2.87084 27.1871C2.87084 28.7067 4.099 29.9995 5.62471 29.9995C6.86506 29.9995 7.88141 29.1514 8.23766 28.066H21.7616C22.4034 30.0217 24.8581 30.6908 26.3347 29.1504C27.763 27.6605 27.1774 25.2277 25.2534 24.5779V20.5661H29.1205C29.6059 20.5661 29.9994 20.1726 29.9994 19.6872V17.6951C29.9994 16.2389 28.8189 15.0584 27.3627 15.0584V15.0584ZM23.4956 24.5779C22.6831 24.8524 22.0396 25.4958 21.7652 26.3082H8.23391C7.95946 25.4958 7.31605 24.8523 6.5036 24.5779V23.8473H23.4956V24.5779ZM23.4956 22.0896H6.5036V20.5661H23.4956V22.0896Z" fill="#808080"/>
</g>
</g>
<defs>
<clipPath id="clip0">
<rect width="30.0004" height="30" fill="white" transform="translate(0.00512695)"/>
</clipPath>
<clipPath id="clip1">
<rect width="30" height="30" fill="white"/>
</clipPath>
</defs>
</svg>
