<svg width="31" height="30" viewBox="0 0 31 30" fill="none" xmlns="http://www.w3.org/2000/svg">
<g clip-path="url(#clip0)">
<path d="M28.0664 8.49609V5.21484C28.0664 4.24559 27.2779 3.45703 26.3086 3.45703H20.5664C19.5971 3.45703 18.8086 4.24559 18.8086 5.21484V8.49609H28.0664Z" fill="#808080"/>
<path d="M18.8086 10.2539H28.0664V11.8945H18.8086V10.2539Z" fill="#808080"/>
<path d="M1.93359 17.168V29.1211C1.93359 29.6065 2.32711 30 2.8125 30C3.29789 30 3.69141 29.6065 3.69141 29.1211V21.0471L15.0586 21.0819V27.6562C15.0586 28.1416 15.4521 28.5352 15.9375 28.5352H16.4648V29.1211C16.4648 29.6065 16.8584 30 17.3438 30C17.8291 30 18.2227 29.6065 18.2227 29.1211V28.5352H24.9023V29.1211C24.9023 29.6065 25.2959 30 25.7812 30C26.2666 30 26.6602 29.6065 26.6602 29.1211V28.5352H27.1875C27.6729 28.5352 28.0664 28.1416 28.0664 27.6562V17.168H1.93359Z" fill="#808080"/>
<path d="M29.1211 13.6523H13.4398C13.2822 12.8919 12.929 12.0689 12.3821 11.1914H15.0586C16.0279 11.1914 16.8164 10.4029 16.8164 9.43359V1.75781C16.8164 0.788555 16.0279 0 15.0586 0H3.69141C2.72215 0 1.93359 0.788555 1.93359 1.75781V9.43359C1.93359 10.4029 2.72215 11.1914 3.69141 11.1914H6.36791C5.82105 12.0689 5.46779 12.8919 5.31023 13.6523H0.878906C0.393516 13.6523 0 14.0459 0 14.5312C0 15.0166 0.393516 15.4102 0.878906 15.4102H29.1211C29.6065 15.4102 30 15.0166 30 14.5312C30 14.0459 29.6065 13.6523 29.1211 13.6523Z" fill="#808080"/>
</g>
<defs>
<clipPath id="clip0">
<rect width="30.0004" height="30" fill="white" transform="translate(0.0055542)"/>
</clipPath>
</defs>
</svg>
