<svg width="30" height="30" viewBox="0 0 30 30" fill="none" xmlns="http://www.w3.org/2000/svg">
<g clip-path="url(#clip0)">
<path d="M1.76528 14.9931V24.7155H7.05346V18.5339H12.3557V24.7155H17.6445V18.5339H22.9467V24.7155H28.2349V14.9931H1.76528Z" fill="#808080"/>
<path d="M29.121 26.477H0.879147C0.393285 26.477 9.53674e-07 26.8702 9.53674e-07 27.3561V29.1209C9.53674e-07 29.6067 0.393285 30 0.879147 30H29.1211C29.607 30 30.0002 29.6067 30.0002 29.1209V27.3561C30.0002 26.8702 29.6069 26.477 29.121 26.477Z" fill="#808080"/>
<path d="M29.121 9.70825H0.879147C0.393285 9.70825 9.53674e-07 10.1015 9.53674e-07 10.5873V12.3557C9.53674e-07 12.8416 0.393285 13.2349 0.879147 13.2349H29.1211C29.607 13.2349 30.0002 12.8416 30.0002 12.3557V10.5873C30.0002 10.1015 29.6069 9.70825 29.121 9.70825Z" fill="#808080"/>
<path d="M10.5049 7.94661H19.4953L15.0001 5.41827L10.5049 7.94661Z" fill="#808080"/>
<path d="M0.656269 7.94664H6.91869L14.5694 3.64307C14.8366 3.49243 15.1636 3.49243 15.4309 3.64307L23.0816 7.94664H29.352C27.3002 6.79245 27.6938 7.0086 15.4344 0.112545C15.1672 -0.0375149 14.8401 -0.0375149 14.5729 0.112545L0.656269 7.94664Z" fill="#808080"/>
</g>
<defs>
<clipPath id="clip0">
<rect width="29.9996" height="30" fill="white"/>
</clipPath>
</defs>
</svg>
