<svg width="30" height="30" viewBox="0 0 30 30" fill="none" xmlns="http://www.w3.org/2000/svg">
<path d="M30 8.64258C30 7.58613 29.5886 6.59291 28.8416 5.84596C28.1909 5.19522 27.3274 4.79924 26.4085 4.71721C26.459 4.46514 26.4844 4.21037 26.4844 3.95508C26.4844 1.77422 24.7102 0 22.5293 0C20.3485 0 18.5742 1.77422 18.5742 3.95508C18.5742 4.019 18.5758 4.08293 18.5791 4.14674C18.7605 4.28807 18.9347 4.43941 19.0983 4.60301C20.1772 5.68189 20.7715 7.11656 20.7715 8.64258C20.7715 9.97541 20.3182 11.2385 19.4844 12.2559C19.5606 12.6086 19.5996 12.9691 19.5996 13.3301C19.5996 14.5307 19.1846 15.6362 18.4908 16.5108C18.8383 16.6323 19.2112 16.6992 19.5996 16.6992C20.3708 16.6992 21.082 16.4385 21.6504 16.001V6.73828C21.6504 6.25289 22.0439 5.85938 22.5293 5.85938C23.0147 5.85938 23.4082 6.25289 23.4082 6.73828V8.49609L24.3457 7.79297C24.734 7.50176 25.2849 7.58033 25.5762 7.96875C25.8675 8.35705 25.7887 8.90795 25.4004 9.19922L23.4082 10.6934V16.001C23.9767 16.4385 24.6879 16.6992 25.459 16.6992C27.3168 16.6992 28.8282 15.1879 28.8282 13.3301C28.8282 12.7866 28.6969 12.2577 28.4455 11.7784C28.592 11.6701 28.7232 11.5576 28.8416 11.4393C29.5886 10.6922 30 9.69902 30 8.64258V8.64258Z" fill="#808080"/>
<path d="M5.62676 11.7784C5.37539 12.2578 5.24414 12.7866 5.24414 13.3301C5.24414 15.1879 6.75551 16.6992 8.61328 16.6992C9.38443 16.6992 10.0956 16.4385 10.6641 16.001V12.5977L8.67188 11.1035C8.28357 10.8122 8.20482 10.2613 8.49609 9.87305C8.7873 9.4848 9.33826 9.40605 9.72656 9.69727L10.6641 10.4004V6.29883C10.6641 5.81344 11.0576 5.41992 11.543 5.41992C12.0284 5.41992 12.4219 5.81344 12.4219 6.29883V8.05664L13.3594 7.35352C13.7477 7.0623 14.2986 7.14094 14.5898 7.5293C14.8811 7.9176 14.8024 8.4685 14.4141 8.75977L12.4219 10.2539V16.001C12.9903 16.4385 13.7015 16.6992 14.4727 16.6992C16.3304 16.6992 17.8418 15.1879 17.8418 13.3301C17.8418 12.7866 17.7105 12.2577 17.4592 11.7784C17.6057 11.6701 17.7369 11.5576 17.8552 11.4393C18.6023 10.6922 19.0137 9.69902 19.0137 8.64258C19.0137 7.58613 18.6023 6.59291 17.8552 5.84596C17.2045 5.19522 16.341 4.79924 15.4222 4.71721C15.4726 4.46514 15.498 4.21043 15.498 3.95508C15.498 1.77422 13.7238 0 11.543 0C9.36211 0 7.58789 1.77422 7.58789 3.95508C7.58789 4.21037 7.61332 4.46514 7.66377 4.71721C6.74496 4.79924 5.88135 5.19521 5.23078 5.8459C4.48365 6.59291 4.07227 7.58613 4.07227 8.64258C4.07227 9.69902 4.48365 10.6922 5.23072 11.4392C5.34908 11.5576 5.48027 11.6701 5.62676 11.7784V11.7784Z" fill="#808080"/>
<path d="M21.6504 16.001V29.1211C21.6504 29.6065 22.0439 30 22.5293 30C23.0147 30 23.4082 29.6065 23.4082 29.1211V16.001H21.6504Z" fill="#808080"/>
<path d="M10.6641 16.001H12.4219V17.6953H10.6641V16.001Z" fill="#808080"/>
<path d="M10.6641 29.1211C10.6641 29.6065 11.0576 30 11.543 30C12.0284 30 12.4219 29.6065 12.4219 29.1211V28.2422H10.6641V29.1211Z" fill="#808080"/>
<path d="M17.1094 20.332C17.1094 19.8466 16.7159 19.4531 16.2305 19.4531H2.05078C1.56539 19.4531 1.17188 19.8466 1.17188 20.332V22.9688H17.1094V20.332Z" fill="#808080"/>
<path d="M17.4023 24.7266H0.878906C0.393516 24.7266 0 25.1201 0 25.6055C0 26.0909 0.393516 26.4844 0.878906 26.4844H2.34375V29.1211C2.34375 29.6065 2.73727 30 3.22266 30C3.70805 30 4.10156 29.6065 4.10156 29.1211V26.4844H14.1797V29.1211C14.1797 29.6065 14.5732 30 15.0586 30C15.544 30 15.9375 29.6065 15.9375 29.1211V26.4844H17.4023C17.8877 26.4844 18.2812 26.0909 18.2812 25.6055C18.2812 25.1201 17.8877 24.7266 17.4023 24.7266Z" fill="#808080"/>
</svg>
