<svg width="60" height="60" viewBox="0 0 60 60" fill="none" xmlns="http://www.w3.org/2000/svg">
<g clip-path="url(#clip0)">
<path d="M55.08 56.4844V50.9496H57.3592V47.4339H52.7362V43.7123H57.3592V40.1967H52.7362V36.6806H57.3592V33.165H52.7362V30.8281H49.2206V33.165H25.6009V30.6248H22.0853V33.165H17.2884V36.6806H22.0853V40.1967H17.2884V43.7123H22.0853V47.4339H17.2884V50.9496H19.7415V56.4844H14.42L13.2481 45.2348H11.1662V14.4814C12.5047 13.8826 13.4999 12.6215 13.7009 11.0921L14.3774 5.95139H16.1755V2.43576H11.1662V0H7.6506V2.43576H2.64084V5.95139H4.43893L5.11551 11.0921C5.31693 12.6215 6.3121 13.8826 7.6506 14.4814V45.2348H5.5687L4.39682 56.4844H0V60H60V56.4844H55.08ZM25.6009 36.6806H49.2206V40.1967H25.6009V36.6806ZM25.6009 43.7123H49.2206V47.4339H25.6009V43.7123ZM23.2571 50.9496H51.5643V56.4844H23.2571V50.9496Z" fill="black"/>
</g>
<defs>
<clipPath id="clip0">
<rect width="60" height="60" fill="white"/>
</clipPath>
</defs>
</svg>
