<?xml version="1.0" encoding="UTF-8"?>
<!DOCTYPE svg PUBLIC "-//W3C//DTD SVG 1.1//EN" "http://www.w3.org/Graphics/SVG/1.1/DTD/svg11.dtd">
<!-- Creator: CorelDRAW -->
<svg xmlns="http://www.w3.org/2000/svg" xml:space="preserve" width="15.875mm" height="15.875mm" version="1.1" style="shape-rendering:geometricPrecision; text-rendering:geometricPrecision; image-rendering:optimizeQuality; fill-rule:evenodd; clip-rule:evenodd"
viewBox="0 0 251.74 251.74"
 xmlns:xlink="http://www.w3.org/1999/xlink"
 xmlns:xodm="http://www.corel.com/coreldraw/odm/2003">
 <defs>
  <style type="text/css">
   <![CDATA[
    .fil5 {fill:none}
    .fil2 {fill:#EFF1F5}
    .fil3 {fill:#DB4240}
    .fil0 {fill:#D93723}
    .fil1 {fill:#1B1C1E}
    .fil4 {fill:#EFF1F5;fill-rule:nonzero}
   ]]>
  </style>
   <clipPath id="id0">
    <path d="M-0 251.74l251.74 0 0 -251.74 -251.74 0 0 251.74z"/>
   </clipPath>
 </defs>
 <g id="Слой_x0020_1">
  <metadata id="CorelCorpID_0Corel-Layer"/>
  <g>
  </g>
  <g style="clip-path:url(#id0)">
   <g id="_2936248460576">
    <g>
     <path class="fil0" d="M85.79 181.88c0.5,-0.85 3.8,-3.92 4.65,-4.78 1.15,-1.16 13.6,-14.01 14.61,-14.33 0.14,-0.83 3.61,-3.85 4.24,-4.51 1.41,-1.47 2.67,-2.92 4.37,-4.38 0.34,-0.58 1.43,-1.43 2.05,-2.04 0.71,-0.71 1.39,-1.41 2.11,-2.1 1.06,-1.04 2.81,-2.89 4.07,-4.15l56.99 -57.09c0.55,-0.51 0.05,-0.29 0.72,-0.47 0.18,-0.62 1.07,-1.26 1.83,-1.99l27.97 -28.16c0.18,-0.18 0.33,-0.35 0.5,-0.5 0.37,-0.33 0.22,-0.23 0.63,-0.47 7.28,8.13 14.6,21.57 18.44,32.38 7.74,21.83 8.39,43.17 2.45,65.98 -2.67,10.24 -6.4,17.72 -11.39,26.71 -2.77,5 -9.38,13.85 -13.5,18.18l-6.32 6.31c-0.59,0.57 -1.12,0.92 -1.72,1.49 -6.45,6.19 -16.87,12.59 -24.79,16.51 -23.94,11.86 -53.59,14.22 -79.53,6.01 -1.58,-0.5 -3.29,-1.08 -4.81,-1.6 -3,-1.02 -6.21,-2.45 -8.94,-3.69 -0.54,-0.24 -1.27,-0.65 -1.99,-1.01 -0.7,-0.35 -1.42,-0.65 -2.18,-1.03 -1.49,-0.77 -2.76,-1.5 -4.13,-2.28 -3,-1.7 -13.94,-8.69 -14.92,-10.5l28.59 -28.5zm79.02 -109.24l-10.36 10.29c-0.91,0.96 -1.69,1.66 -2.62,2.59 -0.92,0.93 -1.62,1.74 -2.58,2.63l-5.1 5.23c-1.25,0.95 -2.5,2.45 -3.58,3.53 -1.26,1.26 -2.35,2.37 -3.64,3.59l-6.46 6.56c-0.42,0.45 -1.04,0.83 -1.36,1.27 -1.42,1.95 -0.05,0.67 -1.9,1.86l-0.68 0.7 -5.42 5.65c-0.53,0.61 -0.87,0.68 -1.49,1.31 -0.69,0.7 -3.37,3.79 -4.2,3.93 0.09,1.06 0.21,-0.44 -0.72,1.16 -0.56,0.97 -0.26,0.2 -1.01,1.03l-0.56 0.64c-0.35,0.36 -0.13,0.13 -0.47,0.54 -0.72,0.88 -0.36,0.26 -1.14,0.81 -0.68,0.48 -0.77,1.51 -1.98,2.23 -0.73,0.44 -0.72,0.18 -1.24,0.8 -0.42,0.5 -0.44,0.94 -0.71,1.3 -0.46,0.39 -0.36,-0.17 -1.05,0.55 -0.44,0.46 -0.35,0.65 -0.69,1.14 -0.46,0.66 -1.27,0.92 -1.97,1.62 -1.5,1.51 -2.5,2.52 -3.71,3.7l-14.74 14.73c-1.08,1.02 -6.56,6.84 -7.48,7.24 -0.36,0.41 -0.76,0.95 -1.18,1.35 -0.43,0.41 -0.76,0.57 -1.28,1.06 -0.37,0.98 -1.66,1.92 -2.42,2.67 -0.73,0.72 -1.67,1.91 -2.54,2.48 -0.46,0.83 -2.67,2.88 -3.48,3.73l-24.94 24.86c-3.08,-3.18 -8.11,-10.94 -10.44,-15.11 -10.42,-18.6 -15.82,-39.44 -14.16,-61.76 1.6,-21.5 8.68,-39.59 20.16,-55.96 3.23,-4.61 7.66,-9.78 11.55,-13.71 6.78,-6.85 16.85,-14.39 25.58,-18.93 1.46,-0.76 2.76,-1.39 4.13,-2.08 25.9,-13.06 57.34,-14.01 84.35,-4.42 6.35,2.25 11.83,4.99 17.25,8 5.8,3.23 8.39,5.29 13.29,8.97 0.62,0.46 1.07,0.9 1.64,1.3l-11.56 11.72c-2.6,2.87 -5,5.08 -7.67,7.77l-11.43 11.42zm5.56 171.06c0.73,-4.24 3.99,-6.2 7.88,-6.09 2.95,0.08 2.57,0.78 4.03,0.77 1.63,-0.28 10.1,-5.42 12.27,-6.88 4.61,-3.1 6.69,-4.59 11.12,-8.13l5.15 -4.46c0.52,-0.58 1.08,-0.99 1.68,-1.53 2.72,-2.44 9.76,-10.08 12.23,-13.42 0.91,-1.22 1.84,-2.38 2.76,-3.66 1.3,-1.79 6.99,-9.99 7.42,-11.56 0.52,-1.68 -1.21,-1.21 -2,-4.14 -0.89,-3.32 0.33,-6.96 3.64,-8.52 2.45,-1.15 2.86,-0.58 5.27,-1.04 1.25,-2.5 2.76,-6.95 3.67,-9.85 3.33,-10.57 6.01,-23.03 6.11,-34.38 0.04,-4 0.31,-9.66 -0.2,-13.45 -0.15,-1.08 -0.19,-2.09 -0.25,-3.2l-1.19 -8.77c-1.57,-9.78 -5.24,-22.27 -9.43,-31.07 -4.25,-8.95 -9.04,-17.32 -15.19,-25.11l-4.61 -5.62c-0.63,-0.67 -0.94,-1.19 -1.6,-1.81 -1.28,-1.23 -2.14,-2.32 -3.3,-3.51 -3.41,-3.53 -6.83,-6.42 -10.52,-9.53 -2.47,-2.08 -4.96,-3.91 -7.67,-5.76 -37.47,-25.7 -85.3,-29.75 -126.67,-9.44 -6.07,2.98 -11.98,6.49 -16.98,10.09 -1.6,1.15 -9.52,7.21 -11.3,8.95l-10.1 10.14c-2.62,3.2 -5.06,5.9 -7.48,9.37 -3.05,4.36 -3.89,5.51 -6.76,10.28 -4.14,6.87 -7.94,15.11 -10.66,23.02 -3.16,9.19 -6.34,23.43 -6.65,33.79 -0.44,14.92 0.16,21.95 3.44,36.81 2.68,12.15 9.41,27.49 16.14,37.79 1.47,2.25 8.12,11.81 10.14,13.72 0.71,0.68 0.79,0.92 1.49,1.71 2.07,2.31 5.99,6.66 8.28,8.56 1.44,1.19 3.02,2.93 5.31,4.72 1.3,1.02 2.47,2 3.77,3.04 8.24,6.63 20.27,13.25 29.96,17.15 20.47,8.24 47.11,11.69 69.86,6.89 5.94,-1.25 15.64,-3.49 20.9,-5.85zm66.3 -57.73c0.68,-1.59 4.01,-7.93 4.2,-8.85 -1.23,-0.2 -2.39,0.09 -3.37,0.66 -1.29,0.75 -1.43,0.73 -2.11,2.17 -0.52,1.12 -0.75,2.12 -0.47,3.43 0.4,1.87 0.65,2.53 1.75,2.59zm-1.75 2.76c0.57,-0.43 0.57,-0.74 0.91,-1.36 0.29,-0.54 0.58,-0.94 0.84,-1.4 -1.1,-0.06 -1.35,-0.72 -1.75,-2.59 -0.28,-1.31 -0.05,-2.31 0.47,-3.43 0.68,-1.45 0.81,-1.42 2.11,-2.17 0.98,-0.57 2.14,-0.86 3.37,-0.66l0.96 -2.09c-2.41,0.47 -2.82,-0.11 -5.27,1.04 -3.31,1.56 -4.53,5.2 -3.64,8.52 0.79,2.94 2.52,2.47 2,4.14z"/>
     <path class="fil1" d="M116.15 182.77c2.53,-0.36 1.59,2.41 0.09,2.92 -1.86,0.64 -3.31,-0.56 -3.83,-1.88 -1.29,-3.27 2.56,-6.27 5.77,-4.76 2.47,1.17 3.79,5.22 1.54,7.88 -4.58,5.38 -13.72,0.68 -10.93,-7.12 1.89,-5.3 11.07,-7.18 14.2,-0.14 1.55,3.48 0.09,7.51 -2.14,8.16 0.38,-2.15 1.86,-3.46 1.09,-6.33 -0.47,-1.73 -2.03,-3.38 -3.69,-3.92 -8.55,-2.83 -10.2,9.14 -3.53,9.78 6.25,0.6 5.09,-8.4 0.64,-6.59 -2.01,0.82 -2.06,4.18 0.57,3.95l0.23 -1.94zm33.05 -20.37c2.4,-0.46 4.68,0.48 6.18,1.69 5.94,4.8 2.52,13.63 -3.78,14.28 -10.88,1.13 -12.94,-13.97 -2.41,-15.97zm4.25 -28.65c3.68,-0.66 6.36,1.76 6.76,4.08 1.36,7.88 -9.23,9.65 -11.02,2.62 -0.83,-3.26 1.71,-6.24 4.26,-6.7zm25.74 -16.95c2.11,0.25 4.09,2.66 3.74,5.38 -0.79,6.18 -10.84,7.29 -12.51,-0.2 -0.25,-1.15 -0.48,-2.95 0.54,-3.41 -1.21,-1.41 -2.86,-2.91 -2.2,-5.88 0.47,-2.12 1.99,-3.66 3.97,-4.25 4.87,-1.45 8.87,3.71 6.46,8.37zm0.41 -28.76c-0.67,0.17 -0.17,-0.04 -0.72,0.47l-56.99 57.09c-1.25,1.26 -3.01,3.11 -4.07,4.15 -0.71,0.7 -1.4,1.4 -2.11,2.1 -0.62,0.62 -1.71,1.47 -2.05,2.04 1.18,0.3 2.02,1.07 2.65,1.75 0.78,0.84 1.21,1.62 1.58,2.83 2.18,7.06 -8.54,12.83 -12.84,4.3 -1.02,0.32 -13.46,13.17 -14.61,14.33 -0.85,0.86 -4.16,3.92 -4.65,4.78 2.4,1.59 4.85,3.1 7.66,4.65l8.45 3.79c0.43,1.22 -0.68,6.66 -1.08,8.2 -0.43,1.67 -0.19,2.51 -1.78,3.02 -1.24,0.4 -2.19,0.91 -2.98,1.63 -1.01,0.92 -1.44,1.37 -2.13,2.69 -3.74,7.08 3.15,13.48 8.29,12.89 9.85,-1.12 10.38,-12.95 4.41,-16.09 0.1,-3.05 1.4,-7.53 2.29,-10.28 1.5,0.13 6.06,1.36 8.6,1.53 1.13,0.07 1.9,0.02 3.03,0.21 4.2,0.71 8.49,-0.2 12.62,-0.22 0.66,3 1.69,6.62 1.74,9.86 -1.72,1.74 -2.99,2.29 -4.11,5.07 -2.84,7.08 2.8,15.52 11.58,13.98 8.4,-1.47 10.55,-11.92 5.91,-16.75 -2.45,-2.55 -2.52,-2.24 -5.6,-3.44 -0.84,-2.95 -1.68,-6.78 -1.74,-10.36 7.08,-1.23 16.23,-5.99 21.99,-9.83l5.9 -4.47c2.77,2.51 3.69,4.48 4.93,5.76 -1.17,1.73 -1.09,4.53 -0.69,6.57 1.2,5.99 9.8,9.42 15.21,4.48 7.14,-6.52 0.95,-18.94 -9.28,-15.64 -1.02,-1.17 -4.56,-4.61 -5.17,-6.04l3.22 -3.8c2.17,-2.59 7.25,-9.92 8.02,-12.64 -1,-0.63 -1.25,-0.47 -2.12,-1.29 -5.15,-4.86 -1.3,-13.25 6.73,-11.2 1.11,-1.66 1.8,-9.73 2.29,-11.07 1.57,-0.01 3.17,-0.15 4.73,-0.07 1.46,0.08 2.95,0.31 4.45,0.4 3.69,8.73 14.37,5.87 15.2,-1.63 0.67,-5.97 -5.76,-10.61 -11.44,-7.63 -2.06,1.08 -3.28,3.36 -3.4,3.42 -1.5,0.25 -8.36,-0.13 -9.32,-0.88 -0.32,-0.31 -0.2,-1.27 -0.2,-2.12 0.02,-2.95 -0.3,-3.81 -0.44,-6.22l-1.39 -7.51c-1.59,-6.59 -2.54,-7.67 -4.62,-12.98 1.22,-1.02 5.27,-3.98 6.95,-4.61 0.73,0.19 1.58,0.81 2.72,1.14 7.41,2.14 14.49,-6.37 9.43,-13.65 -4.8,-6.9 -17.17,-3.67 -15.71,6.98 -1.72,1.02 -4.55,3.58 -6.71,4.27 -0.33,-1.02 -1.83,-3.3 -2.62,-3.96zm-7.1 31.36c-0.33,0.38 -0.07,-0.2 -0.01,0.77 0.03,0.53 0.01,1.06 0.11,1.59 0.38,2.13 2.82,4.27 5.7,3.51 1.78,-0.47 2.76,-1.69 2.87,-3.5 0.2,-3.47 -2.21,-2.54 -2.97,-3.69 -3.06,2.07 -2.14,1.05 -5.69,1.32zm-56.35 63.37l-0.23 1.94c-2.62,0.23 -2.58,-3.13 -0.57,-3.95 4.45,-1.81 5.61,7.18 -0.64,6.59 -6.68,-0.63 -5.02,-12.61 3.53,-9.78 1.65,0.55 3.22,2.19 3.69,3.92 0.77,2.86 -0.72,4.18 -1.09,6.33 2.23,-0.65 3.69,-4.68 2.14,-8.16 -3.13,-7.04 -12.31,-5.16 -14.2,0.14 -2.78,7.8 6.36,12.5 10.93,7.12 2.26,-2.65 0.94,-6.71 -1.54,-7.88 -3.21,-1.51 -7.06,1.5 -5.77,4.76 0.52,1.32 1.97,2.52 3.83,1.88 1.5,-0.51 2.44,-3.27 -0.09,-2.92zm62.05 -64.69c0.77,1.15 3.17,0.22 2.97,3.69 -0.11,1.81 -1.08,3.03 -2.87,3.5 -2.88,0.76 -5.32,-1.38 -5.7,-3.51 -0.1,-0.53 -0.07,-1.06 -0.11,-1.59 -0.06,-0.97 -0.33,-0.39 0.01,-0.77l-1.54 -0.85c-1.02,0.47 -0.79,2.27 -0.54,3.41 1.67,7.5 11.71,6.38 12.51,0.2 0.35,-2.72 -1.63,-5.12 -3.74,-5.38l-0.5 0.61c-0.54,0.63 -0.35,0.17 -0.49,0.68z"/>
     <path class="fil1" d="M86.24 120.64c-1.24,2.84 -3.59,5.18 -7.05,4.15 -7.72,-2.29 -4.48,-13.1 2.9,-11.3 3.28,0.8 5.12,4.94 4.15,7.15zm34.71 -60.67c-0.55,2.41 -2.29,3.97 -4.68,4.61 -2.62,0.71 -5.49,-0.68 -6.47,-2.06 -1.76,-2.48 -2.93,-10 4.41,-11.64l-0.11 2.16c-3.54,1.23 -4.46,4.92 -2.64,7.82 1.63,2.61 6.44,3.04 7.6,-0.86l1.89 -0.03zm-42.97 99.33c0.91,-0.4 6.39,-6.22 7.48,-7.24l14.74 -14.73c1.21,-1.19 2.21,-2.19 3.71,-3.7 0.69,-0.7 1.51,-0.96 1.97,-1.62 0.34,-0.49 0.25,-0.68 0.69,-1.14 0.69,-0.72 0.59,-0.16 1.05,-0.55 0.26,-0.37 0.28,-0.8 0.71,-1.3 0.52,-0.61 0.5,-0.36 1.24,-0.8 1.21,-0.72 1.3,-1.75 1.98,-2.23 0.78,-0.55 0.42,0.07 1.14,-0.81 0.33,-0.41 0.12,-0.17 0.47,-0.54l0.56 -0.64c0.75,-0.83 0.45,-0.07 1.01,-1.03 0.93,-1.6 0.81,-0.1 0.72,-1.16 -2.69,-0.24 -4.52,-0.34 -6.96,-2.02 -6.33,-4.36 -6.63,-13.28 -1.65,-17.92 7.75,-7.24 20.03,-2.05 19.72,9.05l0.68 -0.7c1.85,-1.2 0.48,0.09 1.9,-1.86 0.32,-0.44 0.94,-0.82 1.36,-1.27l6.46 -6.56c-1.07,-0.49 -1.07,-5.88 3.68,-7.36 0.61,-0.19 1.05,-0.32 1.75,-0.27 1.04,0.07 0.75,0.34 1.79,0.5l5.1 -5.23c0.96,-0.9 1.66,-1.71 2.58,-2.63 0.93,-0.93 1.7,-1.64 2.62,-2.59l10.36 -10.29c-0.61,-0.26 -1.33,-0.9 -1.89,-1.29 -0.61,-0.43 -1.25,-0.83 -1.95,-1.27 -2.66,-1.69 -7.6,-4.35 -10.56,-5.48 -1.16,-0.44 -1.84,-0.47 -2.09,-0.93 -0.55,-1.58 1.76,-12.23 2.66,-13.88 0.72,-0.68 2.48,0.15 5.9,-3.31 4.85,-4.9 2.95,-14.99 -5.09,-16.96 -10.94,-2.67 -17.83,11.43 -8.49,18.52 -0.27,2.98 -1.53,7.17 -2.45,10.08 -0.28,0.89 -0.73,2.36 -1.06,3.07 -9.23,-1.18 -8.18,-1.83 -18.47,-1.55 -2.62,0.07 -4.67,0.56 -5.96,0.51 -0.52,-3.43 -1.14,-6.81 -0.85,-10.38 4.87,-2.66 6.09,-8.2 3.46,-12.48 -4.24,-6.89 -15.03,-4.79 -16.19,3.6 -0.42,2.99 0.77,5.19 2.12,6.86 0.73,0.91 1.4,1.4 2.61,2.02 1.82,0.91 1.33,0.75 1.63,2.94 0.27,2 0.65,7.03 0.18,8.72 -0.23,0.32 -4.71,1.54 -5.9,1.95 -0.34,0.12 -0.74,0.23 -1.04,0.36l-0.75 0.49c1.49,1.19 2.84,3.33 2.52,6.15 -0.74,6.44 -9.55,8.07 -12.69,2.46 -0.3,-0.53 -0.45,-0.96 -0.62,-1.58l-0.41 -1.64c-1.52,0.77 -3.6,2.44 -4.41,2.73 -1.47,-1.18 -4.4,-4.5 -5.41,-6.11 0.76,-2.2 1.26,-3.06 0.47,-5.67 -0.53,-1.74 -1.47,-2.98 -2.69,-3.94 -6.5,-5.1 -15.74,2.59 -11.49,10.08 2.32,4.1 5.92,3.9 9.29,3.54 0.53,0.55 0.92,0.83 1.43,1.39 1.47,1.62 2.47,2.65 3.77,4.62 -0.44,0.42 -0.77,0.62 -1.28,1.1 -0.46,0.43 -0.8,0.71 -1.26,1.15l-3.49 3.74c-3.38,3.16 -8.35,11.58 -10.5,15.96 -5.16,10.49 -6.2,20.31 -6.31,31.99 -2.68,0.74 -7.05,1.13 -10.09,1.08 -0.59,-1.79 -2.88,-3.76 -4.68,-4.57 -2.35,-1.06 -5.23,-1.26 -7.72,-0.38 -3.98,1.4 -7.66,5.41 -6.86,11.17 1.44,10.38 16.24,12.75 20.16,1.55 3.17,-0.46 6.73,-1.1 10.01,-0.84 0.54,1.14 0.65,2.84 0.94,4.07 0.39,1.63 2.9,9.97 3.67,11.14 0.37,-0.48 0.78,-2.16 1.46,-3.12 4,-5.65 12.05,-4.07 14.16,1.57 1.22,3.26 0.48,4.67 -0.62,7.44zm42.97 -99.33l-1.89 0.03c-1.16,3.89 -5.97,3.46 -7.6,0.86 -1.82,-2.9 -0.9,-6.59 2.64,-7.82l0.11 -2.16c-7.34,1.64 -6.17,9.15 -4.41,11.64 0.98,1.38 3.84,2.77 6.47,2.06 2.39,-0.64 4.12,-2.2 4.68,-4.61z"/>
     <path class="fil2" d="M105.06 162.77c4.3,8.53 15.02,2.76 12.84,-4.3 -0.38,-1.21 -0.8,-1.99 -1.58,-2.83 -0.63,-0.68 -1.48,-1.45 -2.65,-1.75 -1.7,1.46 -2.96,2.9 -4.37,4.38 -0.63,0.66 -4.09,3.68 -4.24,4.51z"/>
     <path class="fil3" d="M170.38 243.7c0.95,-0.28 2.15,-0.83 3.28,-1.2 1.12,-0.37 1.82,-0.81 2.97,-1.24 0.93,-0.34 1.94,-0.78 2.9,-1.33 0.52,-0.29 0.93,-0.51 1.45,-0.77l1.31 -0.78c-1.45,0.01 -1.08,-0.69 -4.03,-0.77 -3.89,-0.1 -7.15,1.86 -7.88,6.09z"/>
     <path class="fil2" d="M136.93 100.51c1.29,-1.22 2.39,-2.33 3.64,-3.59 1.08,-1.08 2.33,-2.58 3.58,-3.53 -1.04,-0.16 -0.75,-0.44 -1.79,-0.5 -0.71,-0.05 -1.14,0.08 -1.75,0.27 -4.75,1.48 -4.76,6.86 -3.68,7.36z"/>
     <path class="fil1" d="M70.55 166.84c0.87,-0.56 1.81,-1.76 2.54,-2.48 0.76,-0.75 2.05,-1.69 2.42,-2.67 -4.52,2.1 -4.59,1.18 -8.04,0.53l0.45 0.72c0.14,0.21 0.26,0.39 0.41,0.6 0.26,0.38 0.46,0.69 0.71,1.08 0.49,0.76 1.18,1.51 1.52,2.21z"/>
     <polygon class="fil0" points="34.81,191.55 190.45,33.74 217.88,60.8 62.24,218.61 "/>
     <path class="fil4" d="M58.88 198.07l3.04 -3.62c1.3,0.93 2.51,1.35 3.65,1.28 1.13,-0.07 2.22,-0.62 3.27,-1.65 1.1,-1.08 1.71,-2.13 1.81,-3.15 0.1,-1.02 -0.15,-1.84 -0.77,-2.47 -0.4,-0.41 -0.85,-0.63 -1.36,-0.69 -0.51,-0.05 -1.17,0.1 -1.96,0.47 -0.54,0.25 -1.7,0.9 -3.48,1.94 -2.29,1.34 -4.13,2.04 -5.53,2.09 -1.97,0.08 -3.61,-0.56 -4.93,-1.91 -0.85,-0.87 -1.41,-1.93 -1.66,-3.17 -0.25,-1.24 -0.11,-2.51 0.43,-3.81 0.54,-1.3 1.46,-2.59 2.77,-3.87 2.13,-2.09 4.21,-3.19 6.21,-3.29 2.01,-0.11 3.81,0.6 5.42,2.13l-3.34 3.5c-1.01,-0.74 -1.94,-1.06 -2.8,-0.98 -0.86,0.08 -1.77,0.6 -2.73,1.54 -0.99,0.97 -1.57,1.94 -1.73,2.9 -0.1,0.62 0.06,1.15 0.5,1.6 0.4,0.41 0.91,0.58 1.53,0.54 0.79,-0.05 2.22,-0.7 4.28,-1.94 2.06,-1.24 3.7,-2.04 4.91,-2.4 1.22,-0.36 2.41,-0.4 3.58,-0.11 1.17,0.29 2.29,0.98 3.34,2.05 0.96,0.98 1.58,2.16 1.87,3.55 0.29,1.39 0.15,2.77 -0.44,4.16 -0.59,1.39 -1.62,2.81 -3.1,4.26 -2.16,2.11 -4.3,3.24 -6.43,3.37 -2.13,0.14 -4.23,-0.64 -6.32,-2.32zm26.06 -14.67l-13.88 -14.18 -5.05 4.95 -2.82 -2.88 13.54 -13.25 2.82 2.88 -5.03 4.92 13.88 14.18 -3.46 3.38zm1.33 -17.8c-1.7,-1.74 -2.87,-3.46 -3.51,-5.15 -0.47,-1.25 -0.7,-2.55 -0.71,-3.9 -0,-1.35 0.23,-2.58 0.7,-3.7 0.62,-1.49 1.63,-2.92 3.02,-4.28 2.52,-2.47 5.29,-3.65 8.34,-3.57 3.04,0.09 5.92,1.52 8.65,4.31 2.7,2.76 4.07,5.66 4.09,8.68 0.03,3.03 -1.21,5.77 -3.72,8.22 -2.54,2.48 -5.32,3.69 -8.34,3.6 -3.01,-0.08 -5.86,-1.49 -8.52,-4.21zm3.44 -3.59c1.89,1.93 3.78,2.96 5.65,3.09 1.87,0.12 3.49,-0.49 4.87,-1.83 1.38,-1.35 2.02,-2.95 1.94,-4.8 -0.09,-1.86 -1.1,-3.77 -3.04,-5.76 -1.92,-1.96 -3.78,-3 -5.58,-3.12 -1.8,-0.13 -3.41,0.51 -4.84,1.9 -1.42,1.39 -2.09,3 -2.01,4.83 0.09,1.83 1.09,3.73 3.01,5.69zm24.07 -6.82l-16.7 -17.07 5.53 -5.41c2.09,-2.05 3.54,-3.3 4.34,-3.75 1.23,-0.7 2.59,-0.94 4.09,-0.73 1.5,0.21 2.91,1 4.24,2.36 1.03,1.05 1.69,2.11 2.02,3.2 0.32,1.09 0.39,2.12 0.2,3.1 -0.19,0.98 -0.52,1.83 -0.99,2.55 -0.66,0.97 -1.77,2.21 -3.33,3.74l-2.24 2.19 6.3 6.44 -3.46 3.38zm-10.42 -17.57l4.76 4.86 1.88 -1.84c1.36,-1.33 2.17,-2.3 2.45,-2.92 0.28,-0.63 0.37,-1.25 0.25,-1.89 -0.11,-0.63 -0.42,-1.2 -0.91,-1.71 -0.61,-0.62 -1.3,-0.96 -2.05,-1.01 -0.76,-0.05 -1.47,0.14 -2.13,0.59 -0.48,0.33 -1.34,1.09 -2.58,2.3l-1.66 1.62zm36.88 -8.33l-22.81 -11.09 3.73 -3.66 16.7 8.39 -8.2 -16.7 3.67 -3.59 10.63 23.01 -3.72 3.64zm11.41 -11.17l-16.7 -17.07 3.46 -3.38 16.7 17.07 -3.46 3.38zm6.74 -6.6l-16.7 -17.07 7.26 -7.1c1.82,-1.78 3.3,-2.93 4.43,-3.43 1.13,-0.51 2.32,-0.61 3.58,-0.31 1.27,0.3 2.39,0.95 3.38,1.96 1.25,1.28 1.92,2.71 1.98,4.28 0.07,1.57 -0.54,3.19 -1.82,4.87 1.17,-0.29 2.24,-0.42 3.23,-0.37 0.99,0.05 2.55,0.33 4.67,0.86l5.34 1.29 -4.12 4.03 -6.12 -1.31c-2.18,-0.46 -3.61,-0.7 -4.27,-0.72 -0.66,-0.02 -1.24,0.08 -1.73,0.31 -0.49,0.23 -1.14,0.74 -1.93,1.52l-0.7 0.68 6.97 7.13 -3.46 3.38zm-6.18 -13.23l2.55 -2.5c1.65,-1.62 2.61,-2.69 2.89,-3.24 0.27,-0.54 0.36,-1.1 0.26,-1.67 -0.1,-0.57 -0.4,-1.11 -0.91,-1.63 -0.56,-0.58 -1.17,-0.88 -1.83,-0.94 -0.65,-0.05 -1.3,0.15 -1.95,0.6 -0.32,0.24 -1.18,1.04 -2.57,2.4l-2.69 2.63 4.25 4.34zm6.69 -20.68l3.46 -3.38 9.05 9.25c1.44,1.47 2.41,2.38 2.92,2.73 0.83,0.56 1.73,0.78 2.69,0.67 0.97,-0.12 1.93,-0.64 2.88,-1.57 0.97,-0.94 1.5,-1.86 1.6,-2.74 0.1,-0.88 -0.08,-1.66 -0.56,-2.34 -0.47,-0.68 -1.37,-1.7 -2.69,-3.05l-9.24 -9.45 3.46 -3.38 8.78 8.98c2.01,2.05 3.33,3.59 3.98,4.62 0.64,1.03 1,2.08 1.07,3.15 0.07,1.07 -0.14,2.19 -0.64,3.35 -0.5,1.17 -1.42,2.41 -2.77,3.72 -1.62,1.59 -3.04,2.61 -4.25,3.05 -1.21,0.44 -2.35,0.6 -3.43,0.48 -1.08,-0.13 -2.01,-0.44 -2.82,-0.95 -1.18,-0.75 -2.71,-2.09 -4.58,-4l-8.92 -9.11zm27.6 -4.42l3.04 -3.62c1.3,0.93 2.51,1.35 3.65,1.28 1.13,-0.07 2.22,-0.62 3.26,-1.65 1.11,-1.08 1.71,-2.13 1.81,-3.15 0.1,-1.02 -0.15,-1.84 -0.77,-2.47 -0.4,-0.4 -0.85,-0.63 -1.37,-0.69 -0.51,-0.05 -1.16,0.1 -1.96,0.47 -0.54,0.25 -1.7,0.9 -3.48,1.94 -2.29,1.34 -4.13,2.04 -5.53,2.09 -1.97,0.08 -3.61,-0.56 -4.94,-1.91 -0.85,-0.87 -1.4,-1.93 -1.66,-3.17 -0.25,-1.24 -0.11,-2.51 0.43,-3.81 0.54,-1.3 1.46,-2.59 2.77,-3.87 2.13,-2.09 4.21,-3.19 6.21,-3.29 2.01,-0.11 3.81,0.6 5.42,2.13l-3.34 3.5c-1.01,-0.74 -1.94,-1.06 -2.8,-0.98 -0.86,0.09 -1.77,0.6 -2.73,1.54 -0.99,0.97 -1.57,1.94 -1.73,2.9 -0.1,0.62 0.06,1.15 0.5,1.6 0.4,0.41 0.91,0.58 1.53,0.54 0.79,-0.06 2.22,-0.7 4.28,-1.94 2.06,-1.24 3.7,-2.04 4.91,-2.4 1.22,-0.36 2.41,-0.4 3.58,-0.11 1.17,0.29 2.29,0.98 3.34,2.05 0.96,0.98 1.58,2.16 1.88,3.55 0.29,1.39 0.15,2.77 -0.44,4.16 -0.59,1.39 -1.62,2.81 -3.1,4.26 -2.16,2.11 -4.3,3.23 -6.43,3.37 -2.13,0.14 -4.23,-0.64 -6.32,-2.32z"/>
    </g>
   </g>
  </g>
  <polygon class="fil5" points="-0,251.74 251.74,251.74 251.74,0 -0,0 "/>
 </g>
</svg>
