<svg width="60" height="60" viewBox="0 0 60 60" fill="none" xmlns="http://www.w3.org/2000/svg">
<g clip-path="url(#clip0)">
<path d="M10.9347 60.0024H0.0688717C0.0688717 44.7991 0.0654456 29.5959 0.0585938 14.3927C0.0585938 13.9945 0.197567 13.7633 0.550141 13.6106C1.08905 13.3725 1.63825 13.1545 2.16912 12.8971C8.22289 9.99302 14.2743 7.0852 20.3233 4.17365C23.0326 2.87032 25.7348 1.55283 28.4486 0.257652C28.7193 0.136404 29.015 0.0752585 29.3137 0.0787552C29.6114 0.0809964 29.9053 0.143567 30.1761 0.262371C34.4573 2.18319 38.7338 4.11202 43.0055 6.04885C47.3981 8.04461 51.7862 10.0495 56.1696 12.0636C57.4449 12.6462 58.7234 13.2219 60.0005 13.8015V30.0648H49.3862V22.5713H10.9285V23.0372C10.9285 35.2288 10.9285 47.4203 10.9285 59.6116C10.9289 59.7411 10.9325 59.8707 10.9347 60.0024Z" fill="#00679A"/>
<path d="M59.9996 56.1769C59.3293 56.6179 58.5862 56.6059 57.8297 56.497C57.7626 56.4871 57.684 56.4056 57.6541 56.3391C57.5933 56.1996 57.5474 56.0546 57.5169 55.9062C57.1035 53.98 54.9792 52.3755 52.6461 52.4712C50.4565 52.5608 48.7137 53.9427 48.1207 56.0577C47.9813 56.554 47.8486 56.6094 47.3611 56.3605C46.9589 56.1555 46.7802 55.7998 46.71 55.3923C46.6651 55.1259 46.6427 54.8564 46.643 54.5866C46.6391 50.6128 46.64 46.6388 46.6457 42.6645C46.6443 42.2878 46.6872 41.9122 46.7735 41.5448C46.9111 40.9785 47.3146 40.6756 47.9107 40.67C49.9913 40.6503 52.072 40.6387 54.1529 40.6353C54.8911 40.6353 55.464 40.9617 55.9055 41.5186C57.3207 43.3028 58.8364 45.0176 59.9996 46.976V56.1769ZM50.7943 43.2771C50.7822 43.3319 50.7735 43.3873 50.7684 43.4431C50.7684 45.0733 50.7684 46.701 50.7612 48.3299C50.7612 48.5629 50.8734 48.5921 51.07 48.5921C53.0588 48.5921 55.0475 48.5954 57.036 48.6019H58.18C58.0263 48.2815 57.9454 48.0318 57.8002 47.8241C57.1746 46.9292 56.5333 46.045 55.893 45.1604C55.5802 44.7263 55.2638 44.2934 54.9345 43.8704C54.7182 43.592 54.4733 43.2938 54.0854 43.2857C52.996 43.2616 51.9079 43.2771 50.7925 43.2771H50.7943Z" fill="#00679A"/>
<path d="M32.1942 60.0021C31.6758 59.6641 31.1619 59.3252 30.8451 58.779C30.1927 57.6542 30.1614 56.5409 30.9385 55.4641C31.6427 54.4886 33.0731 53.9274 34.1894 54.1968C35.5335 54.5216 36.3629 55.3637 36.6502 56.6598C36.9215 57.882 36.3245 59.1175 35.1939 59.7842C35.0712 59.8563 34.9486 59.9289 34.8262 60.0021H32.1942Z" fill="#00679A"/>
<path d="M51.5641 60.0023C51.2423 59.7741 50.8808 59.5827 50.6056 59.3107C49.7324 58.4472 49.4978 57.4 49.8459 56.261C50.1918 55.131 51.0587 54.4913 52.2192 54.2447C53.7832 53.9109 55.2868 54.7294 55.8262 56.1567C56.3696 57.5956 55.7409 59.1494 54.3198 59.883C54.2528 59.9178 54.192 59.9632 54.1286 60.0036L51.5641 60.0023Z" fill="#00679A"/>
<path d="M38.411 56.4904C37.8256 54.0794 36.3108 52.5744 33.6863 52.5165C30.9247 52.4551 29.2942 53.9494 28.6779 56.4449C27.6546 56.4449 26.6528 56.502 25.6625 56.4248C24.9967 56.3733 24.6665 55.9451 24.6347 55.2969C24.5901 54.4028 24.5713 53.5062 24.5713 52.6109C24.5713 47.7202 24.5771 42.8295 24.5887 37.9388C24.5887 37.4965 24.5972 37.0529 24.6334 36.6123C24.6986 35.7813 25.0677 35.4381 25.9293 35.3814C26.2988 35.357 26.6697 35.333 27.0402 35.333C32.337 35.3287 37.6336 35.328 42.9301 35.3308C43.301 35.3322 43.6716 35.3514 44.0405 35.3883C44.7926 35.4612 45.2024 35.8958 45.2167 36.6723C45.2372 37.6968 45.2337 38.7213 45.2328 39.7458C45.2301 44.8415 45.2255 49.9374 45.2189 55.0335C45.2189 56.0065 44.7595 56.481 43.7483 56.4947C42.0167 56.5183 40.2847 56.5063 38.5531 56.5084C38.5054 56.5053 38.4579 56.4993 38.411 56.4904V56.4904Z" fill="#00679A"/>
<path d="M20.849 43.792V49.2932H14.2158V43.792H20.849Z" fill="#00679A"/>
<path d="M20.8511 41.7176H14.2188V36.3091H20.8511V41.7176Z" fill="#00679A"/>
</g>
<defs>
<clipPath id="clip0">
<rect width="60" height="60" fill="white"/>
</clipPath>
</defs>
</svg>
