<svg width="60" height="60" viewBox="0 0 60 60" fill="none" xmlns="http://www.w3.org/2000/svg">
<g clip-path="url(#clip0)">
<path d="M31.6406 13.0091C31.0629 12.9496 30.4769 12.9189 29.8828 12.9189C20.5284 12.9189 12.9189 20.5284 12.9189 29.8828C12.9189 39.2367 20.5284 46.8461 29.8828 46.8461C30.4769 46.8461 31.0629 46.8159 31.6406 46.7559C40.1719 45.8738 46.8475 38.6439 46.8475 29.8828C46.8475 21.1216 40.1719 13.8917 31.6406 13.0091V13.0091ZM31.6406 43.216V16.549C38.2292 17.4128 43.3323 23.0621 43.3323 29.8828C43.3323 36.7034 38.2292 42.3527 31.6406 43.216Z" fill="#00679A"/>
<path d="M29.8828 10.3761C30.8533 10.3761 31.6406 9.58878 31.6406 8.61832V1.64063C31.6406 0.669708 30.8533 -0.117188 29.8828 -0.117188C28.9119 -0.117188 28.125 0.669708 28.125 1.64063V8.61832C28.125 9.58878 28.9119 10.3761 29.8828 10.3761Z" fill="#00679A"/>
<path d="M29.8828 49.3896C28.9119 49.3896 28.125 50.177 28.125 51.1475V58.1252C28.125 59.0961 28.9119 59.883 29.8828 59.883C30.8533 59.883 31.6406 59.0961 31.6406 58.1252V51.1475C31.6406 50.1765 30.8537 49.3896 29.8828 49.3896V49.3896Z" fill="#00679A"/>
<path d="M10.3761 29.8828C10.3761 28.9119 9.58878 28.125 8.61832 28.125H1.64063C0.669708 28.125 -0.117188 28.9119 -0.117188 29.8828C-0.117188 30.8533 0.669708 31.6406 1.64063 31.6406H8.61832C9.58878 31.6406 10.3761 30.8537 10.3761 29.8828Z" fill="#00679A"/>
<path d="M58.1252 28.125H51.1475C50.1765 28.125 49.3896 28.9119 49.3896 29.8828C49.3896 30.8533 50.1765 31.6406 51.1475 31.6406H58.1252C59.0961 31.6406 59.883 30.8533 59.883 29.8828C59.883 28.9119 59.0961 28.125 58.1252 28.125Z" fill="#00679A"/>
<path d="M13.1822 15.6674C13.5255 16.0107 13.9755 16.1823 14.425 16.1823C14.875 16.1823 15.3245 16.0107 15.6678 15.6674C16.354 14.9807 16.354 13.8679 15.6678 13.1817L10.5954 8.10922C9.90918 7.42258 8.7959 7.42258 8.10971 8.10922C7.42307 8.79541 7.42307 9.90823 8.10971 10.5949L13.1822 15.6674Z" fill="#00679A"/>
<path d="M46.5843 44.098C45.8981 43.4113 44.7853 43.4113 44.0986 44.098C43.4124 44.7842 43.4124 45.897 44.0986 46.5836L49.1711 51.6561C49.5144 51.9995 49.9644 52.1711 50.4139 52.1711C50.8639 52.1711 51.3134 51.9995 51.6568 51.6561C52.3429 50.9695 52.3429 49.8567 51.6568 49.1705L46.5843 44.098Z" fill="#00679A"/>
<path d="M13.1818 44.098L8.10937 49.1705C7.42318 49.8567 7.42318 50.9695 8.10937 51.6561C8.45269 51.9995 8.90221 52.1711 9.3522 52.1711C9.80172 52.1711 10.2517 51.9995 10.595 51.6561L15.6675 46.5836C16.3537 45.897 16.3537 44.7842 15.6675 44.098C14.9813 43.4113 13.868 43.4113 13.1818 44.098Z" fill="#00679A"/>
<path d="M45.3408 16.1823C45.7908 16.1823 46.2403 16.0107 46.5836 15.6674L51.6561 10.5949C52.3423 9.90823 52.3423 8.79541 51.6561 8.10922C50.9699 7.42258 49.8567 7.42258 49.1705 8.10922L44.098 13.1817C43.4113 13.8679 43.4113 14.9807 44.098 15.6674C44.4413 16.0107 44.8908 16.1823 45.3408 16.1823V16.1823Z" fill="#00679A"/>
</g>
<defs>
<clipPath id="clip0">
<rect width="60" height="60" fill="white"/>
</clipPath>
</defs>
</svg>
