<svg width="595" height="175" viewBox="0 0 595 175" fill="none" xmlns="http://www.w3.org/2000/svg">
<path fill-rule="evenodd" clip-rule="evenodd" d="M555.721 63.0576H558.71C560.133 63.0576 561.108 62.8397 561.628 62.4164C562.147 61.9929 562.41 61.4286 562.41 60.7233C562.41 60.274 562.282 59.8701 562.032 59.5109C561.781 59.1583 561.435 58.8887 560.993 58.7158C560.543 58.5361 559.723 58.4528 558.517 58.4528H555.721V63.0576V63.0576ZM553.258 71.639V56.3877H558.498C560.294 56.3877 561.589 56.5224 562.391 56.8047C563.193 57.0867 563.828 57.5805 564.309 58.2796C564.783 58.9851 565.02 59.7292 565.02 60.5178C565.02 61.6338 564.623 62.6021 563.828 63.4295C563.032 64.2567 561.974 64.7185 560.659 64.8214C561.198 65.0456 561.634 65.3151 561.955 65.6295C562.57 66.2322 563.321 67.2393 564.212 68.6563L566.072 71.639H563.064L561.711 69.2338C560.646 67.3484 559.793 66.1619 559.139 65.6871C558.69 65.3341 558.03 65.1612 557.164 65.1612H555.721V71.639H553.258V71.639ZM559.479 51.9685C557.484 51.9685 555.548 52.4819 553.662 53.5015C551.777 54.5211 550.301 55.9835 549.237 57.8756C548.172 59.774 547.64 61.7492 547.64 63.808C547.64 65.8475 548.166 67.8034 549.211 69.6763C550.257 71.5491 551.719 73.0112 553.598 74.0566C555.477 75.102 557.433 75.6279 559.479 75.6279C561.519 75.6279 563.481 75.102 565.36 74.0566C567.239 73.0112 568.695 71.5491 569.734 69.6763C570.773 67.8034 571.293 65.8475 571.293 63.808C571.293 61.7492 570.767 59.774 569.708 57.8756C568.65 55.9835 567.175 54.5211 565.283 53.5015C563.391 52.4819 561.455 51.9685 559.479 51.9685V51.9685ZM559.479 49.6214C561.859 49.6214 564.18 50.2306 566.451 51.4492C568.714 52.674 570.485 54.4188 571.748 56.6956C573.011 58.9658 573.646 61.339 573.646 63.808C573.646 66.2514 573.024 68.5988 571.774 70.8501C570.529 73.1073 568.778 74.8583 566.534 76.1027C564.283 77.353 561.935 77.9752 559.479 77.9752C557.023 77.9752 554.669 77.353 552.424 76.1027C550.173 74.8583 548.422 73.1073 547.172 70.8501C545.915 68.5988 545.293 66.2514 545.293 63.808C545.293 61.339 545.928 58.9658 547.198 56.6956C548.467 54.4188 550.237 52.674 552.508 51.4492C554.772 50.2306 557.1 49.6214 559.479 49.6214ZM131.41 22.472C138.33 22.9491 144.768 24.3979 150.479 26.8246C157.939 29.9946 164.161 34.8249 168.614 41.3281C168.64 41.3615 168.664 41.3958 168.687 41.4304L168.692 41.4274L168.902 41.7421C168.929 41.7823 168.953 41.8231 168.977 41.8645L168.98 41.8695C169.012 41.918 169.042 41.9676 169.07 42.0175C173.393 48.6276 175.481 56.2327 175.549 64.3471C175.572 67.01 175.376 69.727 174.97 72.4806C176.602 67.2169 177.452 62.0734 177.455 57.1964C177.459 50.2671 175.746 43.8648 172.122 38.4231L172.079 38.3543C168.462 32.9577 163.231 28.9353 156.855 26.2795C150.09 23.4619 142.044 22.1741 133.257 22.402C132.645 22.4179 132.029 22.4414 131.41 22.472H131.41ZM201.421 109.783V127.586H205.858C207.708 127.586 209.283 127.491 210.584 127.304C211.807 127.127 212.781 126.875 213.506 126.549L213.524 126.541C214.229 126.212 214.861 125.802 215.416 125.309C215.991 124.799 216.496 124.197 216.93 123.504C217.373 122.799 217.702 122.07 217.919 121.317C218.13 120.584 218.236 119.796 218.236 118.951C218.236 117.898 218.084 116.934 217.782 116.06C217.479 115.186 217.016 114.362 216.395 113.592L216.363 113.551C215.751 112.808 215.029 112.177 214.198 111.665C213.323 111.126 212.318 110.708 211.183 110.416L211.167 110.412L211.166 110.416C210.396 110.211 209.285 110.056 207.836 109.948L207.797 109.945C206.31 109.836 204.473 109.783 202.287 109.783H201.421L201.421 109.783ZM201.421 85.5659V99.7371H202.324C204.095 99.7371 205.596 99.6523 206.826 99.4845C207.983 99.3266 208.909 99.0999 209.601 98.8065L209.6 98.8035C210.275 98.5123 210.872 98.1447 211.388 97.7019C211.911 97.2538 212.367 96.7194 212.757 96.1012C213.151 95.4759 213.447 94.8162 213.644 94.1229C213.84 93.429 213.939 92.6849 213.939 91.8906C213.939 90.8407 213.783 89.9341 213.473 89.1736L213.47 89.1746C213.17 88.4422 212.721 87.8106 212.125 87.2825C211.52 86.7453 210.7 86.3326 209.666 86.0449C208.516 85.7251 207.103 85.5656 205.427 85.5656H201.421L201.421 85.5659ZM265.776 107.64C265.655 107.295 265.527 106.965 265.395 106.649C264.97 105.64 264.486 104.768 263.945 104.034C263.404 103.302 262.769 102.633 262.041 102.03C261.308 101.423 260.489 100.89 259.583 100.433C258.661 99.9684 257.732 99.6226 256.794 99.3972C255.867 99.1747 254.891 99.063 253.864 99.063C252.217 99.063 250.694 99.3476 249.3 99.9143C247.899 100.484 246.608 101.343 245.431 102.488L245.423 102.496L245.423 102.497C244.588 103.303 243.84 104.341 243.18 105.608C242.854 106.235 242.552 106.913 242.274 107.64H265.777L265.776 107.64ZM269.645 119.378L273.893 121.807C274.909 122.389 275.263 123.682 274.685 124.699C273.964 126.225 273.187 127.606 272.357 128.843C271.471 130.165 270.522 131.33 269.514 132.342L269.506 132.351C267.473 134.378 265.189 135.919 262.657 136.972C262.618 136.989 262.578 137.004 262.539 137.017C261.288 137.526 259.962 137.91 258.561 138.168C257.121 138.433 255.629 138.567 254.086 138.567C250.584 138.567 247.443 137.936 244.662 136.672C241.853 135.396 239.438 133.483 237.416 130.931C235.463 128.466 233.998 125.838 233.02 123.046C232.037 120.238 231.546 117.284 231.546 114.186C231.546 111.272 231.962 108.504 232.792 105.888C233.623 103.267 234.871 100.805 236.534 98.5085C236.562 98.4691 236.592 98.4311 236.623 98.394C238.737 95.4941 241.22 93.3021 244.07 91.8233C246.968 90.3195 250.21 89.5652 253.791 89.5652C257.468 89.5652 260.799 90.3362 263.779 91.8732C266.753 93.4073 269.337 95.6875 271.528 98.7086L271.573 98.7735C273.115 100.898 274.278 103.273 275.059 105.897C275.834 108.5 276.235 111.36 276.261 114.476C276.27 115.646 275.33 116.602 274.16 116.611H274.143V116.619H241.127C241.289 118.015 241.589 119.321 242.024 120.536C242.663 122.323 243.593 123.902 244.809 125.274L244.813 125.27C246.03 126.635 247.368 127.652 248.827 128.317C250.274 128.977 251.883 129.308 253.655 129.308C254.532 129.308 255.389 129.227 256.221 129.065C257.057 128.902 257.882 128.658 258.69 128.332C259.536 127.99 260.305 127.603 260.991 127.173C261.653 126.759 262.268 126.283 262.832 125.745L262.841 125.737L262.84 125.737C263.399 125.211 263.997 124.498 264.634 123.6C265.295 122.667 265.996 121.532 266.731 120.199C267.295 119.172 268.585 118.797 269.612 119.361L269.644 119.379L269.645 119.377L269.645 119.378ZM282.798 74.2386H287.846C289.02 74.2386 289.972 75.1905 289.972 76.3646V135.346C289.972 136.52 289.02 137.472 287.846 137.472H282.798C281.624 137.472 280.672 136.52 280.672 135.346V76.3646C280.672 75.1905 281.624 74.2386 282.798 74.2386ZM297.585 90.6591H302.67C303.844 90.6591 304.796 91.611 304.796 92.7851V135.346C304.796 136.52 303.844 137.472 302.67 137.472H297.585C296.411 137.472 295.459 136.52 295.459 135.346V92.7851C295.459 91.611 296.411 90.6591 297.585 90.6591ZM313.124 90.6591H318.172C319.346 90.6591 320.298 91.611 320.298 92.7851V94.6775C321.411 93.6426 322.583 92.7625 323.811 92.0396C325.216 91.2125 326.673 90.5923 328.178 90.1838C329.694 89.7725 331.268 89.5647 332.898 89.5647C334.571 89.5647 336.164 89.802 337.677 90.2734C339.187 90.7445 340.606 91.4517 341.933 92.3928C343.24 93.3243 344.38 94.4199 345.348 95.6779C346.309 96.9271 347.096 98.3249 347.701 99.8692L347.704 99.8682C348.304 101.382 348.751 103.306 349.047 105.634C349.335 107.898 349.479 110.501 349.479 113.438V135.346C349.479 136.52 348.527 137.472 347.353 137.472H342.342C341.168 137.472 340.216 136.52 340.216 135.346V115.04C340.216 112.59 340.169 110.595 340.079 109.055C339.989 107.539 339.861 106.422 339.695 105.71L339.677 105.622C339.416 104.419 339.057 103.388 338.598 102.527C338.161 101.706 337.629 101.026 336.998 100.484C336.968 100.458 336.938 100.431 336.909 100.403C336.321 99.924 335.631 99.5524 334.84 99.2922C333.975 99.0073 332.986 98.863 331.876 98.863C329.365 98.863 327.108 99.7726 325.104 101.591C324.047 102.556 323.174 103.622 322.49 104.789C321.808 105.949 321.299 107.236 320.966 108.646L320.941 108.742C320.739 109.68 320.582 111.029 320.472 112.791C320.357 114.63 320.298 116.946 320.298 119.739V135.346C320.298 136.52 319.346 137.472 318.172 137.472H313.124C311.95 137.472 310.998 136.52 310.998 135.346V92.7852C310.998 91.6111 311.95 90.6592 313.124 90.6592L313.124 90.6591ZM362.571 74.8659H367.668C368.842 74.8659 369.794 75.8178 369.794 76.9919V90.6591H375.671C376.846 90.6591 377.797 91.611 377.797 92.7851V97.4841C377.797 98.6582 376.846 99.6101 375.671 99.6101H369.794V135.346C369.794 136.52 368.842 137.472 367.668 137.472H362.571C361.397 137.472 360.445 136.52 360.445 135.346V99.6101H355.688C354.514 99.6101 353.562 98.6582 353.562 97.4841V92.7851C353.562 91.611 354.514 90.6591 355.688 90.6591H360.445V76.9919C360.445 75.8178 361.397 74.8659 362.571 74.8659ZM413.44 107.64C413.318 107.295 413.191 106.965 413.058 106.649C412.633 105.64 412.149 104.768 411.608 104.034C411.067 103.302 410.432 102.633 409.704 102.03C408.971 101.423 408.152 100.89 407.246 100.433C406.324 99.9684 405.395 99.6226 404.457 99.3972C403.53 99.1744 402.554 99.063 401.527 99.063C399.88 99.063 398.357 99.3476 396.963 99.9143C395.562 100.484 394.271 101.343 393.094 102.488L393.086 102.496L393.086 102.497C392.251 103.303 391.503 104.341 390.843 105.608C390.517 106.235 390.215 106.913 389.937 107.64H413.44L413.44 107.64ZM417.308 119.378L421.556 121.807C422.572 122.389 422.926 123.682 422.348 124.699C421.627 126.225 420.85 127.605 420.02 128.843C419.134 130.165 418.185 131.33 417.178 132.342L417.17 132.351C416.149 133.368 415.073 134.259 413.944 135.021C412.803 135.791 411.595 136.442 410.32 136.972C410.281 136.989 410.241 137.004 410.202 137.017C408.952 137.526 407.625 137.91 406.224 138.168C404.784 138.433 403.292 138.567 401.75 138.567C398.247 138.567 395.106 137.936 392.325 136.672C389.51 135.393 387.095 133.482 385.08 130.939C385.047 130.899 385.017 130.857 384.988 130.815C383.081 128.383 381.646 125.794 380.684 123.046C379.701 120.238 379.209 117.284 379.209 114.186C379.209 111.272 379.625 108.504 380.455 105.888C381.287 103.267 382.534 100.805 384.197 98.5085C384.225 98.4691 384.255 98.4311 384.286 98.394C386.4 95.4941 388.883 93.3021 391.733 91.8233C394.632 90.3195 397.873 89.5652 401.454 89.5652C405.132 89.5652 408.462 90.3362 411.442 91.8734C414.415 93.4073 417 95.6872 419.191 98.7086L419.236 98.7735C420.778 100.898 421.941 103.273 422.722 105.897C423.497 108.5 423.898 111.36 423.924 114.476C423.933 115.646 422.993 116.602 421.823 116.611H421.807V116.619H388.79C388.953 118.014 389.252 119.321 389.687 120.536C390.326 122.323 391.256 123.902 392.472 125.274L392.476 125.27C393.692 126.635 395.031 127.652 396.49 128.317C397.937 128.977 399.546 129.308 401.318 129.308C402.196 129.308 403.052 129.227 403.884 129.065C404.721 128.902 405.545 128.658 406.354 128.332C407.199 127.99 407.968 127.604 408.654 127.174C409.316 126.759 409.931 126.283 410.495 125.745L410.503 125.737L410.503 125.737C411.061 125.211 411.66 124.498 412.296 123.6C412.958 122.667 413.658 121.532 414.393 120.199C414.957 119.172 416.247 118.797 417.275 119.361L417.307 119.379L417.308 119.377L417.308 119.378ZM450.112 99.1033C448.868 99.1033 447.679 99.2629 446.548 99.5812C445.406 99.9024 444.307 100.386 443.25 101.031L443.174 101.075C442.148 101.716 441.225 102.477 440.406 103.359C439.574 104.256 438.853 105.279 438.248 106.429C437.631 107.602 437.168 108.819 436.861 110.075C436.557 111.325 436.404 112.642 436.404 114.025C436.404 116.121 436.717 118.008 437.345 119.686C437.967 121.352 438.902 122.843 440.148 124.16C441.369 125.45 442.779 126.42 444.374 127.069C445.986 127.725 447.805 128.053 449.829 128.053C451.878 128.053 453.705 127.729 455.311 127.078C456.888 126.439 458.274 125.478 459.468 124.195L459.506 124.155C460.702 122.872 461.602 121.384 462.205 119.691C462.83 117.936 463.142 115.944 463.142 113.718C463.142 110.858 462.57 108.315 461.426 106.114C461.398 106.06 461.372 106.005 461.349 105.951C460.812 104.932 460.163 104.01 459.402 103.187C458.618 102.338 457.714 101.601 456.69 100.977C455.67 100.353 454.608 99.882 453.505 99.5676C452.421 99.2589 451.289 99.1033 450.112 99.1033V99.1033ZM465.01 90.6591H470.095C471.269 90.6591 472.221 91.611 472.221 92.7851V126.708C472.221 129.74 472.095 132.398 471.844 134.682C471.587 137.024 471.19 138.965 470.656 140.502L470.653 140.511C469.919 142.679 468.91 144.606 467.628 146.286C466.327 147.991 464.752 149.439 462.906 150.628C462.856 150.66 462.805 150.69 462.754 150.717C460.965 151.852 459.018 152.702 456.914 153.267C454.763 153.844 452.446 154.133 449.964 154.133C448.178 154.133 446.462 153.992 444.824 153.712C443.196 153.434 441.636 153.008 440.15 152.436L440.147 152.443C438.684 151.883 437.344 151.218 436.124 150.448C434.888 149.668 433.791 148.785 432.832 147.798C431.877 146.815 430.97 145.622 430.113 144.22C429.291 142.875 428.502 141.312 427.746 139.532C427.292 138.454 427.798 137.212 428.876 136.758C429.145 136.645 429.424 136.591 429.698 136.592V136.584H435.177C436.043 136.584 436.788 137.101 437.12 137.844C437.758 139.03 438.484 140.062 439.294 140.94C440.111 141.826 441.016 142.556 442.005 143.13L442.006 143.128C443.008 143.702 444.136 144.136 445.386 144.425C446.68 144.724 448.125 144.875 449.717 144.875C451.295 144.875 452.72 144.723 453.989 144.417C455.216 144.122 456.335 143.675 457.343 143.078L457.353 143.072L457.351 143.069C458.375 142.471 459.236 141.807 459.935 141.082C460.63 140.362 461.18 139.576 461.585 138.731C461.992 137.881 462.307 136.704 462.53 135.205C462.643 134.441 462.729 133.6 462.788 132.683C461.617 133.638 460.355 134.458 459.008 135.143C458.97 135.162 458.933 135.18 458.895 135.196C457.41 135.943 455.879 136.505 454.303 136.883C452.663 137.276 451.004 137.471 449.323 137.471C447.326 137.471 445.381 137.2 443.493 136.66C441.617 136.123 439.801 135.317 438.049 134.246C436.295 133.17 434.741 131.909 433.387 130.464C432.028 129.015 430.871 127.384 429.914 125.573C428.968 123.785 428.258 121.897 427.781 119.907C427.304 117.919 427.067 115.869 427.067 113.758C427.067 111.632 427.314 109.56 427.809 107.544C428.304 105.528 429.042 103.595 430.024 101.747C430.045 101.709 430.067 101.671 430.089 101.634C431.063 99.8133 432.224 98.1794 433.569 96.7298C434.946 95.2464 436.512 93.9589 438.266 92.8651C440.016 91.7766 441.828 90.9534 443.7 90.4003C445.581 89.8445 447.503 89.5644 449.459 89.5644C451.08 89.5644 452.665 89.7537 454.216 90.1279C455.753 90.499 457.229 91.0517 458.643 91.7811L458.65 91.7841L458.652 91.7811C460.06 92.5144 461.448 93.4887 462.812 94.7002L462.884 94.7643V92.7848C462.884 91.6107 463.836 90.6588 465.01 90.6588L465.01 90.6591ZM490.138 100.794L490.135 100.796L490.138 100.794ZM479.009 90.6591H484.168C485.342 90.6591 486.294 91.611 486.294 92.7851V93.0255C486.789 92.5677 487.292 92.1564 487.802 91.7922C488.834 91.06 489.885 90.5081 490.958 90.1398C492.073 89.7572 493.211 89.5647 494.375 89.5647C495.289 89.5647 496.228 89.7246 497.192 90.0398C498.078 90.3295 498.995 90.7629 499.94 91.3352C500.923 91.9302 501.249 93.1979 500.685 94.1903L500.688 94.1923L498.054 98.8116C497.485 99.8139 496.222 100.175 495.211 99.6354C494.846 99.4653 494.505 99.336 494.189 99.2476L494.123 99.2277C493.903 99.1713 493.709 99.1435 493.538 99.1435C493.004 99.1435 492.475 99.2643 491.952 99.5055C491.354 99.7811 490.748 100.211 490.138 100.795C489.523 101.39 488.973 102.16 488.489 103.105C487.966 104.129 487.52 105.349 487.155 106.766L487.153 106.774L487.155 106.774C486.878 107.847 486.666 109.547 486.518 111.875C486.368 114.239 486.294 117.266 486.294 120.955V135.346C486.294 136.52 485.342 137.472 484.168 137.472H479.009C477.835 137.472 476.883 136.52 476.883 135.346V92.7857C476.883 91.6116 477.835 90.6597 479.009 90.6597L479.009 90.6591ZM510.515 121.881C510.963 122.866 510.594 124.031 509.666 124.581L510.515 121.881ZM522.041 99.1033C520.833 99.1033 519.675 99.2626 518.568 99.5809C517.449 99.9029 516.386 100.379 515.381 101.007L515.386 101.014C514.359 101.666 513.437 102.443 512.623 103.348C511.795 104.269 511.072 105.325 510.456 106.519C509.829 107.73 509.361 108.968 509.052 110.228C508.746 111.481 508.592 112.788 508.592 114.145C508.592 115.49 508.745 116.79 509.053 118.044C509.366 119.317 509.838 120.564 510.469 121.784C510.486 121.816 510.501 121.849 510.516 121.881C511.136 123.05 511.85 124.087 512.659 124.993C513.483 125.913 514.411 126.703 515.447 127.366C516.465 128.014 517.525 128.502 518.622 128.827C519.702 129.147 520.83 129.308 522.005 129.308C523.211 129.308 524.364 129.148 525.463 128.831C526.579 128.51 527.681 128.016 528.768 127.354C529.838 126.701 530.785 125.935 531.605 125.054C532.432 124.166 533.132 123.168 533.7 122.06L533.707 122.047L533.7 122.043C534.29 120.909 534.731 119.709 535.022 118.443C535.318 117.156 535.466 115.776 535.466 114.305C535.466 112.081 535.135 110.059 534.475 108.243C533.818 106.437 532.835 104.809 531.528 103.363C530.233 101.929 528.799 100.859 527.228 100.153C525.669 99.453 523.941 99.1027 522.041 99.1027L522.041 99.1033ZM544.372 92.7851V135.346C544.372 136.52 543.42 137.472 542.246 137.472H537.271C536.097 137.472 535.145 136.52 535.145 135.346V133.422C533.874 134.526 532.541 135.451 531.148 136.199C531.105 136.222 531.062 136.244 531.018 136.264C529.576 137.019 528.069 137.589 526.499 137.972C524.879 138.367 523.213 138.566 521.5 138.566C518.419 138.566 515.549 137.952 512.89 136.727C510.253 135.512 507.853 133.704 505.689 131.305C503.543 128.921 501.929 126.269 500.85 123.354C499.78 120.459 499.243 117.322 499.243 113.945C499.243 110.631 499.789 107.541 500.877 104.675C501.968 101.8 503.597 99.1758 505.758 96.8038C507.932 94.417 510.35 92.6145 513.007 91.4004C515.684 90.1778 518.564 89.5647 521.647 89.5647C523.434 89.5647 525.143 89.7736 526.772 90.1889C528.405 90.605 529.961 91.2354 531.435 92.0762L531.441 92.0802L531.443 92.0762C532.746 92.822 533.979 93.7359 535.145 94.8156V92.7851C535.145 91.611 536.097 90.6591 537.271 90.6591H542.245C543.42 90.6591 544.371 91.611 544.371 92.7851H544.372ZM297.585 74.2386H302.67C303.844 74.2386 304.796 75.1905 304.796 76.3646V86.7527C304.796 87.9268 303.844 88.8787 302.67 88.8787H297.585C296.411 88.8787 295.459 87.9268 295.459 86.7527V76.3646C295.459 75.1905 296.411 74.2386 297.585 74.2386ZM191.219 153.407V148.322C191.219 147.148 192.171 146.196 193.345 146.196H422.347C423.521 146.196 424.473 147.148 424.473 148.322V153.407C424.473 154.581 423.521 155.533 422.347 155.533H193.345C192.171 155.533 191.219 154.581 191.219 153.407ZM477.717 153.407V148.322C477.717 147.148 478.669 146.196 479.843 146.196H542.246C543.42 146.196 544.372 147.148 544.372 148.322V153.407C544.372 154.581 543.42 155.533 542.246 155.533H479.843C478.669 155.533 477.717 154.581 477.717 153.407ZM194.1 75.68H204.565C206.772 75.68 208.748 75.8283 210.495 76.1222C212.316 76.4289 213.878 76.8947 215.181 77.5163C215.243 77.5458 215.303 77.5781 215.361 77.613C216.618 78.2369 217.745 79.0133 218.739 79.9402C219.778 80.9088 220.682 82.0489 221.45 83.3565L221.456 83.3665L221.459 83.3645C222.205 84.6474 222.77 86.0038 223.149 87.4342C223.528 88.8651 223.719 90.3504 223.719 91.8905C223.719 93.3319 223.553 94.7229 223.219 96.0634C222.884 97.4127 222.383 98.69 221.718 99.8941C221.044 101.115 220.209 102.226 219.217 103.221C219.125 103.313 219.032 103.404 218.938 103.494C219.121 103.59 219.301 103.687 219.475 103.784C220.663 104.449 221.698 105.184 222.579 105.989C223.447 106.783 224.214 107.658 224.882 108.612C225.547 109.562 226.113 110.591 226.583 111.701L226.586 111.7C227.061 112.813 227.417 113.967 227.652 115.161C227.886 116.352 228.004 117.581 228.004 118.845C228.004 121.406 227.563 123.798 226.679 126.016C225.795 128.234 224.479 130.241 222.732 132.032C220.952 133.854 218.874 135.222 216.499 136.131C214.166 137.024 211.558 137.472 208.678 137.472H194.1C192.926 137.472 191.974 136.52 191.974 135.346V77.8061C191.974 76.632 192.926 75.6801 194.1 75.6801L194.1 75.68ZM67.6735 124.715C68.2192 124.911 68.7501 125.068 69.2669 125.185L69.2745 125.187L69.2751 125.185C70.0177 125.355 70.7394 125.441 71.4407 125.441C73.0383 125.441 74.4664 125.322 75.7219 125.085C76.9252 124.857 77.9908 124.518 78.9151 124.069C78.9511 124.051 78.9874 124.035 79.024 124.019C79.871 123.6 80.602 123.106 81.2129 122.539C81.8303 121.966 82.3286 121.322 82.7031 120.607L82.7102 120.594L82.7031 120.59C83.1118 119.821 83.4188 118.947 83.6252 117.972L83.643 117.895C83.8477 116.892 83.9495 115.764 83.9495 114.516C83.9495 113.2 83.8338 112.042 83.6028 111.038C83.3865 110.097 83.0702 109.284 82.6557 108.598L82.6546 108.599C81.9992 107.545 81.296 106.681 80.5448 106.009C79.8242 105.364 79.0509 104.881 78.226 104.564L78.2116 104.558L78.2093 104.564C77.2886 104.203 76.1165 103.929 74.6938 103.742C73.2172 103.549 71.4385 103.452 69.3584 103.452C68.6441 103.452 68.0423 103.47 67.5525 103.506V107.353C67.5525 107.42 67.5491 107.487 67.5428 107.553L67.4983 114.082L67.6349 124.459H67.6364C67.6412 124.535 67.6537 124.621 67.6735 124.715V124.715ZM67.5082 95.3536L67.5255 95.3546C68.1511 95.3957 68.8709 95.4164 69.6821 95.4164C71.7752 95.4164 73.5886 95.2279 75.119 94.8501C76.5661 94.4926 77.7583 93.9736 78.692 93.293L78.696 93.29L78.692 93.285C79.5206 92.6823 80.1479 91.8464 80.5723 90.7777C81.0451 89.5872 81.2818 88.0831 81.2818 86.2675C81.2818 85.1079 81.0706 84.0571 80.6465 83.1191C80.2199 82.1746 79.5725 81.3168 78.7042 80.5501L78.6997 80.5461L78.696 80.5501C77.834 79.7841 76.7313 79.205 75.3908 78.8127C73.9434 78.3892 72.2035 78.178 70.1756 78.178C69.5696 78.178 68.8989 78.2154 68.1667 78.2877C67.8799 78.3161 67.5822 78.349 67.2747 78.3864L67.3109 79.4315H67.3126C67.3878 80.7006 67.4459 82.282 67.4861 84.1787C67.5303 86.2449 67.5525 88.3252 67.5525 90.4257C67.5525 90.4968 67.5488 90.5671 67.542 90.6366L67.4983 94.2564H67.5063C67.5063 94.7655 67.5068 95.14 67.5082 95.3537V95.3536ZM70.8455 51.8446L70.8418 51.8466L70.8455 51.8446ZM110.066 111.377L110.067 111.345L110.066 111.377ZM110.046 125.676C110.036 125.693 110.019 125.718 110.034 125.698C110.044 125.684 110.047 125.678 110.046 125.676ZM103.06 131.415L102.973 128.63C102.939 127.533 103.743 126.605 104.808 126.463V126.462L109.756 125.798C109.856 125.763 109.944 125.723 110.02 125.681C110 125.686 109.977 125.684 109.985 125.627C110.034 125.312 110.058 124.831 110.058 124.188V123.689C110.058 123.603 110.065 123.325 110.083 122.765L110.084 122.74C110.095 122.364 110.11 121.976 110.128 121.596C110.153 121.084 110.173 120.632 110.184 120.279C110.192 120.019 110.197 119.656 110.197 119.158C110.197 118.793 110.188 118.398 110.17 117.974C110.151 117.506 110.116 116.833 110.066 115.957C110.061 115.865 110.062 115.775 110.068 115.686L110.111 113.553L110.066 111.443L110.066 111.345L110.159 103.974H110.15C110.15 103.515 110.133 103.102 110.098 102.733C110.079 102.53 110.054 102.324 110.025 102.114C109.863 102.022 109.665 101.931 109.43 101.839L109.41 101.831C109.1 101.722 108.646 101.619 108.044 101.522C107.377 101.415 106.524 101.323 105.48 101.249C104.361 101.17 103.506 100.237 103.507 99.131H103.504V96.5775C103.504 95.4034 104.456 94.4516 105.63 94.4516L105.653 94.4518C107.037 94.3682 108.325 94.1831 109.513 93.8979C110.712 93.6099 111.836 93.2122 112.881 92.7051C112.923 92.6853 112.964 92.6671 113.006 92.6499C113.63 92.3562 114.306 91.9369 115.033 91.3941C115.835 90.7954 116.659 90.0749 117.505 89.2341C117.919 88.8228 118.46 88.6176 119 88.6176V88.6116H122.038C123.212 88.6116 124.164 89.5635 124.164 90.7376C124.164 90.7765 124.163 90.8153 124.161 90.8538C124.213 92.7173 124.255 94.8878 124.283 97.3659C124.317 100.244 124.334 102.95 124.334 105.439C124.334 105.513 124.33 105.586 124.323 105.658L124.018 124.048H124.026C124.026 124.729 124.038 125.301 124.062 125.772L124.067 125.876C124.348 125.941 124.659 126.008 124.998 126.075C132.86 120.483 139.731 114.226 145.459 107.642C151.542 100.649 156.305 93.3197 159.563 86.0613C162.819 78.8063 164.566 71.6511 164.606 65.0365C164.643 58.8564 163.189 53.1411 160.079 48.2607C159.927 48.1017 159.804 47.9251 159.71 47.7372L159.706 47.7392L159.612 47.5512C156.328 42.7312 151.606 39.1343 145.861 36.7546C139.711 34.2071 132.394 33.0432 124.398 33.251C116.024 33.4684 106.951 35.1871 97.6977 38.3925C88.7675 41.4865 79.664 45.9735 70.8511 51.8415L70.8412 51.8475C62.367 57.4907 54.9643 63.8811 48.8035 70.6409L54.5179 70.5088V70.5083L69.2915 70.0105L69.349 70.0095L70.9418 69.9669L70.9415 69.9639C71.0646 69.9537 71.2715 69.9421 71.5722 69.9294V69.9291C71.8787 69.9157 72.091 69.9089 72.2109 69.9089C72.3112 69.9089 72.3971 69.9159 73.0715 69.9291L73.0777 69.9294C73.5151 69.9374 74.0248 69.9489 74.6013 69.9628V69.9558H77.485C77.5409 69.9558 77.5964 69.9578 77.6511 69.9618C78.8595 69.9558 80.0969 70.0435 81.3634 70.2218C82.7076 70.4114 84.0852 70.6969 85.4977 71.0736C86.0479 71.2218 86.6775 71.4438 87.3839 71.7377C88.0376 72.0099 88.7788 72.3557 89.6054 72.773C90.4737 73.2035 91.2872 73.703 92.0472 74.2657C92.8261 74.8428 93.5399 75.48 94.1893 76.172C94.8529 76.8789 95.434 77.6304 95.9267 78.421C96.4182 79.2101 96.8284 80.0503 97.1512 80.9359C97.1646 80.9727 97.177 81.0099 97.1881 81.0473C97.4891 81.8985 97.7153 82.758 97.8639 83.6214C98.0215 84.5387 98.1017 85.4688 98.1017 86.4082C98.1017 87.491 97.9758 88.5376 97.7267 89.547C97.4747 90.5683 97.0985 91.5295 96.6019 92.429C96.5789 92.4709 96.5545 92.5114 96.529 92.5514C96.0522 93.3978 95.4677 94.2049 94.7761 94.9671C94.0671 95.7486 93.2448 96.4916 92.3111 97.1897C92.2459 97.2385 92.1787 97.2824 92.1101 97.3227C91.7668 97.5588 91.3294 97.823 90.7979 98.1164C91.2934 98.3412 91.7733 98.5796 92.2368 98.8324C94.1981 99.9031 95.8564 101.221 97.2079 102.79C98.5566 104.355 99.5771 106.022 100.264 107.787C100.959 109.572 101.309 111.432 101.309 113.365C101.309 114.467 101.199 115.62 100.981 116.822C100.765 118.012 100.454 119.192 100.052 120.361L100.05 120.368C99.7349 121.314 99.3072 122.24 98.7655 123.14C98.2402 124.014 97.6022 124.859 96.8507 125.672L96.8464 125.677L96.8507 125.681C95.9136 126.687 94.9441 127.578 93.9404 128.352C92.9083 129.149 91.8569 129.81 90.7837 130.335C90.7491 130.352 90.714 130.367 90.6788 130.382C89.6405 130.888 88.4241 131.346 87.0335 131.755C85.6527 132.161 84.069 132.524 82.2851 132.845L82.2758 132.847L82.2769 132.854C81.3707 133.014 80.2212 133.136 78.8306 133.218C77.464 133.298 75.9296 133.339 74.2319 133.339C74.1537 133.339 74.0763 133.334 74 133.327L66.5517 133.145V133.152C64.8405 133.152 63.0878 133.188 61.2912 133.258C59.4399 133.331 57.3646 133.444 55.0725 133.596C55.0346 133.598 54.9966 133.599 54.9589 133.6C54.3466 133.629 53.1731 133.678 51.4351 133.748C49.7766 133.813 47.4491 133.903 44.4508 134.016C43.2813 134.057 42.2993 133.143 42.2582 131.973C42.2563 131.914 42.2568 131.854 42.2597 131.796L42.3504 128.189C42.3736 127.202 43.0681 126.389 43.9874 126.175L43.9865 126.171C44.3593 126.083 44.7833 125.992 45.265 125.899C45.7613 125.804 46.2667 125.716 46.7744 125.64C46.83 125.632 46.8855 125.625 46.9408 125.621C47.7699 125.505 48.5273 125.36 49.2139 125.191C49.632 125.087 50.0206 124.974 50.3801 124.851L50.4268 124.74C50.5025 124.552 50.5587 124.368 50.5958 124.189C50.7072 123.401 50.788 122.438 50.8399 121.303C50.892 120.171 50.9164 118.742 50.9164 117.026C50.9164 116.967 50.9189 116.907 50.9238 116.849L50.8481 97.6462V97.6382H50.8399C50.8399 96.3969 50.8155 94.5946 50.767 92.2371C50.7137 89.6434 50.6324 86.2117 50.5238 81.9442C50.4954 80.8874 50.4447 80.0254 50.3744 79.3559C50.3551 79.1725 50.3364 79.0163 50.3191 78.887L50.2426 78.87C49.8914 78.7932 49.4574 78.7416 48.9418 78.7175L48.9168 78.7165V78.7175C48.5764 78.6988 48.0256 78.6452 47.2642 78.5588C46.3299 78.453 45.3781 78.3385 44.3496 78.2104C43.8269 78.1466 43.372 77.8983 43.042 77.5383C38.9049 82.9613 35.5529 88.531 33.0678 94.068C31.5356 97.4809 30.3366 100.885 29.4904 104.233C28.6636 107.506 28.1791 110.7 28.0575 113.769C28.1854 116.939 28.6865 119.992 29.5792 122.881C30.4494 125.696 31.6978 128.362 33.3422 130.835L33.3563 130.857L33.3566 130.857C36.6967 135.874 41.4277 139.707 47.1749 142.364C53.2343 145.165 60.4147 146.666 68.2908 146.877C76.3395 146.661 85.0384 145.057 93.9256 142.077C100.419 139.899 107.011 136.985 113.521 133.34L112.323 133.34C111.474 133.34 110.76 133.349 110.203 133.368C109.605 133.389 108.935 133.428 108.186 133.487C107.614 133.532 107.025 133.57 106.446 133.602V133.603C105.843 133.635 105.426 133.651 105.183 133.651C104.009 133.651 103.057 132.699 103.057 131.525C103.057 131.489 103.058 131.453 103.06 131.417V131.415ZM109.38 77.0954C109.38 74.8804 110.115 73.0203 111.584 71.5585L111.592 71.5505L111.592 71.5502C112.333 70.8234 113.18 70.2741 114.134 69.9059C115.068 69.545 116.074 69.363 117.149 69.363C118.283 69.363 119.346 69.5501 120.333 69.9217C121.338 70.2999 122.237 70.8643 123.028 71.6106C123.808 72.3462 124.403 73.1538 124.812 74.03C125.244 74.9555 125.46 75.9213 125.46 76.9239C125.46 77.5756 125.382 78.2445 125.228 78.9325L125.205 79.0224C125.056 79.6621 124.848 80.2801 124.583 80.8782L124.549 80.9516C124.231 81.6416 123.824 82.2652 123.329 82.8205C122.825 83.3863 122.232 83.8801 121.555 84.3008C121.523 84.3206 121.491 84.3393 121.459 84.3572C120.832 84.7396 120.186 85.0315 119.524 85.2351L119.525 85.2371C118.789 85.4628 118.058 85.5744 117.335 85.5744C116.297 85.5744 115.301 85.3451 114.346 84.8921C113.441 84.4633 112.6 83.8476 111.821 83.051C111.781 83.0108 111.744 82.9694 111.708 82.9269C110.957 82.1389 110.389 81.2712 110 80.3221C109.584 79.3073 109.379 78.233 109.379 77.0952L109.38 77.0954ZM136.61 135.791L136.61 135.791L136.554 135.827C126.153 142.73 115.357 148.019 104.718 151.676C93.6255 155.489 82.6699 157.537 72.4791 157.802C71.7812 157.82 71.0686 157.829 70.3432 157.83C69.6359 157.83 68.9474 157.823 68.2778 157.807C58.6352 158.032 49.7126 156.526 42.0903 153.275C34.685 150.116 28.5049 145.319 24.0679 138.872C23.9905 138.779 23.9224 138.68 23.8635 138.577L23.7331 138.381L23.7294 138.384L23.6506 138.266C23.6084 138.202 23.5698 138.137 23.5352 138.071C21.242 134.556 19.58 130.763 18.5176 126.765C17.4203 122.636 16.9611 118.281 17.104 113.785C16.9569 109.106 17.4385 104.279 18.5128 99.3855C19.599 94.4379 21.2964 89.3931 23.565 84.3387C27.7461 75.0237 33.8786 65.6864 41.7033 56.9019C49.2083 48.4764 58.2863 40.5374 68.7084 33.5928C68.7867 33.533 68.8694 33.4783 68.9556 33.4296C79.3383 26.5414 90.1148 21.2621 100.736 17.6088C111.837 13.7906 122.801 11.7403 133 11.4755C143.564 11.2011 153.327 12.8421 161.639 16.4149C169.745 19.899 176.478 25.2159 181.249 32.3805L181.329 32.5009C181.349 32.5313 181.368 32.5616 181.386 32.5928C186.068 39.7194 188.326 47.933 188.398 56.704C188.471 65.7315 186.222 75.3395 181.914 84.9391C177.733 94.2531 171.601 103.59 163.777 112.373C156.299 120.77 147.257 128.683 136.879 135.611C136.853 135.632 136.827 135.651 136.8 135.671C136.738 135.715 136.675 135.755 136.61 135.792V135.791Z" fill="#009EE0"/>
</svg>
