<svg width="55" height="55" viewBox="0 0 55 55" fill="none" xmlns="http://www.w3.org/2000/svg">
<path fill-rule="evenodd" clip-rule="evenodd" d="M0.605759 0.74472H54.4902V54.6292H0.605759V0.74472ZM7.93138 21.7756H31.0544V19.5396H11.1153V16.9812H31.0544V14.7452H7.93138C7.72352 14.7452 7.53314 14.8695 7.39522 15.0677L7.39327 15.0735C7.25729 15.2755 7.17375 15.5553 7.17375 15.8622C7.17375 16.1691 7.25729 16.4489 7.39327 16.6509L7.39522 16.6568C7.52926 16.8491 7.70993 16.9734 7.91196 16.9792H7.91971H7.92944H8.757V19.5377H7.92944H7.91971H7.91196C7.70993 19.5454 7.52926 19.6678 7.39522 19.8601L7.39327 19.866C7.25729 20.068 7.17375 20.3477 7.17375 20.6547C7.17375 20.9616 7.25729 21.2413 7.39327 21.4434L7.39522 21.4492C7.5312 21.6493 7.72352 21.7717 7.93138 21.7717V21.7756ZM44.2856 42.4489C44.2876 42.9385 44.272 43.3367 44.239 43.6417C44.2079 43.9428 44.1438 44.1759 44.0564 44.3333C43.967 44.4926 43.8369 44.5994 43.6659 44.6597C43.4969 44.716 43.2755 44.7413 43.0035 44.7393C42.7354 44.7413 42.5217 44.716 42.3566 44.6597C42.1915 44.5994 42.0652 44.4926 41.9797 44.3314C41.8923 44.1701 41.836 43.9389 41.801 43.634C41.7719 43.3251 41.7583 42.9288 41.7583 42.4353C41.7563 42.0157 41.7738 41.6603 41.8049 41.363C41.836 41.0697 41.8982 40.8288 41.9836 40.6481C42.0672 40.4597 42.1954 40.3257 42.3605 40.2402C42.5237 40.1547 42.7393 40.1139 43.0035 40.1139C43.2755 40.11 43.4969 40.1547 43.6659 40.2402C43.8369 40.3257 43.967 40.4617 44.0564 40.6481C44.1438 40.8327 44.2099 41.0755 44.239 41.3727C44.272 41.668 44.2856 42.0274 44.2856 42.4509V42.4489ZM44.2856 39.331H44.2157C44.0817 38.9561 43.9088 38.6686 43.699 38.4627C43.4833 38.2587 43.2444 38.113 42.9782 38.0373C42.7141 37.9557 42.4304 37.9168 42.1351 37.9207C41.4649 37.9188 40.9288 38.047 40.5208 38.3112C40.1148 38.5734 39.8176 38.9852 39.633 39.5447C39.4485 40.1003 39.3553 40.821 39.3591 41.7049V43.6961C39.363 44.4634 39.4699 45.0831 39.6855 45.5591C39.9011 46.035 40.2158 46.3828 40.6277 46.6062C41.0415 46.8257 41.5426 46.9345 42.1371 46.9325C42.4868 46.9364 42.8015 46.8898 43.0831 46.7965C43.3648 46.7033 43.6038 46.5362 43.7961 46.2992C43.9903 46.0603 44.138 45.7242 44.2293 45.2891H44.342L44.2876 46.8004H46.6867V34.3579H44.2876V39.3349L44.2856 39.331ZM37.3077 34.354H33.1913L29.1856 40.7919V44.3411H34.656V46.7965H37.3077V44.3411H38.1994V41.9361H37.3077V34.354ZM34.656 41.9361H31.3769L34.5608 36.9105H34.656V41.9361ZM27.752 44.209H22.1397C22.1378 43.8768 22.165 43.6145 22.2213 43.4203C22.2757 43.2279 22.3651 43.0784 22.4913 42.9754C22.6157 42.8686 22.7847 42.7831 22.9964 42.717C23.2082 42.6549 23.4646 42.5849 23.7773 42.5092C24.0882 42.4334 24.4514 42.3324 24.8749 42.2003C25.3101 42.0624 25.6908 41.9167 26.0133 41.7749C26.3358 41.6292 26.6117 41.464 26.8331 41.2776C27.0546 41.0872 27.2313 40.856 27.3673 40.586C27.4994 40.316 27.5985 39.9838 27.6587 39.5933C27.7209 39.2009 27.752 38.723 27.75 38.1694C27.75 37.4739 27.682 36.8892 27.5538 36.4191C27.4314 35.9451 27.2469 35.5643 27.0079 35.2748C26.769 34.9873 26.4795 34.7659 26.1415 34.6143C25.8035 34.4667 25.4247 34.3638 25.0051 34.3113C24.5797 34.2588 24.1231 34.2375 23.6317 34.2394C23.0974 34.2375 22.6137 34.2666 22.1805 34.3346C21.7434 34.4007 21.3607 34.5153 21.0266 34.6843C20.6964 34.8494 20.4127 35.0864 20.1874 35.3895C19.964 35.6906 19.7891 36.081 19.6784 36.5492C19.5619 37.0232 19.5036 37.5963 19.5036 38.2704V38.8842H22.1417V38.2879C22.1397 37.9595 22.1592 37.6954 22.1961 37.4991C22.2369 37.3029 22.3049 37.1572 22.4078 37.0601C22.5147 36.963 22.6662 36.8989 22.8663 36.8697C23.0644 36.8406 23.3169 36.827 23.6336 36.8289C23.9133 36.827 24.1464 36.8406 24.3368 36.8717C24.5272 36.9047 24.6768 36.9688 24.7934 37.0659C24.9041 37.1631 24.9896 37.3049 25.0381 37.4914C25.0906 37.6798 25.1158 37.9265 25.1119 38.2373C25.1158 38.4685 25.108 38.6589 25.0906 38.8201C25.0731 38.9775 25.0342 39.1076 24.9701 39.2145C24.9041 39.3194 24.8031 39.4107 24.6671 39.4923C24.5311 39.57 24.3407 39.6438 24.0998 39.7196C23.8628 39.7914 23.5559 39.873 23.1868 39.9643C22.5555 40.1197 22.0193 40.281 21.5841 40.45C21.1451 40.6209 20.7896 40.8094 20.5176 41.0231C20.2437 41.2368 20.03 41.4873 19.8843 41.7787C19.7348 42.0662 19.6357 42.412 19.5793 42.8064C19.5249 43.2046 19.5016 43.6709 19.5036 44.2109V46.8004H27.752V44.2109V44.209ZM18.0097 38.2043C18.0078 37.5302 17.9359 36.9591 17.7863 36.4929C17.6426 36.0247 17.4347 35.6439 17.1588 35.3467C16.8869 35.0495 16.5586 34.8203 16.1778 34.659C15.7971 34.4997 15.3697 34.389 14.8976 34.3288C14.4275 34.2647 13.9185 34.2375 13.3746 34.2414C12.7627 34.2394 12.1993 34.2686 11.6807 34.3424C11.1659 34.4123 10.7054 34.5386 10.3033 34.7251C9.89731 34.9155 9.55542 35.1835 9.2718 35.5371C8.99012 35.8907 8.77642 36.3472 8.63072 36.9105C8.48502 37.4739 8.40732 38.1655 8.40732 38.9852V42.2042C8.40732 43.0065 8.47337 43.6883 8.60741 44.2478C8.74339 44.8054 8.94348 45.2658 9.20767 45.6213C9.47576 45.9787 9.806 46.2546 10.2042 46.4508C10.6044 46.645 11.0668 46.7829 11.5932 46.8568C12.1236 46.9325 12.72 46.9675 13.3746 46.9636C14.1245 46.9675 14.7578 46.9306 15.2959 46.8509C15.8262 46.7732 16.2691 46.6314 16.6246 46.4294C16.9743 46.2254 17.2502 45.936 17.4561 45.563C17.6581 45.1939 17.8018 44.7141 17.8854 44.1313C17.9709 43.5504 18.0097 42.8414 18.0078 42.0041V39.8303H13.2483V42.1362H15.1754C15.1793 42.5655 15.1482 42.9152 15.0919 43.191C15.0375 43.4688 14.9423 43.6845 14.8083 43.836C14.6742 43.9895 14.4916 44.0963 14.2566 44.1565C14.0235 44.2187 13.7282 44.2459 13.3727 44.2439C13.0113 44.2478 12.7005 44.2206 12.4344 44.1623C12.1721 44.1021 11.9545 43.9895 11.7817 43.8146C11.6126 43.6437 11.4844 43.3931 11.4067 43.0589C11.3213 42.7229 11.2824 42.2838 11.2824 41.738V39.7137C11.2805 39.3136 11.2863 38.9619 11.3077 38.657C11.3271 38.3539 11.3698 38.0936 11.4398 37.878C11.5097 37.6623 11.6185 37.4855 11.77 37.3496C11.9215 37.2136 12.1255 37.1165 12.3858 37.0523C12.6461 36.9902 12.9744 36.9591 13.3727 36.9591C13.5844 36.9572 13.8001 36.9746 14.0079 37.0057C14.2197 37.0388 14.4139 37.1009 14.5868 37.1883C14.7636 37.2777 14.9034 37.404 15.0103 37.5671C15.1171 37.7303 15.1696 37.944 15.1735 38.2024H18.0058L18.0097 38.2043ZM7.93138 25.2198H31.0544V24.3359H7.93138C7.66913 24.3359 7.41464 24.2738 7.1757 24.1611C7.18541 24.4447 7.267 24.7011 7.39522 24.8915L7.39716 24.8974C7.53314 25.0974 7.72547 25.2198 7.93333 25.2198H7.93138ZM32.7892 22.5196V25.6977H36.2548V25.4665V25.2354V25.0061V24.775V24.5438V24.3146V24.0834V23.8542V23.623V23.3918V23.1626V22.9334V22.7041V22.5196V10.9726H32.7892V22.5196ZM32.7892 28.2542V29.1381H36.2548V28.2542H32.7892ZM44.2273 23.3102C44.0914 23.5453 43.901 23.7415 43.6698 23.8969L43.664 23.9027C43.4367 24.0484 43.1589 24.1533 42.8617 24.1941H46.879C47.05 24.1941 47.2054 24.1106 47.3142 23.9804C47.4249 23.8503 47.4948 23.6677 47.4948 23.4676V23.2286C47.2967 23.283 47.0908 23.3102 46.879 23.3102H44.2293H44.2273ZM49.1694 21.8863C49.5113 22.2942 50.0105 24.4097 48.843 25.789C48.3399 26.3835 47.6444 26.7526 46.8771 26.7526H39.9244C40.0196 26.9313 40.074 27.1547 40.074 27.4131V28.1882C40.074 28.5767 39.9478 28.8914 39.7477 29.0876L39.7457 29.0895C39.6233 29.2042 39.464 29.2799 39.2989 29.2799H37.9876V30.4183V31.6985H37.1212H31.9189H31.0544V30.4183V28.2561V27.7783H7.93138C7.24564 27.7783 6.62399 27.3625 6.1733 26.7001L6.16943 26.6943C5.72069 26.028 5.43901 25.111 5.43901 24.1028C5.43901 23.5375 5.52643 22.9994 5.68378 22.5215H5.78477C5.56526 21.9756 5.43706 21.3385 5.43706 20.6605C5.43706 19.7475 5.66823 18.9082 6.0451 18.2633C5.66823 17.6183 5.43706 16.7811 5.43706 15.8661C5.43706 14.8579 5.71874 13.939 6.16749 13.2727L6.17135 13.2688C6.6201 12.6064 7.24369 12.1907 7.92944 12.1907H31.0525V9.69439V8.41419H31.9169H37.1193H37.9857V9.69439V10.9765H39.297C39.4621 10.9765 39.6214 11.0503 39.7438 11.1669L39.7457 11.1688C39.9458 11.3631 40.0721 11.6739 40.0721 12.0663V12.8414C40.0721 13.0338 40.041 13.2105 39.9866 13.3601H46.8771C47.6444 13.3601 48.3399 13.7292 48.843 14.3237C49.3462 14.9162 49.657 15.7379 49.657 16.6451V20.0291C49.657 20.9344 49.3442 21.7561 48.843 22.3506L49.1694 21.8902V21.8863ZM42.8694 15.9166C43.1647 15.9593 43.4406 16.0623 43.664 16.208L43.6698 16.2138C44.1574 16.5344 44.4624 17.0472 44.4624 17.6941V18.9743C44.4624 19.6154 44.1594 20.134 43.6698 20.4546L43.664 20.4604C43.4367 20.6061 43.1589 20.7129 42.8617 20.7537H46.879C47.05 20.7537 47.2054 20.6702 47.3142 20.5401C47.4249 20.4099 47.4948 20.2273 47.4948 20.0272V16.6432C47.4948 16.4431 47.423 16.2605 47.3142 16.1303C47.2034 16.0001 47.05 15.9166 46.879 15.9166H42.8714H42.8694Z" fill="#727272"/>
</svg>
