<svg width="54" height="55" viewBox="0 0 54 55" fill="none" xmlns="http://www.w3.org/2000/svg">
<path fill-rule="evenodd" clip-rule="evenodd" d="M0 0.331543H26.9092C37.0458 0.331543 46.3937 2.34981 53.8845 5.75134V0.331543H26.9092C16.8017 0.331543 7.4791 2.34021 0 5.72232V0.331543H0ZM53.8845 6.68585V17.1954H0V6.65663C7.45967 3.25705 16.7882 1.23873 26.9092 1.23873C37.0594 1.23873 46.4132 3.26878 53.8845 6.68585ZM53.8845 18.1025V36.4429H0V18.1025H53.8845ZM53.8845 37.35V47.8596C46.4132 51.2766 37.0614 53.3067 26.9092 53.3067C16.7882 53.3067 7.45967 51.2864 0 47.8888V37.35H53.8845ZM53.8845 48.796V54.2159H26.9092C16.8017 54.2159 7.4791 52.2073 0 48.8252V54.2159H26.9092C37.0458 54.2159 46.3937 52.1975 53.8845 48.796ZM49.4844 4.36248V36.8043H48.9794V4.36248H49.4844ZM34.6894 1.16493V36.8236H34.1863V1.16493H34.6894ZM1.45114 5.66389V36.8314H0.946057V5.66389H1.45114ZM1.5541 17.3177H6.50973C7.48298 17.3177 8.27169 17.5547 8.87584 18.0325C9.47612 18.5124 9.97343 19.1982 10.3658 20.0937C10.7582 20.9932 11.0419 22.0305 11.2206 23.2194C11.3954 24.4063 11.4828 25.6633 11.4828 26.994C11.4828 29.0765 11.3527 30.6927 11.0904 31.8388C10.8282 32.983 10.463 33.9486 9.9948 34.7178C9.53051 35.4929 9.02931 36.0096 8.49703 36.2679C7.76467 36.6215 7.10223 36.8003 6.50973 36.8003H1.5541V17.3196V17.3177ZM4.8857 21.7313V32.373H5.70548C6.40289 32.373 6.89825 32.2372 7.19353 31.9555C7.48493 31.6796 7.71804 31.19 7.88705 30.4945C8.05217 29.801 8.13376 28.6704 8.13376 27.1105C8.13376 25.0455 7.94921 23.6352 7.57623 22.8737C7.2013 22.1122 6.58355 21.7334 5.71908 21.7334H4.8857V21.7313ZM24.8423 33.5834H21.0444L20.5219 36.7984H17.1145L21.1707 17.3177H24.8054L28.8635 36.7984H25.3726L24.8423 33.5834ZM24.1449 29.3678L22.9521 22.3647L21.7652 29.3678H24.1429H24.1449ZM34.5767 17.3177H37.9142V32.0001H43.1204V36.8003H34.5787V17.3196L34.5767 17.3177ZM49.467 17.3177H52.8083V36.7984H49.467V17.3177Z" fill="black"/>
</svg>
