<svg width="54" height="55" viewBox="0 0 54 55" fill="none" xmlns="http://www.w3.org/2000/svg">
<path fill-rule="evenodd" clip-rule="evenodd" d="M0 0.21051H53.8845V54.095H0V0.21051ZM25.1511 7.30303L26.4488 8.60074L28.7353 6.31427L30.2583 7.83725L27.9718 10.1237L32.166 14.3179L34.2057 12.2781L35.7287 13.8011L33.689 15.8409L37.8209 19.9729L40.0452 17.7485L41.5682 19.2716L39.3439 21.4959L43.1981 25.35L45.6983 22.8499L47.2213 24.3729L44.7211 26.873L47.6564 29.8103L46.1334 31.3333L43.1981 28.3961L39.5266 32.0676L42.151 34.6921L40.628 36.2151L38.0035 33.5906L33.687 37.9071L36.4048 40.6229L34.8817 42.146L32.164 39.4302L28.0029 43.5913L30.8722 46.4605L29.3491 47.9835L26.4799 45.1143L24.716 46.8782L23.193 45.3552L24.9569 43.5913L21.1027 39.7371L19.063 41.7769L17.5399 40.2538L19.5797 38.2141L15.4477 34.0821L13.2234 36.3064L11.7004 34.7834L13.9247 32.5591L9.7306 28.365L7.75301 30.3445L6.22999 28.8215L8.20758 26.842L6.84386 25.4782L8.36688 23.9552L9.7306 25.3189L13.8936 21.1578L12.3765 19.6406L13.8995 18.1176L15.4167 19.6348L19.7332 15.3202L18.1227 13.7098L19.6457 12.1868L21.2562 13.7973L24.9277 10.1257L23.6301 8.82801L25.1531 7.30498L25.1511 7.30303ZM41.677 26.875L37.8229 23.0208L34.1513 26.6924L38.0055 30.5466L41.677 26.875ZM36.2979 21.4978L32.166 17.3658L28.4944 21.0374L32.6264 25.1694L36.2979 21.4978ZM30.6429 15.8428L26.4488 11.6487L22.7773 15.3202L26.9694 19.5124L30.641 15.8409L30.6429 15.8428ZM36.4825 32.0715L32.6283 28.2173L28.3137 32.5339L32.1679 36.388L36.4844 32.0715H36.4825ZM31.1033 26.6924L26.9714 22.5604L22.6568 26.8769L26.7888 31.0089L31.1033 26.6924ZM25.4484 21.0374L21.2562 16.8452L16.9397 21.1598L21.1338 25.3539L25.4484 21.0374ZM30.6429 37.911L26.7888 34.0569L22.6257 38.218L26.4799 42.0721L30.641 37.911H30.6429ZM25.2658 32.5319L21.1338 28.3999L16.9708 32.561L21.1027 36.693L25.2658 32.5319ZM19.6108 26.8769L15.4167 22.6828L11.2536 26.8439L15.4477 31.038L19.6108 26.8769Z" fill="black"/>
</svg>
