<svg width="55" height="55" viewBox="0 0 55 55" fill="none" xmlns="http://www.w3.org/2000/svg">
<path fill-rule="evenodd" clip-rule="evenodd" d="M0.701111 0.287445H54.5856V54.1719H0.701111V0.287445ZM7.984 15.9256H3.8851V38.4406H7.984V15.9256ZM14.7482 32.195H18.3751C19.2299 32.2008 19.9603 32.1096 20.5644 31.9406C21.1725 31.7657 21.6756 31.4801 22.0719 31.0897C22.4721 30.705 22.7829 30.1844 23.0122 29.5434C23.2375 28.8984 23.3987 28.1117 23.49 27.1773C23.5813 26.2409 23.626 25.1395 23.6241 23.8787C23.626 22.414 23.5308 21.1726 23.3405 20.1527C23.1501 19.1367 22.8451 18.3169 22.4313 17.6953C22.0137 17.0756 21.4716 16.6191 20.8053 16.3394C20.1351 16.0596 19.327 15.9197 18.377 15.9236H10.6493V38.4386H14.7502V32.195H14.7482ZM14.7482 20.8482H17.5553C17.9516 20.8424 18.2721 20.8987 18.5189 21.0036C18.7636 21.1143 18.9501 21.2892 19.0784 21.5281C19.2046 21.769 19.2901 22.0837 19.3387 22.4781C19.3834 22.8782 19.4028 23.3639 19.4008 23.9389C19.4047 24.6596 19.3795 25.2443 19.3328 25.6892C19.2862 26.1282 19.191 26.4643 19.0628 26.6955C18.9326 26.9267 18.7442 27.0821 18.5033 27.1617C18.2605 27.2414 17.9419 27.2763 17.5553 27.2724H14.7482V20.8482ZM31.5772 34.0561C31.1498 34.0619 30.806 34.0211 30.5418 33.9414C30.2815 33.8618 30.0833 33.7219 29.9473 33.5257C29.8113 33.3315 29.722 33.0654 29.6734 32.7254C29.6268 32.3854 29.6074 31.96 29.6093 31.4452C29.6093 31.0042 29.6404 30.6546 29.7045 30.3884C29.7667 30.1242 29.8755 29.9222 30.0231 29.7881C30.1727 29.6541 30.3747 29.5686 30.6311 29.5239C30.8837 29.4792 31.2023 29.4598 31.5772 29.4637C32.0279 29.4598 32.4106 29.4695 32.7253 29.4987C33.0439 29.5239 33.2983 29.5939 33.4946 29.7085C33.6927 29.8192 33.8326 30.0037 33.9258 30.2582C34.0132 30.5127 34.0579 30.8682 34.0579 31.3228C34.0618 31.9347 34.0365 32.4243 33.9802 32.7895C33.9219 33.1547 33.8093 33.4305 33.6422 33.6151C33.4712 33.7958 33.2226 33.9143 32.8904 33.9745C32.5602 34.0347 32.1211 34.06 31.5772 34.0541V34.0561ZM38.0753 22.7986V21.837C38.0714 20.6714 37.9665 19.7098 37.7547 18.9502C37.543 18.1946 37.2497 17.5943 36.8709 17.1553C36.492 16.7143 36.0511 16.3899 35.546 16.1839C35.0409 15.98 34.4911 15.844 33.8986 15.7876C33.3042 15.7274 32.6903 15.708 32.0512 15.7138C31.1634 15.708 30.3727 15.7682 29.687 15.8945C29.0012 16.0188 28.4049 16.25 27.9076 16.5802C27.4083 16.9163 26.9984 17.3845 26.6818 17.9964C26.3612 18.6064 26.1223 19.3912 25.9669 20.3567C25.8134 21.3163 25.7377 22.4936 25.7377 23.8787V29.522C25.7338 31.0333 25.792 32.3291 25.9105 33.3937C26.0271 34.464 26.2291 35.3499 26.505 36.0453C26.7847 36.7408 27.1674 37.2866 27.6492 37.681C28.131 38.0715 28.7332 38.3454 29.4558 38.5066C30.1804 38.6678 31.0449 38.7417 32.0493 38.7378C32.8341 38.7417 33.5451 38.6814 34.1745 38.5571C34.8 38.4367 35.3498 38.2172 35.8218 37.9025C36.2919 37.5878 36.6824 37.1526 36.9971 36.5873C37.3079 36.022 37.5449 35.3013 37.7023 34.4213C37.8557 33.5471 37.9335 32.4845 37.9335 31.2354C37.9335 30.0698 37.8577 29.0985 37.712 28.3176C37.5605 27.5327 37.3429 26.9072 37.0457 26.4313C36.7523 25.9612 36.3852 25.6057 35.9462 25.3648C35.5091 25.1239 34.9962 24.9685 34.4154 24.8888C33.8345 24.8092 33.1818 24.7742 32.4611 24.7781C32.1308 24.7723 31.8181 24.7878 31.5344 24.8325C31.2508 24.8733 30.9905 24.9626 30.7593 25.1122C30.5262 25.2579 30.3184 25.4872 30.1377 25.8038C29.957 26.1185 29.8016 26.544 29.6734 27.0899H29.6112V23.5465C29.6093 22.8005 29.6482 22.2158 29.7317 21.7865C29.8133 21.361 29.9454 21.0463 30.1299 20.8462C30.3183 20.6461 30.567 20.5199 30.8817 20.4655C31.1945 20.4111 31.585 20.3858 32.0493 20.3955C32.4281 20.3916 32.7525 20.4111 33.0225 20.4558C33.2925 20.4966 33.5159 20.5956 33.6869 20.751C33.8578 20.9065 33.9802 21.1473 34.0618 21.4718C34.1434 21.7981 34.1823 22.2372 34.1823 22.7986H38.0772H38.0753ZM41.0067 15.9236V28.5313H44.5326C44.6044 28.1758 44.7074 27.9193 44.8472 27.76C44.9832 27.6046 45.1814 27.5056 45.4417 27.4648C45.702 27.4298 46.0478 27.4143 46.481 27.4201C47.0483 27.4162 47.497 27.4648 47.8214 27.5658C48.1458 27.6707 48.3847 27.8494 48.5324 28.1117C48.6839 28.372 48.7752 28.7333 48.8122 29.1917C48.8491 29.656 48.8666 30.2466 48.8588 30.9615C48.8627 31.6822 48.8219 32.2533 48.7441 32.6729C48.6606 33.0926 48.5324 33.4034 48.3517 33.5996C48.1711 33.7997 47.9282 33.924 47.6252 33.9803C47.3221 34.0347 46.9492 34.06 46.5043 34.0541C46.2168 34.06 45.9584 34.0386 45.7253 33.9997C45.4922 33.9648 45.2902 33.8754 45.1192 33.7453C44.9483 33.6112 44.8162 33.4053 44.7171 33.1294C44.618 32.8555 44.5559 32.4845 44.5364 32.0144H40.6415C40.6415 33.38 40.7716 34.5009 41.0242 35.381C41.2806 36.2629 41.6536 36.9486 42.1528 37.4382C42.6482 37.9238 43.2601 38.2677 43.9906 38.458C44.7171 38.6523 45.5544 38.7475 46.5043 38.7378C47.3921 38.7417 48.1789 38.6815 48.8607 38.5533C49.5406 38.4231 50.1292 38.188 50.6207 37.8481C51.1083 37.5023 51.5124 37.0186 51.8232 36.3931C52.134 35.7617 52.3671 34.9516 52.5128 33.9609C52.6643 32.9701 52.7343 31.7599 52.7343 30.334C52.7382 29.0286 52.6624 27.9116 52.5051 26.9772C52.3516 26.0408 52.0894 25.2774 51.7261 24.681C51.3609 24.0904 50.8655 23.6514 50.2439 23.3697C49.6222 23.0841 48.8452 22.9443 47.9166 22.9501C47.4368 22.9443 47.0346 22.954 46.7102 22.9851C46.3897 23.0103 46.1138 23.0764 45.8807 23.1793C45.6476 23.2803 45.4301 23.4435 45.2202 23.6689C45.0124 23.8942 44.7832 24.205 44.5345 24.5994V20.2771H52.1185V15.9236H41.0067Z" fill="black"/>
</svg>
