<svg width="54" height="55" viewBox="0 0 54 55" fill="none" xmlns="http://www.w3.org/2000/svg">
<path fill-rule="evenodd" clip-rule="evenodd" d="M0 0.316406H53.8845V54.2009H0V0.316406ZM50.4693 38.6347H46.8172V22.2506C45.4826 23.7406 43.913 24.8382 42.1025 25.5453V21.6018C43.0524 21.2327 44.0878 20.5314 45.2068 19.494C46.3238 18.4547 47.0911 17.2444 47.5049 15.8613H50.4674V38.6347H50.4693ZM11.003 15.8108L8.46207 27.247C8.25226 28.3116 8.08325 29.4073 7.9531 30.5379C7.86957 28.9158 7.75107 27.8609 7.60343 27.3752L4.97894 15.8127H1.94457L6.46505 32.6009C6.58161 33.038 6.63989 33.3819 6.63989 33.6305C6.63989 33.8734 6.59326 34.1122 6.50002 34.3415C6.31158 34.7883 5.85118 35.0059 5.11881 35.0059C4.97312 35.0059 4.67395 34.9554 4.22521 34.8544V38.5648C4.74777 38.66 5.28005 38.7105 5.81621 38.7105C6.32324 38.7105 6.78558 38.5647 7.19548 38.2753C7.60343 37.9858 7.99584 37.4692 8.36493 36.7232C8.73598 35.9792 9.08953 34.9496 9.42561 33.6305L13.9811 15.8127H11.003V15.8108ZM26.5187 15.8108L22.6335 26.8197L26.8218 38.59H23.9137L20.619 29.009L17.2932 38.59H14.3327L18.6395 26.8197L14.6454 15.8108H17.571L20.619 24.8479L23.6534 15.8108H26.5207H26.5187ZM39.4139 15.8108V38.592H36.9079V19.5523H31.9134V32.2959C31.9134 34.1356 31.6512 35.6567 31.1228 36.8533C30.5983 38.0539 29.7571 38.6522 28.5993 38.6522C28.1797 38.6522 27.7465 38.5822 27.3055 38.4443V34.8505C27.5134 34.9107 27.7756 34.9418 28.0962 34.9418C28.6012 34.9418 28.9548 34.7339 29.151 34.324C29.3472 33.9141 29.4424 33.3489 29.4424 32.6301V15.8108H39.4119H39.4139Z" fill="black"/>
</svg>
