<svg width="55" height="55" viewBox="0 0 55 55" fill="none" xmlns="http://www.w3.org/2000/svg">
<path fill-rule="evenodd" clip-rule="evenodd" d="M0.473694 0.74472H54.3582V54.6292H0.473694V0.74472ZM7.79932 19.8562H30.9204V17.6203H10.9813V15.0619H30.9204V12.8259H7.79932C7.59146 12.8259 7.40108 12.9502 7.26315 13.1484L7.25926 13.1542C7.12522 13.3562 7.03975 13.636 7.03975 13.9429C7.03975 14.2498 7.12522 14.5296 7.25926 14.7316L7.26315 14.7374C7.39525 14.9298 7.57786 15.0541 7.7799 15.0599H7.7896H7.79932H8.62688V17.6183H7.79932H7.7896H7.7799C7.57786 17.6261 7.39719 17.7485 7.26315 17.9408L7.25926 17.9466C7.12522 18.1487 7.03975 18.4284 7.03975 18.7353C7.03975 19.0423 7.12522 19.322 7.25926 19.5241L7.26315 19.5299C7.39914 19.73 7.59146 19.8524 7.79932 19.8524V19.8562ZM44.1536 40.7666C44.1555 41.2562 44.14 41.6544 44.1089 41.9594C44.0759 42.2605 44.0137 42.4936 43.9243 42.6529C43.833 42.8103 43.7048 42.9171 43.5358 42.9754C43.3649 43.0337 43.1434 43.057 42.8714 43.057C42.6034 43.0589 42.3916 43.0337 42.2226 42.9754C42.0614 42.9171 41.9332 42.8103 41.8457 42.6471C41.7622 42.4878 41.702 42.2566 41.6728 41.9497C41.6398 41.6408 41.6282 41.2465 41.6301 40.7511C41.6282 40.3334 41.6437 39.976 41.6748 39.6807C41.7059 39.3874 41.768 39.1465 41.8554 38.9639C41.939 38.7774 42.0653 38.6414 42.2304 38.5559C42.3974 38.4705 42.6092 38.4297 42.8734 38.4297C43.1454 38.4258 43.3687 38.4724 43.5378 38.5559C43.7068 38.6414 43.8369 38.7774 43.9263 38.9639C44.0156 39.1504 44.0778 39.3913 44.1108 39.6885C44.1419 39.9857 44.1575 40.3432 44.1555 40.7666H44.1536ZM44.208 37.7808H44.0953C44.002 37.3923 43.8563 37.0834 43.6601 36.8561C43.4678 36.6308 43.2289 36.4696 42.9472 36.3763C42.6655 36.2811 42.3527 36.2345 42.0011 36.2364C41.4067 36.2345 40.9055 36.3433 40.4937 36.5706C40.078 36.7979 39.7632 37.1514 39.5476 37.6312C39.332 38.115 39.2213 38.7385 39.2213 39.5039V41.4932C39.2193 42.3751 39.3125 43.092 39.499 43.6437C39.6875 44.1973 39.9867 44.6033 40.3946 44.8617C40.8084 45.1201 41.3445 45.2444 42.0128 45.2424C42.31 45.2444 42.5839 45.2094 42.8423 45.1356C43.1007 45.0579 43.3299 44.9141 43.5358 44.7043C43.7359 44.4965 43.9049 44.1934 44.037 43.801H44.1497V48.8771H46.5488V36.4035H44.1497L44.2041 37.7808H44.208ZM37.1757 32.6698H33.0593L29.0536 39.1076V42.6588H34.524V45.1123H37.1757V42.6588H38.0673V40.2518H37.1757V32.6698ZM34.524 40.2518H31.2448L34.4268 35.2282H34.524V40.2518ZM27.6141 42.5267H22.0057C22.0038 42.1945 22.0329 41.9322 22.0892 41.736C22.1398 41.5437 22.233 41.3941 22.3573 41.2912C22.4836 41.1863 22.6546 41.0988 22.8624 41.0328C23.0722 40.9706 23.3345 40.9007 23.6453 40.8249C23.9542 40.7492 24.3174 40.6501 24.7409 40.516C25.178 40.3801 25.5588 40.2344 25.8832 40.0906C26.2076 39.9449 26.4796 39.7798 26.703 39.5914C26.9244 39.401 27.1032 39.1717 27.2372 38.9017C27.3712 38.6297 27.4703 38.2976 27.5305 37.9052C27.5927 37.5127 27.6219 37.0349 27.618 36.4832C27.618 35.7877 27.5539 35.203 27.4276 34.7309C27.2974 34.2569 27.1148 33.8762 26.8778 33.5867C26.6369 33.2992 26.3494 33.0758 26.0114 32.9262C25.6734 32.7786 25.2965 32.6756 24.875 32.6232C24.4515 32.5707 23.9969 32.5493 23.5035 32.5513C22.9731 32.5474 22.4836 32.5785 22.0504 32.6445C21.6153 32.7106 21.2306 32.8271 20.9004 32.9962C20.5662 33.1613 20.2846 33.3963 20.0592 33.6994C19.8339 34.0024 19.661 34.3909 19.5464 34.863C19.4298 35.3351 19.3715 35.9081 19.3715 36.5822V37.1961H22.0096V36.5997C22.0077 36.2714 22.0251 36.0072 22.064 35.811C22.1009 35.6148 22.1747 35.4691 22.2796 35.372C22.3826 35.2729 22.5341 35.2107 22.7342 35.1797C22.9324 35.1486 23.1888 35.135 23.5035 35.1389C23.7832 35.135 24.0183 35.1505 24.2067 35.1816C24.3971 35.2146 24.5486 35.2787 24.6632 35.3759C24.7778 35.4711 24.8614 35.6148 24.9119 35.8013C24.9624 35.9897 24.9876 36.2384 24.9857 36.5473C24.9876 36.7784 24.9818 36.9707 24.9643 37.1281C24.9449 37.2855 24.908 37.4156 24.842 37.5244C24.7798 37.6293 24.6788 37.7225 24.5408 37.8003C24.401 37.878 24.2145 37.9518 23.9755 38.0275C23.7347 38.0994 23.4316 38.181 23.0586 38.2723C22.4273 38.4297 21.8931 38.5909 21.456 38.758C21.0169 38.9289 20.6634 39.1193 20.3894 39.331C20.1155 39.5447 19.9038 39.7953 19.7562 40.0867C19.6047 40.3742 19.5075 40.72 19.4492 41.1144C19.3968 41.5145 19.3715 41.9808 19.3735 42.5208V45.1065H27.618V42.5208L27.6141 42.5267ZM17.8777 36.522C17.8757 35.846 17.8019 35.2768 17.6542 34.8086C17.5085 34.3404 17.3007 33.9597 17.0229 33.6605C16.7529 33.3672 16.4246 33.136 16.0419 32.9748C15.6611 32.8155 15.2357 32.7028 14.7636 32.6445C14.2954 32.5804 13.7865 32.5513 13.2426 32.5552C12.6306 32.5513 12.0634 32.5824 11.5466 32.6542C11.0319 32.7242 10.5753 32.8524 10.1674 33.0369C9.76524 33.2293 9.42336 33.4973 9.13973 33.8509C8.86 34.2025 8.64435 34.661 8.49671 35.2263C8.35102 35.7896 8.2772 36.4812 8.2772 37.2991V40.518C8.2772 41.3222 8.34519 42.0021 8.47729 42.5616C8.60939 43.1192 8.81142 43.5776 9.07756 43.9331C9.3437 44.2906 9.67005 44.5684 10.0702 44.7626C10.4704 44.9588 10.9347 45.0948 11.4631 45.1706C11.9934 45.2444 12.5859 45.2813 13.2426 45.2774C13.9885 45.2794 14.6257 45.2444 15.1619 45.1628C15.6961 45.0851 16.1371 44.9433 16.4906 44.7412C16.8403 44.5373 17.1181 44.2478 17.3221 43.8748C17.5241 43.5057 17.6698 43.0259 17.7533 42.4431C17.8388 41.8623 17.8796 41.1513 17.8777 40.316V38.1441H13.1182V40.45H15.0434C15.0473 40.8793 15.0181 41.2309 14.9618 41.5048C14.9074 41.7826 14.8103 41.9983 14.6782 42.1498C14.5422 42.3013 14.3595 42.4101 14.1245 42.4703C13.8933 42.5325 13.5981 42.5597 13.2426 42.5558C12.8793 42.5616 12.5665 42.5325 12.3023 42.4761C12.0401 42.4159 11.8225 42.3013 11.6535 42.1284C11.4825 41.9575 11.3543 41.7049 11.2747 41.3708C11.1892 41.0347 11.1503 40.5976 11.1503 40.0498V38.0256C11.1465 37.6254 11.1542 37.2738 11.1756 36.9688C11.197 36.6658 11.2378 36.4055 11.3077 36.1898C11.3776 35.9742 11.4884 35.7974 11.6379 35.6614C11.7895 35.5254 11.9934 35.4283 12.2537 35.3642C12.516 35.302 12.8424 35.2729 13.2426 35.2729C13.4543 35.269 13.6661 35.2865 13.8797 35.3195C14.0915 35.3525 14.2819 35.4147 14.4567 35.5002C14.6335 35.5896 14.7753 35.7178 14.8782 35.8809C14.9851 36.0422 15.0395 36.2578 15.0414 36.5181H17.8777V36.522ZM7.79737 23.2986H30.9185V22.4147H7.79737C7.53512 22.4147 7.27869 22.3525 7.03975 22.2398C7.0514 22.5235 7.13299 22.7799 7.25926 22.9703L7.26315 22.9761C7.39914 23.1762 7.59146 23.2986 7.79932 23.2986H7.79737ZM32.6552 20.5983V23.7765H36.1208V23.5453V23.3141V23.0849V22.8537V22.6225V22.3933V22.1621V21.9329V21.7017V21.4706V21.2413V21.0121V20.7829V20.5983V9.05138H32.6552V20.5983ZM32.6552 26.333V27.2168H36.1208V26.333H32.6552ZM44.0933 21.389C43.9574 21.624 43.767 21.8202 43.5339 21.9756L43.5281 21.9815C43.3008 22.1272 43.0249 22.2321 42.7258 22.2729H46.7431C46.914 22.2729 47.0675 22.1893 47.1782 22.0592C47.289 21.929 47.3609 21.7464 47.3609 21.5463V21.3074C47.1627 21.3618 46.9568 21.389 46.745 21.389H44.0953H44.0933ZM49.0334 19.965C49.3773 20.373 49.8746 22.4885 48.709 23.8678C48.2059 24.4622 47.5104 24.8313 46.7431 24.8313H39.7904C39.8856 25.01 39.94 25.2334 39.94 25.4918V26.2669C39.94 26.6554 39.8157 26.9701 39.6137 27.1663L39.6098 27.1683C39.4893 27.2829 39.3281 27.3587 39.163 27.3587H37.8536V28.497V29.7772H36.9853H31.7849H30.9185V28.497V26.3349V25.857H7.79737C7.11163 25.857 6.48998 25.4413 6.03929 24.7789L6.03543 24.773C5.58668 24.1067 5.305 23.1898 5.305 22.1816C5.305 21.6163 5.39242 21.0782 5.54977 20.6003H5.65077C5.43125 20.0544 5.30305 19.4172 5.30305 18.7392C5.30305 17.8262 5.53423 16.987 5.91109 16.342C5.53423 15.6971 5.30305 14.8598 5.30305 13.9448C5.30305 12.9366 5.58473 12.0178 6.03348 11.3514L6.03735 11.3476C6.48804 10.6851 7.11163 10.2694 7.79543 10.2694H30.9165V7.77313V6.49295H31.7829H36.9833H37.8517V7.77313V9.05527H39.161C39.3281 9.05527 39.4874 9.12908 39.6098 9.24564L39.6117 9.24759C39.8118 9.44185 39.9381 9.75267 39.9381 10.1451V10.9202C39.9381 11.1125 39.907 11.2893 39.8526 11.4389H46.7431C47.5104 11.4389 48.2059 11.808 48.709 12.4024C49.2102 12.9949 49.523 13.8166 49.523 14.7238V18.1079C49.523 19.0131 49.2102 19.8349 48.709 20.4293L49.0334 19.9689V19.965ZM42.7355 13.9954C43.0307 14.0381 43.3066 14.1411 43.53 14.2867L43.5339 14.2926C44.0215 14.6131 44.3265 15.126 44.3265 15.7728V17.053C44.3265 17.6941 44.0234 18.2128 43.5339 18.5333L43.5281 18.5391C43.3008 18.6848 43.0249 18.7917 42.7258 18.8325H46.7431C46.914 18.8325 47.0675 18.749 47.1782 18.6188C47.289 18.4886 47.3609 18.306 47.3609 18.1059V14.7219C47.3609 14.5218 47.289 14.3392 47.1782 14.209C47.0675 14.0789 46.914 13.9954 46.7431 13.9954H42.7355Z" fill="#727272"/>
</svg>
