<svg width="55" height="55" viewBox="0 0 55 55" fill="none" xmlns="http://www.w3.org/2000/svg">
<path fill-rule="evenodd" clip-rule="evenodd" d="M0.867935 0.74472H54.7524V54.6292H0.867935V0.74472ZM46.8013 32.4367H43.5376L39.7262 36.184L41.3036 38.3073L44.0136 35.372V44.8792H46.8013V32.4367ZM6.31311 23.6929H40.4159V21.457H11.0084V18.8985H40.4159V16.6626H6.31311C6.00617 16.6626 5.72644 16.7869 5.5244 16.985L5.51858 16.9909C5.31848 17.1929 5.1961 17.4726 5.1961 17.7796C5.1961 18.0865 5.32043 18.3663 5.51858 18.5683L5.5244 18.5741C5.71867 18.7664 5.98869 18.8908 6.28591 18.8966H6.29951H6.31311H7.53501V21.455H6.31311H6.29951H6.28591C5.98869 21.4628 5.72061 21.5852 5.5244 21.7775L5.51858 21.7833C5.31848 21.9854 5.1961 22.2651 5.1961 22.572C5.1961 22.879 5.32043 23.1587 5.51858 23.3607L5.5244 23.3666C5.72644 23.5667 6.00617 23.689 6.31311 23.689V23.6929ZM50.6457 13.1367H52.9846V16.0409H50.6457V16.9112H52.9846V19.8154H50.6457V20.6857H52.9846V23.59H50.6457V24.4603H52.9846V27.3664H50.6457V28.8914V30.1716H49.3675H41.696H40.4178V28.8914V26.2514H6.31505C5.30488 26.2514 4.38797 25.8356 3.72165 25.1732L3.71582 25.1693C3.05339 24.503 2.63766 23.5841 2.63766 22.5759C2.63766 21.6629 2.97762 20.8237 3.53515 20.1787C2.97956 19.5338 2.63766 18.6965 2.63766 17.7815C2.63766 16.7733 3.05339 15.8544 3.71582 15.1881L3.72165 15.1842C4.38603 14.5218 5.30488 14.1061 6.31505 14.1061H40.4178V11.6098V10.3296H41.696H49.3675H50.6457V11.6098V13.1367ZM48.0892 12.89H42.9762V27.6151H48.0892V12.89ZM36.7579 32.4367H33.4943L29.6829 36.184L31.2603 38.3073L33.9683 35.372V44.8792H36.7579V32.4367ZM28.3405 36.285C28.3386 35.6109 28.2706 35.0398 28.121 34.5736C27.9772 34.1073 27.7635 33.7246 27.4916 33.4255C27.2177 33.1282 26.8933 32.899 26.5106 32.7397C26.1298 32.5785 25.7024 32.4697 25.2304 32.4075C24.7583 32.3434 24.2532 32.3162 23.7073 32.3201C23.0935 32.3162 22.5301 32.3473 22.0134 32.4172C21.4947 32.4872 21.0382 32.6154 20.6322 32.8038C20.2281 32.9923 19.8862 33.2603 19.6045 33.6139C19.3228 33.9694 19.1111 34.424 18.9615 34.9873C18.8158 35.5507 18.7401 36.2423 18.7401 37.0621V40.279C18.7401 41.0833 18.8081 41.7632 18.9402 42.3227C19.0761 42.8822 19.2762 43.3387 19.5424 43.6981C19.8066 44.0536 20.1388 44.3294 20.535 44.5276C20.9352 44.7218 21.3995 44.8578 21.926 44.9336C22.4582 45.0093 23.0507 45.0443 23.7054 45.0404C24.4553 45.0443 25.0905 45.0074 25.6286 44.9277C26.157 44.85 26.6019 44.7082 26.9535 44.5042C27.3031 44.3022 27.5809 44.0147 27.7869 43.6398C27.9889 43.2707 28.1326 42.7909 28.2181 42.2081C28.3017 41.6292 28.3386 40.9162 28.3386 40.0809V37.909H23.583V40.2149H25.5082C25.5101 40.6423 25.4829 40.9939 25.4246 41.2717C25.3702 41.5495 25.2731 41.7632 25.143 41.9147C25.0089 42.0663 24.8224 42.175 24.5893 42.2353C24.3562 42.2974 24.059 42.3227 23.7054 42.3207C23.3441 42.3246 23.0333 42.2974 22.7691 42.2391C22.5049 42.1789 22.2854 42.0643 22.1163 41.8914C21.9473 41.7205 21.8191 41.4699 21.7395 41.1357C21.654 40.7997 21.6151 40.3606 21.6151 39.8128V37.7886C21.6113 37.3884 21.619 37.0368 21.6404 36.7338C21.6579 36.4307 21.7006 36.1704 21.7725 35.9548C21.8444 35.7372 21.9532 35.5624 22.1027 35.4264C22.2543 35.2904 22.4602 35.1952 22.7186 35.1311C22.9789 35.067 23.3072 35.0359 23.7054 35.0359C23.9191 35.034 24.1308 35.0514 24.3406 35.0845C24.5524 35.1175 24.7467 35.1777 24.9176 35.2671C25.0963 35.3545 25.2362 35.4808 25.343 35.6459C25.4499 35.8091 25.5023 36.0228 25.5062 36.2811H28.3366L28.3405 36.285ZM17.1782 42.2897H11.5679C11.566 41.9594 11.5932 41.6972 11.6495 41.5009C11.7019 41.3086 11.7932 41.161 11.9176 41.058C12.0458 40.9531 12.2148 40.8677 12.4246 40.7997C12.6344 40.7375 12.8928 40.6676 13.2075 40.5937C13.5164 40.518 13.8816 40.417 14.3051 40.2829C14.7402 40.145 15.119 40.0013 15.4434 39.8575C15.7659 39.7137 16.0418 39.5486 16.2632 39.3602C16.4847 39.1698 16.6634 38.9386 16.7974 38.6686C16.9315 38.3986 17.0286 38.0664 17.0888 37.674C17.1529 37.2816 17.1821 36.8056 17.1801 36.252C17.1801 35.5546 17.1141 34.9718 16.9878 34.4997C16.8635 34.0257 16.6809 33.645 16.44 33.3555C16.1991 33.068 15.9116 32.8446 15.5755 32.6989C15.2356 32.5493 14.8587 32.4464 14.4372 32.392C14.0156 32.3395 13.5591 32.3182 13.0657 32.3221C12.5353 32.3182 12.0477 32.3493 11.6145 32.4153C11.1794 32.4814 10.7928 32.596 10.4606 32.7669C10.1284 32.932 9.84674 33.1671 9.62139 33.4701C9.39411 33.7713 9.22316 34.1617 9.11243 34.6299C8.99587 35.1039 8.93759 35.677 8.93759 36.3491V36.9649H11.5757V36.3685C11.5737 36.0383 11.5932 35.7741 11.632 35.5798C11.6689 35.3836 11.7369 35.2379 11.8438 35.1408C11.9487 35.0456 12.1002 34.9796 12.2983 34.9504C12.4965 34.9193 12.751 34.9057 13.0676 34.9096C13.3473 34.9057 13.5785 34.9213 13.7708 34.9524C13.9612 34.9854 14.1127 35.0495 14.2293 35.1447C14.342 35.2418 14.4236 35.3836 14.4741 35.5701C14.5246 35.7605 14.5498 36.0072 14.5479 36.318C14.5498 36.5473 14.544 36.7396 14.5265 36.9008C14.5051 37.0562 14.4682 37.1864 14.4061 37.2952C14.34 37.3981 14.239 37.4914 14.1011 37.5691C13.9651 37.6487 13.7728 37.7225 13.5338 37.7983C13.2949 37.8702 12.9918 37.9518 12.6227 38.045C11.9914 38.2004 11.4572 38.3617 11.0201 38.5287C10.581 38.6997 10.2236 38.8901 9.95358 39.1018C9.67773 39.3155 9.46792 39.5661 9.32028 39.8556C9.17264 40.1431 9.07163 40.4888 9.0153 40.8851C8.96285 41.2814 8.93759 41.7477 8.93953 42.2877V44.8792H17.186V42.2877L17.1782 42.2897Z" fill="#727272"/>
</svg>
