<svg width="55" height="55" viewBox="0 0 55 55" fill="none" xmlns="http://www.w3.org/2000/svg">
<path fill-rule="evenodd" clip-rule="evenodd" d="M0.825439 0.287445H54.7099V54.1719H0.825439V0.287445ZM7.83245 15.8207H3.73354V38.3357H7.83245V15.8207ZM14.5967 32.0902H18.2235C19.0783 32.096 19.8087 32.0047 20.4129 31.8357C21.0209 31.6608 21.5241 31.3752 21.9204 30.9848C22.3205 30.6001 22.6314 30.0795 22.8606 29.4385C23.0859 28.7935 23.2472 28.0068 23.3385 27.0724C23.4298 26.136 23.4745 25.0345 23.4725 23.7738C23.4745 22.309 23.3793 21.0677 23.1889 20.0478C22.9985 19.0319 22.6935 18.212 22.2798 17.5904C21.8621 16.9707 21.3201 16.5142 20.6538 16.2345C19.9836 15.9547 19.1754 15.8149 18.2255 15.8188H10.4977V38.3337H14.5986V32.0902H14.5967ZM14.5967 20.7433H17.4038C17.8001 20.7374 18.1206 20.7938 18.3673 20.8987C18.6121 21.0094 18.7986 21.1842 18.9268 21.4232C19.0531 21.6641 19.1385 21.9788 19.1871 22.3732C19.2318 22.7733 19.2512 23.259 19.2492 23.834C19.2531 24.5547 19.2279 25.1395 19.1813 25.5843C19.1347 26.0234 19.0394 26.3594 18.9112 26.5906C18.7811 26.8218 18.5927 26.9771 18.3518 27.0568C18.109 27.1364 17.7903 27.1714 17.4038 27.1675H14.5967V20.7433ZM26.0951 15.8207V28.4283H29.6209C29.6928 28.0728 29.7938 27.8164 29.9337 27.6571C30.0697 27.5017 30.2698 27.4026 30.5281 27.3618C30.7884 27.3268 31.1323 27.3113 31.5655 27.3171C32.1328 27.3132 32.5815 27.3618 32.9059 27.4628C33.2303 27.5677 33.4692 27.7465 33.6169 28.0087C33.7665 28.269 33.8597 28.6303 33.8967 29.0888C33.9355 29.5531 33.953 30.1436 33.9452 30.8585C33.9491 31.5792 33.9083 32.1504 33.8306 32.57C33.7471 32.9896 33.6188 33.3004 33.4382 33.4966C33.2575 33.6967 33.0147 33.821 32.7116 33.8774C32.4086 33.9318 32.0356 33.957 31.5907 33.9512C31.3032 33.957 31.0429 33.9356 30.8117 33.8968C30.5786 33.8618 30.3766 33.7725 30.2076 33.6423C30.0367 33.5083 29.9046 33.3023 29.8055 33.0265C29.7045 32.7526 29.6443 32.3815 29.6248 31.9114H25.7299C25.7299 33.2771 25.86 34.398 26.1126 35.278C26.369 36.1599 26.74 36.8457 27.2393 37.3352C27.7347 37.8209 28.3466 38.1647 29.077 38.3551C29.8055 38.5494 30.6427 38.6446 31.5927 38.6348C32.4805 38.6387 33.2672 38.5785 33.9491 38.4503C34.629 38.3201 35.2157 38.0851 35.7071 37.7451C36.1967 37.3993 36.5988 36.9156 36.9097 36.2901C37.2205 35.6587 37.4536 34.8487 37.6012 33.8579C37.7527 32.8672 37.8227 31.6569 37.8227 30.2311C37.8266 28.9256 37.7508 27.8086 37.5934 26.8742C37.44 25.9379 37.1758 25.1744 36.8125 24.578C36.4473 23.9874 35.9519 23.5484 35.3303 23.2667C34.7086 22.9812 33.9316 22.8413 33.003 22.8471C32.5213 22.8413 32.1211 22.851 31.7967 22.8821C31.4761 22.9074 31.1983 22.9734 30.9672 23.0764C30.7341 23.1774 30.5164 23.3406 30.3066 23.5659C30.0968 23.7913 29.8696 24.1021 29.6209 24.4964V20.1741H37.2049V15.8207H26.0951ZM51.8212 15.8207H45.7738L39.8916 27.4667V33.891H47.9263V38.3337H51.8193V33.891H53.1325V29.5375H51.8193V15.8188L51.8212 15.8207ZM47.9282 29.5395H43.1105L47.7845 20.4441H47.9282V29.5395Z" fill="black"/>
</svg>
