<svg width="55" height="55" viewBox="0 0 55 55" fill="none" xmlns="http://www.w3.org/2000/svg">
<path fill-rule="evenodd" clip-rule="evenodd" d="M0.518768 0.316406H54.4032V54.2009H0.518768V0.316406ZM11.5218 15.8108L8.98083 27.247C8.77103 28.3116 8.60202 29.4073 8.47187 30.5379C8.38833 28.9158 8.26984 27.8609 8.1222 27.3752L5.49771 15.8127H2.46334L6.98382 32.6009C7.10038 33.038 7.15865 33.3819 7.15865 33.6305C7.15865 33.8734 7.11203 34.1122 7.01879 34.3415C6.83035 34.7883 6.36996 35.0059 5.63759 35.0059C5.49189 35.0059 5.19272 34.9554 4.74397 34.8544V38.5648C5.26654 38.66 5.79882 38.7105 6.33498 38.7105C6.84201 38.7105 7.30436 38.5647 7.71425 38.2753C8.1222 37.9858 8.5146 37.4692 8.8837 36.7232C9.25474 35.9792 9.6083 34.9496 9.94438 33.6305L14.4998 15.8127H11.5218V15.8108ZM27.0375 15.8108L23.1523 26.8197L27.3406 38.59H24.4325L21.1378 29.009L17.812 38.59H14.8514L19.1582 26.8197L15.1642 15.8108H18.0898L21.1378 24.8479L24.1721 15.8108H27.0395H27.0375ZM39.9326 15.8108V38.592H37.4267V19.5523H32.4322V32.2959C32.4322 34.1356 32.1699 35.6567 31.6415 36.8533C31.117 38.0539 30.2759 38.6522 29.1181 38.6522C28.6985 38.6522 28.2653 38.5822 27.8243 38.4443V34.8505C28.0321 34.9107 28.2944 34.9418 28.6149 34.9418C29.12 34.9418 29.4736 34.7339 29.6698 34.324C29.866 33.9141 29.9612 33.3489 29.9612 32.6301V15.8108H39.9307H39.9326ZM51.1455 15.8108V30.4504H52.6665V33.7004H51.1455V38.592H48.7308V33.7004H41.615V28.9857L47.4487 15.8108H51.1455ZM43.5945 30.4504H48.7288V18.9734L43.5945 30.4504Z" fill="black"/>
</svg>
