<svg width="108" height="55" viewBox="0 0 108 55" fill="none" xmlns="http://www.w3.org/2000/svg">
<path fill-rule="evenodd" clip-rule="evenodd" d="M1.05683 0.432007H107.771V54.3167H0.00198364V0.432007H1.05877H1.05683ZM54.3915 52.2439V2.50288H2.11362V52.2439H54.3915ZM7.18386 17.8437H14.9097C14.1598 16.175 13.5285 14.6501 13.1225 13.673L13.1244 13.671L12.7689 12.8162C12.3882 11.9362 12.0385 11.6973 11.7296 11.8236C10.2532 12.4355 8.3708 15.6835 7.18386 17.8437ZM12.5533 34.3232H18.9756V31.2944H8.78653V45.1512H19.1096V42.1227H12.5533V39.4263H18.5812V36.8582H12.5533V34.3251V34.3232ZM27.2648 41.9537H27.2278L24.176 31.2925H20.3529L24.3469 45.1493H30.2234L34.3495 31.2925H30.4487L27.2667 41.9537H27.2648ZM48.1557 35.58C48.1518 34.8282 48.0547 34.1948 47.8566 33.6742C47.6584 33.1516 47.3767 32.7281 47.0076 32.3959C46.6385 32.0676 46.1976 31.8112 45.6808 31.6325C45.166 31.4538 44.593 31.3315 43.9538 31.2635C43.3205 31.1916 42.6367 31.1604 41.9005 31.1643C41.0729 31.1604 40.3095 31.1954 39.6121 31.2751C38.9147 31.3528 38.2969 31.4946 37.7491 31.7025C37.2032 31.9143 36.7409 32.2134 36.3621 32.6097C35.9813 33.0021 35.6938 33.5111 35.4918 34.1405C35.2956 34.7679 35.1945 35.5391 35.1945 36.4483V40.0325C35.1945 40.9261 35.2859 41.6876 35.4646 42.3073C35.6452 42.9309 35.9153 43.4417 36.2746 43.838C36.634 44.2363 37.0808 44.5432 37.617 44.7608C38.157 44.9784 38.7806 45.1299 39.4936 45.2153C40.2104 45.2989 41.0108 45.3377 41.8985 45.3358C42.9068 45.3377 43.7673 45.2988 44.4881 45.2094C45.2068 45.124 45.8032 44.9647 46.2811 44.7393C46.7551 44.5121 47.132 44.1915 47.4059 43.7758C47.6778 43.364 47.8741 42.8298 47.9848 42.179C48.1013 41.5321 48.1557 40.7435 48.1518 39.8111V37.3925H41.7295V39.9606H44.3288C44.3326 40.4384 44.2938 40.8288 44.218 41.1377C44.1442 41.4446 44.0141 41.6856 43.8353 41.8546C43.6547 42.0236 43.406 42.144 43.0894 42.212C42.7766 42.28 42.3764 42.3092 41.9005 42.3073C41.4109 42.3131 40.9894 42.2821 40.632 42.216C40.2765 42.1519 39.9812 42.0217 39.7539 41.8313C39.5247 41.6409 39.3518 41.3612 39.241 40.9882C39.1284 40.6152 39.0759 40.1257 39.0759 39.5157V37.2623C39.072 36.8155 39.0817 36.4249 39.1089 36.0869C39.1342 35.7469 39.1944 35.4576 39.2896 35.2167C39.3828 34.9777 39.5305 34.7795 39.7364 34.628C39.9404 34.4765 40.2162 34.3698 40.5678 34.2998C40.9195 34.2279 41.3624 34.1949 41.9024 34.1949C42.1899 34.191 42.4755 34.2084 42.7611 34.2473C43.0466 34.2842 43.3069 34.3521 43.542 34.4512C43.7809 34.5503 43.9694 34.6901 44.1131 34.8727C44.2588 35.0534 44.3288 35.2905 44.3326 35.58H48.1557ZM17.4487 17.8437H21.8079C21.8818 16.1051 22.1071 14.3626 22.4529 12.9969C22.9327 11.0912 23.7739 9.77219 24.9569 9.69059L25.0346 9.68671H25.0405V9.6886C26.3245 9.66335 27.1871 11.1106 27.7038 13.1484C28.0554 14.5296 28.3138 16.2469 28.4595 17.8437H31.6609V17.2687C31.6648 13.3932 31.6706 9.95284 34.0853 9.97421C36.4359 9.99558 37.0731 13.7934 37.5529 17.8418H39.4567C39.5169 16.8064 39.5752 15.8001 39.647 14.9667C39.9015 12.0489 40.496 9.90615 42.1938 10.0499C44.2025 10.2189 44.8183 13.3039 45.473 16.5947L45.7236 17.8418H50.2848H51.8001L51.4329 19.2813L49.6282 26.3815C49.1193 28.3824 48.2975 29.0837 47.2466 28.8254V28.8235C45.7527 28.4524 44.7833 24.4467 43.8159 20.1671H41.6887C41.4265 24.1825 40.9214 27.8755 38.633 27.7687C36.467 27.6657 35.8997 24.0776 35.4393 20.1671H33.9901C33.8638 23.9863 33.2442 27.4618 30.1942 27.4598V27.4655C26.952 27.4655 26.5363 24.4526 26.2527 20.1671H24.1546C24.1468 22.203 24.0983 23.5707 23.8419 24.5381C23.4106 26.166 22.5675 26.7294 20.9318 26.7566C19.5681 26.7799 17.6468 23.5532 15.9975 20.1691H5.19656H3.13738L4.1728 18.4246C4.32626 18.1643 4.5147 17.8165 4.74393 17.3989C6.01829 15.058 8.40383 10.6833 10.8107 9.68671C12.4231 9.02038 13.8976 9.47686 14.9505 11.9226L14.9544 11.9324L15.3137 12.7929L15.3196 12.7988C15.7858 13.9255 16.59 15.8662 17.4487 17.8437ZM24.1818 17.8437H26.0836C25.9457 16.4198 25.7165 14.9181 25.4076 13.7118C25.1628 12.7405 25.2075 12.0197 25.1162 12.0081H25.1143C25.0929 12.0295 24.9802 12.6433 24.7529 13.5505C24.4499 14.7394 24.2498 16.2819 24.1818 17.8437ZM21.7846 20.1691H18.4841C19.5584 22.5197 20.5413 24.4468 20.893 24.441C21.2659 24.4352 21.4583 24.3107 21.5534 23.9591C21.7399 23.2559 21.7768 22.0321 21.7846 20.1691ZM31.6337 20.1691H28.6246C28.8208 23.1102 29.0714 25.1403 30.1942 25.1403V25.1461C31.2724 25.1461 31.556 22.848 31.6337 20.1691ZM34.0231 17.8437H35.1712C34.8293 14.9162 34.4738 12.2956 34.0678 12.2917C34.0309 12.2917 34.027 14.6326 34.0251 17.2687L34.0231 17.8437ZM41.8247 17.8437H43.3069L43.1476 17.0415C42.6698 14.6423 42.2191 12.387 41.9996 12.3695C41.7956 12.3539 42.1472 13.5719 42.0093 15.161C41.9335 16.0449 41.8772 16.9385 41.8267 17.8437H41.8247ZM39.3226 20.1691H37.821C38.1473 22.9762 38.464 25.4414 38.7437 25.455C38.9749 25.4666 39.1556 22.9917 39.3226 20.1691ZM48.7677 20.1691H46.2345C46.7026 22.2458 47.1456 24.1825 47.4447 25.3694L48.7677 20.1691ZM47.8216 26.5739C48.0003 26.6166 47.9012 26.5564 47.7458 26.4379C47.7769 26.5214 47.8002 26.57 47.8158 26.5739H47.8216ZM103.942 36.5086L101.722 36.8387C101.617 35.6692 101.178 35.0846 100.414 35.0846C99.915 35.0846 99.5012 35.376 99.1729 35.9607C98.8446 36.5474 98.6348 37.7266 98.5513 39.5041C98.8349 39.0612 99.1554 38.729 99.5032 38.5095C99.8587 38.2861 100.245 38.1773 100.669 38.1773C101.605 38.1773 102.425 38.6454 103.12 39.5817C103.816 40.52 104.167 41.7634 104.167 43.3175C104.167 44.9687 103.8 46.2682 103.062 47.2065C102.328 48.1468 101.417 48.6189 100.327 48.6189C99.136 48.6189 98.1472 48.0069 97.3604 46.7831C96.5776 45.5612 96.1832 43.5331 96.1832 40.7046C96.1832 37.8315 96.5912 35.7626 97.4051 34.5019C98.223 33.2392 99.272 32.6078 100.552 32.6078C101.434 32.6078 102.178 32.9282 102.786 33.577C103.39 34.22 103.777 35.1992 103.944 36.5124L103.942 36.5086ZM98.7475 43.0669C98.7475 44.0537 98.9204 44.8114 99.2642 45.332C99.6061 45.8565 99.9966 46.1147 100.434 46.1147C100.861 46.1147 101.215 45.8992 101.5 45.464C101.782 45.0328 101.926 44.3199 101.926 43.333C101.926 42.3093 101.772 41.5633 101.467 41.0912C101.158 40.6231 100.783 40.3899 100.327 40.3899C99.8897 40.3899 99.5148 40.6133 99.2079 41.062C98.9009 41.5069 98.7494 42.1772 98.7494 43.065L98.7475 43.0669ZM65.5791 10.9125L63.2849 11.5847C63.1139 10.0539 62.5836 9.28841 61.688 9.28841C61.113 9.28841 60.6468 9.61483 60.2952 10.2734C59.9436 10.93 59.7687 12.0412 59.7687 13.605C59.7687 15.332 59.9436 16.55 60.2952 17.2629C60.6429 17.9778 61.113 18.3314 61.6978 18.3314C62.1348 18.3314 62.4981 18.1254 62.7798 17.7194C63.0615 17.3134 63.2655 16.5908 63.3859 15.5593L65.6821 16.2042C65.21 19.7126 63.856 21.4667 61.6142 21.4667C60.1825 21.4667 59.1218 20.7247 58.4303 19.2464C57.7367 17.7661 57.389 15.9886 57.389 13.908C57.389 11.4156 57.7814 9.51574 58.5662 8.21418C59.3511 6.91262 60.3807 6.26377 61.655 6.26377C62.6866 6.26377 63.5277 6.63865 64.1785 7.37879C64.8254 8.12088 65.2955 9.29625 65.5772 10.9125H65.5791ZM66.7797 13.6613C66.7797 12.2374 66.9895 10.9397 67.4052 9.76828C67.8228 8.60271 68.3668 7.72463 69.0409 7.14185C69.7169 6.55906 70.4706 6.26377 71.3157 6.26377C72.728 6.26377 73.8391 7.01554 74.6453 8.51914C75.4554 10.0208 75.8575 11.775 75.8575 13.7818C75.8575 15.2815 75.6477 16.6335 75.2262 17.838C74.8066 19.0404 74.2549 19.9515 73.5691 20.5576C72.8853 21.1637 72.1374 21.4667 71.3234 21.4667C70.018 21.4667 68.9321 20.7907 68.0696 19.4425C67.209 18.0905 66.7777 16.1615 66.7777 13.6613H66.7797ZM69.1574 13.8652C69.1574 15.3358 69.3711 16.447 69.7946 17.2027C70.222 17.9545 70.7348 18.3333 71.339 18.3333C71.9276 18.3333 72.4327 17.9545 72.8523 17.1949C73.27 16.4393 73.4798 15.3183 73.4798 13.838C73.4798 12.3966 73.2661 11.2951 72.8426 10.5395C72.4152 9.77794 71.9062 9.4011 71.3099 9.4011C70.7212 9.4011 70.2162 9.77988 69.7927 10.5395C69.3692 11.2951 69.1594 12.4064 69.1594 13.8672L69.1574 13.8652ZM76.893 16.9909L79.2299 16.3984C79.43 17.9292 80.0575 18.6946 81.1046 18.6946C81.6601 18.6946 82.0759 18.5509 82.3517 18.2556C82.6276 17.9623 82.7636 17.5834 82.7636 17.1114C82.7636 16.7947 82.7014 16.5422 82.5771 16.3596C82.4469 16.1731 82.1963 16.0138 81.8194 15.8798C79.906 15.1979 78.6899 14.5452 78.1693 13.9255C77.5243 13.1465 77.1999 12.0819 77.1999 10.7298C77.1999 9.3797 77.5165 8.29766 78.1518 7.47981C78.7851 6.6678 79.7059 6.26178 80.9142 6.26178C82.0662 6.26178 82.9462 6.56487 83.5445 7.17874C84.1448 7.78484 84.5683 8.76779 84.8091 10.1218L82.6179 10.7978C82.4217 9.62255 81.8719 9.03391 80.9589 9.03391C80.3839 9.03391 79.9778 9.14464 79.735 9.37387C79.4922 9.59728 79.3698 9.8926 79.3698 10.25C79.3698 10.5784 79.4805 10.8426 79.6981 11.0582C79.9157 11.2777 80.6053 11.6041 81.7631 12.0392C83.0666 12.5249 83.9486 13.1174 84.4148 13.8226C84.8733 14.5219 85.1005 15.4601 85.1005 16.6257C85.1005 18.0263 84.745 19.1881 84.034 20.0972C83.325 21.0064 82.3459 21.4628 81.0948 21.4628C79.9604 21.4628 79.0298 21.0802 78.313 20.3206C77.5923 19.5591 77.1164 18.448 76.8891 16.9871L76.893 16.9909ZM96.3969 6.291L95.7558 9.67893C95.2741 9.87902 94.9147 10.3413 94.6796 11.0698C94.4465 11.7924 94.328 12.5734 94.328 13.399C94.328 14.4947 94.5184 15.4991 94.8933 16.4043C95.2702 17.3057 95.8452 17.9312 96.6242 18.2769V12.0605C96.6242 10.5259 96.7077 9.38748 96.8728 8.64928C97.036 7.91691 97.3565 7.33802 97.8306 6.91647C98.3046 6.50269 98.9242 6.291 99.6896 6.291C100.744 6.291 101.648 6.64644 102.402 7.34967C103.153 8.05485 103.711 8.97954 104.08 10.1179C104.447 11.2621 104.628 12.3908 104.628 13.5097C104.628 15.4368 104.177 17.1503 103.272 18.648C102.37 20.1458 101.098 21.0938 99.4565 21.4939V26.6458H96.6242V21.4939C95.0157 21.187 93.7433 20.305 92.8128 18.852C91.8783 17.4008 91.4141 15.6564 91.4141 13.6166C91.4141 11.3166 91.8919 9.46323 92.8497 8.0626C93.6772 6.864 94.8603 6.26958 96.3969 6.28901V6.291ZM99.4585 18.4712C100.96 17.5621 101.714 15.7477 101.714 13.0261C101.714 12.0586 101.566 11.2213 101.273 10.5064C100.976 9.78767 100.61 9.42832 100.173 9.42832C99.9538 9.42832 99.777 9.56822 99.6508 9.84407C99.5226 10.118 99.4604 11.029 99.4604 12.5734V18.4712H99.4585ZM56.9811 44.7084V41.6837L63.9687 38.729L56.9811 35.7801V32.7981L66.9817 37.4953V40.0539L56.9811 44.7084ZM56.9811 48.3042V45.4971H66.9817V48.3042H56.9811ZM76.8036 32.5571C77.9614 32.5571 78.8977 33.1497 79.6146 34.3366C80.3314 35.5236 80.6888 37.6003 80.6888 40.5667C80.6888 43.5272 80.3314 45.6001 79.6146 46.789C78.8997 47.9779 77.9653 48.5683 76.8133 48.5683C75.6536 48.5683 74.7153 47.9797 74.0004 46.8024C73.2836 45.6252 72.9261 43.5388 72.9261 40.5375C72.9261 37.5905 73.2816 35.5255 74.0004 34.3366C74.7153 33.1497 75.6497 32.5571 76.8036 32.5571ZM76.8075 35.0573C76.3587 35.0573 75.9974 35.3779 75.7313 36.019C75.4632 36.6581 75.3291 38.1753 75.3291 40.5667C75.3291 42.9619 75.4632 44.4753 75.7313 45.1144C75.9993 45.7516 76.3587 46.0702 76.8075 46.0702C77.2621 46.0702 77.6214 45.7496 77.8876 45.1085C78.1518 44.4675 78.2839 42.9561 78.2839 40.5686C78.2839 38.1792 78.1518 36.66 77.8876 36.0209C77.6214 35.3798 77.2621 35.0592 76.8075 35.0592V35.0573ZM82.6839 48.3042V45.299H84.9646V48.3042H82.6839ZM86.8994 44.6618L89.1198 44.3334C89.2247 45.5028 89.656 46.0876 90.4136 46.0876C90.9226 46.0876 91.3402 45.7962 91.6666 45.2153C91.993 44.6325 92.2008 43.4572 92.2941 41.6797C92.0085 42.1149 91.686 42.4433 91.3286 42.6628C90.9692 42.8862 90.5729 42.995 90.1339 42.995C89.2267 42.995 88.4244 42.5268 87.7231 41.5943C87.0257 40.6619 86.6741 39.4224 86.6741 37.876C86.6741 36.2248 87.0412 34.9234 87.7775 33.9754C88.5137 33.0274 89.419 32.5534 90.5049 32.5534C91.7093 32.5534 92.704 33.1633 93.4849 34.3852C94.2678 35.609 94.6582 37.6352 94.6582 40.4637C94.6582 43.3407 94.2522 45.4096 93.4363 46.6704C92.6185 47.9312 91.5636 48.5626 90.2621 48.5626C89.3607 48.5626 88.6147 48.2438 88.0281 47.6047C87.4414 46.9675 87.0626 45.9846 86.8975 44.6578L86.8994 44.6618ZM92.094 38.0976C92.094 37.1205 91.9211 36.3686 91.5753 35.8422C91.2315 35.3196 90.8371 35.0573 90.4 35.0573C89.9746 35.0573 89.623 35.2731 89.3413 35.7082C89.0596 36.1395 88.9158 36.8582 88.9158 37.8645C88.9158 38.8727 89.0674 39.611 89.3762 40.0791C89.6871 40.5473 90.0659 40.7803 90.5185 40.7803C90.9517 40.7803 91.3228 40.5588 91.6316 40.1101C91.9425 39.6613 92.094 38.9932 92.094 38.0976Z" fill="black"/>
</svg>
