<svg width="54" height="55" viewBox="0 0 54 55" fill="none" xmlns="http://www.w3.org/2000/svg">
<path fill-rule="evenodd" clip-rule="evenodd" d="M0 0.695801H53.8845V54.5803H0V0.695801ZM12.1356 12.9576L9.72866 13.4782C9.55188 12.2932 8.99434 11.7008 8.05412 11.7008C7.44996 11.7008 6.96236 11.9532 6.59326 12.4641C6.22416 12.9731 6.03962 13.8337 6.03962 15.0459C6.03962 16.3824 6.22416 17.3266 6.59326 17.8783C6.95848 18.4319 7.44996 18.7059 8.06383 18.7059C8.52229 18.7059 8.90304 18.5466 9.19832 18.2319C9.49554 17.9191 9.70729 17.3576 9.8355 16.5592L12.2424 17.0585C11.747 19.7763 10.327 21.1342 7.97835 21.1342C6.47865 21.1342 5.36552 20.5591 4.63898 19.4149C3.91244 18.2688 3.54723 16.8914 3.54723 15.281C3.54723 13.35 3.95907 11.8795 4.78274 10.8713C5.60641 9.86303 6.68457 9.35983 8.02109 9.35983C9.10119 9.35983 9.98314 9.64932 10.6669 10.2243C11.3469 10.7994 11.8364 11.7085 12.1336 12.9596L12.1356 12.9576ZM13.3944 15.0867C13.3944 13.9833 13.6139 12.979 14.051 12.0718C14.4881 11.1685 15.0592 10.4885 15.7644 10.0379C16.4715 9.58523 17.2641 9.35794 18.1499 9.35794C19.6321 9.35794 20.7958 9.94068 21.6408 11.1043C22.4897 12.2679 22.9132 13.6278 22.9132 15.1819C22.9132 16.3417 22.6937 17.3907 22.2527 18.3231C21.8118 19.2556 21.2329 19.9608 20.5141 20.4309C19.7992 20.901 19.0144 21.1361 18.1596 21.1361C16.7901 21.1361 15.6517 20.6116 14.7484 19.5684C13.8451 18.5194 13.3924 17.0274 13.3924 15.0906L13.3944 15.0867ZM15.8887 15.246C15.8887 16.3844 16.1121 17.245 16.557 17.8297C17.0057 18.4125 17.5438 18.7039 18.1771 18.7039C18.7949 18.7039 19.3233 18.4105 19.7642 17.8219C20.2013 17.2353 20.4209 16.3689 20.4209 15.2227C20.4209 14.1057 20.1975 13.2529 19.7526 12.6682C19.3038 12.0796 18.7696 11.7862 18.1441 11.7862C17.5263 11.7862 16.998 12.0796 16.5531 12.6682C16.1082 13.2529 15.8887 14.1134 15.8887 15.2441V15.246ZM23.9992 17.6684L26.4508 17.21C26.6606 18.395 27.3191 18.9875 28.4167 18.9875C28.9995 18.9875 29.4346 18.8748 29.7241 18.6475C30.0135 18.4203 30.1573 18.1269 30.1573 17.7617C30.1573 17.5169 30.0932 17.3208 29.963 17.1809C29.827 17.0352 29.5628 16.9128 29.1685 16.8079C27.1637 16.2795 25.8874 15.7744 25.3415 15.2946C24.6655 14.6905 24.3255 13.8667 24.3255 12.8197C24.3255 11.7745 24.6577 10.9354 25.324 10.304C25.9884 9.67461 26.9539 9.35983 28.2224 9.35983C29.4288 9.35983 30.3515 9.59497 30.979 10.069C31.6084 10.5391 32.0533 11.3005 32.3058 12.3496L30.0077 12.8741C29.8018 11.963 29.2229 11.5084 28.2691 11.5084C27.6649 11.5084 27.2395 11.5959 26.9869 11.7727C26.7286 11.9455 26.6042 12.1728 26.6042 12.4526C26.6042 12.7051 26.7188 12.911 26.9481 13.078C27.1754 13.2471 27.898 13.4996 29.1141 13.8376C30.4798 14.2145 31.4044 14.6729 31.892 15.2188C32.3738 15.7608 32.6128 16.4874 32.6128 17.3907C32.6128 18.4747 32.2398 19.3741 31.4957 20.0793C30.7517 20.7844 29.7241 21.138 28.4128 21.138C27.2239 21.138 26.2468 20.8408 25.4969 20.2541C24.7412 19.6655 24.242 18.8049 24.003 17.6723L23.9992 17.6684ZM42.932 9.38127H43.3224L42.7921 11.9727C41.9898 12.3554 41.5877 13.3248 41.5877 14.875C41.5877 16.8118 42.2443 18.0803 43.5614 18.6844V13.3675C43.5614 11.9261 43.7712 10.8965 44.1869 10.2807C44.6026 9.66681 45.267 9.35983 46.1859 9.35983C47.433 9.35983 48.4548 9.89605 49.2572 10.9645C50.0575 12.0349 50.4577 13.3714 50.4577 14.9721C50.4577 16.5204 50.0672 17.8569 49.2824 18.9914C48.4976 20.122 47.4097 20.8525 46.011 21.1788V25.1476H43.5594V21.1788C42.1355 20.8894 41.0282 20.1959 40.2453 19.0944C39.4605 17.991 39.07 16.6466 39.07 15.0576C39.07 13.3869 39.4314 12.0212 40.1579 10.9664C40.8844 9.91154 41.8091 9.38317 42.93 9.38317L42.932 9.38127ZM46.013 13.8668V18.8379C46.7065 18.5193 47.2019 18.0667 47.4971 17.482C47.7944 16.8933 47.942 15.9318 47.942 14.5875C47.942 13.8318 47.8002 13.1771 47.5224 12.6215C47.2427 12.0679 46.9396 11.7901 46.6152 11.7901C46.384 11.7901 46.2247 11.9125 46.1373 12.1612C46.0538 12.406 46.011 12.9751 46.011 13.8668H46.013ZM4.34371 41.8172V38.8295L11.7801 35.9098L4.34371 32.992V30.043L14.9912 34.6859V37.2172L4.34371 41.8172ZM4.34371 45.3742V42.5982H14.9912V45.3742H4.34371ZM20.5024 29.8041C21.736 29.8041 22.7326 30.3908 23.496 31.5641C24.2595 32.7394 24.6383 34.7907 24.6383 37.7222C24.6383 40.6497 24.2595 42.6993 23.496 43.8745C22.7326 45.0498 21.7399 45.6345 20.5141 45.6345C19.2786 45.6345 18.282 45.0536 17.5186 43.89C16.7551 42.7264 16.3763 40.6614 16.3763 37.695C16.3763 34.7811 16.7551 32.7413 17.5186 31.566C18.282 30.3907 19.2747 29.806 20.5044 29.806L20.5024 29.8041ZM20.5063 32.277C20.0284 32.277 19.6457 32.5956 19.3602 33.227C19.0746 33.8603 18.9347 35.3599 18.9347 37.7222C18.9347 40.0902 19.0746 41.5861 19.3602 42.2174C19.6457 42.8468 20.0304 43.1615 20.5063 43.1615C20.99 43.1615 21.3727 42.843 21.6544 42.2116C21.9361 41.5783 22.076 40.0825 22.076 37.7222C22.076 35.358 21.9361 33.8584 21.6544 33.227C21.3727 32.5937 20.99 32.277 20.5063 32.277ZM31.2529 41.7764L33.6171 41.4501C33.7298 42.606 34.1882 43.1849 34.9944 43.1849C35.5364 43.1849 35.9813 42.8955 36.3271 42.3204C36.6748 41.7454 36.8943 40.5817 36.9953 38.8256C36.6923 39.2549 36.3484 39.5813 35.9696 39.7969C35.5869 40.0184 35.1634 40.1252 34.6972 40.1252C33.7317 40.1252 32.875 39.6628 32.131 38.742C31.387 37.8212 31.014 36.5955 31.014 35.0666C31.014 33.4329 31.4044 32.1468 32.1893 31.2105C32.9741 30.2741 33.9376 29.8041 35.0915 29.8041C36.3756 29.8041 37.4343 30.4082 38.2658 31.6166C39.0992 32.8268 39.5168 34.8296 39.5168 37.627C39.5168 40.471 39.0836 42.5166 38.2153 43.7638C37.343 45.0109 36.2202 45.6365 34.8351 45.6365C33.8735 45.6365 33.0809 45.3237 32.4573 44.6904C31.8318 44.061 31.4316 43.0897 31.2549 41.7764H31.2529ZM36.7816 35.2862C36.7816 34.3207 36.5971 33.5766 36.228 33.056C35.8628 32.5392 35.4432 32.2789 34.9769 32.2789C34.5262 32.2789 34.1494 32.4926 33.8502 32.9219C33.5491 33.3493 33.3995 34.0603 33.3995 35.0549C33.3995 36.0535 33.5627 36.7819 33.891 37.2443C34.2193 37.7086 34.6234 37.9379 35.1051 37.9379C35.5675 37.9379 35.9599 37.7183 36.2901 37.2754C36.6184 36.8305 36.7816 36.17 36.7816 35.2842V35.2862ZM41.1409 41.3879L43.5691 41.0616C43.6352 41.7415 43.8411 42.2757 44.1947 42.6662C44.5463 43.0567 44.9368 43.251 45.3583 43.251C45.8614 43.251 46.2908 43.0023 46.6521 42.5069C47.0095 42.0116 47.1902 41.25 47.1902 40.2223C47.1902 39.253 47.0115 38.5342 46.654 38.0719C46.2966 37.6057 45.842 37.3745 45.2923 37.3745C44.591 37.3745 43.9616 37.7514 43.406 38.5012L41.4226 38.1535L42.6794 30.0663H49.1192V32.8424H44.5502L44.1383 35.4881C44.6881 35.156 45.2476 34.9909 45.8129 34.9909C46.8133 34.9909 47.6642 35.3833 48.3597 36.1758C49.2416 37.1841 49.6826 38.5128 49.6826 40.166C49.6826 41.5278 49.3057 42.7789 48.5539 43.925C47.806 45.0673 46.7317 45.6384 45.3369 45.6384C44.2063 45.6384 43.2661 45.2693 42.5085 44.533C41.7489 43.7968 41.2943 42.7478 41.1389 41.3899L41.1409 41.3879ZM26.6975 42.4059H29.1257V44.535C29.1257 45.7414 28.9859 46.6369 28.7042 47.2275C28.3604 47.954 27.7853 48.4921 26.9792 48.8476L26.5032 47.618C26.9791 47.4198 27.323 47.1517 27.5328 46.8156C27.7426 46.4795 27.8553 45.9978 27.8689 45.3762H26.6994V42.4059H26.6975Z" fill="black"/>
</svg>
