<svg width="55" height="55" viewBox="0 0 55 55" fill="none" xmlns="http://www.w3.org/2000/svg">
<path fill-rule="evenodd" clip-rule="evenodd" d="M0.200989 0.331726H54.0855V54.2162H0.200989V0.331726ZM13.914 50.6981V39.0016H16.0411V48.7089H21.3328V50.6981H13.914ZM22.852 50.6981V38.9064H30.6652V40.9015H24.9791V43.5143H30.2709V45.4997H24.9791V48.7089H30.8672V50.6981H22.852ZM32.6661 38.9064H36.5552C37.4314 38.9064 38.0977 38.9802 38.56 39.1317C39.1778 39.3338 39.7081 39.697 40.1491 40.2196C40.5901 40.7383 40.9281 41.3755 41.1573 42.1273C41.3865 42.883 41.4992 43.8115 41.4992 44.9169C41.4992 45.8862 41.3924 46.7235 41.1767 47.4248C40.9145 48.2815 40.5396 48.977 40.0481 49.5054C39.6809 49.9094 39.1836 50.2222 38.5542 50.4475C38.086 50.6165 37.4566 50.6981 36.6699 50.6981H32.668V38.9064H32.6661ZM34.7933 40.9015V48.7089H36.3804C36.9748 48.7089 37.4042 48.6739 37.6684 48.5962C38.0122 48.501 38.2997 48.3378 38.527 48.1086C38.7562 47.8774 38.9388 47.4947 39.0845 46.9683C39.2263 46.4418 39.3021 45.7192 39.3021 44.8081C39.3021 43.897 39.2283 43.1996 39.0845 42.7101C38.9388 42.2205 38.7387 41.8398 38.4804 41.5678C38.2201 41.2939 37.8918 41.1093 37.4935 41.0122C37.1963 40.9364 36.6155 40.8995 35.7471 40.8995H34.7913L34.7933 40.9015ZM17.5622 24.8476H34.3737H38.1637V29.5332H33.3013V35.8506H31.145V29.5332H21.2027V35.8506H19.0464V29.5332H15.064V24.8476H17.5603H17.5622ZM34.3737 23.2216H17.5622V14.0078C17.5622 9.73986 21.3445 6.247 25.9679 6.247C30.5914 6.247 34.3737 9.73986 34.3737 14.0078V23.2216Z" fill="#B0CB21"/>
</svg>
