<svg width="54" height="55" viewBox="0 0 54 55" fill="none" xmlns="http://www.w3.org/2000/svg">
<path fill-rule="evenodd" clip-rule="evenodd" d="M0 0.827637H53.8845V54.7122H0V0.827637ZM4.0698 28.5003V31.4842C4.0698 32.4652 4.30874 32.9567 4.78857 32.9567H5.41992C5.65886 32.9567 5.81621 32.8032 5.89586 32.4905C5.97357 32.1797 6.01242 31.8455 6.01242 31.4842H7.52572C7.52572 32.1583 7.47133 32.7391 7.36643 33.2248C7.25958 33.7104 7.04784 34.1068 6.72536 34.4118C6.40483 34.7168 5.94248 34.8683 5.33444 34.8683H4.37673C3.99403 34.8683 3.66573 34.7459 3.39182 34.4972C3.11402 34.2525 2.90616 33.893 2.76435 33.4268C2.62254 32.9586 2.55261 32.4109 2.55261 31.7853V28.5023H2.00479V26.5907H2.55261V24.9958H4.06591V26.5907H6.89437V28.5023H4.06591L4.0698 28.5003ZM8.39796 31.7445C8.39796 31.2608 8.4543 30.8587 8.56308 30.5401C8.67381 30.2215 8.86419 29.9768 9.13227 29.8058C9.4023 29.6349 9.76557 29.5493 10.224 29.5493H12.0579C12.2754 29.5493 12.4483 29.6135 12.5765 29.7417C12.7028 29.8699 12.8097 30.0739 12.8951 30.3536V29.3182C12.8912 28.916 12.8271 28.648 12.7028 28.5081C12.5785 28.3721 12.3667 28.3022 12.0656 28.3022H10.4688C10.2299 28.3022 10.0725 28.3294 9.9948 28.3876C9.91515 28.4459 9.8763 28.5567 9.8763 28.7179V28.9802H8.43487C8.43487 28.2342 8.57085 27.6475 8.84671 27.226C9.12062 26.8005 9.59073 26.5888 10.259 26.5888H12.4911C12.9456 26.5888 13.3147 26.7151 13.6003 26.9696C13.8859 27.224 14.0918 27.5679 14.2181 28.0011C14.3443 28.4304 14.4084 28.9336 14.4084 29.5027V34.8683H12.8951V33.93C12.7475 34.2855 12.6135 34.5302 12.495 34.6643C12.3726 34.8002 12.188 34.8683 11.9374 34.8683H9.91321C9.43921 34.8683 9.07011 34.6934 8.80008 34.3379C8.532 33.9824 8.39796 33.456 8.39796 32.7528V31.7445ZM10.599 31.2782C10.3289 31.2782 10.1405 31.3443 10.0356 31.4784C9.93069 31.6144 9.8763 31.8611 9.8763 32.2185C9.8763 32.4458 9.89766 32.6245 9.9404 32.7585C9.98508 32.8926 10.0608 32.9878 10.1638 33.048C10.2706 33.1083 10.4125 33.1374 10.597 33.1374H12.155C12.4308 33.1374 12.6232 33.0713 12.732 32.9372C12.8388 32.8013 12.8932 32.5624 12.8932 32.2185C12.8932 31.8747 12.8388 31.6319 12.73 31.49C12.6232 31.3463 12.4289 31.2782 12.155 31.2782H10.597H10.599ZM18.7055 28.2634H22.4256V30.577H18.7055V28.2634ZM29.8309 23.2319V30.0544H30.6896V32.3506H29.8309V34.8683H28.3176V32.3681H23.5932V28.4595L27.121 23.2319H29.8309ZM28.3176 30.0544V25.5514H27.9602L25.1065 29.6872V30.0564H28.3176V30.0544ZM32.7507 27.6028V30.61C32.7507 31.1287 32.7818 31.5289 32.8478 31.7989C32.9119 32.0728 33.0285 32.2651 33.1975 32.3778C33.3665 32.4905 33.6152 32.5487 33.9473 32.5526H35.6802C35.9949 32.5468 36.2338 32.4944 36.395 32.3915C36.5543 32.2885 36.667 32.1039 36.7272 31.83C36.7894 31.558 36.8205 31.1501 36.8205 30.6081L36.8283 27.6009C36.8283 27.1658 36.8127 26.8161 36.7797 26.5558C36.7486 26.2936 36.6923 26.0914 36.6087 25.9438C36.5252 25.7981 36.4125 25.6952 36.2707 25.6369C36.127 25.5787 35.9327 25.5475 35.6879 25.5417H33.9532C33.6268 25.5475 33.3762 25.6078 33.2072 25.7302C33.0343 25.8506 32.9178 26.0526 32.8498 26.3421C32.7837 26.6277 32.7507 27.0492 32.7507 27.6028ZM38.3416 30.8917C38.3416 31.7212 38.3008 32.3914 38.2231 32.9062C38.1453 33.4171 38.0191 33.8153 37.8442 34.0931C37.6713 34.3748 37.4402 34.571 37.1527 34.6856C36.8652 34.7983 36.498 34.8586 36.0512 34.8683H33.5802C33.114 34.8605 32.7332 34.7964 32.4437 34.6759C32.1524 34.5555 31.9173 34.3515 31.7405 34.062C31.5618 33.7745 31.4336 33.3744 31.3559 32.8693C31.2762 32.3604 31.2374 31.7037 31.2374 30.8936V27.4067C31.2374 26.3304 31.3073 25.499 31.4414 24.9124C31.5812 24.3257 31.8163 23.9041 32.1524 23.6438C32.4884 23.3873 32.9644 23.2514 33.5821 23.2339H36.0531C36.632 23.2514 37.0866 23.3893 37.4169 23.6554C37.7491 23.9196 37.9861 24.3489 38.1279 24.9434C38.2697 25.5378 38.3416 26.3596 38.3416 27.4067V30.8936V30.8917ZM39.6509 22.857V24.3606C39.6509 24.6209 39.6684 24.8191 39.6994 24.955C39.7325 25.091 39.7907 25.1862 39.8743 25.2425C39.9578 25.3008 40.0821 25.328 40.2492 25.3319H41.1156C41.2749 25.328 41.3915 25.3008 41.4731 25.2503C41.5547 25.1998 41.609 25.1046 41.6401 24.9706C41.6712 24.8346 41.6848 24.6307 41.6848 24.3587L41.6906 22.8551C41.6906 22.6375 41.6829 22.4646 41.6654 22.3325C41.6498 22.2043 41.6207 22.1014 41.5799 22.0275C41.5391 21.9557 41.4828 21.9052 41.409 21.8741C41.3371 21.8469 41.2419 21.8293 41.1195 21.8274H40.2531C40.0899 21.8293 39.9636 21.8605 39.8782 21.9226C39.7927 21.9809 39.7325 22.0838 39.6994 22.2276C39.6664 22.3694 39.6489 22.5792 39.6489 22.8551L39.6509 22.857ZM42.4463 24.5024C42.4463 24.9162 42.4269 25.2523 42.3861 25.5087C42.3472 25.7632 42.2851 25.9613 42.1977 26.1032C42.1102 26.243 41.9956 26.3421 41.8499 26.3965C41.7081 26.4547 41.5236 26.4839 41.3002 26.4878H40.0647C39.8315 26.4839 39.6431 26.4508 39.4974 26.3926C39.3517 26.3304 39.2352 26.2274 39.1458 26.0856C39.0564 25.9399 38.9923 25.7418 38.9535 25.4874C38.9127 25.2329 38.8933 24.9026 38.8933 24.5005V22.756C38.8933 22.2179 38.9282 21.8002 38.9962 21.5069C39.0642 21.2136 39.1847 21.0037 39.3517 20.8755C39.5188 20.7454 39.7577 20.6774 40.0647 20.6696H41.3002C41.5896 20.6774 41.8169 20.7473 41.982 20.8794C42.1472 21.0135 42.2657 21.2291 42.3395 21.5243C42.4094 21.8235 42.4444 22.2315 42.4444 22.756V24.5005L42.4463 24.5024ZM49.7836 34.8507H46.9649C46.3762 34.8507 45.9158 34.7264 45.5817 34.4739C45.2495 34.2213 45.0125 33.7979 44.8707 33.2054C44.7289 32.6129 44.657 31.7931 44.657 30.7421V27.4397C44.6648 26.3052 44.7425 25.4368 44.8921 24.8327C45.0417 24.2266 45.2884 23.805 45.6322 23.5641C45.978 23.3213 46.4714 23.2009 47.1106 23.2009H49.601C50.141 23.2009 50.5898 23.3116 50.9453 23.5331C51.2988 23.7565 51.5747 24.1624 51.769 24.7452C51.9652 25.33 52.0623 26.1459 52.0623 27.191H50.4927C50.4927 26.583 50.4052 26.1497 50.2285 25.8952C50.0497 25.6408 49.7564 25.5145 49.3446 25.5145H47.4039C47.0445 25.5145 46.7822 25.5592 46.6152 25.6485C46.4481 25.734 46.3335 25.9186 46.2694 26.1983C46.2053 26.4761 46.1742 26.9248 46.1742 27.5426V30.4274C46.1742 31.0063 46.215 31.4492 46.2966 31.7542C46.3782 32.0592 46.5045 32.2671 46.6754 32.3759C46.8464 32.4847 47.0872 32.5409 47.3961 32.5409H49.3387C49.6418 32.5409 49.8749 32.4963 50.0361 32.4089C50.1993 32.3234 50.3178 32.1544 50.3936 31.9116C50.4674 31.6649 50.5063 31.3055 50.5063 30.8296H52.0759C52.072 31.898 52.0098 32.7158 51.8855 33.2831C51.7612 33.8523 51.5359 34.2563 51.2134 34.4972C50.8909 34.7342 50.413 34.8546 49.7855 34.8546L49.7836 34.8507Z" fill="#008DD2"/>
</svg>
