<svg width="55" height="55" viewBox="0 0 55 55" fill="none" xmlns="http://www.w3.org/2000/svg">
<path fill-rule="evenodd" clip-rule="evenodd" d="M0.570984 0.287445H54.4555V54.1719H0.570984V0.287445ZM7.88888 15.8149H3.80743V38.5533H7.88888V15.8149ZM14.6239 32.2475H18.2372C19.0881 32.2514 19.8166 32.162 20.4169 31.9891C21.023 31.8124 21.5222 31.5248 21.9166 31.1305C22.3148 30.7419 22.6236 30.2174 22.8529 29.5705C23.0763 28.9178 23.2375 28.1253 23.3288 27.1811C23.4202 26.2351 23.4648 25.1258 23.4609 23.8515C23.4648 22.3712 23.3696 21.1182 23.1793 20.0867C22.9889 19.061 22.6858 18.2315 22.2759 17.606C21.8602 16.9785 21.3182 16.52 20.6558 16.2364C19.9895 15.9547 19.1833 15.811 18.2372 15.8168H10.5444V38.5552H14.6259V32.2494L14.6239 32.2475ZM14.6239 20.7879H17.4194C17.8157 20.7821 18.1343 20.8385 18.379 20.9434C18.6238 21.0541 18.8083 21.2309 18.9366 21.4737C19.0628 21.7165 19.1483 22.0351 19.1949 22.4333C19.2396 22.8374 19.259 23.327 19.2571 23.9078C19.261 24.6344 19.2357 25.2269 19.1891 25.6756C19.1425 26.1205 19.0492 26.4585 18.9191 26.6916C18.7908 26.9228 18.6024 27.0801 18.3615 27.1617C18.1207 27.2433 17.804 27.2783 17.4194 27.2724H14.6239V20.7841V20.7879ZM31.3791 34.128C30.9536 34.1319 30.6098 34.093 30.3495 34.0114C30.0911 33.9298 29.8929 33.79 29.757 33.5918C29.621 33.3937 29.5316 33.1255 29.485 32.7836C29.4364 32.4398 29.4151 32.0105 29.4209 31.4899C29.4209 31.045 29.452 30.6915 29.5161 30.4234C29.5782 30.1553 29.6871 29.9532 29.8328 29.8173C29.9823 29.6813 30.1824 29.5958 30.4388 29.5492C30.6894 29.5045 31.0061 29.4831 31.3791 29.489C31.8278 29.4831 32.2085 29.4928 32.5233 29.5239C32.8399 29.5492 33.0944 29.6191 33.2887 29.7357C33.4868 29.8464 33.6267 30.0349 33.718 30.2913C33.8054 30.5497 33.8501 30.9071 33.8501 31.3675C33.854 31.9833 33.8287 32.4787 33.7724 32.8478C33.7161 33.2169 33.6034 33.4947 33.4363 33.6812C33.2654 33.8638 33.0186 33.9842 32.6884 34.0463C32.3582 34.1066 31.923 34.1319 31.381 34.128H31.3791ZM37.85 22.7578V21.7884C37.8461 20.6112 37.7411 19.6399 37.5294 18.8725C37.3196 18.1091 37.0263 17.503 36.6494 17.0581C36.2706 16.6133 35.8316 16.285 35.3284 16.079C34.8253 15.8712 34.2774 15.7352 33.6888 15.6789C33.0963 15.6187 32.4844 15.5973 31.8472 15.6031C30.9633 15.5973 30.1766 15.6594 29.4928 15.7857C28.809 15.912 28.2184 16.1451 27.7211 16.4773C27.2238 16.8153 26.8158 17.2913 26.4992 17.9071C26.1786 18.5229 25.9417 19.3174 25.7882 20.2926C25.6347 21.262 25.5609 22.4508 25.5609 23.8495V29.5492C25.557 31.0761 25.6153 32.3835 25.7338 33.4597C25.8484 34.5398 26.0505 35.4353 26.3263 36.1386C26.6041 36.8418 26.9868 37.3915 27.4647 37.7898C27.9445 38.1841 28.5428 38.4619 29.2635 38.6232C29.9842 38.7844 30.8448 38.8602 31.8453 38.8543C32.6282 38.8602 33.3353 38.8 33.9628 38.6737C34.5844 38.5513 35.1322 38.3299 35.6023 38.0113C36.0705 37.6927 36.459 37.2536 36.7718 36.6825C37.0807 36.1114 37.3157 35.3848 37.4711 34.4951C37.6246 33.6112 37.7023 32.5389 37.7023 31.2762C37.7023 30.0989 37.6285 29.1179 37.4808 28.3312C37.3313 27.5386 37.1137 26.9072 36.8165 26.4254C36.5251 25.9495 36.1598 25.5921 35.7208 25.3492C35.2857 25.1064 34.7748 24.949 34.1978 24.8694C33.6209 24.7878 32.9701 24.7529 32.2533 24.7587C31.923 24.7529 31.6122 24.7684 31.3305 24.815C31.0488 24.8558 30.7905 24.9452 30.5593 25.0967C30.3281 25.2424 30.1202 25.4755 29.9415 25.7941C29.7608 26.1127 29.6074 26.542 29.4772 27.0918H29.417V23.5154C29.4131 22.7617 29.4539 22.1711 29.5355 21.736C29.6171 21.3067 29.7492 20.988 29.9338 20.786C30.1222 20.584 30.3689 20.4577 30.6836 20.4014C30.9964 20.347 31.3849 20.3198 31.8472 20.3315C32.226 20.3256 32.5485 20.347 32.8166 20.3916C33.0847 20.4324 33.3062 20.5335 33.4771 20.6908C33.6481 20.8462 33.7685 21.0891 33.852 21.4174C33.9336 21.7457 33.9724 22.1905 33.9724 22.7558H37.85V22.7578ZM46.0731 34.128C45.6476 34.1319 45.3038 34.093 45.0435 34.0114C44.7851 33.9298 44.587 33.79 44.451 33.5918C44.315 33.3937 44.2256 33.1255 44.179 32.7836C44.1304 32.4398 44.1091 32.0105 44.1149 31.4899C44.1149 31.045 44.146 30.6915 44.2101 30.4234C44.2703 30.1553 44.3791 29.9532 44.5267 29.8173C44.6763 29.6813 44.8784 29.5958 45.1329 29.5492C45.3835 29.5045 45.702 29.4831 46.075 29.489C46.5237 29.4831 46.9045 29.4928 47.2192 29.5239C47.5359 29.5492 47.7904 29.6191 47.9846 29.7357C48.1828 29.8464 48.3226 30.0349 48.412 30.2913C48.5013 30.5497 48.546 30.9071 48.546 31.3675C48.5499 31.9833 48.5247 32.4787 48.4683 32.8478C48.412 33.2169 48.2974 33.4947 48.1323 33.6812C47.9613 33.8638 47.7146 33.9842 47.3843 34.0463C47.0541 34.1066 46.6189 34.1319 46.0769 34.128H46.0731ZM52.542 22.7578V21.7884C52.5381 20.6112 52.4352 19.6399 52.2234 18.8725C52.0117 18.1091 51.7183 17.503 51.3415 17.0581C50.9646 16.6133 50.5256 16.285 50.0224 16.079C49.5193 15.8712 48.9715 15.7352 48.3829 15.6789C47.7904 15.6187 47.1784 15.5973 46.5413 15.6031C45.6574 15.5973 44.8706 15.6594 44.1868 15.7857C43.503 15.912 42.9124 16.1451 42.4132 16.4773C41.9159 16.8153 41.5099 17.2913 41.1932 17.9071C40.8727 18.5229 40.6356 19.3174 40.4822 20.2926C40.3287 21.262 40.253 22.4508 40.253 23.8495V29.5492C40.2491 31.0761 40.3074 32.3835 40.4259 33.4597C40.5405 34.5398 40.7425 35.4353 41.0183 36.1386C41.2961 36.8418 41.6789 37.3915 42.1567 37.7898C42.6366 38.1841 43.2349 38.4619 43.9556 38.6232C44.6763 38.7844 45.5369 38.8602 46.5374 38.8543C47.3202 38.8602 48.0273 38.8 48.6529 38.6737C49.2764 38.5513 49.8223 38.3299 50.2924 38.0113C50.7606 37.6927 51.1491 37.2536 51.4619 36.6825C51.7708 36.1114 52.0058 35.3848 52.1613 34.4951C52.3147 33.6112 52.3924 32.5389 52.3924 31.2762C52.3924 30.0989 52.3186 29.1179 52.171 28.3312C52.0214 27.5386 51.8038 26.9072 51.5066 26.4254C51.2152 25.9495 50.85 25.5921 50.4109 25.3492C49.9758 25.1064 49.4649 24.949 48.8879 24.8694C48.311 24.7878 47.6602 24.7529 46.9433 24.7587C46.6131 24.7529 46.3023 24.7684 46.0206 24.815C45.7389 24.8558 45.4806 24.9452 45.2494 25.0967C45.0182 25.2424 44.8104 25.4755 44.6316 25.7941C44.451 26.1127 44.2975 26.542 44.1674 27.0918H44.1071V23.5154C44.1033 22.7617 44.144 22.1711 44.2256 21.736C44.3072 21.3067 44.4393 20.988 44.6239 20.786C44.8123 20.584 45.059 20.4577 45.3737 20.4014C45.6865 20.347 46.075 20.3198 46.5374 20.3315C46.9142 20.3256 47.2387 20.347 47.5067 20.3916C47.7748 20.4324 47.9963 20.5335 48.1672 20.6908C48.3382 20.8462 48.4586 21.0891 48.5421 21.4174C48.6237 21.7457 48.6606 22.1905 48.6606 22.7558H52.5381L52.542 22.7578Z" fill="black"/>
</svg>
