<svg width="55" height="55" viewBox="0 0 55 55" fill="none" xmlns="http://www.w3.org/2000/svg">
<path fill-rule="evenodd" clip-rule="evenodd" d="M0.737839 0.74472H54.6223V54.6292H0.737839V0.74472ZM4.49875 23.6929H31.8217V21.457H8.26162V18.8985H31.8217V16.6626H4.49875C4.25204 16.6626 4.02864 16.7869 3.86546 16.985L3.86157 16.9909C3.70227 17.1929 3.60126 17.4726 3.60126 17.7796C3.60126 18.0865 3.70227 18.3663 3.86157 18.5683L3.86546 18.5741C4.02281 18.7664 4.2365 18.8908 4.47544 18.8966H4.4871H4.49875H5.47783V21.455H4.49875H4.4871H4.47544C4.2365 21.4628 4.02475 21.5852 3.86546 21.7775L3.86157 21.7833C3.70227 21.9854 3.60126 22.2651 3.60126 22.572C3.60126 22.879 3.70227 23.1587 3.86157 23.3607L3.86546 23.3666C4.02864 23.5667 4.25204 23.689 4.49875 23.689V23.6929ZM35.6351 36.5997V36.3491C35.6351 35.9645 35.6895 35.6692 35.7964 35.4575C35.9071 35.2496 36.0683 35.102 36.2917 35.0223C36.5112 34.9407 36.789 34.8999 37.129 34.9077C37.4806 34.9077 37.7604 34.9291 37.9604 34.9796C38.1605 35.0301 38.3082 35.1097 38.3975 35.2166C38.4908 35.3292 38.5471 35.471 38.5685 35.6478C38.5918 35.8265 38.6015 36.0441 38.5957 36.3006C38.5976 36.5104 38.5879 36.6813 38.5607 36.8153C38.5277 36.9455 38.4714 37.0523 38.3703 37.1242C38.2751 37.198 38.1294 37.2466 37.9313 37.2738C37.7312 37.301 37.4651 37.3127 37.129 37.3127H36.4588V39.7196H37.129C37.4942 39.7196 37.7837 39.739 37.9974 39.7798C38.211 39.8225 38.3723 39.8905 38.4733 39.9818C38.5801 40.0731 38.6481 40.1936 38.6792 40.3412C38.7103 40.4908 38.7258 40.6695 38.72 40.8793C38.72 41.2367 38.6928 41.5204 38.6326 41.7321C38.5762 41.9439 38.4811 42.1051 38.3587 42.2081C38.2324 42.311 38.0653 42.379 37.8633 42.4101C37.6613 42.4431 37.4184 42.4567 37.1309 42.4548C36.8881 42.4567 36.6666 42.447 36.4704 42.4217C36.2684 42.3965 36.1013 42.3402 35.9634 42.2489C35.8216 42.1576 35.7148 42.0119 35.6409 41.8118C35.5652 41.6117 35.5244 41.3417 35.5244 40.9939V40.5801H32.8863V41.2426C32.8921 41.9478 32.964 42.5344 33.1097 43.0007C33.2554 43.4688 33.4594 43.8399 33.7275 44.1138C33.9917 44.3877 34.3044 44.5936 34.6696 44.7277C35.031 44.8598 35.4311 44.9491 35.8682 44.988C36.3053 45.0307 36.7677 45.0462 37.2553 45.0424C37.7254 45.0462 38.1741 45.0171 38.5879 44.9608C38.9997 44.9025 39.3766 44.7976 39.7166 44.6461C40.0546 44.4926 40.3479 44.275 40.5908 43.9933C40.8336 43.7117 41.024 43.3484 41.1561 42.9055C41.2882 42.4606 41.3542 41.9186 41.3561 41.2776C41.36 40.9143 41.3309 40.5743 41.2765 40.2654C41.2241 39.9527 41.1308 39.6749 41.0026 39.4359C40.8705 39.197 40.6957 39.0066 40.4742 38.8648C40.2527 38.7249 39.9749 38.6433 39.6427 38.6239V38.4938C39.9594 38.4413 40.2275 38.3325 40.4334 38.1674C40.6413 38.0003 40.8025 37.7905 40.9191 37.5399C41.0337 37.2855 41.1191 37.0018 41.1658 36.6871C41.2124 36.3705 41.2376 36.0402 41.2338 35.6886C41.2299 35.0573 41.1502 34.5308 40.9832 34.1151C40.818 33.7013 40.6005 33.3711 40.3207 33.1282C40.0429 32.8854 39.7321 32.7067 39.3883 32.5901C39.0405 32.4736 38.6831 32.3978 38.3179 32.3648C37.9507 32.3318 37.5972 32.3182 37.2592 32.3221C36.7211 32.3162 36.2334 32.3376 35.7828 32.3784C35.3398 32.425 34.9494 32.5144 34.5997 32.6523C34.2578 32.7902 33.9645 33.002 33.7294 33.2798C33.4885 33.5614 33.3117 33.9364 33.1855 34.4065C33.0631 34.8766 33.0009 35.4652 33.0009 36.1704V36.6017H35.639L35.6351 36.5997ZM31.1846 42.2877H25.5762C25.5723 41.9575 25.6015 41.6952 25.6559 41.499C25.7103 41.3067 25.8016 41.159 25.9259 41.0561C26.0522 40.9512 26.2192 40.8657 26.431 40.7977C26.6427 40.7356 26.8991 40.6656 27.2119 40.5918C27.5208 40.516 27.886 40.415 28.3095 40.281C28.7466 40.1431 29.1254 39.9993 29.4498 39.8556C29.7723 39.7118 30.0481 39.5467 30.2676 39.3582C30.493 39.1679 30.6678 38.9367 30.8019 38.6667C30.9379 38.3966 31.035 38.0645 31.0952 37.672C31.1574 37.2796 31.1846 36.8037 31.1826 36.25C31.1826 35.5526 31.1185 34.9699 30.9903 34.4978C30.866 34.0238 30.6814 33.643 30.4405 33.3536C30.2016 33.0661 29.9141 32.8427 29.5761 32.697C29.24 32.5474 28.8612 32.4444 28.4396 32.3901C28.0181 32.3376 27.5616 32.3162 27.0682 32.3201C26.5359 32.3162 26.0483 32.3473 25.6151 32.4134C25.178 32.4794 24.7953 32.594 24.4631 32.765C24.1309 32.9301 23.8492 33.1652 23.6239 33.4682C23.3966 33.7693 23.2256 34.1598 23.111 34.6279C22.9945 35.1019 22.9362 35.675 22.9362 36.3472V36.963H25.5743V36.3666C25.5704 36.0364 25.5879 35.7722 25.6267 35.5779C25.6675 35.3817 25.7375 35.236 25.8443 35.1389C25.9473 35.0437 26.1007 34.9776 26.295 34.9485C26.4931 34.9174 26.7496 34.9038 27.0662 34.9077C27.344 34.9038 27.5771 34.9193 27.7655 34.9504C27.9579 34.9835 28.1094 35.0476 28.2221 35.1427C28.3386 35.2399 28.4202 35.3817 28.4668 35.5682C28.5212 35.7586 28.5445 36.0053 28.5426 36.3161C28.5445 36.5453 28.5387 36.7376 28.5212 36.8989C28.5037 37.0543 28.461 37.1844 28.4008 37.2932C28.3367 37.3962 28.2357 37.4894 28.0958 37.5671C27.9598 37.6468 27.7694 37.7206 27.5286 37.7964C27.2896 37.8682 26.9846 37.9498 26.6175 38.0431C25.9822 38.1985 25.448 38.3597 25.0129 38.5268C24.5738 38.6977 24.2183 38.8881 23.9444 39.0999C23.6724 39.3136 23.4607 39.5642 23.3111 39.8536C23.1615 40.1411 23.0625 40.4869 23.0081 40.8832C22.9537 41.2795 22.9284 41.7457 22.9323 42.2858V44.8772H31.1787V42.2858L31.1846 42.2877ZM21.4443 36.2831C21.4423 35.609 21.3704 35.0378 21.2247 34.5716C21.0771 34.1054 20.8673 33.7227 20.5934 33.4235C20.3214 33.1263 19.9951 32.8971 19.6124 32.7378C19.2297 32.5765 18.8042 32.4677 18.3322 32.4056C17.864 32.3415 17.3531 32.3143 16.8111 32.3182C16.1953 32.3143 15.6319 32.3454 15.1171 32.4153C14.5984 32.4852 14.14 32.6135 13.7359 32.8019C13.3319 32.9903 12.9919 33.2584 12.7102 33.612C12.4285 33.9675 12.2149 34.422 12.0653 34.9854C11.9196 35.5488 11.8438 36.2403 11.8438 37.0601V40.2771C11.8438 41.0813 11.9137 41.7613 12.0439 42.3207C12.1799 42.8802 12.38 43.3367 12.6461 43.6961C12.9142 44.0516 13.2444 44.3275 13.6407 44.5256C14.039 44.7199 14.5033 44.8559 15.0336 44.9316C15.562 45.0074 16.1564 45.0424 16.813 45.0385C17.559 45.0424 18.1981 45.0054 18.7304 44.9258C19.2646 44.8481 19.7075 44.7063 20.0572 44.5023C20.4108 44.3003 20.6886 44.0128 20.8906 43.6378C21.0926 43.2687 21.2364 42.7889 21.3219 42.2061C21.4073 41.6272 21.4462 40.9143 21.4443 40.0789V37.9071H16.6868V40.213H18.61C18.6139 40.6404 18.5847 40.992 18.5303 41.2698C18.472 41.5476 18.3768 41.7613 18.2467 41.9128C18.1127 42.0643 17.9281 42.1731 17.6931 42.2333C17.4599 42.2955 17.1666 42.3207 16.8111 42.3188C16.4498 42.3227 16.137 42.2955 15.8728 42.2372C15.6106 42.177 15.391 42.0624 15.2201 41.8895C15.0511 41.7185 14.9209 41.4679 14.8393 41.1338C14.7558 40.7977 14.7189 40.3587 14.7189 39.8109V37.7867C14.7131 37.3865 14.7228 37.0349 14.7461 36.7318C14.7616 36.4288 14.8083 36.1684 14.8782 35.9528C14.9481 35.7352 15.055 35.5604 15.2084 35.4244C15.358 35.2884 15.5659 35.1933 15.8262 35.1291C16.0846 35.065 16.4129 35.034 16.813 35.034C17.0267 35.032 17.2365 35.0495 17.4483 35.0825C17.66 35.1156 17.8543 35.1758 18.0272 35.2651C18.2079 35.3526 18.3458 35.4788 18.4507 35.6439C18.5575 35.8071 18.6119 36.0208 18.6139 36.2792H21.4462L21.4443 36.2831ZM42.3041 25.2276C42.4168 25.4063 42.479 25.6297 42.479 25.8881V26.6632C42.479 27.0517 42.3313 27.3664 42.0924 27.5607L42.0885 27.5626C41.9448 27.6772 41.7563 27.753 41.5621 27.753H40.0138V28.8914V30.1716H38.9881H32.8436H31.8179V28.8914V26.2514H4.49487C3.68479 26.2514 2.95048 25.8356 2.4182 25.1732L2.41238 25.1693C1.88204 24.503 1.54985 23.5841 1.54985 22.5759C1.54985 21.6629 1.82181 20.8237 2.26862 20.1787C1.82181 19.5338 1.54985 18.6965 1.54985 17.7815C1.54985 16.7733 1.88204 15.8544 2.41238 15.1881L2.4182 15.1842C2.95048 14.5218 3.68479 14.1061 4.49487 14.1061H31.8179V11.6098V10.3296H32.8436H38.9881H40.0138V11.6098V12.8919H41.5621C41.7563 12.8919 41.9448 12.9658 42.0885 13.0823L42.0905 13.0843C42.3294 13.2785 42.477 13.5893 42.477 13.9818V14.7569C42.477 14.9492 42.4401 15.126 42.376 15.2755H50.5195C51.4248 15.2755 52.2465 15.6446 52.8409 16.2391C53.4334 16.8316 53.8025 17.6533 53.8025 18.5605V21.9446C53.8025 22.8498 53.4334 23.6716 52.8409 24.266C52.2465 24.8585 51.4248 25.2276 50.5195 25.2276H42.3022H42.3041ZM45.7834 17.834C46.1311 17.8767 46.4575 17.9797 46.7217 18.1254L46.7275 18.1312C47.3025 18.4517 47.6638 18.9646 47.6638 19.6115V20.8917C47.6638 21.5327 47.3064 22.0514 46.7294 22.3719L46.7217 22.3778C46.4536 22.5235 46.1253 22.6303 45.7737 22.6711H50.5234C50.7235 22.6711 50.9041 22.5876 51.0362 22.4574C51.1664 22.3273 51.2499 22.1447 51.2499 21.9446V18.5605C51.2499 18.3604 51.1664 18.1778 51.0362 18.0477C50.9041 17.9175 50.7235 17.834 50.5234 17.834H45.7853H45.7834ZM37.9663 12.89H33.8693V27.6151H37.9663C37.9663 22.6983 37.9663 17.8068 37.9663 12.89Z" fill="#727272"/>
</svg>
