<svg width="55" height="55" viewBox="0 0 55 55" fill="none" xmlns="http://www.w3.org/2000/svg">
<path fill-rule="evenodd" clip-rule="evenodd" d="M0.450745 0.287445H54.3352V54.1719H0.450745V0.287445ZM7.53938 15.9275H3.44044V38.4425H7.53938V15.9275ZM14.3036 32.197H17.9305C18.7852 32.2028 19.5157 32.1115 20.1198 31.9425C20.7278 31.7677 21.231 31.4821 21.6273 31.0916C22.0275 30.707 22.3383 30.1864 22.5675 29.5453C22.7929 28.9004 22.9541 28.1136 23.0454 27.1792C23.1367 26.2429 23.1814 25.1414 23.1794 23.8806C23.1814 22.4159 23.0862 21.1745 22.8958 20.1547C22.7054 19.1387 22.4004 18.3189 21.9867 17.6973C21.569 17.0776 21.027 16.621 20.3607 16.3413C19.6905 16.0616 18.8824 15.9217 17.9324 15.9256H10.2046V38.4406H14.3055V32.197H14.3036ZM14.3036 20.8501H17.1107C17.507 20.8443 17.8275 20.9006 18.0742 21.0055C18.319 21.1163 18.5055 21.2911 18.6337 21.53C18.76 21.7709 18.8454 22.0856 18.894 22.48C18.9387 22.8801 18.9581 23.3658 18.9562 23.9408C18.9601 24.6615 18.9348 25.2463 18.8882 25.6911C18.8416 26.1302 18.7464 26.4663 18.6182 26.6974C18.488 26.9286 18.2996 27.084 18.0587 27.1636C17.8159 27.2433 17.4973 27.2783 17.1107 27.2744H14.3036V20.8501ZM36.77 15.9275H30.7226L24.8404 27.5736V33.9978H32.8751V38.4406H36.77V33.9978H38.0832V29.6444H36.77V15.9256V15.9275ZM32.8751 29.6463H28.0574L32.7313 20.551H32.8751V29.6463ZM46.283 15.7177C45.7391 15.7119 45.2068 15.7332 44.6843 15.7779C44.1617 15.8226 43.6625 15.9236 43.1846 16.0849C42.7086 16.2442 42.2715 16.4948 41.8733 16.8347C41.4692 17.1708 41.1215 17.6292 40.8262 18.2159C40.529 18.7968 40.2998 19.5311 40.1366 20.4169C39.9734 21.3066 39.8918 22.3829 39.8879 23.6436V30.7284C39.8918 31.9891 39.9734 33.0653 40.1366 33.9609C40.2998 34.8525 40.529 35.5927 40.8262 36.1832C41.1196 36.7718 41.4692 37.2381 41.8733 37.5839C42.2715 37.9296 42.7086 38.19 43.1846 38.3551C43.6625 38.5202 44.1617 38.631 44.6843 38.6815C45.2068 38.732 45.7391 38.7514 46.283 38.7475C46.827 38.7514 47.3593 38.732 47.8818 38.6815C48.4044 38.631 48.9037 38.5222 49.3815 38.3551C49.8575 38.19 50.2946 37.9296 50.6967 37.5839C51.0969 37.2381 51.4446 36.7738 51.7379 36.1832C52.0352 35.5927 52.2644 34.8525 52.4276 33.9609C52.5907 33.0653 52.6743 31.9891 52.6782 30.7284V23.6436C52.6743 22.3829 52.5927 21.3066 52.4276 20.4169C52.2644 19.5311 52.0352 18.7968 51.7379 18.2159C51.4446 17.6312 51.0949 17.1708 50.6967 16.8347C50.2946 16.4948 49.8575 16.2442 49.3815 16.0849C48.9037 15.9236 48.4044 15.8245 47.8818 15.7779C47.3593 15.7332 46.827 15.7138 46.283 15.7177ZM46.283 20.3994C46.7881 20.3897 47.2039 20.4305 47.5341 20.5102C47.8624 20.5956 48.1208 20.7705 48.3053 21.0405C48.4899 21.3105 48.62 21.7262 48.6938 22.2857C48.7696 22.8452 48.8065 23.597 48.8046 24.5431V29.7959C48.8085 30.7459 48.7696 31.5113 48.6938 32.0824C48.62 32.6535 48.4899 33.0828 48.3053 33.3684C48.1208 33.652 47.8605 33.8443 47.5341 33.9337C47.2058 34.025 46.7901 34.0677 46.283 34.058C45.776 34.0677 45.3603 34.0231 45.032 33.9279C44.7037 33.8327 44.4473 33.6443 44.2588 33.3529C44.0743 33.0615 43.9461 32.6321 43.8703 32.0571C43.7965 31.4821 43.7576 30.7167 43.7596 29.7667V24.6033C43.7576 23.6533 43.7946 22.8918 43.8703 22.3265C43.9461 21.7554 44.0743 21.3358 44.2588 21.0599C44.4473 20.7802 44.7037 20.5995 45.032 20.5141C45.3603 20.4286 45.776 20.3897 46.283 20.3994Z" fill="black"/>
</svg>
