<svg width="54" height="55" viewBox="0 0 54 55" fill="none" xmlns="http://www.w3.org/2000/svg">
<path fill-rule="evenodd" clip-rule="evenodd" d="M0.0810242 0.334595H53.9655V54.2191H0.0810242V0.334595Z" fill="black"/>
<path fill-rule="evenodd" clip-rule="evenodd" d="M5.46786 5.72162H11.626V48.8304H5.46786V5.72162Z" fill="#E31F25"/>
<path fill-rule="evenodd" clip-rule="evenodd" d="M17.7841 5.72162H11.626V48.8304H17.7841V5.72162Z" fill="#F07F1B"/>
<path fill-rule="evenodd" clip-rule="evenodd" d="M17.7841 5.72162H23.9422V48.8304H17.7841V5.72162Z" fill="#FFEE00"/>
<path fill-rule="evenodd" clip-rule="evenodd" d="M30.1023 5.72162H23.9423V48.8304H30.1023V5.72162Z" fill="#009847"/>
<path fill-rule="evenodd" clip-rule="evenodd" d="M30.1023 5.72162H36.2585V48.8304H30.1023V5.72162Z" fill="#00A0E4"/>
<path fill-rule="evenodd" clip-rule="evenodd" d="M42.4166 5.72162H36.2585V48.8304H42.4166V5.72162Z" fill="#7F71B1"/>
<path fill-rule="evenodd" clip-rule="evenodd" d="M42.4166 5.72162H48.5766V48.8304H42.4166V5.72162Z" fill="#D2CEE8"/>
<path fill-rule="evenodd" clip-rule="evenodd" d="M0.0810242 13.8048H53.9655V40.7471H0.0810242V13.8048Z" fill="black"/>
<path d="M6.72284 23.3023V27.3351H13.32C13.9824 27.3351 14.4467 27.1798 14.7129 26.8689C14.979 26.5562 15.115 26.0394 15.1247 25.3168C15.1247 24.5961 14.9945 24.0813 14.7362 23.7666C14.4759 23.4558 14.0038 23.3003 13.32 23.3003H6.72284V23.3023ZM18.5282 33.874H15.3539V31.8246C15.3539 31.1679 15.1616 30.692 14.775 30.3987C14.3923 30.1053 13.7474 29.9577 12.8479 29.9577H6.74227V33.874H3.56802V20.6778H13.5861C14.3204 20.6778 14.9712 20.7477 15.5326 20.8876C16.0902 21.0275 16.5778 21.2664 16.9896 21.6103C17.3976 21.9522 17.7181 22.4281 17.9434 23.0362C18.1707 23.6442 18.2815 24.4057 18.2815 25.3207C18.2815 26.2337 18.1105 26.9505 17.7647 27.4634C17.4189 27.9801 16.9508 28.4133 16.3621 28.761C16.9294 28.9806 17.3373 29.1515 17.5782 29.2739C17.8211 29.4001 18.0406 29.6099 18.2368 29.9072C18.4291 30.2083 18.5282 30.6182 18.5282 31.1369V33.874ZM23.1788 33.874H19.4936L26.4852 20.6778H31.163L38.102 33.874H34.3955L32.6996 30.5463H24.8903L23.1788 33.874ZM26.1627 28.054H31.4291L28.9212 23.1527H28.7716L26.1627 28.054ZM39.1647 33.874V20.6778H42.3195V31.2495H50.4746V33.8721H39.1627L39.1647 33.874Z" fill="white"/>
</svg>
