<svg width="55" height="54" viewBox="0 0 55 54" fill="none" xmlns="http://www.w3.org/2000/svg">
<path fill-rule="evenodd" clip-rule="evenodd" d="M0.867911 0.00271606H54.7524V53.8872H50.1853H4.79201H0.865967V0.00271606H0.867911ZM12.4965 49.5668H7.25526C7.25331 49.3065 7.28051 49.0986 7.33102 48.9471C7.38153 48.7956 7.46506 48.6771 7.58356 48.5974C7.70011 48.5139 7.85941 48.4479 8.05367 48.3954C8.25182 48.3449 8.49271 48.2905 8.7841 48.2322C9.07355 48.1739 9.41351 48.0924 9.80981 47.9894C10.2178 47.8806 10.5733 47.7679 10.8744 47.6553C11.1774 47.5426 11.4319 47.4124 11.6398 47.2648C11.8496 47.1152 12.0147 46.9345 12.139 46.7209C12.2653 46.5072 12.3566 46.2469 12.4129 45.938C12.4693 45.6291 12.4964 45.2561 12.4945 44.821C12.4945 44.2732 12.4343 43.8147 12.3138 43.4417C12.1973 43.0707 12.0244 42.7696 11.801 42.5423C11.5776 42.315 11.3076 42.1421 10.9929 42.0255C10.6782 41.909 10.3227 41.8274 9.93025 41.7866C9.53395 41.7458 9.10852 41.7283 8.64812 41.7303C8.1508 41.7283 7.69623 41.7516 7.29022 41.8041C6.88421 41.8565 6.52483 41.9478 6.21401 42.0799C5.90319 42.2101 5.63899 42.3966 5.42919 42.6336C5.21744 42.8706 5.05815 43.1775 4.9513 43.5466C4.84252 43.9177 4.78812 44.3683 4.78812 44.8987V45.3824H7.25137V44.9123C7.24943 44.6539 7.26691 44.448 7.30382 44.2945C7.33879 44.1391 7.40484 44.0245 7.50391 43.9487C7.60104 43.873 7.74285 43.8225 7.9274 43.7992C8.11195 43.7758 8.35284 43.7642 8.64812 43.7661C8.90843 43.7642 9.126 43.7739 9.30472 43.8011C9.48344 43.8264 9.62331 43.8769 9.73016 43.9526C9.837 44.0284 9.91471 44.1391 9.95939 44.2887C10.008 44.4363 10.0313 44.6306 10.0293 44.8754C10.0313 45.056 10.0254 45.2076 10.0099 45.3319C9.99241 45.4562 9.9555 45.5592 9.89722 45.6427C9.837 45.7243 9.74375 45.7962 9.6136 45.8603C9.48539 45.9224 9.31055 45.9807 9.08521 46.039C8.8618 46.0953 8.57624 46.1614 8.2324 46.2313C7.6399 46.3556 7.14258 46.4819 6.73269 46.614C6.32474 46.7461 5.99255 46.8957 5.73806 47.0628C5.48164 47.2298 5.28349 47.428 5.14751 47.6572C5.00764 47.8825 4.91439 48.1545 4.86388 48.4653C4.81337 48.7781 4.79006 49.1453 4.79201 49.5687V51.6027H12.4965V49.5687V49.5668ZM22.9264 44.8482C22.9245 44.3178 22.8565 43.8691 22.7205 43.5039C22.5845 43.1367 22.3883 42.8376 22.1319 42.6025C21.8774 42.3694 21.5724 42.1907 21.2149 42.0644C20.8594 41.9381 20.4612 41.8507 20.0202 41.8041C19.5812 41.7536 19.1091 41.7322 18.6002 41.7341C18.0271 41.7322 17.4987 41.7555 17.015 41.8119C16.5332 41.8662 16.1039 41.9653 15.727 42.113C15.3482 42.2645 15.0296 42.4743 14.7654 42.7521C14.5032 43.0299 14.3031 43.3893 14.1632 43.8322C14.0272 44.2751 13.9554 44.819 13.9554 45.462V47.9913C13.9554 48.6227 14.0195 49.1589 14.1438 49.5979C14.2701 50.0369 14.4566 50.3982 14.7033 50.678C14.9539 50.9577 15.2608 51.1753 15.6338 51.3307C16.0087 51.4822 16.44 51.591 16.9334 51.6493C17.4288 51.7095 17.9824 51.7367 18.5982 51.7348C19.2956 51.7367 19.892 51.7095 20.3913 51.6454C20.8886 51.5852 21.3024 51.4725 21.6326 51.3132C21.9609 51.152 22.2212 50.9266 22.4116 50.6333C22.602 50.3419 22.736 49.967 22.8137 49.5066C22.8953 49.0501 22.9303 48.4925 22.9283 47.8359V46.1284H18.4836V47.9408H20.2825C20.2844 48.2769 20.2592 48.5527 20.2067 48.7703C20.1543 48.9879 20.0649 49.1569 19.9425 49.2774C19.8163 49.3978 19.6453 49.4813 19.4258 49.5299C19.2082 49.5765 18.9324 49.5998 18.6021 49.5959C18.2622 49.5998 17.9708 49.5785 17.7241 49.5338C17.4793 49.4872 17.2753 49.3978 17.116 49.2618C16.9567 49.1278 16.8382 48.9296 16.7605 48.6654C16.6828 48.4032 16.6459 48.0574 16.6459 47.6261V46.0371C16.644 45.7204 16.6498 45.4446 16.6711 45.2056C16.6886 44.9667 16.7294 44.7627 16.7935 44.5937C16.8596 44.4247 16.9625 44.2848 17.1024 44.178C17.2442 44.0711 17.4346 43.9954 17.6774 43.9449C17.9203 43.8943 18.2272 43.871 18.6002 43.871C18.7983 43.8691 18.9965 43.8827 19.1927 43.9079C19.3908 43.9332 19.5715 43.9818 19.7327 44.0517C19.8978 44.1216 20.0299 44.2207 20.129 44.3489C20.23 44.4771 20.2786 44.6442 20.2805 44.8482H22.9264ZM33.3427 41.8235H30.3453L28.5717 45.4096L26.8116 41.8235H23.7598L26.5105 46.5693L23.5772 51.6007H26.6407L28.5717 47.834L30.5143 51.6007H33.5525L30.6444 46.5693L33.3427 41.8235ZM40.8918 41.8235H37.8399L34.281 44.7705L35.7535 46.4392L38.2828 44.1313V51.6027H40.8898V41.8254L40.8918 41.8235ZM46.2884 45.0968V44.9006C46.2884 44.5995 46.3389 44.3664 46.4399 44.2013C46.5409 44.0362 46.6924 43.9215 46.9003 43.8574C47.1082 43.7933 47.3665 43.7622 47.6851 43.7661C48.0154 43.7661 48.2737 43.7836 48.4602 43.8225C48.6467 43.8613 48.7827 43.9254 48.8682 44.0109C48.9517 44.0964 49.0042 44.211 49.0275 44.3489C49.0488 44.4907 49.0586 44.6597 49.0527 44.8618C49.0547 45.0269 49.045 45.1609 49.0178 45.2658C48.9906 45.3707 48.9323 45.4523 48.841 45.5087C48.7536 45.565 48.6156 45.6039 48.4311 45.6252C48.2465 45.6466 47.996 45.6563 47.6851 45.6563H47.0596V47.5465H47.6851C48.0231 47.5465 48.2951 47.562 48.4952 47.5931C48.6953 47.6281 48.8449 47.6805 48.9401 47.7524C49.0372 47.8243 49.1013 47.9214 49.1324 48.0341C49.1596 48.1506 49.1751 48.2924 49.1712 48.4595C49.1712 48.7392 49.146 48.9626 49.0877 49.1317C49.0333 49.2987 48.9459 49.423 48.8293 49.5046C48.7089 49.5862 48.5554 49.6387 48.3689 49.6639C48.1805 49.6892 47.9513 49.7008 47.6851 49.6989C47.4559 49.7008 47.25 49.6931 47.0654 49.6736C46.8809 49.6523 46.7255 49.6076 46.5953 49.5377C46.4632 49.4658 46.3622 49.3492 46.2923 49.1938C46.2223 49.0384 46.1874 48.8247 46.1874 48.5528V48.2264H43.7222V48.749C43.7241 49.3026 43.7941 49.763 43.93 50.1302C44.066 50.4973 44.2583 50.7887 44.507 51.0043C44.7557 51.2219 45.047 51.3812 45.387 51.4861C45.725 51.591 46.1 51.659 46.5079 51.6901C46.9159 51.7231 47.3491 51.7348 47.8036 51.7328C48.2465 51.7348 48.6623 51.7134 49.0489 51.6668C49.4354 51.6221 49.787 51.5405 50.1056 51.4201C50.4223 51.2996 50.6943 51.1287 50.9235 50.9072C51.1527 50.6858 51.3276 50.4002 51.4519 50.0525C51.5762 49.7028 51.6364 49.2774 51.6384 48.7723C51.6403 48.4886 51.6151 48.2206 51.5645 47.9739C51.5121 47.7291 51.4286 47.5115 51.3062 47.3211C51.1838 47.1346 51.0226 46.9851 50.8128 46.8743C50.6068 46.7636 50.3465 46.7014 50.0338 46.6839V46.581C50.331 46.5383 50.5796 46.4547 50.7739 46.3246C50.9662 46.1944 51.1197 46.0293 51.2285 45.8311C51.3373 45.6311 51.4169 45.4096 51.4596 45.1609C51.5024 44.9123 51.5238 44.652 51.5218 44.3761C51.5179 43.8788 51.4402 43.465 51.2887 43.1406C51.1333 42.8142 50.9293 42.5539 50.669 42.3655C50.4106 42.1751 50.1192 42.0333 49.7987 41.942C49.4743 41.8507 49.1421 41.7924 48.8002 41.7672C48.4583 41.7419 48.1261 41.7303 47.8075 41.7322C47.3044 41.7283 46.8498 41.7458 46.4321 41.7769C46.0164 41.8118 45.6512 41.8837 45.3268 41.9925C45.0063 42.0994 44.7343 42.2664 44.5128 42.4859C44.2894 42.7074 44.1224 43.0007 44.0058 43.3698C43.8912 43.7389 43.8329 44.2013 43.8329 44.7549V45.0949H46.2962L46.2884 45.0968ZM24.6029 0.993454H31.1029V4.87676H24.6029V0.993454ZM31.6002 3.78889C34.7375 4.5096 37.5408 6.10644 39.7456 8.30743L39.7476 8.30549C42.8014 11.3612 44.6915 15.5826 44.6915 20.2429C44.6915 24.9013 42.8014 29.1226 39.7476 32.1764L39.7456 32.1803C36.6899 35.2322 32.4666 37.1243 27.8102 37.1243C23.1498 37.1243 18.9285 35.2322 15.8727 32.1803L15.8747 32.1764C12.8189 29.1207 10.9268 24.9013 10.9268 20.2429C10.9268 15.5826 12.8189 11.3612 15.8727 8.30549C18.0737 6.1045 20.8789 4.5096 24.0201 3.78889V3.09926C20.6924 3.83163 17.7182 5.50811 15.3968 7.82954C12.2225 11.0057 10.2566 15.398 10.2566 20.2429C10.2566 25.0917 12.2225 29.4801 15.3968 32.6563L15.3987 32.6524C18.573 35.8286 22.9633 37.7945 27.8102 37.7945C32.657 37.7945 37.0454 35.8286 40.2216 32.6524C43.3958 29.4762 45.3618 25.0859 45.3618 20.241C45.3618 15.3941 43.3978 11.0057 40.2216 7.82954V7.82566C37.8982 5.50422 34.926 3.82774 31.6002 3.09537V3.785V3.78889ZM24.3775 0.676806H31.2428H31.6002V1.03619V1.17606C35.4447 1.93563 38.8831 3.83163 41.5503 6.49691H41.5523C45.0704 10.015 47.248 14.8774 47.248 20.2429C47.248 25.6104 45.0704 30.4708 41.5523 33.987C38.0361 37.5031 33.1757 39.6808 27.8102 39.6808C22.4427 39.6808 17.5822 37.5031 14.0641 33.987V33.9831C10.548 30.4669 8.37032 25.6065 8.37032 20.2429C8.37032 14.8774 10.548 10.0189 14.0641 6.50273L14.068 6.49691C16.7353 3.83163 20.1737 1.93757 24.0201 1.17606V1.03619V0.676806H24.3775ZM29.5391 5.34687H26.0812C22.6311 5.73928 19.5346 7.30892 17.2073 9.64007C14.4935 12.3539 12.8131 16.1032 12.8131 20.2429C12.8131 24.3846 14.4896 28.1358 17.2015 30.8457H17.2073C19.9173 33.5596 23.6685 35.238 27.8102 35.238C31.9518 35.238 35.703 33.5596 38.4149 30.8477C41.1249 28.1338 42.8053 24.3826 42.8053 20.241C42.8053 16.1012 41.1249 12.352 38.411 9.63813V9.63424C36.0818 7.30504 32.9892 5.73928 29.5391 5.34493V5.34687Z" fill="#727272"/>
</svg>
