<svg width="54" height="55" viewBox="0 0 54 55" fill="none" xmlns="http://www.w3.org/2000/svg">
<path fill-rule="evenodd" clip-rule="evenodd" d="M0 0.507874H53.8845V54.3924H0V0.507874ZM25.5222 7.97337L26.4469 8.89806L27.8086 7.53628L26.8859 6.6252L25.5222 7.97143V7.97337ZM29.3433 9.04959L27.9718 10.4211L32.166 14.6152L33.5666 13.2146L29.3433 9.04959ZM35.1013 14.7259L33.689 16.1382L37.8209 20.2702L39.2604 18.8307L35.1013 14.7259ZM40.7951 20.3421L39.3439 21.7932L43.1981 25.6474L44.6745 24.171L40.7931 20.3421H40.7951ZM46.2092 25.6843L44.7231 27.1704L46.1412 28.5905L47.6506 27.1063L46.2092 25.6862V25.6843ZM47.3767 30.3894L46.1334 31.6326L46.1237 31.6229L30.8022 46.6957L30.8683 46.7618L29.3453 48.2848L29.2676 48.2071L27.8592 49.5922L27.1035 50.3362L26.3517 49.5922L4.12225 27.625L3.34714 26.8596L4.12225 26.0942L26.1283 4.35039L26.8801 3.60635L27.6338 4.35039L49.9293 26.3428L50.7063 27.1102L49.9293 27.8756L47.3728 30.3913L47.3767 30.3894ZM44.6046 30.1018L43.1981 28.6954L39.5266 32.3669L40.9039 33.7443L44.6046 30.1018ZM39.3673 35.2556L38.0035 33.8919L33.687 38.2084L35.0177 39.5391L39.3692 35.2575L39.3673 35.2556ZM33.4811 41.0485L32.164 39.7314L28.0029 43.8925L29.287 45.1766L33.4831 41.0466L33.4811 41.0485ZM27.7484 46.6899L26.476 45.4175L25.8349 46.0586L27.1093 47.3193L27.7484 46.6899ZM24.3022 44.5452L24.953 43.8945L21.0988 40.0403L20.4247 40.7144L24.3022 44.5472V44.5452ZM18.892 39.1972L19.5739 38.5153L15.4419 34.3834L14.7348 35.0905L18.892 39.1972ZM13.2021 33.5752L13.917 32.8604L9.72283 28.6662L8.98269 29.4064L13.2001 33.5752H13.2021ZM7.4519 27.8931L8.20175 27.1432L7.16828 26.1097L6.40871 26.8615L7.45384 27.8931H7.4519ZM8.70101 24.5945L9.72477 25.6183L13.8878 21.4572L12.8874 20.4567L8.70101 24.5945ZM14.422 18.9414L15.4128 19.9322L19.7293 15.6176L18.7638 14.6521L14.422 18.9434V18.9414ZM20.2965 13.1369L21.2523 14.0926L24.9239 10.4211L23.9914 9.48863L20.2985 13.1369H20.2965ZM41.6751 27.1724L37.8209 23.3182L34.1494 26.9898L38.0035 30.8439L41.6751 27.1724ZM36.296 21.7952L32.164 17.6632L28.4925 21.3348L32.6244 25.4667L36.296 21.7952ZM30.641 16.1402L26.4469 11.946L22.7753 15.6176L26.9675 19.8098L30.6391 16.1382L30.641 16.1402ZM36.4805 32.3689L32.6264 28.5147L28.3118 32.8312L32.166 36.6854L36.4825 32.3689H36.4805ZM31.1014 26.9898L26.9694 22.8578L22.6549 27.1743L26.7868 31.3063L31.1014 26.9898ZM25.4464 21.3348L21.2542 17.1426L16.9377 21.4572L21.1319 25.6513L25.4464 21.3348ZM30.641 38.2084L26.7868 34.3542L22.6238 38.5153L26.478 42.3695L30.6391 38.2084H30.641ZM25.2638 32.8293L21.1319 28.6973L16.9688 32.8584L21.1008 36.9904L25.2638 32.8293ZM19.6088 27.1743L15.4147 22.9802L11.2517 27.1413L15.4458 31.3354L19.6088 27.1743Z" fill="black"/>
</svg>
