<svg width="54" height="55" viewBox="0 0 54 55" fill="none" xmlns="http://www.w3.org/2000/svg">
<path fill-rule="evenodd" clip-rule="evenodd" d="M0 0.217651H53.8845V54.1022H0V0.217651ZM5.31502 48.962C5.31502 34.4273 5.31502 19.8925 5.31502 5.35973H14.8455V10.1775H10.1308V24.753H14.8455V29.5706H10.1308V44.1462H14.8455V48.9639H5.31502V48.962ZM39.039 5.35973H48.5695V10.1775H43.8547V44.1462H48.5695V48.9639H39.039V5.36172V5.35973ZM19.7681 5.35973C24.5489 5.35973 29.3356 5.35973 34.1163 5.35973V48.962H29.2986V29.5688H24.5839V48.962H19.7662V5.35973H19.7681ZM29.2986 24.751V10.1755H24.5839V24.751H29.2986Z" fill="black"/>
</svg>
