<svg width="54" height="55" viewBox="0 0 54 55" fill="none" xmlns="http://www.w3.org/2000/svg">
<path fill-rule="evenodd" clip-rule="evenodd" d="M0 0.430603H53.8845V54.3151H0V0.430603ZM26.9422 5.72814C32.9177 5.72814 38.3299 8.15256 42.2462 12.0689V12.0728C46.1606 15.9891 48.5869 21.3993 48.5869 27.3728C48.5869 33.3445 46.1626 38.7567 42.2462 42.673V42.6769C38.3299 46.5932 32.9158 49.0175 26.9422 49.0175C20.9667 49.0175 15.5546 46.5932 11.6383 42.6769V42.673C7.72387 38.7567 5.29753 33.3464 5.29753 27.3728C5.29753 21.4012 7.72193 15.9891 11.6383 12.0728V12.0689C15.5546 8.15256 20.9687 5.72814 26.9422 5.72814ZM40.7252 13.59L40.7232 13.5919C37.1973 10.066 32.3233 7.88248 26.9422 7.88248C21.5612 7.88248 16.6871 10.0641 13.1613 13.5919L13.1593 13.59C9.63347 17.1158 7.45384 21.9898 7.45384 27.3728C7.45384 32.7539 9.63541 37.6299 13.1593 41.1558L13.1613 41.1538C16.6871 44.6797 21.5612 46.8632 26.9422 46.8632C32.3233 46.8632 37.1973 44.6816 40.7232 41.1538L40.7252 41.1558C44.251 37.6299 46.4306 32.7558 46.4306 27.3728C46.4306 21.9918 44.2491 17.1158 40.7252 13.59ZM28.0204 14.2757V29.0513H43.1729V31.2076H10.7136V29.0513H25.866V14.2757H28.0223H28.0204ZM20.5879 39.3919H33.2985V41.5482H20.5879V39.3919ZM15.3467 34.0497H38.5397V36.206H15.3467V34.0497Z" fill="black"/>
</svg>
