<svg width="55" height="55" viewBox="0 0 55 55" fill="none" xmlns="http://www.w3.org/2000/svg">
<path fill-rule="evenodd" clip-rule="evenodd" d="M0.867935 0.827637H54.7524V54.7122H0.867935V0.827637ZM8.36452 26.3887H6.10913V24.7005H4.16262V26.3887H3.43802V28.3042H4.16262V32.2419C4.16456 32.7392 4.22478 33.1393 4.34328 33.4404C4.45984 33.7416 4.62496 33.9669 4.83477 34.1204C5.04263 34.2719 5.28351 34.3729 5.55742 34.4234C5.83133 34.472 6.12661 34.4972 6.43938 34.4933C6.83567 34.4953 7.17175 34.4603 7.44954 34.3845C7.72928 34.3068 7.95268 34.1709 8.12752 33.9786C8.30041 33.7843 8.42668 33.5123 8.50632 33.1665C8.58791 32.8188 8.62677 32.372 8.62483 31.8319V31.1171H7.06296V31.5425C7.0649 31.7076 7.0513 31.8708 7.02216 32.0282C6.99691 32.1836 6.94446 32.3137 6.87064 32.4186C6.79682 32.5215 6.68997 32.576 6.55205 32.5779C6.43355 32.5779 6.3403 32.5527 6.27814 32.5021C6.21403 32.4516 6.17129 32.372 6.14604 32.269C6.12078 32.166 6.10913 32.0359 6.11107 31.8786V28.3042H8.36646V26.3887H8.36452ZM13.2463 33.186L13.1783 34.3729H15.1248V29.3862C15.1248 28.8384 15.0918 28.378 15.0219 28.0011C14.9539 27.6262 14.8471 27.3212 14.7033 27.09C14.5595 26.855 14.3769 26.6762 14.1535 26.5519C13.9301 26.4295 13.664 26.3479 13.3551 26.3013C13.0462 26.2566 12.6927 26.2352 12.2944 26.2391C12.0011 26.2352 11.7194 26.243 11.4494 26.2644C11.1794 26.2877 10.9288 26.3362 10.6995 26.4159C10.4703 26.4936 10.2702 26.6219 10.0973 26.7947C9.92832 26.9676 9.79429 27.2046 9.6991 27.5077C9.60391 27.8088 9.55534 28.1915 9.5534 28.6577H11.5019C11.5019 28.4226 11.5349 28.2459 11.6029 28.1235C11.6689 28.0011 11.7602 27.9214 11.8826 27.8806C12.003 27.8379 12.1449 27.8205 12.308 27.8224C12.5178 27.8224 12.683 27.8554 12.8034 27.9195C12.9219 27.9817 13.0074 28.0729 13.0637 28.1895C13.1162 28.3041 13.1492 28.4401 13.1628 28.5975C13.1764 28.7548 13.1822 28.9277 13.1803 29.1142V30.3769H13.089C13.0365 30.1613 12.9549 29.9942 12.8442 29.8698C12.7335 29.7494 12.6053 29.6601 12.4537 29.6038C12.3042 29.5494 12.1449 29.5125 11.9759 29.4989C11.8068 29.4853 11.6378 29.4774 11.4688 29.4813C11.1172 29.4794 10.8083 29.5202 10.5403 29.6038C10.2722 29.6873 10.0468 29.8271 9.86616 30.0155C9.6855 30.2079 9.54757 30.4663 9.45627 30.7888C9.36302 31.1132 9.3164 31.5134 9.3164 31.9913C9.3164 32.4983 9.36497 32.914 9.4621 33.2423C9.55729 33.5706 9.69715 33.8251 9.8817 34.0077C10.0663 34.1922 10.2916 34.3185 10.5577 34.3923C10.8239 34.4661 11.1269 34.5011 11.4669 34.4991C11.6398 34.5011 11.8166 34.4836 12.0011 34.4487C12.1837 34.4137 12.3585 34.3495 12.5217 34.2563C12.6869 34.163 12.8248 34.031 12.9433 33.8581C13.0598 33.6852 13.1375 33.4618 13.1764 33.1917H13.2444L13.2463 33.186ZM13.1783 31.8028C13.1803 32.0806 13.1473 32.2904 13.0831 32.4341C13.0171 32.5798 12.9083 32.6789 12.751 32.7333C12.5955 32.7838 12.3819 32.809 12.1138 32.8071C12.0186 32.809 11.9215 32.7994 11.8243 32.7819C11.7253 32.7644 11.632 32.7256 11.5504 32.6673C11.4649 32.6071 11.3969 32.5177 11.3426 32.3972C11.292 32.2749 11.2668 32.1136 11.2649 31.9096C11.2668 31.6687 11.3056 31.4919 11.3795 31.3754C11.4533 31.2608 11.5543 31.185 11.6806 31.1481C11.8088 31.1151 11.9525 31.0976 12.1118 31.1034C12.3255 31.0976 12.5101 31.1112 12.6694 31.1364C12.8287 31.1617 12.953 31.2239 13.0404 31.3249C13.1298 31.422 13.1725 31.5833 13.1744 31.8028H13.1783ZM26.8253 22.9677H23.4839L20.2339 28.8675V32.1214H24.6748V34.371H26.8253V32.1214H27.5499V29.9146H26.8253V22.9658V22.9677ZM24.6748 29.9165H22.0134L24.5951 25.3086H24.6748V29.9165ZM32.0801 22.8609C31.7809 22.859 31.4856 22.8686 31.1981 22.892C30.9087 22.9153 30.6328 22.9658 30.3686 23.0474C30.1063 23.129 29.8635 23.2552 29.644 23.4262C29.4206 23.5971 29.2283 23.8284 29.0671 24.1275C28.9039 24.4209 28.7757 24.7938 28.6863 25.2425C28.595 25.6932 28.5503 26.2391 28.5503 26.8782V30.4663C28.5523 31.1054 28.5969 31.6512 28.6863 32.1039C28.7776 32.5545 28.9039 32.9295 29.0671 33.2286C29.2302 33.5278 29.4226 33.7629 29.644 33.9378C29.8655 34.1126 30.1063 34.2447 30.3686 34.3282C30.6328 34.4117 30.9087 34.4681 31.1981 34.4933C31.4856 34.5186 31.7809 34.5283 32.0801 34.5263C32.3812 34.5283 32.6745 34.5186 32.9639 34.4933C33.2534 34.4681 33.5293 34.4117 33.7934 34.3282C34.0557 34.2447 34.2966 34.1126 34.52 33.9378C34.7414 33.7629 34.9338 33.5278 35.095 33.2286C35.2601 32.9295 35.3864 32.5545 35.4758 32.1039C35.5671 31.6493 35.6117 31.1054 35.6137 30.4663V26.8782C35.6117 26.241 35.5671 25.6952 35.4758 25.2425C35.3845 24.7938 35.2582 24.4209 35.095 24.1275C34.9338 23.8303 34.7395 23.5971 34.52 23.4262C34.2966 23.2552 34.0557 23.1271 33.7934 23.0474C33.5293 22.9658 33.2534 22.9153 32.9639 22.892C32.6745 22.8686 32.3812 22.859 32.0801 22.8609ZM32.0801 25.2329C32.3598 25.229 32.589 25.2484 32.7716 25.2892C32.9542 25.332 33.0961 25.4213 33.199 25.5573C33.3 25.6933 33.3719 25.905 33.4146 26.1886C33.4554 26.4722 33.4768 26.853 33.4749 27.3329V29.9942C33.4768 30.476 33.4554 30.8645 33.4146 31.152C33.3719 31.4414 33.3 31.659 33.199 31.8028C33.0961 31.9465 32.9542 32.0437 32.7716 32.0903C32.591 32.135 32.3598 32.1583 32.0801 32.1544C31.8003 32.1583 31.5711 32.137 31.3885 32.0884C31.2078 32.0398 31.066 31.9446 30.963 31.797C30.8601 31.6513 30.7902 31.4317 30.7474 31.1403C30.7047 30.8489 30.6853 30.4605 30.6872 29.9806V27.3659C30.6853 26.8841 30.7047 26.4995 30.7474 26.212C30.7902 25.9225 30.8601 25.7088 30.963 25.5708C31.066 25.429 31.2078 25.3378 31.3885 25.2931C31.5691 25.2504 31.8003 25.2309 32.0801 25.2348V25.2329ZM42.306 21.0154C42.1273 21.0116 41.9505 21.0212 41.7796 21.0407C41.6067 21.0582 41.4474 21.1028 41.2978 21.1669C41.1482 21.2349 41.0161 21.3417 40.9034 21.4836C40.7908 21.6273 40.7014 21.8255 40.6373 22.0741C40.5732 22.3247 40.5421 22.6394 40.5402 23.0221V24.8171C40.5421 25.1998 40.5732 25.5165 40.6373 25.7671C40.7014 26.0177 40.7908 26.2158 40.9034 26.3615C41.0161 26.5092 41.1482 26.6141 41.2978 26.6859C41.4474 26.7559 41.6067 26.8005 41.7796 26.818C41.9505 26.8374 42.1273 26.8491 42.306 26.8452C42.4867 26.8491 42.6635 26.8374 42.8325 26.818C43.0034 26.8005 43.1647 26.7539 43.3142 26.6859C43.4638 26.6141 43.594 26.5092 43.7086 26.3615C43.8213 26.2158 43.9106 26.0157 43.9747 25.7671C44.0388 25.5165 44.0699 25.1998 44.0719 24.8171V23.0221C44.0699 22.6394 44.0388 22.3267 43.9747 22.0741C43.9106 21.8255 43.8213 21.6273 43.7086 21.4836C43.594 21.3417 43.4638 21.2349 43.3142 21.1669C43.1647 21.1009 43.0034 21.0582 42.8325 21.0407C42.6635 21.0212 42.4847 21.0135 42.306 21.0154ZM42.306 22.2004C42.4459 22.1984 42.5605 22.2082 42.6518 22.2276C42.7431 22.249 42.815 22.2936 42.8655 22.3616C42.916 22.4316 42.951 22.5365 42.9723 22.6783C42.9937 22.8182 43.0034 23.0105 43.0034 23.2475V24.5782C43.0034 24.8191 42.9937 25.0114 42.9723 25.1571C42.951 25.3008 42.916 25.4115 42.8655 25.4815C42.815 25.5553 42.7431 25.6019 42.6518 25.6272C42.5605 25.6505 42.4459 25.6602 42.306 25.6583C42.1662 25.6602 42.0515 25.6467 41.9602 25.6253C41.8689 25.602 41.7971 25.5514 41.7465 25.4815C41.6941 25.4077 41.6611 25.2989 41.6397 25.1513C41.6183 25.0075 41.6086 24.8113 41.6086 24.5724V23.2649C41.6086 23.024 41.6183 22.8318 41.6397 22.688C41.6611 22.5462 41.696 22.4393 41.7465 22.3694C41.7971 22.2975 41.8689 22.2529 41.9602 22.2335C42.0515 22.2102 42.1662 22.2004 42.306 22.2024V22.2004ZM52.3397 27.0569V26.6159C52.3397 25.8894 52.2639 25.2833 52.1124 24.7977C51.9609 24.314 51.7413 23.9274 51.4461 23.6438C51.1508 23.3601 50.7895 23.1562 50.3563 23.0358C49.925 22.9173 49.4257 22.859 48.8624 22.8609C48.3631 22.859 47.9047 22.8861 47.4889 22.9483C47.0732 23.0124 46.7022 23.129 46.3778 23.298C46.0533 23.4709 45.7794 23.7157 45.5522 24.0382C45.3288 24.3587 45.1597 24.7783 45.0412 25.295C44.9247 25.8098 44.8625 26.4431 44.8625 27.1929V30.1419C44.8645 30.8335 44.9072 31.4239 44.9985 31.9135C45.0879 32.403 45.218 32.8071 45.3851 33.1296C45.5541 33.4482 45.7581 33.7047 45.9951 33.8931C46.2321 34.0835 46.5001 34.2233 46.7974 34.3107C47.0946 34.402 47.4151 34.4603 47.7609 34.4856C48.1086 34.5108 48.4739 34.5225 48.8604 34.5206C49.5209 34.5225 50.0746 34.4622 50.5214 34.336C50.9682 34.2058 51.3256 33.9922 51.5937 33.6872C51.8598 33.3802 52.0502 32.9645 52.1687 32.4361C52.2833 31.9077 52.3397 31.2434 52.3377 30.4449V30.1108H50.0046V30.4449C50.0046 30.7771 49.9774 31.0393 49.9211 31.2336C49.8648 31.4259 49.7774 31.5716 49.6608 31.661C49.5462 31.7523 49.4005 31.8125 49.2256 31.8397C49.0508 31.8669 48.8468 31.8766 48.6118 31.8747C48.3418 31.8747 48.1184 31.8475 47.9416 31.7853C47.7648 31.7271 47.6269 31.6357 47.5239 31.5153C47.4229 31.391 47.3491 31.2336 47.3024 31.0432C47.2558 30.8528 47.2247 30.6256 47.2111 30.3614C47.1975 30.0972 47.1937 29.796 47.1937 29.4561V27.6767C47.1917 27.2707 47.2053 26.9287 47.2345 26.6509C47.2617 26.3712 47.3258 26.1478 47.4171 25.9788C47.5123 25.8117 47.6521 25.6874 47.8444 25.6136C48.0348 25.5379 48.2893 25.499 48.6098 25.5009C48.8702 25.499 49.1052 25.5262 49.3131 25.5845C49.5229 25.6447 49.688 25.7574 49.8104 25.9167C49.9347 26.0799 49.9988 26.3091 50.0008 26.6102V27.0511H52.3338L52.3397 27.0569Z" fill="#F07F1B"/>
</svg>
