<svg width="54" height="55" viewBox="0 0 54 55" fill="none" xmlns="http://www.w3.org/2000/svg">
<path fill-rule="evenodd" clip-rule="evenodd" d="M0 0.74472H53.8845V54.6292H0V0.74472ZM21.0949 46.577H15.3351C15.3331 46.2468 15.3603 45.9826 15.4186 45.7903C15.473 45.596 15.5662 45.4484 15.6964 45.3454C15.8246 45.2405 15.9994 45.155 16.2131 45.089C16.4326 45.0249 16.6968 44.9569 17.0154 44.8811C17.334 44.8073 17.709 44.7043 18.1422 44.5722C18.5909 44.4343 18.9814 44.2906 19.3116 44.1468C19.6419 44.003 19.9255 43.8379 20.1508 43.6495C20.3801 43.4591 20.5627 43.2299 20.7006 42.9579C20.8405 42.6879 20.9395 42.3557 21.0017 41.9633C21.0639 41.5709 21.0949 41.0949 21.0911 40.5432C21.0911 39.8478 21.025 39.263 20.8929 38.7929C20.7628 38.3209 20.5743 37.9401 20.3296 37.6487C20.0848 37.3612 19.7876 37.1398 19.4418 36.9902C19.094 36.8406 18.7055 36.7396 18.2743 36.6871C17.8391 36.6347 17.3709 36.6133 16.8659 36.6153C16.32 36.6114 15.8188 36.6425 15.372 36.7085C14.9252 36.7745 14.5328 36.8911 14.1909 37.0601C13.849 37.2252 13.5595 37.4603 13.3283 37.7633C13.0972 38.0644 12.9204 38.4549 12.8038 38.9231C12.6834 39.3952 12.6251 39.9682 12.6251 40.6423V41.2562H15.3331V40.6598C15.3312 40.3315 15.3506 40.0673 15.3895 39.8711C15.4264 39.6749 15.5021 39.5292 15.609 39.4321C15.7158 39.3349 15.8712 39.2708 16.0752 39.2417C16.2772 39.2106 16.5414 39.197 16.8659 39.1989C17.1514 39.197 17.3904 39.2106 17.5866 39.2436C17.7808 39.2766 17.9382 39.3408 18.0547 39.4379C18.1713 39.535 18.2568 39.6749 18.3073 39.8633C18.3597 40.0518 18.385 40.3004 18.383 40.6093C18.385 40.8385 18.3772 41.0308 18.3617 41.1882C18.3442 41.3455 18.3015 41.4757 18.2373 41.5845C18.1713 41.6894 18.0683 41.7807 17.9246 41.8603C17.7828 41.938 17.5885 42.0119 17.3437 42.0876C17.099 42.1595 16.7843 42.243 16.4055 42.3343C15.7547 42.4917 15.2069 42.651 14.7581 42.82C14.3094 42.989 13.9422 43.1794 13.6625 43.3931C13.3808 43.6048 13.1652 43.8573 13.0136 44.1468C12.8602 44.4343 12.7591 44.7801 12.7009 45.1745C12.6465 45.5727 12.6193 46.0389 12.6232 46.577V49.1627H21.0891V46.577H21.0949ZM32.5584 40.5763C32.5545 39.9022 32.4826 39.333 32.3311 38.8668C32.1815 38.4005 31.9659 38.0178 31.6842 37.7206C31.4044 37.4253 31.0684 37.1961 30.676 37.0368C30.2836 36.8756 29.8465 36.7648 29.3627 36.7046C28.879 36.6405 28.3604 36.6133 27.8009 36.6172C27.1695 36.6133 26.5887 36.6444 26.0603 36.7163C25.53 36.7862 25.0598 36.9125 24.6441 37.099C24.2284 37.2893 23.8787 37.5574 23.5893 37.911C23.2998 38.2645 23.0803 38.7211 22.9288 39.2844C22.7773 39.8478 22.7015 40.5394 22.7015 41.3572V44.5722C22.7015 45.3745 22.7714 46.0564 22.9074 46.6139C23.0453 47.1715 23.2513 47.6299 23.5232 47.9874C23.7971 48.3448 24.1371 48.6207 24.545 48.8169C24.9549 49.0092 25.4309 49.1491 25.9729 49.2229C26.5187 49.2967 27.1268 49.3336 27.8028 49.3297C28.5682 49.3317 29.2248 49.2967 29.7726 49.2171C30.3185 49.1393 30.7731 48.9956 31.1364 48.7936C31.4977 48.5896 31.7833 48.3021 31.9911 47.9291C32.199 47.56 32.3466 47.0802 32.4321 46.4974C32.5195 45.9185 32.5622 45.2075 32.5584 44.3741V42.2022H27.6727V44.5062H29.6503C29.6522 44.9336 29.6231 45.2852 29.5667 45.561C29.5084 45.8369 29.4113 46.0525 29.2753 46.204C29.1355 46.3556 28.949 46.4644 28.7081 46.5246C28.4691 46.5848 28.1661 46.612 27.8028 46.61C27.4298 46.6159 27.1112 46.5887 26.8373 46.5304C26.5673 46.4721 26.3439 46.3556 26.171 46.1846C25.9962 46.0137 25.8641 45.7631 25.7806 45.4289C25.6951 45.0948 25.6543 44.6558 25.6543 44.108V42.0857C25.6504 41.6855 25.6582 41.3339 25.6795 41.0308C25.699 40.7278 25.7436 40.4675 25.8155 40.2518C25.8874 40.0362 26.0001 39.8594 26.1555 39.7235C26.3109 39.5875 26.5207 39.4923 26.7888 39.4282C27.0569 39.3641 27.3929 39.333 27.8048 39.333C28.0223 39.331 28.2399 39.3466 28.4575 39.3796C28.6751 39.4126 28.8732 39.4729 29.0519 39.5622C29.2345 39.6496 29.3783 39.7778 29.4871 39.941C29.5978 40.1042 29.6522 40.3179 29.6541 40.5763H32.5622H32.5584ZM42.1433 36.7318H34.0328V39.4495H39.1924L35.5675 49.1646H38.5747L42.1433 39.5175V36.7318ZM5.44323 23.6929H39.546V21.457H6.36792V18.8985H39.546V16.6626H5.44323C4.94592 16.6626 4.40975 17.0258 4.33788 17.7524L4.32428 22.572C4.32428 22.879 4.44861 23.1587 4.64675 23.3607L4.65258 23.3666C4.85462 23.5667 5.13435 23.689 5.44129 23.689L5.44323 23.6929ZM49.7758 13.1367H52.1147V16.0409H49.7758V16.9112H52.1147V19.8154H49.7758V20.6857H52.1147V23.59H49.7758V24.4603H52.1147V27.3664H49.7758V28.8914V30.1716H48.4976H40.8262H39.5479V28.8914V26.2514H5.44517C4.43501 26.2514 3.51809 25.8356 2.85177 25.1732L2.84594 25.1693C2.18351 24.503 1.76779 23.5841 1.76779 22.5759C1.76779 20.6974 1.76779 19.66 1.76779 17.7815C1.76779 16.7733 2.18351 15.8544 2.84594 15.1881L2.85177 15.1842C3.51615 14.5218 4.43501 14.1061 5.44517 14.1061H39.5479V11.6098V10.3296H40.8262H48.4976H49.7758V11.6098V13.1367ZM47.2193 12.89H42.1064V27.6151H47.2193V12.89Z" fill="#727272"/>
</svg>
