<svg width="54" height="55" viewBox="0 0 54 55" fill="none" xmlns="http://www.w3.org/2000/svg">
<path fill-rule="evenodd" clip-rule="evenodd" d="M0 0.597504H53.8845V54.482H0V0.597504ZM35.7015 16.4532V25.7254H36.8049V16.4532H35.7015ZM43.099 40.6H35.9715V42.9855H40.5037L37.3178 51.5078H39.9617L43.0971 43.0438V40.6H43.099ZM34.398 49.2369H29.3356C29.3336 48.9455 29.3589 48.7163 29.4094 48.5453C29.4579 48.3763 29.5395 48.2442 29.6522 48.1549C29.7668 48.0636 29.9203 47.9878 30.1068 47.9295C30.2991 47.8732 30.5322 47.813 30.8119 47.7469C31.0917 47.6828 31.42 47.5915 31.8027 47.4749C32.197 47.3545 32.5389 47.2282 32.8303 47.102C33.1217 46.9757 33.3704 46.83 33.5705 46.6649C33.7725 46.4978 33.9318 46.2977 34.0542 46.0588C34.1766 45.8218 34.264 45.5304 34.3184 45.1865C34.3728 44.8407 34.4 44.425 34.398 43.9413C34.398 43.3294 34.3397 42.8185 34.2232 42.4047C34.1105 41.989 33.9435 41.6549 33.7278 41.4023C33.5102 41.1498 33.2519 40.9555 32.9469 40.8254C32.6438 40.6933 32.3 40.6039 31.9212 40.5573C31.5404 40.5126 31.1286 40.4932 30.6837 40.4951C30.2039 40.4932 29.7649 40.5184 29.3725 40.5767C28.9801 40.635 28.6323 40.7379 28.3332 40.8856C28.034 41.0313 27.7795 41.2372 27.5755 41.5033C27.3735 41.7675 27.2162 42.1094 27.1151 42.5213C27.0102 42.935 26.9578 43.4382 26.9578 44.0287V44.5668H29.3375V44.0423C29.3356 43.7529 29.3511 43.5237 29.388 43.3508C29.421 43.1798 29.4851 43.0497 29.5803 42.9661C29.6755 42.8807 29.8115 42.8243 29.9902 42.7971C30.1689 42.7719 30.4001 42.7583 30.6837 42.7621C30.9363 42.7583 31.1441 42.7718 31.319 42.801C31.4899 42.8301 31.6259 42.8845 31.7289 42.97C31.8318 43.0555 31.9076 43.1798 31.9523 43.343C31.9969 43.5081 32.0222 43.7257 32.0183 43.9977C32.0203 44.1977 32.0144 44.3687 32.0008 44.5066C31.9833 44.6445 31.9464 44.7592 31.8901 44.8524C31.8318 44.9457 31.7405 45.0253 31.6162 45.0952C31.4919 45.1632 31.3229 45.2293 31.1072 45.2953C30.8897 45.3575 30.6157 45.4313 30.2836 45.511C29.7124 45.6489 29.2287 45.7887 28.8344 45.9383C28.4381 46.086 28.1195 46.253 27.8728 46.4395C27.6241 46.626 27.4337 46.8475 27.3016 47.102C27.1676 47.3545 27.0782 47.6576 27.0277 48.0033C26.9792 48.353 26.9558 48.7629 26.9578 49.235V51.5039H34.4V49.235L34.398 49.2369ZM16.4307 42.9836H20.7239V40.5981H13.9111V51.5039H20.8113V49.1184H16.4307V46.9951H20.4597V44.9748H16.4307V42.9817V42.9836ZM12.5027 6.12234V36.0523C14.2336 35.2228 15.1816 33.6629 16.1296 32.1069L16.1315 32.1088C16.7959 31.0151 17.4642 29.9175 18.3889 28.9715L18.4413 28.919L18.4685 28.8957C20.2518 27.4038 22.1867 26.3334 24.242 25.6263C26.2759 24.925 28.4381 24.5753 30.6973 24.517L30.7226 25.5913V16.5911L30.6973 17.6654C28.4458 17.6052 26.2876 17.2574 24.2439 16.5503L24.242 16.5542C22.1867 15.8471 20.2499 14.7767 18.4685 13.2848L18.4413 13.2615L18.3889 13.2071C17.4642 12.261 16.7959 11.1634 16.1315 10.0697L16.1296 10.0717C15.1816 8.51564 14.2336 6.95572 12.5027 6.12622V6.12234ZM10.4882 36.2077V5.96692C9.07399 6.53999 7.75301 8.09021 6.70594 10.2038C5.25868 13.1274 4.38256 17.0573 4.46609 21.0669L3.39182 21.0883L4.46609 21.1097C4.38256 25.1192 5.25868 29.0492 6.70594 31.9709C7.75301 34.0844 9.07399 35.6347 10.4882 36.2077ZM30.7245 26.6617C28.7042 26.7161 26.7674 27.0308 24.9433 27.6602C23.1444 28.2799 21.4485 29.2162 19.8827 30.5197C19.1426 31.2948 18.552 32.2603 17.9673 33.2239V33.2278C16.5861 35.4987 15.201 37.7754 11.7859 38.5719L11.6557 38.603L11.5042 38.5972C8.81951 38.4981 6.43591 36.266 4.77885 32.9228C3.19756 29.7291 2.2379 25.4534 2.32143 21.1097V21.0669C2.2379 16.7232 3.19562 12.4475 4.77885 9.25384C6.43591 5.91059 8.81951 3.67852 11.5042 3.57945L11.6557 3.57362L11.7859 3.6047C15.201 4.39924 16.5861 6.67597 17.9673 8.94884V8.95273C18.552 9.91627 19.1426 10.8837 19.8827 11.6569C21.4485 12.9604 23.1444 13.8967 24.9433 14.5164V14.5203C26.7596 15.1478 28.6964 15.4605 30.7245 15.5149V15.375V14.2969H31.7949H42.9475H44.0179V15.375V16.1443H48.4354H49.5058V17.2225H51.5708V24.958H49.5058V26.0362H48.4354H44.0179V26.8054V27.8836H42.9475H31.7949H30.7245V26.8054V26.6656V26.6617ZM47.365 18.2968H44.0179V23.876H47.365V18.2968ZM34.6583 25.7215V16.4493H32.8692V25.7215H34.6583ZM41.8752 16.4493H40.2026V25.7215H41.8752V24.9522V17.2167V16.4474V16.4493ZM39.07 16.4493H37.9375V25.7215H39.07V16.4493Z" fill="#727272"/>
</svg>
