<svg width="54" height="55" viewBox="0 0 54 55" fill="none" xmlns="http://www.w3.org/2000/svg">
<path fill-rule="evenodd" clip-rule="evenodd" d="M0 0.298096H53.8845V54.1824H0V0.298096ZM26.9131 16.521H24.8112L24.7529 27.9261H26.8548L26.9131 16.521ZM52.4625 46.4256C39.4411 41.4971 26.4197 36.5687 13.3983 31.6402C11.038 31.1313 9.2158 32.868 7.33534 36.1064C8.5592 38.0801 8.17456 39.4632 6.92934 41.7633L0.425434 39.9508C0.790648 38.1694 1.82801 35.17 3.57248 34.5678C3.48701 24.9402 8.27946 14.5473 18.6142 14.5473C14.2783 16.7347 12.1433 19.835 13.9325 24.5575C14.4745 25.6453 15.5682 26.341 17.0349 26.7683L53.4552 37.34L52.4586 46.4256H52.4625ZM44.1888 3.60832L42.5007 11.5012C42.4657 11.6799 42.423 11.8334 42.3764 11.9616C42.3298 12.0917 42.2656 12.1947 42.1899 12.2782C42.1122 12.3598 42.0092 12.4201 41.8791 12.4609C41.7509 12.4978 41.5857 12.5191 41.3856 12.5191C41.137 12.5211 40.9641 12.4706 40.8689 12.3715C40.7737 12.2705 40.7349 12.1053 40.7543 11.88C40.7582 11.8295 40.7659 11.7479 40.7815 11.6391C40.797 11.5303 40.8281 11.3691 40.8708 11.1574C40.9155 10.9476 40.9757 10.6582 41.0593 10.2988H38.596C38.5106 10.7067 38.4367 11.0563 38.3785 11.3458C38.3202 11.6372 38.2755 11.882 38.2405 12.086C38.2056 12.2881 38.1803 12.4628 38.1648 12.6085C38.1473 12.7561 38.1337 12.8882 38.1279 13.0067C38.0987 13.4302 38.1259 13.7819 38.2095 14.0635C38.291 14.3433 38.4367 14.5628 38.6465 14.726C38.8544 14.8872 39.14 15.0018 39.4974 15.0679C39.8529 15.1378 40.2939 15.1688 40.8165 15.1669C41.3584 15.1688 41.8363 15.1397 42.2443 15.0794C42.6542 15.0173 43.0116 14.9125 43.3127 14.7571C43.6138 14.6056 43.8741 14.3899 44.0917 14.114C44.3112 13.8362 44.5016 13.4847 44.6609 13.0573C44.8202 12.6319 44.964 12.1113 45.0902 11.5032L46.7784 3.61041H44.1869L44.1888 3.60832ZM31.488 3.60832L30.1262 9.99562H32.3563C32.4379 9.81496 32.5312 9.68679 32.6341 9.6052C32.7371 9.5275 32.8731 9.47514 33.0401 9.45571C33.2091 9.43823 33.4287 9.43044 33.7006 9.43238C34.0484 9.43044 34.3184 9.45363 34.5126 9.50219C34.7069 9.54687 34.839 9.6324 34.9109 9.7509C34.9866 9.87134 35.0119 10.0405 34.9964 10.2561C34.9886 10.3785 34.9711 10.5222 34.942 10.6854C34.9148 10.8505 34.8759 11.0331 34.8312 11.2293C34.7555 11.5945 34.67 11.8839 34.5729 12.0976C34.4777 12.3093 34.3631 12.4667 34.2271 12.5658C34.0911 12.6668 33.9221 12.731 33.7259 12.7582C33.5277 12.7854 33.2888 12.7988 33.0091 12.795C32.8051 12.7969 32.6322 12.7873 32.4943 12.7678C32.3544 12.7504 32.2417 12.7037 32.1601 12.6377C32.0805 12.5678 32.0241 12.4647 31.995 12.3268C31.9639 12.1869 31.9581 11.9986 31.9717 11.7616H29.5084C29.4715 11.9442 29.4405 12.117 29.4171 12.2763C29.3938 12.4375 29.3763 12.5891 29.3666 12.7348C29.3394 13.2224 29.3841 13.6245 29.5104 13.9431C29.6367 14.2597 29.8329 14.5084 30.1029 14.6852C30.3729 14.8659 30.7051 14.9883 31.1072 15.0641C31.5093 15.1359 31.9697 15.1688 32.4943 15.1669C33.0557 15.1688 33.5588 15.1398 34.0037 15.0737C34.4485 15.0077 34.8448 14.8892 35.1926 14.7163C35.5383 14.5415 35.8433 14.2967 36.1095 13.9801C36.3737 13.6615 36.6068 13.2495 36.8069 12.7483C37.007 12.2452 37.1838 11.6332 37.3372 10.9106C37.3936 10.6444 37.4402 10.396 37.479 10.1667C37.5159 9.93557 37.5431 9.71797 37.5548 9.51206C37.5917 8.96424 37.5334 8.5212 37.3838 8.17347C37.2323 7.82769 36.972 7.57516 36.599 7.41198C36.228 7.2488 35.7268 7.16721 35.0993 7.16915C34.8545 7.16915 34.6428 7.17106 34.4621 7.17883C34.2834 7.1866 34.1241 7.20414 33.9842 7.23328C33.8444 7.25853 33.7123 7.30324 33.5938 7.36152C33.4714 7.42368 33.3451 7.50338 33.215 7.61023C33.0848 7.71318 32.9391 7.84529 32.7779 8.00653L33.2383 5.8171H38.0346L38.5106 3.61231H31.486L31.488 3.60832ZM31.0548 43.4048C31.1111 43.1329 31.1558 42.9074 31.1908 42.7287C31.2238 42.548 31.251 42.3966 31.2665 42.2723C31.284 42.1479 31.2976 42.0334 31.3034 41.9304C31.3365 41.4117 31.2859 40.9784 31.1538 40.6248C31.0217 40.2752 30.8139 39.9955 30.5283 39.7896C30.2428 39.5817 29.8873 39.4322 29.4599 39.3409C29.0306 39.2535 28.5371 39.2069 27.9757 39.2089C27.4065 39.2069 26.8743 39.234 26.3847 39.2961C25.8913 39.3602 25.4425 39.4769 25.0346 39.646C24.6247 39.8188 24.2556 40.0635 23.9292 40.386C23.599 40.7065 23.3134 41.1261 23.0706 41.6428C22.8297 42.1576 22.6257 42.791 22.4664 43.5409C22.3246 44.2208 22.2042 44.7978 22.1051 45.2718C22.008 45.7419 21.9303 46.1342 21.8701 46.4411C21.8098 46.7481 21.7652 46.9967 21.7302 47.1871C21.6991 47.3755 21.6777 47.5252 21.6622 47.6359C21.6467 47.7486 21.6389 47.8418 21.635 47.9195C21.602 48.4712 21.6389 48.9297 21.7477 49.2949C21.8545 49.6562 22.0216 49.9455 22.2489 50.1592C22.4781 50.371 22.7559 50.5283 23.0803 50.6293C23.4067 50.7323 23.7719 50.8004 24.1779 50.8276C24.582 50.8587 25.0171 50.8703 25.4814 50.8684C26.0855 50.8703 26.6236 50.8335 27.0938 50.7519C27.5639 50.6703 27.9777 50.5342 28.3351 50.3419C28.6906 50.1496 29.0014 49.8834 29.2617 49.5493C29.522 49.2132 29.7474 48.7917 29.9339 48.2847C30.1223 47.7777 30.2797 47.1695 30.4118 46.4605H27.7426C27.6824 46.8024 27.6086 47.0842 27.5231 47.3037C27.4376 47.5252 27.3385 47.6961 27.2239 47.8224C27.1112 47.9487 26.983 48.04 26.8373 48.0963C26.6936 48.1546 26.5343 48.1895 26.3517 48.205C26.173 48.2186 25.9806 48.2264 25.7631 48.2225C25.4037 48.2225 25.1239 48.1817 24.9239 48.102C24.7218 48.0204 24.5878 47.8981 24.514 47.7272C24.4401 47.5601 24.4149 47.3444 24.4343 47.0803C24.4382 47.0181 24.446 46.9404 24.4576 46.8549C24.4693 46.7694 24.4887 46.6568 24.5159 46.5208C24.5412 46.3868 24.5761 46.2119 24.6208 45.9963C24.6655 45.7806 24.7218 45.5126 24.7918 45.1921C24.8597 44.8716 24.9452 44.479 25.0424 44.0244C25.1259 43.6184 25.2152 43.2767 25.3066 42.9989C25.3979 42.7191 25.5164 42.4957 25.6582 42.3267C25.8 42.1597 25.9884 42.0354 26.2235 41.9615C26.4566 41.8858 26.7577 41.8469 27.1229 41.8488C27.4182 41.8469 27.6727 41.874 27.8825 41.9264C28.0942 41.9808 28.2535 42.0682 28.3623 42.1945C28.4711 42.3188 28.5196 42.486 28.508 42.6997C28.5022 42.7871 28.4905 42.8842 28.4711 42.9911C28.4517 43.0999 28.4245 43.2338 28.3876 43.399H31.0567L31.0548 43.4048ZM14.8397 47.5562H17.1339C17.674 47.5582 18.146 47.5135 18.5462 47.4261C18.9483 47.3387 19.2941 47.1928 19.5875 46.9947C19.8808 46.8004 20.1333 46.5364 20.3431 46.212C20.5549 45.8856 20.7414 45.4874 20.8987 45.0134C21.058 44.5394 21.2037 43.9817 21.3378 43.3426C21.3941 43.0687 21.4427 42.8142 21.4815 42.5752C21.5184 42.3363 21.5456 42.1111 21.5592 41.8993C21.6 41.2738 21.532 40.7705 21.3553 40.3898C21.1765 40.011 20.8871 39.7332 20.4772 39.5642C20.0692 39.3932 19.537 39.3097 18.8804 39.3136H13.9947L11.5664 50.7189H14.1578L14.8358 47.5562H14.8397ZM16.0577 41.8081H17.8333C18.0819 41.8061 18.2801 41.8332 18.4258 41.8857C18.5715 41.9362 18.6706 42.0255 18.7288 42.144C18.7852 42.2664 18.8085 42.4258 18.7929 42.6278C18.7871 42.7269 18.7735 42.8415 18.7521 42.9659C18.7308 43.0921 18.7036 43.228 18.6686 43.3737C18.5928 43.7389 18.5151 44.0362 18.4355 44.2616C18.3558 44.483 18.2626 44.654 18.1538 44.7705C18.047 44.8871 17.911 44.9648 17.7459 45.0056C17.5827 45.0464 17.3787 45.0639 17.1359 45.0619H15.3603L16.0577 41.8081ZM47.1649 23.2269C47.435 23.223 47.6545 23.2347 47.8196 23.258C47.9847 23.2813 48.111 23.3318 48.1945 23.4037C48.2781 23.4794 48.3363 23.596 48.3635 23.7514C48.3927 23.9068 48.4043 24.1186 48.4005 24.3827C48.4043 24.6333 48.3907 24.8412 48.3694 25.0141C48.348 25.1831 48.2956 25.3171 48.2178 25.422C48.1382 25.523 48.0139 25.5968 47.8449 25.6415C47.6759 25.6861 47.4466 25.7077 47.1533 25.7077C46.8541 25.7096 46.6171 25.6727 46.4403 25.595C46.2655 25.5192 46.1412 25.3871 46.0654 25.1987C45.9916 25.0103 45.9566 24.7556 45.9586 24.4273C45.9586 24.1592 45.9761 23.9476 46.013 23.7844C46.0499 23.6251 46.114 23.5027 46.2014 23.423C46.2888 23.3414 46.4132 23.2891 46.5686 23.2638C46.7279 23.2386 46.926 23.2249 47.1649 23.2288V23.2269ZM47.2077 18.786C47.4602 18.786 47.6623 18.8016 47.8099 18.8404C47.9595 18.8754 48.0683 18.9337 48.1401 19.0153C48.214 19.0969 48.2586 19.2037 48.282 19.3397C48.3033 19.4738 48.3092 19.6388 48.3072 19.837C48.3072 20.1011 48.2897 20.3128 48.2567 20.4702C48.2237 20.6295 48.1673 20.7501 48.0838 20.8278C48.0022 20.9094 47.8895 20.9617 47.7458 20.987C47.6001 21.0122 47.4175 21.024 47.196 21.0221C47.0056 21.024 46.8405 21.0143 46.7065 20.989C46.5705 20.9657 46.4598 20.9171 46.3743 20.8471C46.2888 20.7733 46.2267 20.6665 46.1859 20.5227C46.1451 20.3771 46.1276 20.1827 46.1295 19.9438C46.1276 19.6912 46.1451 19.4874 46.1781 19.3319C46.2111 19.1765 46.2655 19.06 46.349 18.9823C46.4268 18.9046 46.5375 18.8501 46.6773 18.8268C46.8192 18.7996 46.9959 18.7861 47.2077 18.788V18.786ZM45.4127 22.1468C45.164 22.1643 44.9484 22.2478 44.7677 22.3993C44.5851 22.5489 44.4356 22.747 44.319 22.9918C44.2024 23.2405 44.115 23.5162 44.0587 23.8212C44.0024 24.1281 43.9732 24.4469 43.9713 24.7772C43.9693 25.3677 44.0257 25.8631 44.1345 26.2593C44.2471 26.6576 44.4006 26.9761 44.6026 27.2189C44.8027 27.4598 45.0358 27.6443 45.3059 27.7687C45.5759 27.893 45.8653 27.9727 46.18 28.0174C46.4967 28.0582 46.8211 28.0776 47.1591 28.0756C47.5146 28.0776 47.8526 28.0602 48.1712 28.0233C48.4918 27.9825 48.7851 27.9008 49.0532 27.7823C49.3193 27.6599 49.5524 27.4813 49.7486 27.2384C49.9468 26.9975 50.1003 26.6789 50.211 26.2768C50.3217 25.8747 50.3761 25.3755 50.3819 24.7772C50.3878 24.3206 50.3508 23.9067 50.2751 23.5376C50.1974 23.1646 50.0653 22.8577 49.873 22.6149C49.6826 22.372 49.4184 22.2148 49.0804 22.1468L49.0823 22.0398C49.3213 21.9311 49.5175 21.8145 49.6748 21.6843C49.8302 21.5542 49.9546 21.4008 50.0439 21.2182C50.1313 21.0356 50.1974 20.8122 50.2343 20.5461C50.2731 20.2799 50.2926 19.9555 50.2926 19.5748C50.2945 18.992 50.244 18.5063 50.141 18.1178C50.04 17.7312 49.8924 17.4223 49.704 17.1911C49.5155 16.9638 49.2921 16.791 49.0357 16.6783C48.7773 16.5637 48.4976 16.4899 48.1887 16.4588C47.8818 16.4238 47.5574 16.4083 47.2174 16.4102C46.9085 16.4083 46.6016 16.4238 46.3063 16.4588C46.0091 16.4918 45.7313 16.5638 45.4729 16.6745C45.2146 16.7833 44.9853 16.9482 44.7891 17.1677C44.589 17.3892 44.4336 17.6846 44.3209 18.0518C44.2083 18.4209 44.1481 18.8813 44.1442 19.435C44.1383 19.9148 44.1772 20.3266 44.2588 20.6743C44.3365 21.0201 44.4705 21.3018 44.659 21.5252C44.8474 21.7486 45.098 21.9176 45.4127 22.0342V22.141V22.1468ZM39.6276 16.414C39.3478 16.4121 39.0739 16.4218 38.8078 16.4451C38.5397 16.4685 38.2833 16.5189 38.0366 16.6005C37.7918 16.6821 37.5684 16.8084 37.3625 16.9794C37.1546 17.1503 36.9739 17.3816 36.8224 17.6807C36.669 17.9741 36.5485 18.3471 36.463 18.7958C36.3776 19.2465 36.3309 19.7924 36.3271 20.4315L36.3096 24.0195C36.3076 24.6586 36.3465 25.2044 36.4281 25.657C36.5097 26.1077 36.6262 26.4826 36.7777 26.7818C36.9273 27.081 37.1041 27.3161 37.31 27.4909C37.514 27.6658 37.7374 27.7978 37.9822 27.8814C38.2269 27.9649 38.4814 28.0211 38.7514 28.0464C39.0195 28.0717 39.2915 28.0815 39.5712 28.0796C39.849 28.0815 40.1229 28.0717 40.391 28.0464C40.6591 28.0211 40.9155 27.9649 41.1603 27.8814C41.4051 27.7978 41.6304 27.6658 41.8383 27.4909C42.0442 27.3161 42.2249 27.081 42.3764 26.7818C42.5298 26.4826 42.6483 26.1077 42.7358 25.657C42.8212 25.2024 42.8659 24.6586 42.8717 24.0195L42.8892 20.4315C42.8912 19.7943 42.8523 19.2485 42.7688 18.7958C42.6872 18.3471 42.5706 17.9741 42.4211 17.6807C42.2715 17.3835 42.0947 17.1503 41.8907 16.9794C41.6848 16.8084 41.4614 16.6802 41.2186 16.6005C40.9738 16.5189 40.7193 16.4685 40.4493 16.4451C40.1812 16.4218 39.9073 16.4121 39.6295 16.414H39.6276ZM39.614 18.786C39.8743 18.7821 40.088 18.8015 40.255 18.8423C40.424 18.885 40.5561 18.9744 40.6494 19.1104C40.7446 19.2463 40.8106 19.4581 40.8475 19.7417C40.8844 20.0253 40.9019 20.4062 40.898 20.886L40.8844 23.5475C40.8825 24.0292 40.8631 24.4177 40.8223 24.7053C40.7815 24.9947 40.7135 25.2122 40.6183 25.356C40.5231 25.4997 40.3891 25.5969 40.2201 25.6436C40.0511 25.6882 39.8374 25.7116 39.579 25.7077C39.3187 25.7116 39.105 25.69 38.9379 25.6415C38.7689 25.5929 38.6388 25.4977 38.5436 25.3501C38.4503 25.2044 38.3843 24.9849 38.3474 24.6935C38.3105 24.4021 38.293 24.0136 38.2969 23.5338L38.3105 20.919C38.3105 20.4373 38.3318 20.0526 38.3726 19.7651C38.4134 19.4756 38.4795 19.2619 38.5747 19.124C38.6718 18.9822 38.8039 18.891 38.9729 18.8463C39.1419 18.8036 39.3556 18.7842 39.614 18.788V18.786ZM30.3826 16.521H28.2807L28.2224 27.9261H30.3243L30.3477 23.4541H30.979L33.1547 27.9261H35.7637L32.7857 22.1176L35.5889 16.521H33.044L30.9926 20.8083H30.3613L30.3826 16.521Z" fill="black"/>
</svg>
