<svg width="55" height="55" viewBox="0 0 55 55" fill="none" xmlns="http://www.w3.org/2000/svg">
<path fill-rule="evenodd" clip-rule="evenodd" d="M0.947784 0.287445H54.8322V54.1719H0.947784V0.287445ZM26.2193 15.8207V28.4283H29.7452C29.8171 28.0728 29.9181 27.8164 30.0579 27.6571C30.1939 27.5017 30.394 27.4026 30.6524 27.3618C30.9127 27.3268 31.2566 27.3113 31.6898 27.3171C32.257 27.3132 32.7058 27.3618 33.0302 27.4628C33.3546 27.5677 33.5936 27.7465 33.7412 28.0087C33.8908 28.269 33.984 28.6303 34.0209 29.0888C34.0598 29.5531 34.0773 30.1436 34.0695 30.8585C34.0734 31.5792 34.0326 32.1504 33.9549 32.57C33.8713 32.9896 33.7431 33.3004 33.5624 33.4966C33.3818 33.6967 33.139 33.821 32.8359 33.8774C32.5329 33.9318 32.1599 33.957 31.715 33.9512C31.4275 33.957 31.1672 33.9356 30.936 33.8968C30.7029 33.8618 30.5009 33.7725 30.3319 33.6423C30.1609 33.5083 30.0288 33.3023 29.9298 33.0265C29.8287 32.7526 29.7685 32.3815 29.7491 31.9114H25.8541C25.8541 33.2771 25.9843 34.398 26.2368 35.278C26.4933 36.1599 26.8643 36.8457 27.3636 37.3352C27.8589 37.8209 28.4708 38.1647 29.2013 38.3551C29.9298 38.5494 30.767 38.6446 31.717 38.6348C32.6047 38.6387 33.3915 38.5785 34.0734 38.4503C34.7533 38.3201 35.3399 38.0851 35.8314 37.7451C36.321 37.3993 36.7231 36.9156 37.0339 36.2901C37.3448 35.6587 37.5778 34.8487 37.7255 33.8579C37.877 32.8672 37.947 31.6569 37.947 30.2311C37.9508 28.9256 37.8751 27.8086 37.7177 26.8742C37.5643 25.9379 37.3001 25.1744 36.9368 24.578C36.5716 23.9874 36.0762 23.5484 35.4546 23.2667C34.8329 22.9812 34.0559 22.8413 33.1273 22.8471C32.6455 22.8413 32.2454 22.851 31.9209 22.8821C31.6004 22.9074 31.3226 22.9734 31.0914 23.0764C30.8583 23.1774 30.6408 23.3406 30.431 23.5659C30.2212 23.7913 29.9939 24.1021 29.7452 24.4964V20.1741H37.3292V15.8207H26.2193ZM14.721 20.7433H17.528C17.9243 20.7374 18.2449 20.7938 18.4916 20.8987C18.7364 21.0094 18.9229 21.1842 19.0511 21.4232C19.1773 21.6641 19.2628 21.9788 19.3114 22.3732C19.3561 22.7733 19.3755 23.259 19.3735 23.834C19.3774 24.5547 19.3522 25.1395 19.3056 25.5843C19.2589 26.0234 19.1637 26.3594 19.0355 26.5906C18.9054 26.8218 18.7169 26.9771 18.4761 27.0568C18.2332 27.1364 17.9146 27.1714 17.528 27.1675H14.721V20.7433ZM14.721 32.0902H18.3478C19.2026 32.096 19.933 32.0047 20.5372 31.8357C21.1452 31.6608 21.6483 31.3752 22.0446 30.9848C22.4448 30.6001 22.7556 30.0795 22.9849 29.4385C23.2102 28.7935 23.3715 28.0068 23.4628 27.0724C23.5541 26.136 23.5987 25.0345 23.5968 23.7738C23.5987 22.309 23.5035 21.0677 23.3132 20.0478C23.1228 19.0319 22.8178 18.212 22.404 17.5904C21.9864 16.9707 21.4444 16.5142 20.778 16.2345C20.1078 15.9547 19.2997 15.8149 18.3498 15.8188H10.6221V38.3337H14.7229V32.0902H14.721ZM7.95673 15.8207H3.85783V38.3357H7.95673V15.8207ZM44.4547 23.4649V23.0161C44.4547 22.3207 44.5324 21.7845 44.6898 21.4057C44.851 21.025 45.09 20.7608 45.4144 20.6151C45.7388 20.4655 46.1487 20.3955 46.648 20.4053C47.1666 20.4053 47.5746 20.4461 47.8679 20.5354C48.1613 20.6248 48.3769 20.7705 48.5109 20.9648C48.643 21.1648 48.7266 21.4252 48.7596 21.7457C48.7945 22.0721 48.8081 22.4605 48.8023 22.9268C48.8042 23.3075 48.7887 23.6184 48.746 23.8573C48.7013 24.0982 48.6139 24.2886 48.4701 24.4168C48.3303 24.547 48.1147 24.6382 47.8252 24.6868C47.5338 24.7373 47.1414 24.7568 46.6499 24.7568H45.6669V29.1102H46.6499C47.1841 29.1102 47.6095 29.1451 47.9242 29.2209C48.2389 29.3025 48.474 29.421 48.6236 29.5861C48.7771 29.7512 48.8762 29.9727 48.9247 30.2369C48.9694 30.5069 48.9927 30.8313 48.9849 31.2121C48.9849 31.857 48.9441 32.3718 48.8548 32.7584C48.7693 33.145 48.6333 33.4305 48.4488 33.619C48.2603 33.8035 48.0195 33.9298 47.7242 33.9842C47.427 34.0444 47.0676 34.0697 46.648 34.0638C46.2886 34.0697 45.9642 34.0483 45.6747 34.0036C45.3833 33.9589 45.1385 33.8541 44.9326 33.6889C44.7228 33.5238 44.5674 33.2596 44.4567 32.8983C44.3479 32.5389 44.2896 32.0474 44.2896 31.4238V30.674H40.416V31.8745C40.4199 33.1508 40.5287 34.2115 40.7404 35.0565C40.9561 35.9016 41.2572 36.5737 41.6496 37.0691C42.0401 37.5683 42.5005 37.9394 43.0327 38.1783C43.565 38.4192 44.1536 38.5785 44.7966 38.6485C45.4397 38.7223 46.1196 38.7533 46.8345 38.7494C47.5299 38.7533 48.1826 38.7048 48.7907 38.5979C49.3987 38.493 49.9523 38.3026 50.4516 38.0287C50.9508 37.7548 51.3782 37.3586 51.7357 36.8476C52.0931 36.3387 52.3709 35.682 52.5652 34.8817C52.7594 34.0755 52.8546 33.0964 52.8585 31.9347C52.8624 31.2801 52.8216 30.6643 52.742 30.099C52.6604 29.5337 52.5263 29.0325 52.336 28.5973C52.1437 28.168 51.8892 27.8222 51.5609 27.5677C51.2365 27.3132 50.8265 27.1676 50.337 27.1326V26.8917C50.8052 26.7965 51.1956 26.6022 51.4987 26.3011C51.8017 26 52.0426 25.6212 52.2136 25.1647C52.3845 24.7043 52.5069 24.1953 52.5749 23.6242C52.6429 23.055 52.6779 22.4547 52.672 21.8175C52.6662 20.6714 52.5419 19.7215 52.3029 18.9716C52.0601 18.2198 51.7396 17.6196 51.3297 17.1844C50.9217 16.7454 50.4652 16.419 49.9582 16.2092C49.4492 15.9994 48.9267 15.8634 48.3905 15.8032C47.8504 15.743 47.3318 15.7177 46.8306 15.7236C46.0399 15.7119 45.3231 15.7546 44.6684 15.8284C44.0157 15.91 43.4387 16.0732 42.9298 16.3238C42.4247 16.5744 41.9973 16.9552 41.6477 17.4603C41.296 17.9692 41.0318 18.6453 40.8512 19.4961C40.6705 20.347 40.5792 21.4115 40.5792 22.6878V23.4688H44.4528L44.4547 23.4649Z" fill="black"/>
</svg>
