<svg width="55" height="55" viewBox="0 0 55 55" fill="none" xmlns="http://www.w3.org/2000/svg">
<path fill-rule="evenodd" clip-rule="evenodd" d="M0.867935 0.876648H54.7524V54.7611H0.867935V0.876648ZM35.2155 15.4113H29.5644C29.5624 15.1297 29.5896 14.9082 29.6459 14.745C29.7003 14.5819 29.7916 14.4536 29.9179 14.3682C30.0442 14.2788 30.2151 14.2069 30.4269 14.1506C30.6406 14.0962 30.9009 14.0379 31.2136 13.9758C31.5245 13.9116 31.8936 13.8242 32.319 13.7135C32.76 13.5969 33.1407 13.4746 33.4671 13.3522C33.7934 13.2298 34.0693 13.0899 34.2927 12.9306C34.5161 12.7694 34.6948 12.5751 34.8308 12.3459C34.9668 12.1167 35.0639 11.835 35.1241 11.5028C35.1863 11.1706 35.2155 10.7665 35.2135 10.2984C35.2135 9.70781 35.1475 9.21244 35.0192 8.81226C34.893 8.41208 34.7084 8.0896 34.4656 7.84289C34.2247 7.60006 33.9333 7.41163 33.5934 7.28536C33.2534 7.15909 32.8707 7.07167 32.4472 7.02699C32.0198 6.98231 31.5614 6.96288 31.0641 6.96483C30.5279 6.96288 30.0384 6.98814 29.6013 7.04448C29.1622 7.10081 28.7776 7.19989 28.4415 7.3417C28.1055 7.48351 27.8238 7.68165 27.5965 7.94002C27.3692 8.19451 27.1963 8.52475 27.0817 8.92299C26.9651 9.32317 26.9068 9.80688 26.9068 10.38V10.8986H29.5624V10.3936C29.5605 10.1138 29.578 9.89236 29.6188 9.72529C29.6557 9.56017 29.7295 9.43584 29.8344 9.35425C29.9393 9.27266 30.0928 9.21827 30.2909 9.19302C30.491 9.16776 30.7474 9.1561 31.066 9.15804C31.3477 9.1561 31.5827 9.16776 31.7731 9.19495C31.9654 9.22215 32.117 9.27654 32.2316 9.35813C32.3462 9.43972 32.4317 9.56017 32.4802 9.71947C32.5327 9.87876 32.5579 10.0886 32.556 10.3528C32.5579 10.547 32.5521 10.7102 32.5346 10.8442C32.5172 10.9783 32.4764 11.0871 32.4122 11.1803C32.3462 11.2697 32.2471 11.3474 32.1053 11.4154C31.9654 11.4795 31.777 11.5436 31.5361 11.6077C31.2952 11.6679 30.9883 11.7398 30.6153 11.8156C29.9781 11.9496 29.44 12.0856 28.9991 12.2274C28.5581 12.3692 28.2006 12.5304 27.9248 12.713C27.6489 12.8937 27.4352 13.1055 27.2876 13.3522C27.138 13.595 27.037 13.8883 26.9807 14.2244C26.9263 14.5624 26.901 14.9568 26.9049 15.4133V17.6065H35.2116V15.4133L35.2155 15.4113ZM10.1867 16.7226L11.2649 15.8193C10.6957 14.7917 10.3732 13.6125 10.3732 12.3575C10.3732 10.3858 11.1736 8.60051 12.4693 7.30284L12.4732 7.3009L12.4751 7.29701C13.7708 6.00129 15.558 5.20092 17.5298 5.20092C19.2335 5.20092 20.7992 5.79731 22.0289 6.79193L23.8161 5.29223L25.5431 7.35529L23.7676 8.84529C24.3523 9.88265 24.6864 11.0812 24.6864 12.3575C24.6864 14.3293 23.8841 16.1185 22.5923 17.4123L22.5865 17.4181C21.2927 18.7119 19.5035 19.5122 17.5318 19.5122C15.8067 19.5122 14.2235 18.9003 12.9899 17.8863L11.9156 18.7876L10.1886 16.7246L10.1867 16.7226ZM13.394 14.0321L19.8998 8.57526C19.2121 8.144 18.4001 7.8934 17.5298 7.8934C16.2943 7.8934 15.1792 8.39071 14.375 9.19495L14.3692 9.20078C13.5649 10.0031 13.0676 11.1201 13.0676 12.3556C13.0676 12.9481 13.1842 13.5154 13.394 14.0321ZM21.6404 10.6247L15.1093 16.1029C15.8067 16.5536 16.6381 16.8159 17.5279 16.8159C18.7595 16.8159 19.8746 16.3186 20.6827 15.5143L20.6885 15.5085C21.4908 14.7003 21.9901 13.5853 21.9901 12.3537C21.9901 11.7398 21.8657 11.1551 21.6404 10.6228V10.6247ZM40.9792 15.5532C40.6859 15.5551 40.4489 15.5376 40.2682 15.4988C40.0895 15.4619 39.9554 15.3958 39.8603 15.3045C39.767 15.2132 39.7049 15.0889 39.6718 14.9296C39.6388 14.7703 39.6252 14.5721 39.6272 14.3313C39.6272 14.1253 39.6485 13.9622 39.6912 13.8359C39.734 13.7116 39.8078 13.6183 39.9108 13.5542C40.0137 13.492 40.1517 13.4512 40.3284 13.4299C40.5013 13.4085 40.7189 13.3988 40.9773 13.4027C41.2861 13.4007 41.5484 13.4046 41.764 13.4182C41.9816 13.4299 42.1564 13.4629 42.2905 13.5173C42.4265 13.5678 42.5217 13.6552 42.5858 13.7757C42.6479 13.8961 42.6771 14.0612 42.6771 14.2749C42.679 14.5605 42.6635 14.7897 42.6227 14.9607C42.5819 15.1316 42.5061 15.2598 42.3915 15.3472C42.2749 15.4327 42.102 15.4891 41.8767 15.5163C41.6494 15.5434 41.3483 15.557 40.9773 15.5532H40.9792ZM45.4336 10.2828V9.83214C45.4317 9.28626 45.3598 8.83557 45.2141 8.48007C45.0684 8.12651 44.8664 7.84484 44.608 7.63892C44.3477 7.43106 44.0447 7.27953 43.6989 7.18434C43.3512 7.08916 42.9743 7.02505 42.5702 6.99979C42.1623 6.9726 41.7407 6.96288 41.3036 6.96483C40.6956 6.96288 40.1536 6.99008 39.6815 7.0503C39.2114 7.10858 38.8035 7.21543 38.4616 7.37084C38.1197 7.52625 37.838 7.7477 37.6204 8.03327C37.4009 8.31884 37.2377 8.68599 37.1309 9.13862C37.026 9.58737 36.9735 10.1391 36.9735 10.7879V13.4299C36.9716 14.137 37.0104 14.745 37.094 15.2443C37.1736 15.7455 37.3135 16.1612 37.5019 16.4856C37.6942 16.812 37.9565 17.0665 38.2867 17.251C38.617 17.4336 39.0288 17.5618 39.5261 17.6376C40.0234 17.7134 40.6159 17.7483 41.3036 17.7444C41.8417 17.7483 42.3293 17.7192 42.7606 17.6609C43.1899 17.6046 43.5668 17.5016 43.8893 17.354C44.2117 17.2063 44.4779 17.0024 44.6935 16.7382C44.9072 16.474 45.0684 16.1359 45.1772 15.7222C45.2821 15.3123 45.3365 14.815 45.3365 14.2302C45.3365 13.6844 45.2841 13.2298 45.185 12.8646C45.082 12.4974 44.9324 12.2041 44.7285 11.9826C44.5264 11.7612 44.2758 11.596 43.9747 11.4834C43.6756 11.3707 43.324 11.2988 42.9257 11.26C42.5275 11.2231 42.0807 11.2056 41.5853 11.2075C41.358 11.2056 41.1443 11.2133 40.9501 11.2328C40.7558 11.2522 40.579 11.2949 40.4197 11.3649C40.2604 11.4329 40.1186 11.5397 39.9924 11.6873C39.868 11.835 39.7631 12.0351 39.6738 12.2896H39.631V10.6306C39.6271 10.2809 39.6563 10.007 39.7126 9.80494C39.769 9.60679 39.8603 9.45915 39.9865 9.36591C40.1167 9.27266 40.2857 9.21439 40.5013 9.18719C40.717 9.16193 40.985 9.15028 41.3036 9.15416C41.5639 9.15222 41.7873 9.16193 41.97 9.18136C42.1545 9.20079 42.308 9.24741 42.4245 9.31929C42.5411 9.39311 42.6266 9.50383 42.6829 9.6573C42.7392 9.80882 42.7645 10.0147 42.7645 10.2789H45.4356L45.4336 10.2828ZM24.5097 40.6907H27.3498V38.2449H18.8605V40.6907H21.7006V48.7876H24.5116V40.6907H24.5097ZM32.6628 44.4438C33.0261 44.4419 33.3195 44.4497 33.539 44.471C33.7604 44.4924 33.9275 44.539 34.0421 44.607C34.1548 44.677 34.2325 44.7858 34.2694 44.9276C34.3102 45.0713 34.3257 45.2675 34.3238 45.5104C34.3296 45.7415 34.316 45.9338 34.2869 46.0931C34.2597 46.2505 34.1917 46.3748 34.0848 46.47C33.9799 46.5633 33.8148 46.6312 33.5875 46.672C33.3622 46.7148 33.0553 46.7342 32.6648 46.7342C32.2646 46.7361 31.948 46.7012 31.7129 46.6312C31.4778 46.5613 31.3127 46.4389 31.2098 46.266C31.1087 46.0931 31.0602 45.8561 31.0621 45.5531C31.0602 45.3044 31.0835 45.1082 31.1321 44.9586C31.1787 44.811 31.2622 44.6983 31.3807 44.6226C31.4973 44.5488 31.6624 44.4982 31.8702 44.4749C32.082 44.4516 32.3462 44.44 32.6667 44.4419L32.6628 44.4438ZM32.69 40.3391C33.0281 40.3391 33.2981 40.3527 33.4962 40.3896C33.6963 40.4226 33.844 40.4751 33.9391 40.5508C34.0363 40.6247 34.0984 40.7237 34.1295 40.85C34.1567 40.9743 34.1703 41.1278 34.1664 41.3085C34.1684 41.5513 34.149 41.7494 34.1023 41.8951C34.0596 42.0428 33.9858 42.1535 33.875 42.2254C33.7682 42.3011 33.6167 42.3497 33.4263 42.373C33.232 42.3963 32.9892 42.408 32.69 42.406C32.4356 42.4099 32.2141 42.4002 32.0354 42.375C31.8528 42.3536 31.7051 42.3089 31.5905 42.2429C31.4759 42.1749 31.3904 42.0777 31.338 41.9437C31.2836 41.8077 31.2583 41.6309 31.2583 41.4075C31.2564 41.1744 31.2758 40.986 31.3205 40.8442C31.3652 40.7004 31.437 40.5936 31.5439 40.5217C31.6488 40.4479 31.7945 40.3993 31.9829 40.376C32.1714 40.3507 32.4064 40.3391 32.692 40.341L32.69 40.3391ZM30.3142 43.4453C29.982 43.4609 29.6926 43.5386 29.4517 43.6785C29.2108 43.8164 29.0127 43.999 28.8572 44.2263C28.7038 44.4555 28.5872 44.7119 28.5134 44.9917C28.4396 45.2753 28.4027 45.5706 28.4027 45.8736C28.4066 46.4195 28.4823 46.876 28.6319 47.2451C28.7854 47.6123 28.9932 47.9076 29.2652 48.1329C29.5352 48.3544 29.8499 48.5253 30.2093 48.6399C30.5706 48.7545 30.9592 48.8303 31.3807 48.8691C31.8023 48.9061 32.2394 48.9255 32.69 48.9235C33.166 48.9274 33.6167 48.9099 34.0421 48.875C34.4714 48.8381 34.8619 48.7623 35.2193 48.6516C35.5768 48.5389 35.8857 48.3738 36.1479 48.1484C36.4102 47.925 36.6141 47.6297 36.7598 47.2606C36.9036 46.8877 36.9755 46.4273 36.9794 45.8736C36.9832 45.4521 36.9327 45.0694 36.8259 44.7275C36.721 44.3836 36.5403 44.1 36.2819 43.8747C36.0275 43.6493 35.6739 43.5036 35.2213 43.4415V43.3424C35.5399 43.2414 35.8021 43.1345 36.0119 43.0141C36.2198 42.8936 36.383 42.7518 36.5034 42.5828C36.62 42.4138 36.7054 42.2079 36.754 41.9612C36.8045 41.7164 36.8259 41.4153 36.8239 41.0637C36.822 40.5256 36.7521 40.0749 36.6103 39.7175C36.4723 39.362 36.2742 39.0764 36.0197 38.8627C35.7672 38.6509 35.4661 38.4936 35.1222 38.3887C34.7764 38.2838 34.3995 38.2158 33.9877 38.1847C33.5778 38.1517 33.1446 38.1381 32.69 38.14C32.2763 38.1381 31.8683 38.1517 31.472 38.1847C31.0738 38.2158 30.7027 38.2819 30.3569 38.3848C30.0131 38.4858 29.7081 38.6374 29.4459 38.8413C29.1817 39.0453 28.9757 39.3192 28.8281 39.6592C28.6805 40.0011 28.6028 40.4246 28.6008 40.9394C28.5989 41.3823 28.6533 41.763 28.7621 42.0855C28.8689 42.4041 29.0496 42.6664 29.3021 42.8723C29.5527 43.0801 29.8907 43.2355 30.3142 43.3424V43.4415V43.4453ZM7.41652 23.3159H12.3566L12.3683 22.0299L17.388 21.9968V23.3159H26.7631H28.8514H32.4958V21.9968L44.1671 22.0299L44.1787 23.3159H48.1999C48.9478 23.3372 49.9444 25.1866 49.925 26.088C50.2785 26.121 50.7059 26.123 50.7059 26.2279L50.7118 30.014L50.0668 30.0393C50.1503 31.0242 49.212 32.4482 48.1999 32.9435H44.5575L44.5517 33.8255L37.4359 33.8313L37.4631 32.9435H28.8534H26.765H20.9139L20.9411 33.8313L12.3313 33.8255L12.3255 32.9435H7.41846C6.40635 32.4482 5.46806 31.0242 5.5516 30.0393L4.90664 30.014L4.91247 26.2279C4.91247 26.123 5.33985 26.121 5.69341 26.088C5.67398 25.1847 6.67055 23.3372 7.41846 23.3159H7.41652ZM7.58941 25.1031H12.1876V31.2709H7.58941V25.1031ZM48.2155 31.2709H43.6173V25.1031H48.2155V31.2709ZM41.5503 31.2709H32.0237C32.2219 31.2709 29.8266 30.253 29.8266 28.7397C29.8266 28.1414 30.7513 27.5275 30.7513 26.9292C30.7513 26.3153 29.8266 25.715 29.8266 25.1012H41.5503V31.269V31.2709ZM14.2546 25.1031H23.7812C23.583 25.1031 25.9783 26.121 25.9783 27.6343C25.9783 28.2327 25.0536 28.8465 25.0536 29.4449C25.0536 30.0587 25.9783 30.659 25.9783 31.2729H14.2546V25.105V25.1031Z" fill="#727272"/>
</svg>
