<svg width="55" height="55" viewBox="0 0 55 55" fill="none" xmlns="http://www.w3.org/2000/svg">
<path fill-rule="evenodd" clip-rule="evenodd" d="M0.697388 0.287445H54.5819V54.1719H0.697388V0.287445ZM7.78602 15.9275H3.68709V38.4425H7.78602V15.9275ZM14.5502 32.197H18.1771C19.0319 32.2028 19.7623 32.1115 20.3664 31.9425C20.9745 31.7677 21.4776 31.4821 21.8739 31.0916C22.2741 30.707 22.5849 30.1864 22.8142 29.5453C23.0395 28.9004 23.2007 28.1136 23.292 27.1792C23.3833 26.2429 23.428 25.1414 23.4261 23.8806C23.428 22.4159 23.3328 21.1745 23.1425 20.1547C22.9521 19.1387 22.6471 18.3189 22.2333 17.6973C21.8156 17.0776 21.2736 16.621 20.6073 16.3413C19.9371 16.0616 19.129 15.9217 18.1791 15.9256H10.4513V38.4406H14.5522V32.197H14.5502ZM14.5502 20.8501H17.3573C17.7536 20.8443 18.0742 20.9006 18.3209 21.0055C18.5656 21.1163 18.7521 21.2911 18.8803 21.53C19.0066 21.7709 19.0921 22.0856 19.1407 22.48C19.1853 22.8801 19.2048 23.3658 19.2028 23.9408C19.2067 24.6615 19.1814 25.2463 19.1348 25.6911C19.0882 26.1302 18.993 26.4663 18.8648 26.6974C18.7346 26.9286 18.5462 27.084 18.3053 27.1636C18.0625 27.2433 17.7439 27.2783 17.3573 27.2744H14.5502V20.8501ZM37.7335 33.7588H29.4929C29.489 33.1586 29.5298 32.6827 29.6114 32.333C29.6891 31.9833 29.8231 31.7113 30.0077 31.5268C30.1922 31.3364 30.4428 31.181 30.7498 31.0606C31.0606 30.9459 31.4413 30.8197 31.8979 30.6856C32.3524 30.5516 32.8886 30.3651 33.5102 30.1261C34.1532 29.8755 34.7088 29.6172 35.1848 29.3549C35.6588 29.0946 36.0628 28.7954 36.3873 28.4555C36.7156 28.1097 36.9739 27.694 37.1721 27.2044C37.3702 26.7149 37.514 26.1146 37.6033 25.4036C37.6908 24.6926 37.7354 23.832 37.7335 22.8316C37.7335 21.5708 37.6383 20.516 37.4499 19.6593C37.2653 18.8046 36.9953 18.113 36.6417 17.5885C36.2901 17.0678 35.8666 16.6677 35.3713 16.3976C34.8759 16.1276 34.3203 15.9431 33.7006 15.8479C33.079 15.7527 32.4088 15.7138 31.6861 15.7177C30.9032 15.7119 30.1883 15.7682 29.5512 15.8887C28.9101 16.0091 28.3467 16.2189 27.8591 16.5239C27.3715 16.825 26.9578 17.2485 26.6256 17.8002C26.2934 18.3461 26.0408 19.0513 25.8738 19.9021C25.7028 20.7569 25.6193 21.7942 25.6193 23.0142V24.1235H29.4929V23.0434C29.489 22.4489 29.5162 21.973 29.5745 21.6175C29.6289 21.262 29.7338 20.9978 29.8872 20.8229C30.0407 20.6481 30.2641 20.5335 30.5536 20.4772C30.8449 20.4228 31.2199 20.3975 31.6861 20.4014C32.096 20.3975 32.4379 20.4228 32.7176 20.481C32.9974 20.5413 33.2208 20.6558 33.3878 20.8307C33.5569 21.0055 33.6792 21.262 33.7492 21.6019C33.8249 21.9419 33.8618 22.3926 33.8599 22.954C33.8638 23.3697 33.8521 23.7194 33.8288 24.0049C33.8016 24.2886 33.7433 24.5256 33.6501 24.7198C33.5549 24.9102 33.4073 25.0753 33.2014 25.2191C32.9993 25.3589 32.7235 25.493 32.3719 25.629C32.0202 25.7592 31.5715 25.9087 31.0295 26.0738C30.1009 26.3574 29.3142 26.6488 28.6712 26.9538C28.0301 27.2588 27.5056 27.6046 27.1074 27.9893C26.7033 28.3739 26.3925 28.8304 26.1768 29.3549C25.9573 29.8756 25.8116 30.5011 25.73 31.216C25.6523 31.9367 25.6135 32.7817 25.6174 33.7588V38.4406H37.7316V33.7588H37.7335ZM46.5278 15.7177C45.9838 15.7119 45.4515 15.7332 44.929 15.7779C44.4064 15.8226 43.9072 15.9236 43.4293 16.0849C42.9533 16.2442 42.5162 16.4948 42.118 16.8347C41.7139 17.1708 41.3662 17.6292 41.0709 18.2159C40.7737 18.7968 40.5445 19.5311 40.3813 20.4169C40.2181 21.3066 40.1365 22.3829 40.1326 23.6436V30.7284C40.1365 31.9891 40.2181 33.0653 40.3813 33.9609C40.5445 34.8525 40.7737 35.5927 41.0709 36.1832C41.3643 36.7718 41.7139 37.2381 42.118 37.5839C42.5162 37.9296 42.9533 38.19 43.4293 38.3551C43.9072 38.5202 44.4064 38.631 44.929 38.6815C45.4515 38.732 45.9838 38.7514 46.5278 38.7475C47.0717 38.7514 47.604 38.732 48.1265 38.6815C48.6491 38.631 49.1484 38.5222 49.6262 38.3551C50.1022 38.19 50.5393 37.9296 50.9414 37.5839C51.3416 37.2381 51.6893 36.7738 51.9826 36.1832C52.2799 35.5927 52.5091 34.8525 52.6723 33.9609C52.8355 33.0653 52.919 31.9891 52.9229 30.7284V23.6436C52.919 22.3829 52.8374 21.3066 52.6723 20.4169C52.5091 19.5311 52.2799 18.7968 51.9826 18.2159C51.6893 17.6312 51.3396 17.1708 50.9414 16.8347C50.5393 16.4948 50.1022 16.2442 49.6262 16.0849C49.1484 15.9236 48.6491 15.8245 48.1265 15.7779C47.604 15.7332 47.0717 15.7138 46.5278 15.7177ZM46.5278 20.3994C47.0328 20.3897 47.4486 20.4305 47.7788 20.5102C48.1071 20.5956 48.3655 20.7705 48.55 21.0405C48.7346 21.3105 48.8647 21.7262 48.9385 22.2857C49.0143 22.8452 49.0512 23.597 49.0493 24.5431V29.7959C49.0532 30.7459 49.0143 31.5113 48.9385 32.0824C48.8647 32.6535 48.7346 33.0828 48.55 33.3684C48.3655 33.652 48.1052 33.8443 47.7788 33.9337C47.4505 34.025 47.0348 34.0677 46.5278 34.058C46.0207 34.0677 45.605 34.0231 45.2767 33.9279C44.9484 33.8327 44.692 33.6443 44.5035 33.3529C44.319 33.0615 44.1908 32.6321 44.115 32.0571C44.0412 31.4821 44.0023 30.7167 44.0043 29.7667V24.6033C44.0023 23.6533 44.0393 22.8918 44.115 22.3265C44.1908 21.7554 44.319 21.3358 44.5035 21.0599C44.692 20.7802 44.9484 20.5995 45.2767 20.5141C45.605 20.4286 46.0207 20.3897 46.5278 20.3994Z" fill="black"/>
</svg>
