<svg width="108" height="55" viewBox="0 0 108 55" fill="none" xmlns="http://www.w3.org/2000/svg">
<path fill-rule="evenodd" clip-rule="evenodd" d="M19.8322 22.5951C19.8322 21.0488 19.1931 19.6482 18.1635 18.6342C17.132 17.624 15.7022 16.9965 14.1268 16.9965C12.5493 16.9965 11.1196 17.624 10.088 18.6342C9.05845 19.6463 8.41933 21.0488 8.41933 22.5951V23.6325H7.36254H3.20921V21.5598H6.37763C6.61269 19.86 7.41694 18.3311 8.59611 17.1752L8.59999 17.1713C10.0142 15.7843 11.9704 14.9237 14.1268 14.9237C16.2831 14.9237 18.2354 15.7843 19.6516 17.1713L19.6555 17.1752C20.1314 17.6434 20.5471 18.1699 20.889 18.7468C21.2309 18.1699 21.6467 17.6434 22.1226 17.1752L22.1265 17.1713C23.5407 15.7843 25.4969 14.9237 27.6513 14.9237C29.8076 14.9237 31.7619 15.7843 33.1761 17.1713L33.18 17.1752C33.6559 17.6434 34.0717 18.1699 34.4136 18.7468C34.7555 18.1699 35.1712 17.6434 35.6471 17.1752L35.651 17.1713C37.0653 15.7843 39.0215 14.9237 41.1778 14.9237C43.3341 14.9237 45.2864 15.7843 46.7026 17.1713L46.7065 17.1752C47.8857 18.3311 48.6899 19.858 48.925 21.5598H52.0526V23.6325H47.9401H46.8833V22.5951C46.8833 21.0488 46.2441 19.6482 45.2146 18.6342C44.183 17.624 42.7533 16.9965 41.1778 16.9965C39.6004 16.9965 38.1706 17.624 37.1391 18.6342C36.1095 19.6463 35.4704 21.0488 35.4704 22.5951H33.3568C33.3568 21.0488 32.7177 19.6482 31.6881 18.6342C30.6565 17.624 29.2268 16.9965 27.6494 16.9965C26.0719 16.9965 24.6441 17.624 23.6106 18.6342C22.5811 19.6463 21.9419 21.0488 21.9419 22.5951H19.8303H19.8322ZM1.05679 0.56189H107.771V54.4464H0V0.56189H1.05679ZM53.8845 2.63465H2.11163V52.3755H53.8845V2.63465ZM8.77094 11.427H46.487V13.4998H8.77094V11.427ZM48.3461 34.0877C48.3422 33.3553 48.2489 32.7376 48.0547 32.2325C47.8624 31.7235 47.5865 31.3117 47.2252 30.9873C46.8677 30.6667 46.4345 30.4181 45.9333 30.2432C45.4321 30.0703 44.8727 29.9499 44.253 29.8838C43.6352 29.8139 42.9669 29.7847 42.2521 29.7867C41.4439 29.7847 40.7018 29.8178 40.0219 29.8955C39.3439 29.9712 38.7398 30.1073 38.2095 30.3132C37.6772 30.5211 37.2284 30.8104 36.8574 31.1951C36.4883 31.5797 36.2066 32.0732 36.0124 32.6871C35.8181 33.299 35.721 34.0488 35.721 34.9366V38.4275C35.721 39.2978 35.8084 40.0379 35.9832 40.644C36.16 41.2501 36.4222 41.7475 36.7719 42.136C37.1235 42.5226 37.5587 42.8237 38.0812 43.0354C38.6077 43.2452 39.2157 43.3948 39.9093 43.4764C40.6067 43.558 41.3876 43.5968 42.254 43.593C43.235 43.5968 44.0723 43.5561 44.7775 43.4706C45.4788 43.3871 46.0596 43.2296 46.5239 43.0121C46.9843 42.7906 47.3514 42.4779 47.6176 42.0719C47.8837 41.6698 48.0741 41.151 48.1829 40.5197C48.2956 39.8883 48.348 39.1191 48.3461 38.2139V35.8555H42.0869V38.3576H44.6201C44.624 38.8218 44.5851 39.2026 44.5133 39.5037C44.4394 39.8048 44.3132 40.0379 44.1403 40.203C43.9616 40.3682 43.7207 40.4847 43.4118 40.5508C43.1049 40.6168 42.7183 40.646 42.254 40.644C41.7761 40.6499 41.3662 40.6188 41.0185 40.5567C40.6727 40.4945 40.3852 40.3682 40.1637 40.1817C39.9403 39.9952 39.7713 39.7232 39.6645 39.358C39.5537 38.9967 39.5013 38.5188 39.5013 37.9244V35.7292C39.4974 35.2941 39.5071 34.9133 39.5343 34.5831C39.5596 34.2548 39.6179 33.9712 39.7092 33.738C39.8005 33.503 39.9442 33.3126 40.1443 33.1649C40.3425 33.0192 40.6125 32.9124 40.9544 32.8444C41.2963 32.7764 41.7275 32.7434 42.2559 32.7434C42.5337 32.7395 42.8115 32.757 43.0893 32.7939C43.3671 32.8308 43.6197 32.8949 43.8508 32.992C44.084 33.0872 44.2666 33.2252 44.4064 33.402C44.5482 33.5788 44.6182 33.8099 44.6201 34.0916H48.3461V34.0877ZM27.9951 40.2963H27.9582L24.986 29.913H21.2601L25.1511 43.4104H30.8761L34.8934 29.913H31.0956L27.9932 40.2963H27.9951ZM11.7742 29.913H8.10268V43.4104H11.7742V38.1186H12.8757L16.7104 43.4104H21.2601L16.0111 36.5354L20.856 29.913H16.4152L12.8738 34.9871H11.7723V29.913H11.7742ZM103.501 45.6715V48.4729H95.4294C95.5168 47.4102 95.781 46.4039 96.222 45.4481C96.6669 44.4885 97.5255 43.2355 98.8038 41.6756C99.8139 40.4381 100.436 39.5989 100.667 39.1618C101.013 38.5208 101.185 37.8816 101.185 37.2367C101.185 36.549 101.042 36.0303 100.758 35.6787C100.471 35.329 100.096 35.1522 99.6313 35.1522C98.6173 35.1522 98.0675 35.9759 97.9898 37.6233L95.6956 37.293C95.8354 35.6903 96.2492 34.5131 96.9388 33.7652C97.6285 33.0153 98.5473 32.6405 99.6935 32.6405C100.954 32.6405 101.902 33.0814 102.541 33.9633C103.179 34.8453 103.501 35.8575 103.501 36.9997C103.501 37.6466 103.419 38.2721 103.254 38.8782C103.095 39.4843 102.842 40.0943 102.503 40.7081C102.163 41.322 101.599 42.1049 100.807 43.0567C100.07 43.9542 99.6022 44.5468 99.404 44.8362C99.2098 45.1237 99.0485 45.4015 98.93 45.6754H103.501V45.6715ZM65.074 11.0055L62.7798 11.6776C62.6088 10.1468 62.0785 9.38147 61.1829 9.38147C60.606 9.38147 60.1417 9.70775 59.7901 10.3644C59.4384 11.0229 59.2636 12.1342 59.2636 13.696C59.2636 15.423 59.4384 16.641 59.7901 17.3559C60.1378 18.0688 60.6079 18.4243 61.1926 18.4243C61.6297 18.4243 61.993 18.2204 62.2747 17.8124C62.5564 17.4064 62.7603 16.6837 62.8808 15.6522L65.177 16.2952C64.703 19.8055 63.3489 21.5598 61.1091 21.5598C59.6793 21.5598 58.6167 20.8176 57.9251 19.3393C57.2316 17.859 56.8839 16.0815 56.8839 14.001C56.8839 11.5086 57.2763 9.6087 58.0631 8.30715C58.8479 7.00559 59.8775 6.35675 61.1499 6.35675C62.1814 6.35675 63.0226 6.72978 63.6734 7.47186C64.3203 8.21394 64.7904 9.38916 65.0721 11.0035L65.074 11.0055ZM66.2745 13.7543C66.2745 12.3303 66.4843 11.0327 66.902 9.86324C67.3197 8.69572 67.8636 7.81954 68.5357 7.23482C69.2118 6.65203 69.9675 6.35675 70.8106 6.35675C72.2248 6.35675 73.334 7.10856 74.1402 8.61021C74.9503 10.1138 75.3544 11.8661 75.3544 13.8747C75.3544 15.3725 75.1446 16.7265 74.723 17.9309C74.3034 19.1353 73.7517 20.0445 73.0659 20.6506C72.3841 21.2586 71.6362 21.5617 70.8222 21.5617C69.5168 21.5617 68.4289 20.8856 67.5683 19.5375C66.7077 18.1834 66.2765 16.2564 66.2765 13.7543H66.2745ZM68.6523 13.9602C68.6523 15.4308 68.866 16.54 69.2895 17.2977C69.7169 18.0494 70.2317 18.4262 70.8358 18.4262C71.4244 18.4262 71.9276 18.0474 72.3491 17.2879C72.7668 16.5322 72.9766 15.4133 72.9766 13.933C72.9766 12.4896 72.7629 11.3901 72.3394 10.6325C71.912 9.87294 71.4011 9.49406 70.8067 9.49406C70.2181 9.49406 69.713 9.87294 69.2895 10.6325C68.866 11.3882 68.6562 12.4993 68.6562 13.9602H68.6523ZM76.3878 17.0858L78.7248 16.4934C78.9268 18.0242 79.5543 18.7895 80.5994 18.7895C81.155 18.7895 81.5708 18.6458 81.8466 18.3505C82.1225 18.0572 82.2604 17.6784 82.2604 17.2063C82.2604 16.8897 82.1982 16.6371 82.0739 16.4545C81.9437 16.268 81.6912 16.1088 81.3143 15.9747C79.4028 15.2929 78.1848 14.6401 77.6661 14.0204C77.0211 13.2395 76.6967 12.1769 76.6967 10.8229C76.6967 9.47276 77.0134 8.39068 77.6486 7.57477C78.2819 6.76276 79.2027 6.35675 80.4129 6.35675C81.5649 6.35675 82.443 6.65979 83.0433 7.27171C83.6435 7.87781 84.067 8.86275 84.3079 10.2168L82.1147 10.8928C81.9204 9.71556 81.3687 9.12887 80.4576 9.12887C79.8826 9.12887 79.4766 9.24154 79.2338 9.46883C78.989 9.69223 78.8686 9.98751 78.8686 10.3469C78.8686 10.6752 78.9793 10.9394 79.1949 11.1551C79.4125 11.3746 80.1021 11.7009 81.2599 12.136C82.5634 12.6217 83.4473 13.2142 83.9116 13.9194C84.3701 14.6188 84.5974 15.557 84.5974 16.7226C84.5974 18.1232 84.2419 19.2849 83.5309 20.194C82.8199 21.1051 81.8427 21.5617 80.5917 21.5617C79.4572 21.5617 78.5267 21.1789 77.8098 20.4174C77.0891 19.6559 76.6132 18.5467 76.3859 17.0858H76.3878ZM95.8918 6.38587L95.2507 9.77379C94.7689 9.97582 94.4095 10.4382 94.1745 11.1647C93.9414 11.8874 93.8229 12.6684 93.8229 13.494C93.8229 14.5896 94.0133 15.5939 94.3882 16.4992C94.765 17.3986 95.3401 18.026 96.1191 18.3699V12.1535C96.1191 10.6188 96.2026 9.48054 96.3677 8.74234C96.5309 8.00997 96.8514 7.43104 97.3254 7.01143C97.7975 6.59571 98.4191 6.38587 99.1845 6.38587C100.239 6.38587 101.141 6.7414 101.896 7.44463C102.65 8.14786 103.208 9.07255 103.575 10.2129C103.942 11.3551 104.123 12.4857 104.123 13.6047C104.123 15.5318 103.672 17.2452 102.767 18.743C101.865 20.2427 100.593 21.1887 98.9514 21.5908V26.7426H96.1191V21.5908C94.5086 21.2819 93.2381 20.402 92.3057 18.9489C91.3732 17.4977 90.907 15.7512 90.907 13.7115C90.907 11.4114 91.3849 9.55819 92.3445 8.15756C93.1721 6.95896 94.3532 6.36649 95.8918 6.38397V6.38587ZM98.9533 18.5661C100.455 17.657 101.209 15.8406 101.209 13.119C101.209 12.1535 101.061 11.3143 100.768 10.5994C100.472 9.88063 100.107 9.52129 99.6682 9.52129C99.4487 9.52129 99.2719 9.66118 99.1457 9.93703C99.0174 10.2129 98.9553 11.122 98.9553 12.6684V18.5661H98.9533ZM56.474 44.8032V41.7785L63.4616 38.8258L56.474 35.8749V32.893L66.4746 37.5903V40.1487L56.474 44.8012V44.8032ZM56.474 48.399V45.5919H66.4746V48.399H56.474ZM76.2965 32.6521C77.4543 32.6521 78.3907 33.2446 79.1075 34.4315C79.8243 35.6185 80.1798 37.6951 80.1798 40.6615C80.1798 43.622 79.8243 45.6949 79.1075 46.8838C78.3907 48.0726 77.4582 48.6632 76.3062 48.6632C75.1465 48.6632 74.2082 48.0745 73.4933 46.8973C72.7765 45.7201 72.4191 43.6337 72.4191 40.6324C72.4191 37.6854 72.7765 35.6204 73.4933 34.4315C74.2082 33.2426 75.1426 32.6521 76.2965 32.6521ZM76.3004 35.1522C75.8517 35.1522 75.4903 35.4728 75.2242 36.1139C74.9561 36.7549 74.824 38.2701 74.824 40.6615C74.824 43.0567 74.9561 44.5701 75.2242 45.2092C75.4923 45.8444 75.8517 46.1649 76.3004 46.1649C76.755 46.1649 77.1144 45.8425 77.3805 45.2034C77.6447 44.5643 77.7768 43.051 77.7768 40.6635C77.7768 38.2721 77.6447 36.7549 77.3805 36.1158C77.1163 35.4747 76.755 35.1542 76.3004 35.1542V35.1522ZM82.1768 48.399V45.3938H84.4575V48.399H82.1768ZM86.3943 44.7585L88.6147 44.4302C88.7196 45.5997 89.1509 46.1844 89.9085 46.1844C90.4175 46.1844 90.8351 45.893 91.1615 45.3102C91.4878 44.7294 91.6957 43.5522 91.7889 41.7747C91.5034 42.2098 91.1809 42.5381 90.8235 42.7576C90.4641 42.981 90.0678 43.0898 89.6288 43.0898C88.7215 43.0898 87.9192 42.6216 87.218 41.6891C86.5206 40.7567 86.1689 39.5173 86.1689 37.971C86.1689 36.3198 86.5361 35.0182 87.2723 34.0702C88.0086 33.1222 88.9139 32.6482 89.9998 32.6482C91.2042 32.6482 92.1988 33.2582 92.9798 34.4801C93.7627 35.7059 94.1531 37.7301 94.1531 40.5586C94.1531 43.4356 93.7471 45.5045 92.9312 46.7653C92.1134 48.026 91.0566 48.6593 89.757 48.6593C88.8536 48.6593 88.1096 48.3407 87.5229 47.7016C86.9363 47.0663 86.5575 46.0815 86.3923 44.7546L86.3943 44.7585ZM91.5889 38.1924C91.5889 37.2172 91.416 36.4635 91.0702 35.9371C90.7283 35.4145 90.3339 35.1522 89.8949 35.1522C89.4695 35.1522 89.1159 35.3679 88.8362 35.803C88.5545 36.2343 88.4107 36.9531 88.4107 37.9594C88.4107 38.9695 88.5623 39.7057 88.8711 40.1758C89.18 40.6421 89.5588 40.8772 90.0134 40.8772C90.4466 40.8772 90.8176 40.6537 91.1265 40.2069C91.4354 39.7582 91.5889 39.088 91.5889 38.1924Z" fill="black"/>
</svg>
