<svg width="54" height="55" viewBox="0 0 54 55" fill="none" xmlns="http://www.w3.org/2000/svg">
<path fill-rule="evenodd" clip-rule="evenodd" d="M0 0.261719H53.8845V54.1461H0V0.261719ZM37.5451 27.6935C36.2144 29.1407 35.4878 31.1552 36.6262 32.2935C37.3139 32.9832 37.6985 33.5116 39.2585 33.3873C40.8378 33.2571 42.3064 32.4645 42.0442 30.2849C41.8344 28.5579 40.4376 27.3127 39.781 26.0325C39.0914 24.694 38.9962 24.2745 38.4095 23.2371C38.6776 24.5911 38.7573 26.3705 37.5451 27.6935ZM15.4749 17.3392L26.8237 35.9476L26.9481 36.1516L27.051 35.9728L37.751 17.3646L38.6563 15.7929L39.5984 17.3392L50.9472 35.9476L51.9477 37.5853H50.0303H27.9815H27.8261H26.1263H25.9088H3.85999H2.00284L2.92948 35.9728L13.6294 17.3646L14.5347 15.7929L15.4769 17.3392H15.4749ZM23.9875 35.4289L14.5833 20.0065L5.71325 35.4289H23.9875ZM48.111 35.4289L38.7068 20.0065L29.8367 35.4289H48.111ZM13.4216 27.6915C12.0909 29.1387 11.3643 31.1533 12.5027 32.2916C13.1924 32.9813 13.577 33.5096 15.1369 33.3853C16.7143 33.2551 18.1849 32.4626 17.9226 30.283C17.7128 28.556 16.318 27.3108 15.6595 26.0306C14.9699 24.6921 14.8727 24.2725 14.288 23.2351C14.5561 24.5891 14.6357 26.3685 13.4235 27.6915H13.4216Z" fill="black"/>
</svg>
