<svg width="54" height="54" viewBox="0 0 54 54" fill="none" xmlns="http://www.w3.org/2000/svg">
<path fill-rule="evenodd" clip-rule="evenodd" d="M0 0.0936279H53.8845V53.978H0V0.0936279ZM1.97176 1.85166H52.344L34.3009 19.9375C34.7283 20.6174 34.9517 21.5129 34.9711 22.626V23.3234H31.6589C31.6589 23.0689 31.6473 22.8339 31.624 22.6222L28.7586 25.4934C30.2233 25.5284 31.4394 25.6992 32.401 26.0023C33.3781 26.3151 34.1144 26.8357 34.6175 27.5642C35.1207 28.2985 35.3732 29.2873 35.3732 30.5325C35.3732 31.9662 35.177 33.089 34.7866 33.9049C34.398 34.7189 33.6734 35.323 32.6205 35.7154C31.5715 36.1039 30.0582 36.3002 28.0826 36.3002C26.441 36.3002 25.1142 36.1759 24.1118 35.9233C23.1075 35.6708 22.3285 35.1637 21.7671 34.3964C21.5087 34.0409 21.3106 33.6077 21.1668 33.0987L1.97176 52.3385V1.84976V1.85166ZM23.9448 30.3168L26.0545 28.2014C26.5323 28.2577 27.051 28.2966 27.6047 28.3219C28.8518 28.3937 29.7746 28.4908 30.3749 28.6171C30.9732 28.7472 31.4044 28.9746 31.6686 29.3067C31.9387 29.6389 32.0688 30.1518 32.0688 30.8453C32.0688 31.4708 31.962 31.9739 31.7425 32.3547C31.5229 32.7316 31.1266 33.0113 30.5555 33.1959C29.9844 33.3765 29.1607 33.4678 28.0903 33.4678C27.2162 33.4678 26.5304 33.4328 26.0389 33.3629C25.5455 33.2949 25.1686 33.1609 24.8986 32.9549C24.6363 32.7471 24.4518 32.4421 24.3527 32.0342C24.2575 31.6301 24.2031 31.057 24.2031 30.3168H23.9448ZM48.0139 18.1075V36.0865H44.7095V20.9729L40.0608 25.6313L38.0696 23.5139L43.8469 18.1056H48.0139V18.1075ZM9.72283 20.9262V25.6449H18.1771V28.2247H9.72283V33.291H18.6822V36.1331H6.30187V18.059H18.6064V20.9262H9.72283ZM20.9104 30.3188H23.9448L21.1668 33.1006C21.0036 32.5159 20.9182 31.8283 20.9085 31.0376V30.3168L20.9104 30.3188ZM26.0545 28.2033C25.2366 28.1062 24.5256 27.9605 23.9253 27.7662C22.9715 27.4593 22.2391 26.9251 21.7282 26.1694C21.2173 25.4137 20.959 24.3511 20.959 22.9932C20.959 21.9073 21.1765 20.9943 21.6039 20.2444C22.0371 19.4946 22.7714 18.9157 23.8146 18.5077C24.8539 18.0998 26.2546 17.8938 28.0126 17.8938C30.2991 17.8938 32.0203 18.2221 33.18 18.8748C33.6443 19.1351 34.0173 19.4907 34.3009 19.9414L31.622 22.6241C31.5773 22.1987 31.488 21.8606 31.3501 21.6062C31.1461 21.2254 30.7945 20.9651 30.2894 20.8213C29.7921 20.6795 29.0539 20.6096 28.0884 20.6096C26.6489 20.6096 25.6737 20.8136 25.1628 21.2176C24.648 21.6236 24.3916 22.2201 24.3916 23.0166C24.3916 23.6984 24.4673 24.1918 24.6227 24.4968C24.7743 24.7998 25.1531 25.0329 25.7534 25.1883C26.3575 25.3457 27.3385 25.4448 28.6906 25.4934L28.7566 25.4953L26.0545 28.2053V28.2033Z" fill="black"/>
</svg>
