<svg width="54" height="54" viewBox="0 0 54 54" fill="none" xmlns="http://www.w3.org/2000/svg">
<path fill-rule="evenodd" clip-rule="evenodd" d="M0 0H53.8845V53.8845H0V0ZM18.4258 43.6449C18.4258 43.1223 18.3597 42.6833 18.2237 42.32C18.0878 41.9607 17.8954 41.6654 17.6429 41.4323C17.3923 41.203 17.0912 41.0263 16.7415 40.9C16.3899 40.7776 15.9975 40.6921 15.5643 40.6436C15.133 40.595 14.6649 40.5736 14.1637 40.5756C13.5984 40.5736 13.0777 40.5969 12.6037 40.6513C12.1278 40.7057 11.7062 40.8048 11.3352 40.9486C10.9622 41.0981 10.6475 41.306 10.3872 41.5799C10.1269 41.8538 9.93069 42.2054 9.79471 42.6425C9.66066 43.0796 9.59073 43.6158 9.59073 44.2491V46.7415C9.59073 47.3631 9.65484 47.8895 9.77528 48.3228C9.89767 48.754 10.0842 49.1076 10.327 49.3854C10.5737 49.6632 10.8767 49.8749 11.2439 50.0284C11.6111 50.178 12.0365 50.2848 12.5241 50.3431C13.0117 50.3994 13.5595 50.4266 14.1637 50.4266C14.8514 50.4266 15.4361 50.4014 15.9295 50.3372C16.421 50.277 16.827 50.1663 17.1534 50.0109C17.4758 49.8516 17.7323 49.6301 17.9188 49.3407C18.1072 49.0532 18.2393 48.6841 18.3151 48.2334C18.3947 47.7827 18.4297 47.2329 18.4277 46.586V44.9037H14.051V46.689H15.8246C15.8246 47.0212 15.7994 47.2932 15.7469 47.5088C15.6945 47.7205 15.607 47.8895 15.4866 48.0061C15.3642 48.1246 15.1952 48.2081 14.9776 48.2548C14.7659 48.3033 14.492 48.3247 14.1676 48.3228C13.8354 48.3266 13.5459 48.3072 13.3031 48.2586C13.0603 48.2159 12.8582 48.1246 12.7028 47.9925C12.5474 47.8585 12.4289 47.6642 12.3551 47.4058C12.2774 47.1475 12.2405 46.8075 12.2405 46.384V44.8163C12.2366 44.5074 12.2444 44.2335 12.2657 43.9985C12.2813 43.7654 12.3221 43.5614 12.3842 43.3943C12.4483 43.2292 12.5493 43.0913 12.6892 42.9864C12.8291 42.8815 13.0175 42.8057 13.2565 42.7552C13.4973 42.7047 13.7985 42.6833 14.1676 42.6833C14.3618 42.6794 14.5561 42.695 14.7503 42.7183C14.9465 42.7435 15.1253 42.7921 15.2846 42.8582C15.4477 42.9281 15.576 43.0272 15.675 43.1515C15.7722 43.2778 15.8227 43.4448 15.8266 43.6449H18.4297H18.4258ZM23.735 0.988795H30.235V4.8721H23.735V0.988795ZM30.7323 3.78423C33.8696 4.50494 36.6728 6.10178 38.8777 8.30277L38.8797 8.30083C41.9335 11.3566 43.8236 15.5779 43.8236 20.2382C43.8236 24.8967 41.9335 29.118 38.8797 32.1718L38.8777 32.1757C35.822 35.2275 31.5987 37.1196 26.9422 37.1196C22.2819 37.1196 18.0606 35.2275 15.0048 32.1757L15.0068 32.1718C11.951 29.116 10.0589 24.8967 10.0589 20.2382C10.0589 15.5779 11.951 11.3566 15.0048 8.30083C17.2058 6.09984 20.011 4.50494 23.1522 3.78423V3.0946C19.8245 3.82697 16.8503 5.50345 14.5289 7.82489C11.3546 11.0011 9.3887 15.3933 9.3887 20.2382C9.3887 25.087 11.3546 29.4754 14.5289 32.6516L14.5308 32.6477C17.7051 35.8239 22.0954 37.7898 26.9422 37.7898C31.7891 37.7898 36.1775 35.8239 39.3537 32.6477C42.5279 29.4715 44.4938 25.0812 44.4938 20.2363C44.4938 15.3895 42.5299 11.0011 39.3537 7.82489V7.821C37.0303 5.49957 34.0581 3.82308 30.7323 3.09071V3.78034V3.78423ZM23.5096 0.672148H30.3749H30.7323V1.03153V1.1714C34.5767 1.93097 38.0152 3.82697 40.6824 6.49225H40.6844C44.2024 10.0103 46.3801 14.8727 46.3801 20.2382C46.3801 25.6057 44.2024 30.4662 40.6844 33.9823C37.1682 37.4985 32.3078 39.6761 26.9422 39.6761C21.5748 39.6761 16.7143 37.4985 13.1962 33.9823V33.9784C9.68009 30.4623 7.50241 25.6018 7.50241 20.2382C7.50241 14.8727 9.68009 10.0142 13.1962 6.49807L13.2001 6.49225C15.8673 3.82697 19.3058 1.93291 23.1522 1.1714V1.03153V0.672148H23.5096ZM28.6712 5.34221H25.2133C21.7632 5.73462 18.6667 7.30426 16.3394 9.63541C13.6256 12.3493 11.9452 16.0985 11.9452 20.2382C11.9452 24.3799 13.6217 28.1311 16.3336 30.8411H16.3394C19.0494 33.5549 22.8006 35.2334 26.9422 35.2334C31.0839 35.2334 34.8351 33.5549 37.547 30.843C40.257 28.1292 41.9373 24.378 41.9373 20.2363C41.9373 16.0966 40.257 12.3473 37.5431 9.63347V9.62958C35.2139 7.30038 32.1213 5.73462 28.6712 5.34027V5.34221ZM42.6619 46.9357C42.6639 47.3145 42.6483 47.6215 42.6212 47.8565C42.5901 48.0896 42.5318 48.2684 42.4502 48.3946C42.3686 48.5151 42.2482 48.5986 42.0908 48.6452C41.9373 48.688 41.7314 48.7093 41.4789 48.7074C41.2302 48.7113 41.036 48.6899 40.8825 48.6452C40.731 48.5986 40.6144 48.5151 40.5367 48.3927C40.4551 48.2684 40.4046 48.0896 40.3735 47.8507C40.3463 47.6156 40.3347 47.3068 40.3366 46.9202C40.3347 46.5996 40.3483 46.3218 40.3774 46.0926C40.4085 45.8634 40.4629 45.6769 40.5425 45.5351C40.6222 45.3913 40.7388 45.2864 40.8903 45.2223C41.0418 45.1563 41.238 45.1232 41.4808 45.1232C41.7334 45.1213 41.9373 45.1563 42.0928 45.2223C42.2501 45.2864 42.3706 45.3933 42.4521 45.5351C42.5337 45.6808 42.592 45.8673 42.6231 46.0984C42.6503 46.3277 42.6658 46.6055 42.6639 46.9338L42.6619 46.9357ZM42.7125 44.624H42.6114C42.524 44.3209 42.39 44.0839 42.2113 43.9091C42.0325 43.7343 41.813 43.6099 41.5547 43.5381C41.2982 43.4642 41.0088 43.4273 40.6844 43.4293C40.1404 43.4273 39.6761 43.5128 39.2993 43.6877C38.9166 43.8644 38.6291 44.1383 38.429 44.5113C38.2289 44.8824 38.1337 45.368 38.1298 45.9605V47.503C38.1279 48.1868 38.2114 48.7404 38.3843 49.1678C38.5572 49.5971 38.8311 49.9099 39.2118 50.108C39.5907 50.3081 40.0841 50.4072 40.6999 50.4052C40.9719 50.4072 41.2244 50.38 41.4614 50.3217C41.6984 50.2615 41.9102 50.1508 42.0986 49.9895C42.2831 49.8283 42.4385 49.5932 42.5609 49.2902H42.6639V53.2201H44.8727V43.5614H42.6639L42.7144 44.6279L42.7125 44.624ZM32.9003 40.5775C32.5603 40.5756 32.2262 40.5853 31.8979 40.6047C31.5715 40.6241 31.2587 40.6669 30.9576 40.7349C30.6604 40.8048 30.3885 40.9097 30.1379 41.0554C29.8834 41.1992 29.6677 41.3954 29.4832 41.646C29.2986 41.8907 29.1529 42.2054 29.05 42.5862C28.949 42.9669 28.8946 43.4273 28.8946 43.9674V46.9979C28.8946 47.5379 28.949 47.9983 29.05 48.383C29.1529 48.7637 29.2986 49.0784 29.4832 49.3329C29.6677 49.5855 29.8834 49.7855 30.1379 49.9312C30.3885 50.0769 30.6604 50.1896 30.9576 50.2595C31.2587 50.3314 31.5715 50.378 31.8979 50.3994C32.2262 50.4208 32.5603 50.4286 32.9003 50.4286C33.2422 50.4286 33.5744 50.4208 33.9007 50.3994C34.229 50.378 34.5418 50.3334 34.8409 50.2595C35.1382 50.1896 35.4121 50.0789 35.6666 49.9312C35.9172 49.7855 36.1347 49.5835 36.3193 49.3329C36.5038 49.0784 36.6495 48.7637 36.7505 48.383C36.8535 48.0003 36.906 47.5399 36.906 46.9979V43.9674C36.904 43.4273 36.8535 42.9669 36.7505 42.5862C36.6476 42.2054 36.5038 41.8907 36.3193 41.646C36.1347 41.3954 35.9172 41.1992 35.6666 41.0554C35.4121 40.9097 35.1382 40.8029 34.8409 40.7349C34.5418 40.6669 34.229 40.6241 33.9007 40.6047C33.5744 40.5853 33.2402 40.5756 32.9003 40.5775ZM32.9003 42.5823C33.2189 42.5765 33.4792 42.5959 33.6831 42.6289C33.891 42.6658 34.0522 42.7416 34.1669 42.8562C34.2834 42.9728 34.365 43.1495 34.4116 43.3904C34.4563 43.6294 34.4816 43.9499 34.4796 44.3559V46.6035C34.4816 47.0115 34.4563 47.3398 34.4116 47.5826C34.3631 47.8274 34.2815 48.01 34.1669 48.1324C34.0522 48.2548 33.8891 48.3363 33.6831 48.3733C33.4792 48.4102 33.2169 48.4315 32.9003 48.4277C32.5836 48.4315 32.3233 48.4102 32.1174 48.3713C31.9115 48.3305 31.7502 48.2489 31.6337 48.1265C31.5171 48.0022 31.4355 47.8177 31.3908 47.571C31.3442 47.3242 31.3209 46.9979 31.3209 46.5899V44.3812C31.3209 43.9752 31.3442 43.6488 31.3908 43.4099C31.4355 43.1651 31.5171 42.9844 31.6337 42.8659C31.7502 42.7494 31.9115 42.6717 32.1174 42.6348C32.3214 42.5998 32.5836 42.5804 32.9003 42.5862V42.5823ZM26.171 40.6669H23.1638L19.6593 43.5711L21.1105 45.2146L23.6029 42.9417V50.3003H26.173V40.6688L26.171 40.6669Z" fill="#727272"/>
</svg>
