<svg width="54" height="55" viewBox="0 0 54 55" fill="none" xmlns="http://www.w3.org/2000/svg">
<path fill-rule="evenodd" clip-rule="evenodd" d="M0 0.385803H53.8845V54.2703H0V0.385803ZM23.9817 26.5763C21.4116 29.3756 20.0051 33.2686 22.2042 35.4696C23.5368 36.8022 24.2789 37.826 27.2958 37.5812C30.3457 37.3306 33.1878 35.7979 32.6807 31.5843C32.2767 28.2469 29.5784 25.838 28.306 23.3651C26.9733 20.7775 26.7849 19.9655 25.6562 17.9607C26.1749 20.5774 26.3284 24.0198 23.9817 26.5763ZM27.4512 10.2019L49.4534 44.2056L50.5296 45.8685H48.5539H5.29948H3.35685L4.3845 44.223L25.6368 10.2193L26.5343 8.78571L27.4512 10.2038V10.2019ZM46.5763 43.7121L26.5673 12.7894L7.24016 43.7121H46.5763Z" fill="black"/>
</svg>
