<svg width="55" height="55" viewBox="0 0 55 55" fill="none" xmlns="http://www.w3.org/2000/svg">
<path fill-rule="evenodd" clip-rule="evenodd" d="M0.565308 0.155609H54.4498V54.04H0.565308V0.155609ZM14.0607 19.3817H8.54755C8.54561 18.9252 8.57086 18.5639 8.62719 18.2977C8.68159 18.0316 8.76902 17.8257 8.8914 17.6858C9.01573 17.5401 9.18279 17.4216 9.38677 17.3303C9.59463 17.2429 9.84716 17.1477 10.156 17.0448C10.461 16.9418 10.8204 16.8019 11.2342 16.6193C11.6635 16.429 12.0365 16.2308 12.357 16.0327C12.6737 15.8345 12.9437 15.6053 13.1593 15.3469C13.3789 15.0847 13.5518 14.77 13.6858 14.395C13.8179 14.0221 13.9131 13.5655 13.9733 13.0235C14.0335 12.4835 14.0627 11.8288 14.0588 11.0673C14.0588 10.1076 13.9947 9.30536 13.8703 8.65264C13.746 8.00186 13.5653 7.47733 13.3303 7.07715C13.0952 6.68085 12.8136 6.37588 12.4814 6.16996C12.1511 5.9621 11.7781 5.82419 11.3644 5.75037C10.9486 5.67849 10.5018 5.64741 10.0142 5.65324C9.49166 5.64935 9.01378 5.69013 8.58641 5.78144C8.15903 5.87274 7.78022 6.03398 7.45385 6.26709C7.12749 6.49632 6.85164 6.81879 6.63018 7.23646C6.40872 7.65218 6.23971 8.18834 6.12704 8.83523C6.01242 9.48795 5.95609 10.2747 5.95609 11.2033V12.0483H8.54755V11.2266C8.54561 10.774 8.56309 10.4126 8.60194 10.1426C8.63885 9.87064 8.71073 9.66864 8.81369 9.53654C8.91665 9.4025 9.06429 9.31506 9.25855 9.27232C9.45281 9.23153 9.70535 9.21209 10.0142 9.21792C10.2881 9.21209 10.5174 9.23153 10.7058 9.27815C10.8923 9.32478 11.0419 9.41023 11.1526 9.54427C11.2653 9.67831 11.3469 9.87258 11.3954 10.1309C11.4459 10.3893 11.4712 10.7332 11.4693 11.1586C11.4731 11.4752 11.4654 11.7414 11.4498 11.959C11.4323 12.1766 11.3916 12.3572 11.3313 12.5048C11.2653 12.6486 11.1681 12.7749 11.0322 12.8837C10.8981 12.9905 10.7116 13.0934 10.4746 13.1964C10.2396 13.2955 9.94041 13.4101 9.57714 13.5364C8.9555 13.7539 8.43099 13.9734 7.99973 14.2066C7.57041 14.4377 7.22074 14.7019 6.95265 14.9953C6.68457 15.2886 6.47671 15.6344 6.33101 16.0346C6.18532 16.4309 6.08624 16.9049 6.02991 17.4508C5.97746 17.9986 5.95414 18.6435 5.95609 19.3837V22.9484H14.0588V19.3837L14.0607 19.3817ZM42.594 36.3175V39.0586H45.7332L42.3317 45.0651V48.3074H48.5578V45.5663H45.0747L48.5578 39.4238V36.3175H42.594ZM34.8332 31.1773H32.0883V48.3074H34.8332V41.5937H38.4115V48.3074H41.1525V31.1773H38.4115V37.619H34.8332V31.1773ZM21.297 31.018C20.9318 31.0141 20.5763 31.0297 20.2266 31.0646C19.8769 31.0977 19.5428 31.1754 19.2223 31.2959C18.9056 31.4182 18.6142 31.6086 18.3461 31.867C18.0761 32.1215 17.843 32.473 17.6449 32.9179C17.4467 33.3589 17.2932 33.9184 17.1845 34.5925C17.0757 35.2705 17.0193 36.0883 17.0174 37.0479V42.4387C17.0193 43.3964 17.0757 44.2162 17.1845 44.8961C17.2952 45.5741 17.4467 46.1375 17.6449 46.5862C17.843 47.035 18.0742 47.3885 18.3461 47.6508C18.6142 47.913 18.9056 48.1112 19.2223 48.2374C19.5428 48.3637 19.8769 48.4473 20.2266 48.4861C20.5763 48.525 20.9318 48.5386 21.297 48.5366C21.6603 48.5405 22.0158 48.525 22.3674 48.4861C22.7171 48.4492 23.0492 48.3637 23.3698 48.2374C23.6864 48.1131 23.9817 47.915 24.2498 47.6508C24.5159 47.3885 24.749 47.035 24.9452 46.5862C25.1453 46.1375 25.2968 45.5741 25.4056 44.8961C25.5164 44.2162 25.5708 43.3945 25.5747 42.4387V37.0479C25.5727 36.0883 25.5164 35.2705 25.4056 34.5925C25.2968 33.9184 25.1453 33.3589 24.9452 32.9179C24.749 32.473 24.5159 32.1234 24.2498 31.867C23.9798 31.6086 23.6864 31.4182 23.3698 31.2959C23.0492 31.1735 22.7171 31.0977 22.3674 31.0646C22.0158 31.0297 21.6603 31.0141 21.297 31.018ZM21.297 34.5808C21.6369 34.573 21.9128 34.6041 22.1323 34.6643C22.3518 34.7284 22.5247 34.8625 22.649 35.0684C22.7714 35.2743 22.8608 35.591 22.9113 36.0164C22.9599 36.4418 22.9851 37.013 22.9851 37.7337V41.7297C22.9871 42.4543 22.9599 43.0351 22.9113 43.4683C22.8608 43.9035 22.7714 44.2298 22.649 44.4474C22.5267 44.665 22.3518 44.8068 22.1323 44.8767C21.9128 44.9447 21.635 44.9797 21.297 44.9719C20.959 44.9797 20.6792 44.9447 20.4597 44.8709C20.2421 44.799 20.0692 44.6533 19.943 44.4338C19.8206 44.2143 19.7332 43.8859 19.6827 43.4469C19.6322 43.0098 19.6069 42.427 19.6108 41.7024V37.7745C19.6069 37.0518 19.6322 36.471 19.6827 36.0417C19.7332 35.6085 19.8206 35.2879 19.943 35.0762C20.0692 34.8644 20.2421 34.7284 20.4597 34.6643C20.6792 34.5983 20.959 34.5691 21.297 34.5769V34.5808ZM7.59566 31.1773V40.7719H9.95401C10.0045 40.5019 10.0706 40.3057 10.1658 40.1853C10.2571 40.0687 10.3892 39.9929 10.564 39.9619C10.7369 39.9347 10.9661 39.923 11.2575 39.9269C11.6363 39.923 11.9374 39.9619 12.155 40.0377C12.3706 40.1173 12.5319 40.2552 12.631 40.4534C12.732 40.6515 12.7922 40.9254 12.8194 41.2751C12.8427 41.6286 12.8563 42.0774 12.8524 42.6213C12.8543 43.1711 12.8272 43.6024 12.7747 43.9229C12.7203 44.2415 12.6329 44.4785 12.5124 44.628C12.3901 44.7796 12.2288 44.8728 12.0249 44.9175C11.8228 44.9602 11.5742 44.9777 11.275 44.9738C11.0827 44.9758 10.9078 44.9622 10.7524 44.9311C10.597 44.9039 10.463 44.8359 10.3484 44.7368C10.2338 44.6339 10.1463 44.4784 10.0783 44.2686C10.0123 44.0608 9.9715 43.7791 9.95595 43.4197H7.35089C7.35089 44.459 7.43831 45.3118 7.60732 45.982C7.77827 46.6522 8.02887 47.1748 8.36106 47.5459C8.6913 47.915 9.1012 48.1792 9.59074 48.3229C10.0764 48.4725 10.6378 48.5444 11.273 48.5366C11.8675 48.5405 12.392 48.4938 12.8505 48.3948C13.305 48.2957 13.6974 48.117 14.0258 47.8586C14.3541 47.5945 14.6221 47.2253 14.83 46.7513C15.0379 46.2734 15.1933 45.6557 15.2904 44.9C15.3934 44.1463 15.438 43.2255 15.438 42.1415C15.4419 41.1469 15.3934 40.2979 15.2865 39.5869C15.1836 38.874 15.0087 38.2932 14.7659 37.8405C14.5211 37.3918 14.1909 37.0576 13.7732 36.842C13.3575 36.6244 12.8408 36.5195 12.2172 36.5234C11.8966 36.5195 11.6286 36.5273 11.411 36.5487C11.1973 36.5681 11.0108 36.6186 10.8554 36.6982C10.7 36.774 10.5543 36.8984 10.4144 37.0693C10.2745 37.2403 10.123 37.4772 9.95401 37.7784V34.4895H15.0281V31.1773H7.59566ZM4.24269 26.1537H50.7724V28.04H4.24269V26.1537ZM44.7522 18.9952H44.725L42.5046 5.81639H39.7189L42.627 22.9464H46.9047L49.9079 5.81639H47.0698L44.7522 18.9952ZM29.8173 5.65708C29.456 5.6532 29.0986 5.66878 28.7489 5.7018C28.3992 5.73677 28.0651 5.81447 27.7446 5.93491C27.426 6.05729 27.1326 6.24572 26.8665 6.50603C26.5965 6.76051 26.3634 7.11211 26.1671 7.55697C25.9671 7.99795 25.8155 8.55745 25.7067 9.23348C25.598 9.90951 25.5416 10.7293 25.5397 11.6889V17.0778C25.5416 18.0355 25.598 18.8553 25.7067 19.5372C25.8155 20.2132 25.9671 20.7765 26.1671 21.2272C26.3634 21.676 26.5965 22.0295 26.8665 22.2918C27.1326 22.556 27.424 22.7522 27.7446 22.8765C28.0651 23.0028 28.3992 23.0883 28.7489 23.1271C29.0986 23.164 29.4541 23.1796 29.8173 23.1757C30.1825 23.1796 30.538 23.164 30.8877 23.1271C31.2374 23.0883 31.5696 23.0047 31.8901 22.8765C32.2068 22.7522 32.4982 22.556 32.7701 22.2918C33.0382 22.0295 33.2694 21.676 33.4675 21.2272C33.6657 20.7765 33.8191 20.2151 33.9279 19.5372C34.0367 18.8553 34.0931 18.0355 34.095 17.0778V11.6889C34.0931 10.7293 34.0367 9.91145 33.9279 9.23348C33.8191 8.55939 33.6657 7.99795 33.4675 7.55697C33.2694 7.11211 33.0382 6.76246 32.7701 6.50603C32.5001 6.24572 32.2068 6.05729 31.8901 5.93491C31.5696 5.81447 31.2355 5.73677 30.8877 5.7018C30.538 5.66878 30.1806 5.6532 29.8173 5.65708ZM29.8173 9.22181C30.1553 9.21404 30.4351 9.24317 30.6565 9.30339C30.8741 9.36749 31.047 9.50155 31.1713 9.70747C31.2937 9.91144 31.3831 10.2281 31.4317 10.6555C31.4822 11.0829 31.5074 11.652 31.5055 12.3727V16.3707C31.5074 17.0933 31.4822 17.6742 31.4317 18.1093C31.3831 18.5425 31.2937 18.8708 31.1713 19.0865C31.047 19.304 30.8722 19.4478 30.6565 19.5177C30.4351 19.5876 30.1573 19.6187 29.8173 19.6129C29.4793 19.6187 29.2015 19.5876 28.982 19.5138C28.7625 19.4419 28.5915 19.2962 28.4653 19.0767C28.3429 18.8553 28.2555 18.5289 28.205 18.0918C28.1545 17.6528 28.1292 17.0719 28.1292 16.3473V12.4194C28.1273 11.6948 28.1545 11.1178 28.205 10.6866C28.2555 10.2534 28.3409 9.93283 28.4653 9.72302C28.5896 9.51128 28.7625 9.37527 28.982 9.30922C29.2015 9.24511 29.4813 9.21404 29.8173 9.22376V9.22181ZM23.9351 19.3817H18.4219C18.42 18.9252 18.4472 18.5639 18.5016 18.2977C18.554 18.0316 18.6453 17.8257 18.7677 17.6858C18.8901 17.5401 19.0571 17.4216 19.2631 17.3303C19.4709 17.2429 19.7235 17.1477 20.0304 17.0448C20.3334 16.9418 20.6928 16.8019 21.1086 16.6193C21.5379 16.429 21.9109 16.2308 22.2275 16.0327C22.5461 15.8345 22.8161 15.6053 23.0318 15.3469C23.2513 15.0847 23.4242 14.77 23.5582 14.395C23.6903 14.0221 23.7874 13.5655 23.8457 13.0235C23.9079 12.4835 23.937 11.8288 23.9331 11.0673C23.9331 10.1076 23.869 9.30536 23.7427 8.65264C23.6184 8.00186 23.4397 7.47733 23.2027 7.07715C22.9676 6.68085 22.684 6.37588 22.3518 6.16996C22.0216 5.9621 21.6467 5.82419 21.2348 5.75037C20.8172 5.67849 20.3723 5.64741 19.8886 5.65324C19.3641 5.64935 18.8881 5.69013 18.4588 5.78144C18.0295 5.87274 17.6546 6.03398 17.3282 6.26709C17.0019 6.49632 16.7241 6.81879 16.5026 7.23646C16.2811 7.65218 16.1121 8.18834 15.9995 8.83523C15.8848 9.48795 15.8266 10.2747 15.8266 11.2033V12.0483H18.418V11.2266C18.4161 10.774 18.4355 10.4126 18.4744 10.1426C18.5093 9.87064 18.5793 9.66864 18.6842 9.53654C18.7852 9.4025 18.9348 9.31506 19.131 9.27232C19.3233 9.23153 19.5758 9.21209 19.8866 9.21792C20.1606 9.21209 20.3898 9.23153 20.5763 9.27815C20.7628 9.32478 20.9123 9.41023 21.0231 9.54427C21.1357 9.67831 21.2173 9.87258 21.264 10.1309C21.3164 10.3893 21.3397 10.7332 21.3378 11.1586C21.3397 11.4752 21.332 11.7414 21.3164 11.959C21.2989 12.1766 21.2601 12.3572 21.1979 12.5048C21.1338 12.6486 21.0347 12.7749 20.8968 12.8837C20.7608 12.9905 20.5763 13.0934 20.3412 13.1964C20.1062 13.2955 19.805 13.4101 19.4437 13.5364C18.8221 13.7539 18.2956 13.9734 17.8663 14.2066C17.437 14.4377 17.0873 14.7019 16.8192 14.9953C16.5492 15.2886 16.3414 15.6344 16.1976 16.0346C16.0519 16.4309 15.9548 16.9049 15.8984 17.4508C15.846 17.9986 15.8207 18.6435 15.8227 19.3837V22.9484H23.9273V19.3837L23.9351 19.3817Z" fill="black"/>
</svg>
