<svg width="55" height="55" viewBox="0 0 55 55" fill="none" xmlns="http://www.w3.org/2000/svg">
<path fill-rule="evenodd" clip-rule="evenodd" d="M0.258392 0.316406H54.1429V54.2009H0.258392V0.316406ZM7.48884 32.3367L2.30592 15.875H5.49376L8.77485 27.756L11.6053 15.875H14.5444L9.81998 33.275C9.23137 35.3964 8.66024 36.8922 8.11242 37.7566C7.56072 38.6191 6.90023 39.0504 6.13289 39.0504C5.39275 39.0504 4.73226 38.9552 4.15336 38.7687V35.342C4.62153 35.3847 4.98091 35.406 5.2218 35.406C5.90949 35.406 6.3932 35.2138 6.67294 34.8369C6.94879 34.4542 7.22075 33.6228 7.48884 32.3387V32.3367ZM14.5406 38.7609L19.4165 26.8177L14.9971 15.875H18.317L21.0989 22.7052L23.8865 15.875H27.187L22.7715 26.8119L27.6436 38.7609H24.244L21.0969 30.9672L17.9499 38.7609H14.5425H14.5406ZM37.143 38.7609V19.7427H32.9197V29.5296C32.9197 32.0764 32.8634 33.9627 32.7507 35.1826C32.6361 36.4084 32.3602 37.3351 31.9193 37.9684C31.4744 38.6037 30.7595 38.9222 29.7668 38.9222C29.4793 38.9222 28.8829 38.8697 27.9757 38.7687V35.1516H28.5954C29.2074 35.1516 29.6075 35.0195 29.7999 34.7533C29.9922 34.4852 30.0893 33.8306 30.0893 32.7816V15.8788H39.9753V38.7668H37.143V38.7609ZM51.4504 34.7009V38.7609H41.9957C42.0967 37.2204 42.4075 35.7616 42.9242 34.3765C43.4429 32.9856 44.4511 31.1711 45.947 28.9099C47.132 27.1149 47.8585 25.9008 48.1305 25.2656C48.5365 24.3389 48.7385 23.4123 48.7385 22.474C48.7385 21.4774 48.5695 20.7257 48.2392 20.2148C47.9032 19.7077 47.4641 19.4533 46.9183 19.4533C45.7313 19.4533 45.0864 20.646 44.9951 23.0335L42.3065 22.5537C42.4697 20.2303 42.9534 18.5266 43.7615 17.4387C44.5696 16.3528 45.6458 15.8088 46.9901 15.8088C48.4646 15.8088 49.5777 16.4499 50.3256 17.7262C51.0735 19.0064 51.4504 20.4692 51.4504 22.1263C51.4504 23.0646 51.3552 23.9698 51.1629 24.8498C50.9745 25.7279 50.6792 26.6137 50.2829 27.5015C49.8827 28.3912 49.2242 29.5257 48.2956 30.905C47.4311 32.2046 46.8833 33.0633 46.6502 33.4848C46.4229 33.9006 46.2345 34.3046 46.0946 34.699H51.4504V34.7009Z" fill="black"/>
</svg>
