<svg width="55" height="55" viewBox="0 0 55 55" fill="none" xmlns="http://www.w3.org/2000/svg">
<path fill-rule="evenodd" clip-rule="evenodd" d="M0.819763 0.155609H54.7042V54.04H0.819763V0.155609ZM20.8094 23.9547H11.5139C11.6207 22.4705 11.9432 21.0679 12.4833 19.7586C13.0233 18.4454 14.0354 16.8971 15.5196 15.1138C16.4287 14.0201 17.0096 13.1906 17.266 12.6233C17.5205 12.0561 17.6468 11.516 17.6468 11.0071C17.6468 10.4573 17.5224 9.98525 17.2699 9.59478C17.0174 9.20237 16.7027 9.01005 16.32 9.01005C15.9237 9.01005 15.5992 9.2121 15.3486 9.61617C15.098 10.0241 14.929 10.7351 14.8416 11.7628L11.7431 11.3548C11.8655 9.93669 12.0889 8.83327 12.4133 8.03874C12.7378 7.2442 13.1943 6.63813 13.7829 6.21269C14.3754 5.78726 15.1913 5.57745 16.2364 5.57745C17.3262 5.57745 18.1713 5.77951 18.7793 6.18357C19.3835 6.58375 19.8614 7.20151 20.2071 8.0349C20.5549 8.87217 20.7297 9.80656 20.7297 10.842C20.7297 11.9396 20.5296 12.9925 20.1333 13.9968C19.7351 14.9992 19.0124 16.1007 17.9615 17.2992C17.3379 17.9967 16.9222 18.4901 16.7104 18.7679C16.5006 19.0496 16.2539 19.4109 15.9683 19.8654H20.8074V23.9547H20.8094ZM27.457 20.5725H21.8215V16.4445L27.457 5.57551H30.1495V16.6834H31.5501V20.5725H30.1495V23.9547H27.457V20.5725ZM27.457 16.6834V10.9779L24.4809 16.6834H27.457ZM31.925 5.87857H35.5247L38.0365 18.8883L40.5134 5.87857H44.0082L39.8684 23.9547H36.1367L31.925 5.87857ZM16.5045 31.1113H21.6253C22.6315 31.1113 23.4494 31.3347 24.0691 31.7757C24.6907 32.2225 25.2036 32.8557 25.6115 33.6852C26.0156 34.5186 26.3089 35.4822 26.4896 36.5856C26.6741 37.6871 26.7654 38.8526 26.7654 40.0862C26.7654 42.0172 26.6314 43.5149 26.3575 44.5795C26.0875 45.644 25.7106 46.5357 25.2288 47.2545C24.7451 47.9752 24.2303 48.4531 23.6767 48.6939C22.921 49.0222 22.2352 49.1874 21.6233 49.1874H16.5026V31.1113H16.5045ZM19.9449 35.2005V45.0729H20.7899C21.5126 45.0729 22.0254 44.9428 22.3324 44.6844C22.6354 44.4241 22.8744 43.9734 23.0473 43.3304C23.2201 42.6835 23.3076 41.6403 23.3076 40.193C23.3076 38.2776 23.1152 36.9702 22.7287 36.2631C22.3421 35.556 21.701 35.2024 20.8055 35.2024H19.9429L19.9449 35.2005ZM35.9948 41.7899L39.0156 43.2682C38.8136 44.6397 38.4931 45.7878 38.054 46.7047C37.6189 47.6255 37.0788 48.3209 36.43 48.7872C35.785 49.2534 34.9614 49.4904 33.9629 49.4904C32.7487 49.4904 31.7599 49.2048 30.9887 48.6376C30.2194 48.0645 29.5589 47.0583 29.0014 45.6246C28.4439 44.191 28.1622 42.3474 28.1622 40.1076C28.1622 37.1198 28.6517 34.8236 29.6327 33.2151C30.6157 31.6125 32.0047 30.8083 33.7997 30.8083C35.2042 30.8083 36.3095 31.2667 37.1138 32.1875C37.9161 33.1102 38.5144 34.5225 38.9049 36.4341L35.8686 37.5239C35.7637 36.978 35.651 36.5778 35.5344 36.3253C35.3402 35.8998 35.1032 35.5735 34.8254 35.3462C34.5456 35.115 34.2329 35.0004 33.889 35.0004C33.1062 35.0004 32.5059 35.5094 32.0902 36.5234C31.7774 37.2772 31.6181 38.4641 31.6181 40.0745C31.6181 42.0774 31.8065 43.445 32.1815 44.191C32.5583 44.9311 33.0848 45.3002 33.7628 45.3002C34.4233 45.3002 34.9206 45.001 35.2566 44.4008C35.5947 43.8024 35.8394 42.9321 35.991 41.7918L35.9948 41.7899ZM4.49521 26.1517H51.0249V28.0381H4.49521V26.1517Z" fill="black"/>
</svg>
