<svg width="54" height="55" viewBox="0 0 54 55" fill="none" xmlns="http://www.w3.org/2000/svg">
<path fill-rule="evenodd" clip-rule="evenodd" d="M0 0.876648H53.8845V54.7611H0V0.876648ZM32.5642 7.06196H29.2753L25.4367 10.2381L27.0258 12.037L29.7532 9.54851V17.6026H32.5642V7.06001V7.06196ZM9.76557 16.7207L10.8437 15.8174C10.2745 14.7897 9.95206 13.6105 9.95206 12.3556C9.95206 10.3838 10.7524 8.59857 12.0481 7.3009L12.052 7.29896L12.054 7.29507C13.3497 5.99934 15.1369 5.19898 17.1087 5.19898C18.8124 5.19898 20.3781 5.79537 21.6078 6.78999L23.395 5.29029L25.122 7.35335L23.3464 8.84334C23.9312 9.8807 24.2653 11.0793 24.2653 12.3556C24.2653 14.3274 23.463 16.1165 22.1712 17.4103L22.1653 17.4161C20.8715 18.7099 19.0824 19.5103 17.1106 19.5103C15.3856 19.5103 13.8023 18.8984 12.5688 17.8843L11.4945 18.7857L9.76751 16.7226L9.76557 16.7207ZM12.9728 14.0301L19.4787 8.57332C18.791 8.14206 17.979 7.89146 17.1087 7.89146C15.8732 7.89146 14.7581 8.38877 13.9539 9.19302L13.948 9.19884C13.1438 10.0011 12.6465 11.1182 12.6465 12.3537C12.6465 12.9462 12.763 13.5134 12.9728 14.0301ZM21.2193 10.6228L14.6882 16.101C15.3856 16.5517 16.217 16.8139 17.1067 16.8139C18.3384 16.8139 19.4534 16.3166 20.2616 15.5124L20.2674 15.5065C21.0697 14.6984 21.5689 13.5833 21.5689 12.3517C21.5689 11.7378 21.4446 11.1531 21.2193 10.6208V10.6228ZM39.6625 15.5512C39.3692 15.5532 39.1322 15.5357 38.9515 15.4968C38.7728 15.4599 38.6388 15.3939 38.5436 15.3026C38.4503 15.2113 38.3882 15.0869 38.3552 14.9276C38.3221 14.7683 38.3085 14.5702 38.3105 14.3293C38.3105 14.1234 38.3318 13.9602 38.3746 13.8339C38.4173 13.7096 38.4911 13.6164 38.5941 13.5523C38.6971 13.4901 38.835 13.4493 39.0118 13.4279C39.1847 13.4066 39.4022 13.3969 39.6606 13.4007C39.9695 13.3988 40.2317 13.4027 40.4474 13.4163C40.6649 13.4279 40.8398 13.461 40.9738 13.5154C41.1098 13.5659 41.205 13.6533 41.2691 13.7737C41.3312 13.8942 41.3604 14.0593 41.3604 14.273C41.3623 14.5585 41.3468 14.7878 41.306 14.9587C41.2652 15.1297 41.1894 15.2579 41.0748 15.3453C40.9583 15.4308 40.7854 15.4871 40.56 15.5143C40.3327 15.5415 40.0316 15.5551 39.6606 15.5512H39.6625ZM44.117 10.2809V9.8302C44.115 9.28432 44.0432 8.83363 43.8975 8.47813C43.7518 8.12457 43.5497 7.84289 43.2914 7.63697C43.031 7.42911 42.728 7.27759 42.3822 7.1824C42.0345 7.08721 41.6576 7.0231 41.2535 6.99785C40.8456 6.97065 40.424 6.96094 39.987 6.96288C39.3789 6.96094 38.8369 6.98814 38.3649 7.04836C37.8947 7.10664 37.4868 7.21348 37.1449 7.36889C36.803 7.5243 36.5213 7.74576 36.3037 8.03133C36.0842 8.31689 35.921 8.68405 35.8142 9.13668C35.7093 9.58542 35.6568 10.1371 35.6568 10.786V13.4279C35.6549 14.135 35.6938 14.7431 35.7773 15.2423C35.8569 15.7435 35.9968 16.1593 36.1852 16.4837C36.3776 16.81 36.6398 17.0645 36.9701 17.2491C37.3003 17.4317 37.7121 17.5599 38.2095 17.6357C38.7068 17.7114 39.2993 17.7464 39.987 17.7425C40.5251 17.7464 41.0127 17.7172 41.4439 17.659C41.8732 17.6026 42.2501 17.4997 42.5726 17.352C42.8951 17.2044 43.1612 17.0004 43.3768 16.7362C43.5905 16.472 43.7518 16.134 43.8605 15.7202C43.9654 15.3103 44.0198 14.813 44.0198 14.2283C44.0198 13.6824 43.9674 13.2278 43.8683 12.8626C43.7654 12.4955 43.6158 12.2021 43.4118 11.9807C43.2098 11.7592 42.9592 11.5941 42.6581 11.4814C42.3589 11.3688 42.0073 11.2969 41.609 11.258C41.2108 11.2211 40.764 11.2036 40.2686 11.2056C40.0413 11.2036 39.8277 11.2114 39.6334 11.2308C39.4391 11.2503 39.2624 11.293 39.1031 11.3629C38.9438 11.4309 38.802 11.5378 38.6757 11.6854C38.5514 11.833 38.4465 12.0331 38.3571 12.2876H38.3144V10.6286C38.3105 10.2789 38.3396 10.005 38.3959 9.803C38.4523 9.60485 38.5436 9.45721 38.6699 9.36397C38.8 9.27072 38.969 9.21244 39.1847 9.18524C39.4003 9.15999 39.6684 9.14833 39.987 9.15222C40.2473 9.15027 40.4707 9.15999 40.6533 9.17942C40.8378 9.19884 40.9913 9.24546 41.1078 9.31734C41.2244 9.39116 41.3099 9.50189 41.3662 9.65536C41.4226 9.80689 41.4478 10.0128 41.4478 10.277H44.1189L44.117 10.2809ZM23.2843 40.6344H26.1244V38.1886H17.6351V40.6344H20.4752V48.7312H23.2862V40.6344H23.2843ZM27.5716 38.1886V44.0922H29.9883C30.0388 43.9252 30.1087 43.8067 30.2039 43.7309C30.2971 43.659 30.4331 43.6105 30.6119 43.593C30.7906 43.5774 31.0276 43.5697 31.3248 43.5716C31.7133 43.5697 32.0203 43.593 32.2437 43.6396C32.4671 43.6901 32.6302 43.7736 32.7313 43.8941C32.8342 44.0165 32.8983 44.1855 32.9236 44.4011C32.9488 44.6187 32.9605 44.8945 32.9566 45.2306C32.9585 45.5686 32.9313 45.8348 32.877 46.0329C32.8206 46.2291 32.7313 46.3748 32.6069 46.4661C32.4826 46.5594 32.3175 46.6176 32.1077 46.6448C31.8998 46.6701 31.6434 46.6817 31.3384 46.6798C31.1402 46.6817 30.9635 46.672 30.8042 46.6546C30.6449 46.639 30.507 46.5943 30.3904 46.5341C30.2738 46.47 30.1806 46.3748 30.1126 46.2466C30.0446 46.1164 30.0019 45.9436 29.9883 45.724H27.3172C27.3172 46.3632 27.4046 46.8877 27.5794 47.3014C27.7543 47.7133 28.0107 48.0338 28.3526 48.2631C28.6925 48.4903 29.1122 48.6516 29.6133 48.7409C30.1126 48.8322 30.6876 48.8769 31.3384 48.8711C31.9464 48.875 32.4865 48.8458 32.9547 48.7856C33.4209 48.7234 33.825 48.6147 34.161 48.4554C34.4952 48.2941 34.773 48.0668 34.9847 47.7735C35.1984 47.4782 35.3557 47.0994 35.4587 46.6351C35.5617 46.1708 35.6102 45.6055 35.6102 44.9373C35.6122 44.3254 35.5617 43.8028 35.4548 43.3657C35.3499 42.9267 35.1673 42.5692 34.9206 42.2895C34.67 42.0117 34.33 41.8058 33.9027 41.6756C33.4772 41.5435 32.9449 41.4775 32.3078 41.4794C31.9775 41.4775 31.7036 41.4813 31.4802 41.4949C31.2587 41.5066 31.0703 41.5377 30.911 41.5863C30.7517 41.6329 30.6021 41.7106 30.4603 41.8155C30.3166 41.9204 30.1612 42.0661 29.9902 42.2506V40.2264H35.1906V38.1886H27.5716ZM6.54858 23.8151H11.4887L11.5003 22.5291L16.5201 22.4961V23.8151H25.8952H27.9835H31.6278V22.4961L43.2991 22.5291L43.3108 23.8151H47.332C48.0799 23.8365 49.0765 25.6859 49.0571 26.5873C49.4106 26.6203 49.838 26.6222 49.838 26.7271L49.8438 30.5133L49.1989 30.5386C49.2824 31.5235 48.3441 32.9474 47.332 33.4428H43.6896L43.6838 34.3247L36.5679 34.3306L36.5951 33.4428H27.9854H25.8971H20.0459L20.0731 34.3306L11.4634 34.3247L11.4576 33.4428H6.55053C5.53842 32.9474 4.60013 31.5235 4.68366 30.5386L4.03871 30.5133L4.04454 26.7271C4.04454 26.6222 4.47192 26.6203 4.82548 26.5873C4.80605 25.6839 5.80262 23.8365 6.55053 23.8151H6.54858ZM6.72148 25.6024H11.3197V31.7702H6.72148V25.6024ZM47.3476 31.7702H42.7494V25.6024H47.3476V31.7702ZM40.6824 31.7702H31.1558C31.3539 31.7702 28.9587 30.7522 28.9587 29.2389C28.9587 28.6406 29.8834 28.0267 29.8834 27.4284C29.8834 26.8145 28.9587 26.2143 28.9587 25.6004H40.6824V31.7682V31.7702ZM13.3866 25.6024H22.9132C22.7151 25.6024 25.1103 26.6203 25.1103 28.1336C25.1103 28.7319 24.1857 29.3458 24.1857 29.9441C24.1857 30.558 25.1103 31.1583 25.1103 31.7721H13.3866V25.6043V25.6024Z" fill="#727272"/>
</svg>
